<svg width="64" height="64" viewBox="0 0 64 64" fill="none" xmlns="http://www.w3.org/2000/svg">
<g clip-path="url(#clip0_216_5010)">
<path d="M56.0098 0H8.00977C3.59149 0 0.00976562 3.58172 0.00976562 8V56C0.00976562 60.4183 3.59149 64 8.00977 64H56.0098C60.428 64 64.0098 60.4183 64.0098 56V8C64.0098 3.58172 60.428 0 56.0098 0Z" fill="black"/>
<path d="M43.0625 16.9375C43.0625 16.4197 42.6428 16 42.125 16H19.8745C19.3568 16 18.937 16.4197 18.937 16.9375V47.0625C18.937 47.5802 19.3568 48 19.8745 48H42.125C42.6428 48 43.0625 47.5802 43.0625 47.0625V16.9375ZM37.4375 43.3125V46.125H24.5625V43.3125C24.5625 42.7948 24.1428 42.375 23.625 42.375H20.812V21.625H23.6251C24.1428 21.625 24.5626 21.2052 24.5626 20.6875V17.875H37.4376V20.6875C37.4376 21.2052 37.8573 21.625 38.3751 21.625H41.187V42.375H38.3751C37.8573 42.375 37.4375 42.7948 37.4375 43.3125ZM41.1869 17.875V19.75H39.3125V17.875H41.1869ZM22.6876 17.875V19.75H20.8126V17.875H22.6876ZM20.8126 46.125V44.25H22.6876V46.125H20.8126ZM39.3125 46.125V44.25H41.1869V46.125H39.3125Z" fill="white"/>
<path d="M26.6983 30.0891C26.6021 30.4953 26.5982 30.9209 26.6911 31.3419C26.8573 32.0946 27.333 32.7533 27.9964 33.1491C28.9575 33.7223 30.1234 33.6599 30.9993 33.0744C31.4633 33.3845 32.0083 33.5478 32.5613 33.5478C33.0527 33.5478 33.5503 33.4188 34.0025 33.149C34.6657 32.7534 35.1415 32.0948 35.3077 31.3423C35.4007 30.9213 35.3968 30.4956 35.3006 30.0892C36.0938 29.468 36.5189 28.4435 36.3393 27.3975C36.2123 26.6571 35.8043 26.0105 35.191 25.5768C34.7503 25.2653 34.2415 25.0905 33.7152 25.0638C32.9459 22.3072 29.052 22.3091 28.2838 25.0638C25.6817 25.2143 24.6728 28.4943 26.6983 30.0891ZM27.5075 27.7147C27.5499 27.4679 27.6858 27.2524 27.8903 27.1078C28.0948 26.9633 28.3433 26.907 28.5898 26.9493C28.6631 26.9619 28.7435 26.9842 28.8288 27.0155C29.1402 27.1296 29.4887 27.0709 29.7453 26.8609C30.002 26.651 30.1287 26.321 30.0784 25.9932C29.9622 25.415 30.4063 24.854 30.9995 24.8589C31.5927 24.854 32.0368 25.4152 31.9205 25.9933C31.8703 26.3211 31.997 26.6511 32.2537 26.8611C32.5105 27.0711 32.8592 27.1298 33.1703 27.0155C33.2555 26.9841 33.3358 26.962 33.4088 26.9493C33.6556 26.9073 33.9041 26.9633 34.1086 27.1078C34.313 27.2523 34.449 27.4679 34.4914 27.7147C34.5716 28.1819 34.2905 28.636 33.8376 28.7711C33.551 28.8565 33.3223 29.0737 33.2221 29.3556C33.122 29.6375 33.1623 29.9503 33.3308 30.1975C33.4815 30.4186 33.5333 30.6816 33.4768 30.9379C33.4208 31.1915 33.2663 31.4049 33.0418 31.5388C32.6112 31.7955 32.0573 31.67 31.7809 31.2526C31.4268 30.6977 30.5718 30.6978 30.2178 31.2526C29.9414 31.6699 29.3875 31.7956 28.9569 31.5388C28.7325 31.4048 28.578 31.1914 28.522 30.9377C28.4654 30.6814 28.5172 30.4186 28.6678 30.1976C28.8363 29.9505 28.8768 29.6376 28.7767 29.3557C28.6766 29.0738 28.4479 28.8566 28.1612 28.7711C27.7084 28.636 27.4273 28.1819 27.5075 27.7147Z" fill="white"/>
<path d="M30.9995 29.6092C31.5173 29.6092 31.937 29.1895 31.937 28.6717V28.6406C31.8909 27.398 30.1077 27.3989 30.062 28.6406V28.6717C30.062 29.1895 30.4818 29.6092 30.9995 29.6092Z" fill="white"/>
<path d="M37.3125 35.3906H24.6865C23.4439 35.4367 23.4448 37.2199 24.6865 37.2656H37.3125C38.555 37.2195 38.5541 35.4363 37.3125 35.3906Z" fill="white"/>
<path d="M34.7325 39.1406H27.267C26.0245 39.1867 26.0254 40.9699 27.267 41.0156H34.7325C35.9751 40.9695 35.9741 39.1863 34.7325 39.1406Z" fill="white"/>
</g>
<defs>
<clipPath id="clip0_216_5010">
<rect width="64" height="64" fill="white" transform="translate(0.00976562)"/>
</clipPath>
</defs>
</svg>
