<svg width="64" height="64" viewBox="0 0 64 64" fill="none" xmlns="http://www.w3.org/2000/svg">
<g clip-path="url(#clip0_216_4995)">
<path d="M56.0098 0H8.00977C3.59149 0 0.00976562 3.58172 0.00976562 8V56C0.00976562 60.4183 3.59149 64 8.00977 64H56.0098C60.428 64 64.0098 60.4183 64.0098 56V8C64.0098 3.58172 60.428 0 56.0098 0Z" fill="black"/>
<g clip-path="url(#clip1_216_4995)">
<path d="M31 16C22.1776 16 15 23.1776 15 32C15 40.8224 22.1776 48 31 48C39.8224 48 47 40.8224 47 32C47 23.1776 39.8224 16 31 16ZM41.6238 41.298L40.1838 39.858C39.8177 39.4919 39.2241 39.4919 38.8579 39.858C38.4918 40.2241 38.4918 40.8177 38.8579 41.1838L40.2979 42.6238C37.8118 44.8024 34.5576 46.125 31 46.125C27.4424 46.125 24.1882 44.8024 21.702 42.6238L23.142 41.1838C23.5081 40.8176 23.5081 40.2241 23.142 39.8579C22.7759 39.4918 22.1823 39.4918 21.8162 39.8579L20.3762 41.2979C18.3906 39.032 17.117 36.1278 16.9069 32.9375H18.95C19.4678 32.9375 19.8875 32.5177 19.8875 32C19.8875 31.4823 19.4678 31.0625 18.95 31.0625H16.9069C17.117 27.8722 18.3906 24.968 20.3762 22.702L21.8162 24.142C22.1823 24.5081 22.7759 24.5081 23.1421 24.142C23.5082 23.7759 23.5082 23.1823 23.1421 22.8162L21.7021 21.3762C23.9681 19.3905 26.8722 18.1165 30.0625 17.9063V19.95C30.0625 20.4678 30.4823 20.8875 31 20.8875C31.5177 20.8875 31.9375 20.4678 31.9375 19.95V17.9063C35.1278 18.1165 38.0319 19.3905 40.2979 21.3762L38.8579 22.8162C38.4918 23.1823 38.4918 23.7759 38.8579 24.142C39.224 24.5081 39.8176 24.5081 40.1838 24.142L41.6238 22.702C43.6094 24.968 44.883 27.8722 45.0931 31.0625H43.05C42.5322 31.0625 42.1125 31.4823 42.1125 32C42.1125 32.5177 42.5322 32.9375 43.05 32.9375H45.0931C44.883 36.1278 43.6094 39.032 41.6238 41.298Z" fill="white"/>
<path d="M34.0123 40.0996H27.9873C27.4696 40.0996 27.0498 40.5194 27.0498 41.0371C27.0498 41.5549 27.4696 41.9746 27.9873 41.9746H34.0123C34.5301 41.9746 34.9498 41.5549 34.9498 41.0371C34.9498 40.5194 34.5301 40.0996 34.0123 40.0996Z" fill="white"/>
<path d="M33.0828 29.9171C31.9343 28.7686 30.0653 28.7685 28.9168 29.9171C27.4319 31.4019 24.7785 36.6659 24.4808 37.2612C24.3004 37.6222 24.3711 38.0581 24.6564 38.3434C24.9418 38.6287 25.3777 38.6995 25.7386 38.5191C26.3339 38.2214 31.598 35.568 33.0828 34.0832C34.2314 32.9346 34.2314 31.0657 33.0828 29.9171ZM31.757 32.7574C31.0966 33.4178 29.2449 34.5157 27.5564 35.4436C28.4843 33.7551 29.5822 31.9034 30.2426 31.2429C30.6601 30.8254 31.3395 30.8254 31.7571 31.2429C32.1745 31.6605 32.1745 32.3399 31.757 32.7574Z" fill="white"/>
</g>
</g>
<defs>
<clipPath id="clip0_216_4995">
<rect width="64" height="64" fill="white" transform="translate(0.00976562)"/>
</clipPath>
<clipPath id="clip1_216_4995">
<rect width="32" height="32" fill="white" transform="translate(15 16)"/>
</clipPath>
</defs>
</svg>
