<svg width="65" height="64" viewBox="0 0 65 64" fill="none" xmlns="http://www.w3.org/2000/svg">
<g clip-path="url(#clip0_216_5020)">
<path d="M56.3298 0H8.32983C3.91156 0 0.329834 3.58172 0.329834 8V56C0.329834 60.4183 3.91156 64 8.32983 64H56.3298C60.7481 64 64.3298 60.4183 64.3298 56V8C64.3298 3.58172 60.7481 0 56.3298 0Z" fill="black"/>
<g clip-path="url(#clip1_216_5020)">
<path d="M41.3652 27.9205C41.1479 27.7425 40.8623 27.6712 40.5869 27.7261C34.7087 28.9019 30.4583 34.0714 30.4583 40.0811V42.7081H20.0208C19.5029 42.7081 19.0833 43.1278 19.0833 43.6456C19.0833 44.1634 19.5029 44.5831 20.0208 44.5831H31.3958C31.9136 44.5831 32.3333 44.1634 32.3333 43.6456V42.5152C34.6711 41.8995 36.7563 40.6405 38.4009 38.8443C38.6306 38.5933 38.7063 38.2376 38.5986 37.9146L38.3215 37.0831H39.2207C39.5562 37.0831 39.866 36.9039 40.0332 36.6131C41.1292 34.7081 41.7083 32.5372 41.7083 30.3348V28.6456C41.7083 28.3648 41.5823 28.0987 41.3652 27.9205ZM39.8333 30.335C39.8333 32.0308 39.4299 33.7044 38.6628 35.2081H37.0208C36.7195 35.2081 36.4363 35.3529 36.2603 35.5975C36.084 35.8419 36.0361 36.1561 36.1313 36.442L36.6406 37.97C35.4236 39.1734 33.9573 40.0555 32.3333 40.5645V40.0811C32.3333 35.3763 35.4253 31.2445 39.8333 29.8529V30.335Z" fill="white"/>
<path d="M44.5208 16.333H18.1458C16.595 16.333 15.3333 17.5947 15.3333 19.1455V45.5205C15.3333 47.0713 16.595 48.333 18.1458 48.333H44.5208C46.0715 48.333 47.3333 47.0713 47.3333 45.5205V19.1455C47.3333 17.5947 46.0715 16.333 44.5208 16.333ZM18.1458 18.208H44.5208C45.0376 18.208 45.4583 18.6287 45.4583 19.1455V23.833H17.2083V19.1455C17.2083 18.6287 17.6289 18.208 18.1458 18.208ZM44.5208 46.458H18.1458C17.6289 46.458 17.2083 46.0374 17.2083 45.5205V25.708H45.4583V45.5205C45.4583 46.0374 45.0376 46.458 44.5208 46.458Z" fill="white"/>
<path d="M20.9565 21.0205C20.9565 21.5383 20.5366 21.958 20.019 21.958C19.5012 21.958 19.0815 21.5383 19.0815 21.0205C19.0815 20.5027 19.5012 20.083 20.019 20.083C20.5366 20.083 20.9565 20.5027 20.9565 21.0205Z" fill="white"/>
<path d="M24.7065 21.0205C24.7065 21.5383 24.2866 21.958 23.769 21.958C23.2512 21.958 22.8315 21.5383 22.8315 21.0205C22.8315 20.5027 23.2512 20.083 23.769 20.083C24.2866 20.083 24.7065 20.5027 24.7065 21.0205Z" fill="white"/>
<path d="M28.4565 21.0205C28.4565 21.5383 28.0366 21.958 27.519 21.958C27.0012 21.958 26.5815 21.5383 26.5815 21.0205C26.5815 20.5027 27.0012 20.083 27.519 20.083C28.0366 20.083 28.4565 20.5027 28.4565 21.0205Z" fill="white"/>
<path d="M33.2708 21.958H42.6458C43.1636 21.958 43.5833 21.5383 43.5833 21.0205C43.5833 20.5027 43.1636 20.083 42.6458 20.083H33.2708C32.7529 20.083 32.3333 20.5027 32.3333 21.0205C32.3333 21.5383 32.7529 21.958 33.2708 21.958Z" fill="white"/>
</g>
</g>
<defs>
<clipPath id="clip0_216_5020">
<rect width="64" height="64" fill="white" transform="translate(0.329834)"/>
</clipPath>
<clipPath id="clip1_216_5020">
<rect width="32" height="32" fill="white" transform="translate(15.3333 16.333)"/>
</clipPath>
</defs>
</svg>
