<svg width="65" height="64" viewBox="0 0 65 64" fill="none" xmlns="http://www.w3.org/2000/svg">
<g clip-path="url(#clip0_216_5000)">
<path d="M56.6699 0H8.66992C4.25164 0 0.669922 3.58172 0.669922 8V56C0.669922 60.4183 4.25164 64 8.66992 64H56.6699C61.0882 64 64.6699 60.4183 64.6699 56V8C64.6699 3.58172 61.0882 0 56.6699 0Z" fill="black"/>
<g clip-path="url(#clip1_216_5000)">
<path d="M45.1875 16H18.8125C17.2617 16 16 17.2617 16 18.8125V37.5625C16 39.1133 17.2617 40.375 18.8125 40.375H27.9375V42.375H26.375C25.9715 42.375 25.6132 42.6332 25.4856 43.0161L24.2356 46.7661C24.0332 47.3731 24.4851 48 25.125 48H45.1875C46.7383 48 48 46.7383 48 45.1875V18.8125C48 17.2617 46.7383 16 45.1875 16ZM18.8125 38.5C18.2956 38.5 17.875 38.0794 17.875 37.5625V36.625H33.625V38.5H18.8125ZM33.625 40.375V42.375H29.8125V40.375H33.625ZM26.4257 46.125L27.0507 44.25H33.625V45.1875C33.625 45.5161 33.6822 45.8316 33.7862 46.125H26.4257ZM46.125 45.1875C46.125 45.7044 45.7044 46.125 45.1875 46.125H36.4375C35.9206 46.125 35.5 45.7044 35.5 45.1875V29.3258L39.1742 33H38.3125C37.7948 33 37.375 33.4198 37.375 33.9375C37.375 34.4552 37.7948 34.875 38.3125 34.875H41.4375C41.9552 34.875 42.375 34.4552 42.375 33.9375V30.8125C42.375 30.2948 41.9552 29.875 41.4375 29.875C40.9198 29.875 40.5 30.2948 40.5 30.8125V31.6742L36.8258 28H45.1875C45.7044 28 46.125 28.4206 46.125 28.9375V45.1875ZM46.125 26.2863C45.8316 26.1822 45.5162 26.125 45.1875 26.125H36.4375C34.8867 26.125 33.625 27.3867 33.625 28.9375V34.75H17.875V19.2008L21.5492 22.875H20.6875C20.1698 22.875 19.75 23.2948 19.75 23.8125C19.75 24.3302 20.1698 24.75 20.6875 24.75H23.8125C24.3302 24.75 24.75 24.3302 24.75 23.8125V20.6875C24.75 20.1698 24.3302 19.75 23.8125 19.75C23.2948 19.75 22.875 20.1698 22.875 20.6875V21.5492L19.2008 17.875H45.1875C45.7044 17.875 46.125 18.2956 46.125 18.8125V26.2863Z" fill="white"/>
</g>
</g>
<defs>
<clipPath id="clip0_216_5000">
<rect width="64" height="64" fill="white" transform="translate(0.669922)"/>
</clipPath>
<clipPath id="clip1_216_5000">
<rect width="32" height="32" fill="white" transform="translate(16 16)"/>
</clipPath>
</defs>
</svg>
