<svg width="65" height="64" viewBox="0 0 65 64" fill="none" xmlns="http://www.w3.org/2000/svg">
<g clip-path="url(#clip0_216_4975)">
<path d="M56.3298 0H8.32983C3.91156 0 0.329834 3.58172 0.329834 8V56C0.329834 60.4183 3.91156 64 8.32983 64H56.3298C60.7481 64 64.3298 60.4183 64.3298 56V8C64.3298 3.58172 60.7481 0 56.3298 0Z" fill="black"/>
<g clip-path="url(#clip1_216_4975)">
<path d="M31.8156 30.4891L30.4898 29.1633C30.1236 28.7971 29.5301 28.7971 29.164 29.1633C28.7979 29.5294 28.7979 30.123 29.164 30.4891L30.4898 31.8149C30.8559 32.181 31.4494 32.1811 31.8156 31.8149C32.1817 31.4488 32.1817 30.8552 31.8156 30.4891Z" fill="white"/>
<path d="M31.8154 35.7931C31.4493 35.427 30.8556 35.427 30.4896 35.7931L29.1638 37.119C28.7976 37.4851 28.7976 38.0786 29.1638 38.4448C29.5298 38.8109 30.1234 38.8109 30.4896 38.4448L31.8154 37.119C32.1815 36.7528 32.1815 36.1593 31.8154 35.7931Z" fill="white"/>
<path d="M29.4382 32.8799H27.5632C27.0455 32.8799 26.6257 33.2871 26.6257 33.8049C26.6257 34.3226 27.0455 34.7424 27.5632 34.7424H29.4382C29.956 34.7424 30.3757 34.3226 30.3757 33.8049C30.3757 33.2871 29.956 32.8799 29.4382 32.8799Z" fill="white"/>
<path d="M33.9375 26.626C33.4197 26.626 33 27.0457 33 27.5635V29.4385C33 29.9562 33.4197 30.376 33.9375 30.376C34.4553 30.376 34.875 29.9562 34.875 29.4385V27.5635C34.875 27.0457 34.4553 26.626 33.9375 26.626Z" fill="white"/>
<path d="M38.4448 29.1633C38.0787 28.7971 37.4851 28.7971 37.119 29.1633L35.7931 30.4891C35.427 30.8552 35.427 31.4488 35.7931 31.8149C36.1592 32.181 36.7528 32.181 37.119 31.8149L38.4448 30.4891C38.8109 30.123 38.8109 29.5294 38.4448 29.1633Z" fill="white"/>
<path d="M47.7254 43.7479L44.4108 40.4333L46.3995 38.4446C46.6292 38.2148 46.7237 37.8825 46.649 37.5662C46.582 37.2824 46.3871 37.0482 46.1249 36.9288V18.8125C46.1249 17.2617 44.8632 16 43.3124 16H18.8125C17.2617 16 16 17.2617 16 18.8125V39.5625C16 41.1133 17.2617 42.375 18.8125 42.375H35.6729L36.8923 46.0331C36.9951 46.3414 37.2501 46.5744 37.5663 46.6491C37.8827 46.7237 38.2149 46.6293 38.4446 46.3996L40.4334 44.4108L43.7479 47.7254C44.1138 48.0912 44.7077 48.0914 45.0737 47.7254L47.7254 45.0737C48.0915 44.7076 48.0915 44.114 47.7254 43.7479ZM38.625 17.875H43.3125C43.8294 17.875 44.25 18.2956 44.25 18.8125V21.625H38.625V17.875ZM17.875 18.8125C17.875 18.2956 18.2956 17.875 18.8125 17.875H36.75V21.625H17.875V18.8125ZM18.8125 40.5C18.2956 40.5 17.875 40.0794 17.875 39.5625V23.5H44.25V36.2979L34.1007 32.9148C33.7639 32.8026 33.3925 32.8902 33.1414 33.1413C32.8902 33.3924 32.8026 33.7638 32.9149 34.1007L35.048 40.5H18.8125ZM44.4109 45.7366L41.0963 42.4221C40.9205 42.2463 40.6821 42.1475 40.4334 42.1475C40.1848 42.1475 39.9464 42.2463 39.7706 42.4221L38.1915 44.0011L37.2442 41.1593C37.244 41.1586 37.2437 41.1579 37.2436 41.1572L35.2867 35.2865L44.0012 38.1914L42.4223 39.7704C42.0561 40.1366 42.0561 40.7301 42.4223 41.0962L45.7367 44.4108L44.4109 45.7366Z" fill="white"/>
</g>
</g>
<defs>
<clipPath id="clip0_216_4975">
<rect width="64" height="64" fill="white" transform="translate(0.329834)"/>
</clipPath>
<clipPath id="clip1_216_4975">
<rect width="32" height="32" fill="white" transform="translate(16 16)"/>
</clipPath>
</defs>
</svg>
