<svg width="65" height="64" viewBox="0 0 65 64" fill="none" xmlns="http://www.w3.org/2000/svg">
<g clip-path="url(#clip0_216_4960)">
<path d="M56.3298 0H8.32983C3.91156 0 0.329834 3.58172 0.329834 8V56C0.329834 60.4183 3.91156 64 8.32983 64H56.3298C60.7481 64 64.3298 60.4183 64.3298 56V8C64.3298 3.58172 60.7481 0 56.3298 0Z" fill="black"/>
<path d="M43 35.75V23.25C43 21.1823 41.3177 19.5 39.25 19.5H19.75C17.6823 19.5 16 21.1823 16 23.25V35.75C16 37.8177 17.6823 39.5 19.75 39.5H39.25C41.3177 39.5 43 37.8177 43 35.75ZM19.75 22H39.25C39.7288 22 40.1451 22.2709 40.3549 22.6672L30.1655 29.3085C29.967 29.4338 29.737 29.5 29.5 29.5C29.263 29.5 29.033 29.4338 28.8346 29.3086L18.6451 22.6672C18.8549 22.2709 19.2712 22 19.75 22ZM18.5 35.75V25.5568L27.4867 31.4141C28.0883 31.7974 28.7844 32 29.5 32C30.2155 32 30.9117 31.7974 31.5133 31.4141L40.5 25.5568V35.75C40.5 36.4393 39.9393 37 39.25 37H19.75C19.0608 37 18.5 36.4393 18.5 35.75ZM45.5 24.5V40.75C45.5 41.4393 44.9393 42 44.25 42H21V44.5H44.25C46.3177 44.5 48 42.8177 48 40.75V24.5H45.5Z" fill="white"/>
</g>
<defs>
<clipPath id="clip0_216_4960">
<rect width="64" height="64" fill="white" transform="translate(0.329834)"/>
</clipPath>
</defs>
</svg>
