<svg width="65" height="64" viewBox="0 0 65 64" fill="none" xmlns="http://www.w3.org/2000/svg">
<g clip-path="url(#clip0_216_4970)">
<path d="M56.6699 0H8.66992C4.25164 0 0.669922 3.58172 0.669922 8V56C0.669922 60.4183 4.25164 64 8.66992 64H56.6699C61.0882 64 64.6699 60.4183 64.6699 56V8C64.6699 3.58172 61.0882 0 56.6699 0Z" fill="black"/>
<g clip-path="url(#clip1_216_4970)">
<path d="M39.3897 32.6714L40.1752 31.886C40.1754 31.8857 40.1757 31.8855 40.1759 31.8852C40.1762 31.885 40.1764 31.8847 40.1767 31.8845L42.9474 29.1137C42.9476 29.1136 42.9478 29.1134 42.9479 29.1133C42.9481 29.1132 42.9482 29.113 42.9484 29.1128L45.7196 26.3416C45.7197 26.3415 45.7197 26.3414 45.7198 26.3414C45.7199 26.3413 45.7199 26.3412 45.72 26.3412L47.2422 24.819C47.7309 24.3304 48 23.6806 48 22.9896C48 22.2985 47.7308 21.6487 47.2422 21.1602L42.8399 16.7579C42.3513 16.2692 41.7016 16.0001 41.0105 16.0001C40.3194 16.0001 39.6697 16.2692 39.1811 16.7579L31.3286 24.6102L25.9986 19.2802C25.1064 18.388 23.9881 17.7529 22.7647 17.4436L17.1673 16.0286C16.8473 15.9477 16.5081 16.0411 16.2746 16.2747C16.0411 16.5081 15.9477 16.8472 16.0286 17.1673L17.4436 22.7647C17.7529 23.9881 18.388 25.1064 19.2803 25.9986L24.6103 31.3286L16.7577 39.181C16.2691 39.6697 16 40.3194 16 41.0104C16 41.7016 16.2691 42.3512 16.7578 42.8398L21.1601 47.2421C21.6488 47.7309 22.2985 48 22.9896 48C23.6807 48 24.3304 47.7309 24.819 47.2422L29.1113 42.9499C29.112 42.9493 29.1126 42.9486 29.1133 42.948C29.114 42.9474 29.1146 42.9467 29.1152 42.946L32.6714 39.3898L39.8902 46.6086C40.8163 47.5347 42.0328 47.9979 43.2494 47.9979C44.4659 47.9979 45.6824 47.5348 46.6086 46.6086C48.4609 44.7564 48.4609 41.7425 46.6086 39.8902L39.3897 32.6714ZM19.2614 22.3052L18.2316 18.2317L22.3051 19.2615C23.2008 19.4879 24.0195 19.9529 24.6728 20.6061L25.4119 21.3452L21.3451 25.412L20.606 24.6729C19.9527 24.0196 19.4878 23.2009 19.2614 22.3052ZM22.6709 26.7377L26.7377 22.671L30.0028 25.9361L25.936 30.0028L22.6709 26.7377ZM22.9896 46.125C22.7994 46.125 22.6206 46.0509 22.486 45.9164L18.0836 41.5141C17.9491 41.3796 17.8751 41.2007 17.8751 41.0104C17.8751 40.8202 17.9491 40.6413 18.0836 40.5067L40.5068 18.0836C40.6413 17.9491 40.8202 17.875 41.0105 17.875C41.2008 17.875 41.3796 17.9491 41.5141 18.0836L45.9164 22.486C46.0509 22.6204 46.1251 22.7993 46.1251 22.9896C46.1251 23.1798 46.0509 23.3587 45.9164 23.4932L45.057 24.3527L42.1972 21.4928C41.8312 21.1267 41.2376 21.1267 40.8714 21.4928C40.5052 21.8589 40.5052 22.4525 40.8714 22.8186L43.7312 25.6785L42.2851 27.1246L40.8112 25.6508C40.4451 25.2846 39.8515 25.2847 39.4854 25.6508C39.1192 26.0169 39.1192 26.6105 39.4854 26.9766L40.9592 28.4504L39.5131 29.8966L36.6533 27.0367C36.2872 26.6706 35.6936 26.6706 35.3275 27.0367C34.9614 27.4027 34.9614 27.9964 35.3275 28.3625L38.1873 31.2223L36.7412 32.6684L35.2673 31.1946C34.9013 30.8286 34.3076 30.8286 33.9415 31.1946C33.5754 31.5607 33.5754 32.1543 33.9415 32.5204L35.4153 33.9942L33.9942 35.4153L31.1344 32.5555C30.7683 32.1894 30.1748 32.1894 29.8086 32.5555C29.4425 32.9216 29.4425 33.5152 29.8086 33.8813L32.6684 36.7411L31.2223 38.1872L29.7485 36.7134C29.3824 36.3474 28.7888 36.3474 28.4227 36.7134C28.0566 37.0795 28.0566 37.6731 28.4227 38.0392L29.8965 39.5131L28.4504 40.9592L25.5906 38.0994C25.2246 37.7334 24.6309 37.7334 24.2648 38.0994C23.8987 38.4655 23.8987 39.0591 24.2648 39.4252L27.1246 42.285L25.6784 43.7311L24.2046 42.2573C23.8386 41.8912 23.2449 41.8912 22.8788 42.2573C22.5127 42.6234 22.5127 43.217 22.8788 43.5831L24.3526 45.0569L23.4932 45.9164C23.3587 46.0509 23.1798 46.125 22.9896 46.125ZM34.6534 37.4079C34.6547 37.4066 34.6559 37.4054 34.6572 37.4041C34.6586 37.4027 34.6598 37.4015 34.6611 37.4002L37.4031 34.6582C37.4034 34.6578 37.4038 34.6575 37.4041 34.6571C37.4044 34.6567 37.4048 34.6564 37.4052 34.6561L38.064 33.9972L42.0366 37.9699L37.9699 42.0366L33.9972 38.064L34.6534 37.4079ZM45.2827 45.2827C44.1616 46.4039 42.3372 46.4039 41.216 45.2827L39.2957 43.3624L43.3624 39.2956L45.2828 41.2159C46.404 42.3372 46.404 44.1616 45.2827 45.2827Z" fill="white"/>
</g>
</g>
<defs>
<clipPath id="clip0_216_4970">
<rect width="64" height="64" fill="white" transform="translate(0.669922)"/>
</clipPath>
<clipPath id="clip1_216_4970">
<rect width="32" height="32" fill="white" transform="translate(16 16)"/>
</clipPath>
</defs>
</svg>
