<svg width="72" height="72" viewBox="0 0 72 72" fill="none" xmlns="http://www.w3.org/2000/svg">
<path d="M9.83496 12.6458C9.83496 11.094 11.0929 9.83606 12.6447 9.83606C14.1965 9.83606 15.4545 11.094 15.4545 12.6458C15.4545 14.1982 14.1965 15.4561 12.6447 15.4561C11.0929 15.4561 9.83496 14.1982 9.83496 12.6458ZM22.4797 15.4561C24.0315 15.4561 25.2894 14.1982 25.2894 12.6458C25.2894 11.094 24.0315 9.83606 22.4797 9.83606C20.9279 9.83606 19.6694 11.094 19.6694 12.6458C19.6694 14.1982 20.9279 15.4561 22.4797 15.4561ZM72 58.6384L60.0595 70.6058L40.6489 51.728C39.5629 50.642 38.7339 49.2962 38.2516 47.8378L38.2077 47.7054L35.204 34.2894L48.5843 37.3321L48.7128 37.3749C50.1641 37.8556 51.5028 38.6796 52.5861 39.759L72 58.6384ZM64.0014 58.6989L48.6266 43.747C48.5195 43.6393 48.4063 43.5383 48.2882 43.4432L44.3167 47.412C44.4095 47.5274 44.5078 47.6389 44.6122 47.7438L60.0002 62.7089L64.0014 58.6989ZM43.2548 62.1008L49.0331 67.7208H8.42981C3.78149 67.7208 0 63.9393 0 59.291V9.83606C0 5.18774 3.78149 1.40625 8.42981 1.40625H63.5048C68.1531 1.40625 71.9346 5.18774 71.9346 9.83606V50.7354L66.3146 45.2703V23.8859H5.62006V59.291C5.62006 60.8406 6.88019 62.1008 8.42981 62.1008H43.2548ZM5.62006 9.83606V18.2659H66.3146V9.83606C66.3146 8.28644 65.0539 7.02631 63.5048 7.02631H8.42981C6.88019 7.02631 5.62006 8.28699 5.62006 9.83606Z" fill="black"/>
</svg>
