<svg class="absolute left-0 top-0 h-full w-full object-contain fill-current object-center" xmlns="http://www.w3.org/2000/svg" viewBox="0 0 50 63.46">
<g id="awpfutwzng-label">
<path d="M14,51.65v0a5.11,5.11,0,0,0,.15-.74A1.88,1.88,0,0,0,14,51.65Z"></path>
<path d="M14.18,53.05A1.73,1.73,0,0,1,14,51.67a3.13,3.13,0,0,0,0,.53Z"></path>
<path d="M18.12,51.78c0,.12,0,.23-.07.35,0-.12,0-.23,0-.35Z"></path>
<path d="M49.93,22.69c-.66-8.65-5.66-17-13.73-20.6C31.67.05,26.68-.25,21.79.16A36.09,36.09,0,0,0,9.28,3.05,15.37,15.37,0,0,0,1,12.35c-1.4,4.41-1.14,9.37-.2,13.84a34.29,34.29,0,0,0,6.47,14c1.53,2,3.36,3.69,4.91,5.64,1.16,1.47,2.25,3.17,2,5h0a5.11,5.11,0,0,1-.15.74v.06a3.13,3.13,0,0,0,0,.53l.12.85h0c.25,1.83.49,3.64.74,5.46s.47,3.73,2.46,4.4c1.7.59,3.88.39,5.67.46,2.07.07,4.14.09,6.21.08s4.14-.07,6.21-.17c1.67-.08,4,.16,5-1.43.94-1.42.56-3.61.57-5.23q0-3.15,0-6.3a1.87,1.87,0,0,0-.23-.92C42.47,45,45.41,41.27,47.3,37A30,30,0,0,0,49.93,22.69ZM18.05,52.14h0c0-.12,0-.23,0-.35h.11q9.49-.27,19,.41c0,.57,0,1.15,0,1.72a59.47,59.47,0,0,0-18.83-.26ZM22.34,31c.36-.08.88-.23,1-.25l2.09-.37q2.7-.45,5.4-.81c-1.19,6.07-2.37,12.12-3.56,18.19H26.2a117.59,117.59,0,0,1-3.53-14.6l-.3-1.83a3.16,3.16,0,0,1,0-.32c-.2,0-.35.05-.38,0s-.06-.15.15-.31c.14-.41.2-.4.17,0A1.07,1.07,0,0,1,22.34,31ZM37,59.84l0,0C37.05,60.14,37.05,60.15,37,59.84Zm0-1.86c0,.44,0,.88,0,1.32-.68.07-1.6,0-2.05,0-1.23.06-2.46.1-3.68.12-2.45,0-4.91,0-7.36,0-1.23,0-2.45-.08-3.68-.14L19,59.19l0,0c0-.26-.08-.52-.11-.78s-.07-.51-.1-.77a53.78,53.78,0,0,1,17.9.28,2.33,2.33,0,0,0,.37,0Zm6.77-23c-2,4.56-5,8.51-6.75,13.2-1.93-.15-3.86-.25-5.8-.33q2-10.05,3.94-20.1c.22-1.13-.53-2.69-1.93-2.53l-2.07.26q-3.64.47-7.29,1.08a12.73,12.73,0,0,0-4,1,3.43,3.43,0,0,0-1.57,3.74A107.37,107.37,0,0,0,22,47.71c-1.41,0-2.81,0-4.22.08a18.16,18.16,0,0,0-3.84-6c-1.35-1.53-2.81-3-4-4.63a32,32,0,0,1-3.2-5.48A29.88,29.88,0,0,1,4,19.76C4,15.66,4.77,11.46,8,8.62c2.71-2.42,6.48-3.41,10-4a34.26,34.26,0,0,1,13.27,0c7.65,1.82,13.1,8.49,14.47,16.07A25.31,25.31,0,0,1,43.84,35Z"></path>
<path d="M22.34,31c-.2,0-.35.05-.38,0s-.06-.15.15-.31c.14-.41.2-.4.17,0A1.07,1.07,0,0,1,22.34,31Z"></path>
</g>
</svg>