<svg width="57" height="56" viewBox="0 0 57 56" fill="none" xmlns="http://www.w3.org/2000/svg">
<g clip-path="url(#clip0_92_4040)">
<g clip-path="url(#clip1_92_4040)">
<g clip-path="url(#clip2_92_4040)">
<path d="M49.6665 0H7.6665C3.80051 0 0.666504 3.13401 0.666504 7V49C0.666504 52.866 3.80051 56 7.6665 56H49.6665C53.5325 56 56.6665 52.866 56.6665 49V7C56.6665 3.13401 53.5325 0 49.6665 0Z" fill="white"/>
<path d="M43.1064 36.3021C43.057 34.5185 43.0439 32.3075 43.0028 30.5201C42.9114 26.6832 43.0486 22.8388 43.057 19.0009C43.0618 18.8128 42.9999 18.629 42.8824 18.482C42.5371 16.8188 41.573 15.892 40.0012 15.0483C37.7902 13.8723 35.0966 13.8881 32.752 14.1336C29.252 14.1924 26.2467 16.7609 26.06 19.4797C26.0242 19.574 26.0059 19.6739 26.0059 19.7747C26.0059 21.7907 26.4754 28.9484 26.509 30.1375C26.5836 32.6892 26.3596 36.3721 26.6004 39.4857C26.5884 39.5933 26.5993 39.7022 26.6322 39.8053C26.6652 39.9083 26.7195 40.0034 26.7918 40.084C26.8429 40.1651 26.9096 40.2352 26.9881 40.2902C27.0667 40.3451 27.1553 40.3839 27.2491 40.4041C29.3892 41.6137 31.8215 41.7761 34.2323 41.8265C36.7262 41.8797 39.1948 41.9339 41.5683 41.0201C42.6248 40.77 43.2315 40.6627 43.1895 39.748C43.1111 38.3303 43.1354 37.3577 43.1064 36.3021ZM41.4442 34.3141C41.3502 34.3558 41.2643 34.4136 41.1903 34.4849C40.9399 34.726 40.661 34.9354 40.3596 35.1084C40.326 34.2525 40.243 33.4004 40.2346 32.5445C40.6284 32.4017 41.0092 32.2225 41.3695 32.0079C41.3695 32.6192 41.4106 33.6459 41.4442 34.2525C41.4236 34.2609 41.4274 34.2899 41.4274 34.3151H41.4442V34.3141ZM27.8138 23.0096C28.2319 23.3176 28.6818 23.5799 29.1568 23.7908C29.2352 24.7092 29.2567 25.6239 29.3314 26.5385C28.8632 26.3183 28.4164 26.0552 27.9967 25.7527C27.9267 24.838 27.8558 23.9243 27.8138 23.0096ZM32.5738 27.4859C32.073 27.4232 31.5772 27.3263 31.0898 27.1956V27.1704C30.9526 26.2595 30.9442 25.3373 30.8938 24.4143C31.4211 24.558 31.955 24.6747 32.4944 24.7633C32.2704 25.6407 32.4571 26.5833 32.5738 27.4859ZM31.9951 29.0987C31.9811 29.164 31.9727 29.2312 31.9708 29.2984C31.9708 30.0217 31.913 30.7413 31.9046 31.46C31.5966 31.4143 31.2848 31.3517 30.9694 31.2855C30.9479 30.4548 30.8275 29.6605 30.8359 28.8457C31.2186 28.9661 31.604 29.0324 31.9951 29.0987ZM29.8428 33.1232V35.4379C29.3062 35.3184 28.7788 35.1579 28.2674 34.96V32.4036C28.7854 32.6229 29.322 32.7956 29.8718 32.9188C29.8552 32.9858 29.8455 33.0543 29.8428 33.1232ZM29.1736 28.2969C29.1505 28.3712 29.1364 28.4479 29.1316 28.5256C29.1214 29.3087 29.1596 30.0917 29.2436 30.8701C28.8849 30.7646 28.5434 30.6074 28.23 30.4035L28.2048 29.3525C28.2048 28.8373 28.1675 28.3221 28.1386 27.8107C28.4746 27.9899 28.8199 28.1532 29.1736 28.2969ZM28.1712 36.6969C28.5334 36.8136 28.9114 36.9135 29.294 37.0049C29.2825 37.0458 29.2753 37.0877 29.2726 37.13C29.2632 37.9252 29.3024 38.7204 29.3892 39.5119C28.9912 39.3772 28.6036 39.2132 28.23 39.0209C28.1624 38.2482 28.1428 37.4721 28.1712 36.6969ZM32.1164 40.0943C31.7804 40.0607 31.4472 40.0149 31.114 39.9561C31.114 39.0788 30.9563 38.2061 30.9778 37.3251C31.3558 37.3792 31.7338 37.4296 32.1164 37.4669V40.0943ZM31.5555 35.7207V33.1848C31.9914 33.2352 32.4235 33.2688 32.8351 33.2893V33.322C32.8855 34.1741 32.7856 35.0057 32.8724 35.8495C32.4322 35.8203 31.993 35.7773 31.5555 35.7207ZM33.6835 29.2779C34.0158 29.2779 34.348 29.3031 34.6812 29.2779V31.4189C34.6747 31.4843 34.6747 31.5496 34.6812 31.614H33.5883V31.5552C33.5883 30.8029 33.6499 30.0507 33.6583 29.2984C33.6788 29.29 33.6751 29.2863 33.6751 29.2779H33.6835ZM35.7406 27.5027C35.2619 27.5596 34.7805 27.5917 34.2986 27.5988C34.1866 26.742 33.9327 25.7984 34.2146 24.9761C34.4647 24.9967 34.7064 25.0172 34.9342 25.0293C35.1628 25.0424 35.4167 25.0293 35.6706 25.0293C35.637 25.8563 35.7116 26.6795 35.7322 27.5027H35.7406ZM35.3915 40.1101C34.8847 40.1521 34.3564 40.1727 33.8291 40.1727V37.5873C34.3828 37.6116 34.9371 37.6242 35.4914 37.6247H35.5166C35.5166 38.4273 35.4456 39.2253 35.3794 40.0233C35.3794 40.0513 35.3794 40.0812 35.3831 40.1101H35.3915ZM36.1027 35.9531H34.5767C34.5804 35.9271 34.5804 35.9007 34.5767 35.8747C34.4152 35.044 34.5767 34.1872 34.5394 33.3519C34.9967 33.3519 35.483 33.3304 35.9823 33.3052C35.978 33.3468 35.978 33.3887 35.9823 33.4303C35.903 34.2451 36.1279 35.0804 36.0943 35.9372L36.1027 35.9531ZM34.9267 23.3335C32.7688 23.3073 30.4 22.7595 28.6911 21.4127C26.0554 19.3668 30.233 15.4972 33.1804 15.402C35.0751 15.3395 39.249 15.0483 40.97 17.9911C41.1436 18.2785 41.2752 18.5893 41.3611 18.9141C41.3589 18.943 41.3589 18.972 41.3611 19.0009V20.1769C40.7003 22.3348 36.8466 23.3577 34.9258 23.3325L34.9267 23.3335ZM41.32 22.9667C41.32 23.7973 41.3098 24.6299 41.2902 25.4605C40.9405 25.7093 40.5738 25.9329 40.1926 26.1297C40.1926 25.4195 40.1468 24.7045 40.1431 23.9896C40.1413 23.9196 40.1329 23.8499 40.1179 23.7815C40.5454 23.5528 40.9495 23.2793 41.32 22.9667ZM38.5051 26.8867C38.156 27.0033 37.7939 27.1107 37.429 27.2021C37.3954 26.4041 37.3244 25.6108 37.3702 24.8165C37.7351 24.7375 38.0957 24.6403 38.451 24.5253C38.4678 25.3112 38.5014 26.0971 38.5051 26.8867ZM36.3771 31.4171V29.1649C36.9759 29.0843 37.5689 28.9649 38.1523 28.8075V30.9933C38.1505 31.1107 38.1744 31.2269 38.2223 31.334C37.6072 31.4376 36.9875 31.5076 36.365 31.5421C36.3687 31.5011 36.3771 31.4591 36.3771 31.4171ZM38.5098 39.8637C38.0374 39.9086 37.5644 39.9475 37.0911 39.9804C37.1583 39.1777 37.2208 38.3797 37.2292 37.578C37.6446 37.5491 38.0851 37.5071 38.5098 37.4408V39.8637ZM37.7911 35.8532C37.7911 35.0216 37.5988 34.2199 37.6446 33.392C37.6484 33.3024 37.6387 33.2127 37.6156 33.126C37.9143 33.084 38.2139 33.0383 38.5098 32.9841C38.5424 33.8708 38.6302 34.7593 38.6386 35.6488C38.6365 35.6736 38.6365 35.6986 38.6386 35.7235C38.3582 35.7817 38.076 35.825 37.7911 35.8532ZM39.7978 28.2419C40.3081 28.0312 40.8039 27.7867 41.2818 27.5101V29.934C41.1835 29.9753 41.0947 30.0359 41.0204 30.1123C40.6863 30.432 40.2957 30.6871 39.8687 30.8645V28.5247C39.8659 28.4277 39.8464 28.332 39.8108 28.2419H39.7978ZM41.5524 39.2281C41.111 39.3868 40.6602 39.5128 40.201 39.6061V37.3409C40.2014 37.2358 40.1831 37.1315 40.1468 37.0329C40.6479 36.8553 41.1253 36.6167 41.5683 36.3227C41.6318 37.2902 41.6305 38.2608 41.5646 39.2281H41.5524Z" fill="black"/>
<path d="M36.6557 21.3625C37.2866 20.7557 37.4453 19.6451 36.7341 19.0263C36.2357 18.6109 35.5245 18.6399 34.8674 18.7687C34.7265 18.5447 34.5809 18.3207 34.4521 18.0957H34.4642C34.5492 18.0949 34.635 18.1033 34.7181 18.1201C34.6198 18.0702 34.5419 17.9877 34.4978 17.8867C34.8217 18.5149 35.7784 17.9585 35.4498 17.3305C35.2212 16.8861 34.3858 16.8647 33.6746 16.9897C33.5748 16.8525 33.4786 16.7117 33.376 16.5745C32.9597 16.0089 31.9946 16.5745 32.424 17.1269L32.5976 17.3725C31.7669 18.0165 31.738 19.6003 32.8057 20.0119C33.3132 20.1698 33.8569 20.1698 34.3644 20.0119C34.5678 20.3273 34.7806 20.6391 34.9878 20.9509C34.5949 21.0131 34.1974 21.0412 33.7997 21.0349C33.6582 21.0406 33.5245 21.101 33.4264 21.2032C33.3283 21.3054 33.2735 21.4416 33.2735 21.5831C33.2735 21.7248 33.3283 21.8609 33.4264 21.9631C33.5245 22.0653 33.6582 22.1256 33.7997 22.1315C34.445 22.1515 35.0897 22.0729 35.7112 21.8981C35.7858 21.9943 35.8568 22.0905 35.9314 22.1819C36.372 22.7345 37.1541 21.9533 36.7136 21.4045L36.6557 21.3625ZM33.2173 18.3617C33.2312 18.3364 33.2479 18.3126 33.2668 18.2909L33.7409 19.0141C33.305 19.0599 32.9382 18.9889 33.2182 18.3609L33.2173 18.3617ZM35.7569 19.7917C36.2236 19.7917 36.1732 20.1323 35.9688 20.4151C35.8278 20.2117 35.6906 19.9989 35.5534 19.7991L35.7569 19.7917ZM26.1762 37.5203C25.6517 39.1825 22.1853 39.5979 20.7134 39.3403C19.497 39.0798 18.3975 38.4326 17.5793 37.4954C16.7612 36.5581 16.2684 35.3813 16.1746 34.1407C15.7257 28.8861 21.7326 24.7505 26.151 28.6285C26.9574 29.3433 28.167 28.1879 27.356 27.4729C26.2477 26.4598 24.8697 25.7891 23.3885 25.542C21.9074 25.2949 20.3863 25.4819 19.0092 26.0805C15.7593 27.4273 14.2333 31.6505 14.5124 34.7511C14.7784 37.9525 17.6297 40.4257 20.7937 41.0193C23.1364 41.4609 27.0694 40.3465 27.8217 37.9561C28.1418 36.9417 26.4964 36.5141 26.1762 37.5193V37.5203Z" fill="black"/>
<path d="M22.3804 32.8854V31.547C22.5102 31.6161 22.6259 31.7094 22.7211 31.8205C23.2158 32.5018 24.1892 31.6217 23.6946 30.9478C23.3733 30.5215 22.9223 30.2109 22.4094 30.063V29.601C22.4066 29.4345 22.3405 29.2751 22.2248 29.1553C22.109 29.0356 21.952 28.9643 21.7856 28.9559C21.6193 28.9474 21.4558 29.0026 21.3286 29.11C21.2013 29.2175 21.1196 29.3693 21.0999 29.5347V29.9501C19.853 30.0957 18.8142 30.9898 19.3835 32.5074C19.572 33.0058 19.9155 33.4314 20.3644 33.7207C20.581 33.8607 20.8246 33.9531 21.0794 33.9914V35.6527C20.5679 35.6247 20.1526 35.4661 20.1647 35.1338C20.1946 34.3031 18.8804 34.2285 18.8562 35.0675C18.8142 36.2155 19.8735 36.8297 21.0551 36.9463V37.245C21.047 37.3333 21.0568 37.4223 21.0839 37.5067C21.1111 37.5911 21.155 37.6692 21.2131 37.7361C21.2711 37.8031 21.3422 37.8577 21.4218 37.8966C21.5015 37.9354 21.5882 37.9578 21.6768 37.9624C21.7652 37.9669 21.8538 37.9535 21.9371 37.9229C22.0203 37.8924 22.0965 37.8454 22.1611 37.7847C22.2256 37.724 22.2773 37.6508 22.3129 37.5696C22.3485 37.4884 22.3674 37.4008 22.3683 37.3122V36.8633C22.7136 36.8136 23.043 36.6854 23.3311 36.4887C23.6193 36.292 23.8586 36.0319 24.0306 35.7283C24.1575 35.435 24.2138 35.1158 24.195 34.7967C24.1762 34.4775 24.0828 34.1673 23.9224 33.8908C23.7619 33.6143 23.5388 33.3793 23.271 33.2047C23.0032 33.0301 22.6981 32.9207 22.3804 32.8854ZM20.5604 31.6385C20.5572 31.5709 20.5682 31.5033 20.5928 31.4402C20.6174 31.3771 20.6549 31.32 20.7031 31.2724C20.7513 31.2249 20.8089 31.1881 20.8724 31.1643C20.9357 31.1405 21.0034 31.1303 21.071 31.1345V32.5606C20.9051 32.478 20.7679 32.3476 20.6769 32.1863C20.5859 32.0248 20.5453 31.8399 20.5604 31.6553V31.6385ZM22.4094 35.4661V34.2443C22.5204 34.291 22.6222 34.3535 22.7127 34.431C23.241 34.8883 22.9339 35.2533 22.4094 35.4661Z" fill="black"/>
<path d="M27.5929 24.638C26.1425 21.5617 19.2797 20.6928 16.1409 23.7149C13.4315 26.3292 12.0809 29.58 14.6028 34.1309C15.1311 35.0876 16.1167 33.9694 15.8087 32.9344C14.9481 30.0252 15.0153 27.676 16.3743 25.8056C18.4229 22.9916 24.9787 23.0793 26.122 25.4938C26.5868 26.471 28.054 25.6394 27.5929 24.638Z" fill="black"/>
</g>
</g>
</g>
<defs>
<clipPath id="clip0_92_4040">
<rect width="56" height="56" fill="white" transform="translate(0.666504)"/>
</clipPath>
<clipPath id="clip1_92_4040">
<rect width="56" height="56" fill="white" transform="translate(0.666504)"/>
</clipPath>
<clipPath id="clip2_92_4040">
<rect width="56" height="56" fill="white" transform="translate(0.666504)"/>
</clipPath>
</defs>
</svg>
