<svg width="64" height="64" viewBox="0 0 64 64" fill="none" xmlns="http://www.w3.org/2000/svg">
<rect width="64" height="64" rx="8" fill="black"/>
<path d="M48.5024 41.488C48.4459 39.4496 48.4309 36.9227 48.384 34.88C48.2795 30.4949 48.4363 26.1013 48.4459 21.7152C48.4514 21.5002 48.3807 21.2901 48.2464 21.1221C47.8517 19.2213 46.7499 18.1621 44.9536 17.1979C42.4267 15.8539 39.3483 15.872 36.6688 16.1525C32.6688 16.2197 29.2341 19.1552 29.0208 22.2624C28.9799 22.3701 28.959 22.4843 28.9589 22.5995C28.9589 24.9035 29.4955 33.0837 29.5339 34.4427C29.6192 37.3589 29.3632 41.568 29.6384 45.1264C29.6247 45.2494 29.6371 45.3738 29.6747 45.4916C29.7124 45.6094 29.7745 45.718 29.8571 45.8101C29.9155 45.9028 29.9918 45.9829 30.0815 46.0458C30.1713 46.1086 30.2726 46.1529 30.3797 46.176C32.8256 47.5584 35.6053 47.744 38.3605 47.8016C41.2107 47.8624 44.032 47.9243 46.7445 46.88C47.952 46.5941 48.6453 46.4715 48.5973 45.4261C48.5077 43.8059 48.5355 42.6944 48.5024 41.488ZM46.6027 39.216C46.4953 39.2636 46.3971 39.3297 46.3125 39.4112C46.0264 39.6867 45.7076 39.926 45.3632 40.1237C45.3248 39.1456 45.2299 38.1717 45.2203 37.1936C45.6704 37.0304 46.1056 36.8256 46.5173 36.5803C46.5173 37.2789 46.5643 38.4523 46.6027 39.1456C46.5792 39.1552 46.5835 39.1883 46.5835 39.2171H46.6027V39.216ZM31.0251 26.2965C31.5029 26.6485 32.0171 26.9483 32.56 27.1893C32.6496 28.2389 32.6741 29.2843 32.7595 30.3296C32.2244 30.0779 31.7138 29.7772 31.2341 29.4315C31.1541 28.3861 31.0731 27.3419 31.0251 26.2965ZM36.4651 31.4123C35.8928 31.3407 35.3261 31.2299 34.7691 31.0805V31.0517C34.6123 30.0107 34.6027 28.9568 34.5451 27.9019C35.1477 28.0661 35.7579 28.1995 36.3744 28.3008C36.1184 29.3035 36.3317 30.3808 36.4651 31.4123ZM35.8037 33.2555C35.7877 33.3301 35.7781 33.4069 35.776 33.4837C35.776 34.3104 35.7099 35.1328 35.7003 35.9541C35.3483 35.9019 34.992 35.8304 34.6315 35.7547C34.6069 34.8053 34.4693 33.8976 34.4789 32.9664C34.9163 33.104 35.3568 33.1797 35.8037 33.2555ZM33.344 37.8549V40.5003C32.7307 40.3637 32.128 40.1803 31.5435 39.9541V37.0325C32.1355 37.2832 32.7488 37.4805 33.3771 37.6213C33.3582 37.6979 33.3471 37.7762 33.344 37.8549ZM32.5792 32.3392C32.5528 32.4241 32.5367 32.5118 32.5312 32.6005C32.5195 33.4955 32.5632 34.3904 32.6592 35.28C32.2492 35.1594 31.859 34.9798 31.5008 34.7467L31.472 33.5456C31.472 32.9568 31.4293 32.368 31.3963 31.7835C31.7803 31.9883 32.1749 32.1749 32.5792 32.3392ZM31.4336 41.9392C31.8475 42.0725 32.2795 42.1867 32.7168 42.2912C32.7036 42.3379 32.6954 42.3858 32.6923 42.4341C32.6816 43.3429 32.7264 44.2517 32.8256 45.1563C32.3707 45.0024 31.9278 44.8149 31.5008 44.5952C31.4235 43.7121 31.4011 42.8251 31.4336 41.9392ZM35.9424 45.8219C35.5584 45.7835 35.1776 45.7312 34.7968 45.664C34.7968 44.6613 34.6165 43.664 34.6411 42.6571C35.0731 42.7189 35.5051 42.7765 35.9424 42.8192V45.8219ZM35.3013 40.8235V37.9253C35.7995 37.9829 36.2933 38.0213 36.7637 38.0448V38.0821C36.8213 39.056 36.7072 40.0064 36.8064 40.9707C36.3033 40.9373 35.8014 40.8882 35.3013 40.8235ZM37.7333 33.4603C38.1131 33.4603 38.4928 33.4891 38.8736 33.4603V35.9072C38.8661 35.9819 38.8661 36.0565 38.8736 36.1301H37.6245V36.0629C37.6245 35.2032 37.6949 34.3435 37.7045 33.4837C37.728 33.4741 37.7237 33.4699 37.7237 33.4603H37.7333ZM40.0843 31.4315C39.5372 31.4965 38.9871 31.5332 38.4363 31.5413C38.3083 30.5621 38.0181 29.4837 38.3403 28.544C38.6261 28.5675 38.9024 28.5909 39.1627 28.6048C39.424 28.6197 39.7141 28.6048 40.0043 28.6048C39.9659 29.5499 40.0512 30.4907 40.0747 31.4315H40.0843ZM39.6853 45.84C39.1061 45.888 38.5024 45.9115 37.8997 45.9115V42.9568C38.5326 42.9846 39.166 42.9989 39.7995 42.9995H39.8283C39.8283 43.9168 39.7472 44.8288 39.6715 45.7408C39.6715 45.7728 39.6715 45.8069 39.6757 45.84H39.6853ZM40.4981 41.0891H38.7541C38.7584 41.0594 38.7584 41.0292 38.7541 40.9995C38.5696 40.0501 38.7541 39.0709 38.7115 38.1163C39.2341 38.1163 39.7899 38.0917 40.3605 38.0629C40.3556 38.1105 40.3556 38.1584 40.3605 38.2059C40.2699 39.1371 40.5269 40.0917 40.4885 41.0709L40.4981 41.0891ZM39.1541 26.6667C36.688 26.6368 33.9808 26.0107 32.0277 24.4715C29.0155 22.1333 33.7899 17.7109 37.1584 17.6021C39.3237 17.5307 44.0939 17.1979 46.0608 20.5611C46.2592 20.8896 46.4096 21.2448 46.5077 21.616C46.5052 21.649 46.5052 21.6822 46.5077 21.7152V23.0592C45.7525 25.5253 41.3483 26.6944 39.1531 26.6656L39.1541 26.6667ZM46.4608 26.2475C46.4608 27.1968 46.4491 28.1483 46.4267 29.0976C46.0271 29.3819 45.608 29.6375 45.1723 29.8624C45.1723 29.0507 45.12 28.2336 45.1157 27.4165C45.1137 27.3365 45.1041 27.2569 45.0869 27.1787C45.5755 26.9173 46.0373 26.6048 46.4608 26.2475ZM43.2437 30.7275C42.8448 30.8608 42.4309 30.9835 42.0139 31.088C41.9755 30.176 41.8944 29.2693 41.9467 28.3616C42.3637 28.2713 42.7759 28.1602 43.1819 28.0288C43.2011 28.9269 43.2395 29.8251 43.2437 30.7275ZM40.8117 35.9051V33.3312C41.4961 33.2391 42.1738 33.1026 42.8405 32.9227V35.4208C42.8385 35.5549 42.8658 35.6878 42.9205 35.8101C42.2176 35.9285 41.5093 36.0085 40.7979 36.048C40.8021 36.0011 40.8117 35.9531 40.8117 35.9051ZM43.2491 45.5584C42.7092 45.6097 42.1687 45.6542 41.6277 45.6917C41.7045 44.7744 41.776 43.8624 41.7856 42.9461C42.2603 42.9131 42.7637 42.8651 43.2491 42.7893V45.5584ZM42.4277 40.9749C42.4277 40.0245 42.208 39.1083 42.2603 38.1621C42.2647 38.0597 42.2536 37.9572 42.2272 37.8581C42.5685 37.8101 42.9109 37.7579 43.2491 37.696C43.2864 38.7093 43.3867 39.7248 43.3963 40.7413C43.3939 40.7697 43.3939 40.7983 43.3963 40.8267C43.0759 40.8932 42.7533 40.9427 42.4277 40.9749ZM44.7211 32.2763C45.3043 32.0355 45.8709 31.7561 46.4171 31.44V34.2101C46.3048 34.2573 46.2033 34.3266 46.1184 34.4139C45.7365 34.7793 45.2902 35.0708 44.8021 35.2736V32.5995C44.799 32.4887 44.7767 32.3793 44.736 32.2763H44.7211ZM46.7264 44.832C46.2219 45.0133 45.7067 45.1573 45.1819 45.264V42.6752C45.1824 42.5551 45.1615 42.4359 45.12 42.3232C45.6927 42.1202 46.2383 41.8475 46.7445 41.5115C46.8171 42.6172 46.8156 43.7265 46.7403 44.832H46.7264Z" fill="white"/>
<path d="M41.1307 24.4139C41.8517 23.7205 42.0331 22.4512 41.2203 21.744C40.6507 21.2693 39.8379 21.3024 39.0869 21.4496C38.9259 21.1936 38.7595 20.9376 38.6123 20.6805H38.6261C38.7232 20.6795 38.8213 20.6891 38.9163 20.7083C38.8039 20.6513 38.7149 20.557 38.6645 20.4416C39.0347 21.1595 40.128 20.5237 39.7525 19.8059C39.4912 19.2981 38.5365 19.2736 37.7237 19.4165C37.6096 19.2597 37.4997 19.0987 37.3824 18.9419C36.9067 18.2955 35.8037 18.9419 36.2944 19.5733L36.4928 19.8539C35.5435 20.5899 35.5104 22.4 36.7307 22.8704C37.3107 23.0509 37.932 23.0509 38.512 22.8704C38.7445 23.2309 38.9877 23.5872 39.2245 23.9435C38.7755 24.0146 38.3212 24.0467 37.8667 24.0395C37.7049 24.0461 37.5521 24.1151 37.44 24.2319C37.3279 24.3487 37.2653 24.5043 37.2653 24.6661C37.2653 24.828 37.3279 24.9836 37.44 25.1004C37.5521 25.2172 37.7049 25.2861 37.8667 25.2928C38.6042 25.3157 39.3409 25.2258 40.0512 25.0261C40.1365 25.136 40.2176 25.2459 40.3029 25.3504C40.8064 25.9819 41.7003 25.0891 41.1968 24.4619L41.1307 24.4139ZM37.2011 20.9845C37.217 20.9556 37.236 20.9284 37.2576 20.9035L37.7995 21.7301C37.3013 21.7824 36.8821 21.7013 37.2021 20.9835L37.2011 20.9845ZM40.1035 22.6187C40.6368 22.6187 40.5792 23.008 40.3456 23.3312C40.1845 23.0987 40.0277 22.8555 39.8709 22.6272L40.1035 22.6187ZM29.1541 42.88C28.5547 44.7797 24.5931 45.2544 22.9109 44.96C21.5207 44.6623 20.2641 43.9226 19.3291 42.8515C18.3941 41.7804 17.8309 40.4354 17.7237 39.0176C17.2107 33.0123 24.0757 28.2859 29.1253 32.7179C30.0469 33.5349 31.4293 32.2144 30.5024 31.3973C29.2358 30.2394 27.661 29.4729 25.9682 29.1905C24.2755 28.9081 22.5371 29.1218 20.9632 29.8059C17.2491 31.3451 15.5051 36.1717 15.824 39.7152C16.128 43.3739 19.3867 46.2005 23.0027 46.8789C25.68 47.3835 30.1749 46.1099 31.0347 43.3781C31.4005 42.2187 29.52 41.7301 29.1541 42.8789V42.88Z" fill="white"/>
<path d="M24.816 37.5829V36.0533C24.9643 36.1323 25.0965 36.2389 25.2053 36.3659C25.7707 37.1445 26.8832 36.1387 26.3179 35.3685C25.9507 34.8813 25.4353 34.5264 24.8491 34.3573V33.8293C24.8459 33.639 24.7704 33.4569 24.6381 33.32C24.5058 33.1832 24.3264 33.1017 24.1362 33.0921C23.9461 33.0824 23.7593 33.1454 23.6139 33.2682C23.4684 33.391 23.375 33.5645 23.3525 33.7536V34.2283C21.9275 34.3947 20.7403 35.4165 21.3909 37.1509C21.6064 37.7205 21.9989 38.2069 22.512 38.5376C22.7595 38.6976 23.0379 38.8032 23.3291 38.8469V40.7456C22.7445 40.7136 22.2699 40.5323 22.2837 40.1525C22.3179 39.2032 20.816 39.1179 20.7883 40.0768C20.7403 41.3888 21.9509 42.0907 23.3013 42.224V42.5653C23.2921 42.6662 23.3033 42.768 23.3343 42.8644C23.3653 42.9609 23.4155 43.0501 23.4819 43.1266C23.5482 43.2032 23.6294 43.2656 23.7204 43.31C23.8115 43.3544 23.9106 43.38 24.0118 43.3852C24.1129 43.3904 24.2141 43.375 24.3093 43.3401C24.4044 43.3052 24.4915 43.2515 24.5653 43.1821C24.6391 43.1127 24.6981 43.0291 24.7388 42.9363C24.7795 42.8435 24.8011 42.7434 24.8021 42.6421V42.1291C25.1968 42.0723 25.5732 41.9258 25.9025 41.701C26.2318 41.4762 26.5053 41.1789 26.7019 40.832C26.8469 40.4967 26.9113 40.132 26.8898 39.7673C26.8683 39.4025 26.7616 39.0479 26.5782 38.7319C26.3948 38.416 26.1398 38.1474 25.8338 37.9478C25.5277 37.7483 25.1791 37.6233 24.816 37.5829ZM22.736 36.1579C22.7323 36.0806 22.7449 36.0034 22.773 35.9313C22.8011 35.8592 22.844 35.7939 22.8991 35.7395C22.9541 35.6852 23.02 35.6431 23.0925 35.6159C23.1649 35.5887 23.2423 35.5771 23.3195 35.5819V37.2117C23.1299 37.1173 22.9731 36.9683 22.8691 36.7839C22.7651 36.5994 22.7187 36.3881 22.736 36.1771V36.1579ZM24.8491 40.5323V39.136C24.976 39.1893 25.0923 39.2608 25.1957 39.3493C25.7995 39.872 25.4485 40.2891 24.8491 40.5323Z" fill="white"/>
<path d="M30.7733 28.1579C29.1157 24.6421 21.2725 23.6491 17.6853 27.1029C14.5888 30.0907 13.0453 33.8059 15.9275 39.0069C16.5312 40.1003 17.6576 38.8224 17.3056 37.6395C16.3221 34.3147 16.3989 31.6299 17.952 29.4923C20.2933 26.2763 27.7856 26.3765 29.0923 29.136C29.6235 30.2528 31.3003 29.3024 30.7733 28.1579Z" fill="white"/>
</svg>
