<svg width="72" height="72" viewBox="0 0 72 72" fill="none" xmlns="http://www.w3.org/2000/svg">
<g clip-path="url(#clip0_227_1948)">
<path d="M36 0C16.1495 0 0 16.1495 0 36C0 55.8505 16.1495 72 36 72C55.8505 72 72 55.8505 72 36C72 16.1495 55.8505 0 36 0ZM59.9034 56.9205L56.6634 53.6805C55.8398 52.8567 54.5041 52.8567 53.6804 53.6805C52.8566 54.5043 52.8566 55.8398 53.6804 56.6636L56.9204 59.9036C51.3266 64.8053 44.0047 67.7812 36 67.7812C27.9953 67.7812 20.6734 64.8053 15.0795 59.9034L18.3195 56.6634C19.1433 55.8397 19.1433 54.5041 18.3195 53.6804C17.4959 52.8566 16.1602 52.8566 15.3364 53.6804L12.0964 56.9204C7.62877 51.822 4.76325 45.2876 4.29047 38.1094H8.8875C10.0524 38.1094 10.9969 37.1649 10.9969 36C10.9969 34.8351 10.0524 33.8906 8.8875 33.8906H4.29047C4.76325 26.7124 7.62877 20.178 12.0966 15.0795L15.3366 18.3195C16.1602 19.1433 17.4959 19.1433 18.3196 18.3195C19.1434 17.4957 19.1434 16.1602 18.3196 15.3364L15.0796 12.0964C20.1781 7.62862 26.7124 4.76213 33.8906 4.2892V8.8875C33.8906 10.0524 34.8351 10.9969 36 10.9969C37.1649 10.9969 38.1094 10.0524 38.1094 8.8875V4.2892C45.2876 4.76213 51.8219 7.62862 56.9204 12.0964L53.6804 15.3364C52.8566 16.1602 52.8566 17.4957 53.6804 18.3195C54.504 19.1433 55.8397 19.1433 56.6634 18.3195L59.9034 15.0795C64.3712 20.178 67.2367 26.7124 67.7095 33.8906H63.1125C61.9476 33.8906 61.0031 34.8351 61.0031 36C61.0031 37.1649 61.9476 38.1094 63.1125 38.1094H67.7095C67.2367 45.2876 64.3712 51.822 59.9034 56.9205Z" fill="black"/>
<path d="M42.7781 54.2246H29.2219C28.0569 54.2246 27.1125 55.169 27.1125 56.334C27.1125 57.4989 28.0569 58.4434 29.2219 58.4434H42.7781C43.9431 58.4434 44.8875 57.4989 44.8875 56.334C44.8875 55.169 43.9431 54.2246 42.7781 54.2246Z" fill="black"/>
<path d="M40.6863 31.3133C38.1021 28.729 33.897 28.7289 31.3127 31.3131C27.9719 34.654 22.0016 46.4981 21.3318 47.8376C20.9258 48.6497 21.085 49.6305 21.727 50.2725C22.3689 50.9144 23.3498 51.0736 24.1619 50.6676C25.5014 49.9978 37.3455 44.0277 40.6863 40.6869C43.2707 38.1026 43.2706 33.8977 40.6863 31.3133ZM37.7033 37.7038C36.2173 39.1898 32.051 41.66 28.2518 43.7478C30.3397 39.9486 32.8099 35.7823 34.2959 34.2963C35.2353 33.357 36.7639 33.357 37.7034 34.2963C38.6426 35.2359 38.6426 36.7645 37.7033 37.7038Z" fill="black"/>
</g>
<defs>
<clipPath id="clip0_227_1948">
<rect width="72" height="72" fill="white"/>
</clipPath>
</defs>
</svg>
