<svg width="96" height="80" viewBox="0 0 96 80" fill="none" xmlns="http://www.w3.org/2000/svg">
<path d="M84.3585 48.329C83.5021 49.5148 83.3135 51.2112 81.4537 51.2247C81.1629 50.7207 80.7543 50.2946 80.2629 49.9829C79.7717 49.6712 79.2122 49.483 78.6323 49.4345C78.5621 49.4285 78.4925 49.4162 78.4245 49.3978C77.373 48.9936 76.316 48.5446 75.2698 48.185C74.2749 47.8448 73.2496 47.5754 72.24 47.2786C72.1289 47.2457 72.0031 47.2563 71.8965 47.2156C70.8154 46.7994 69.7484 46.3499 68.6531 45.9673C67.5578 45.5846 66.4274 45.317 65.3758 44.9127C64.4961 44.5713 63.684 44.0764 62.7534 43.6067L63.4896 41.5658C63.6609 41.3682 63.8624 41.1724 64.0254 40.944C64.6581 40.0555 65.4158 39.9415 66.4422 40.3625C67.5394 40.8138 68.705 41.1018 69.8461 41.4589C69.9389 41.4723 70.0307 41.4906 70.1214 41.5138C71.1987 41.9276 72.2702 42.3694 73.3588 42.7638C74.2308 43.0381 75.0874 43.3591 75.9251 43.7252L76.6509 43.5043C76.6033 43.3884 76.5965 43.3012 76.5502 43.2642C75.7585 42.599 74.9107 41.995 74.1729 41.2725C71.7237 38.8648 68.5589 37.6152 65.6459 35.9749C64.6353 35.3914 63.4034 35.2004 62.2571 34.8611C62.179 34.8161 62.0836 34.7922 61.9942 34.7666C60.858 34.428 59.724 34.0854 58.5832 33.7545C57.8097 33.5264 57.038 33.2682 56.2501 33.1098C55.2251 32.903 54.1806 32.7838 53.1515 32.611C52.8578 32.561 52.5699 32.4469 52.2805 32.4255C51.5517 32.3273 50.8374 32.2218 50.0973 32.1431C49.2845 32.064 48.4673 31.9928 47.6477 31.9617C46.2101 31.9017 44.7596 31.855 43.3229 31.8474C42.2085 31.8492 41.0867 31.909 39.9715 31.9935C38.2357 32.1255 36.4862 32.2183 34.7689 32.4805C32.6299 32.8063 30.5006 33.2053 28.3956 33.7067C26.2905 34.2081 24.3118 34.7877 22.31 35.4528C20.6783 36.0003 19.0791 36.6402 17.5201 37.3695C15.7326 38.1947 13.9872 39.1274 12.2641 40.0575C11.058 40.7138 9.89967 41.4496 8.72569 42.1764C7.91651 42.6769 7.19015 43.2772 6.40934 43.8097C6.14111 43.9692 5.86013 44.1063 5.56927 44.2194L4.64065 43.6833C4.39732 42.3567 5.04693 41.4208 5.69249 40.5189C6.00339 40.1214 6.38724 39.7868 6.82347 39.5331C8.55562 38.4522 10.3074 37.3463 12.0784 36.3242C13.2791 35.6233 14.5132 34.9727 15.7909 34.3994C17.7688 33.3998 19.802 32.5137 21.8805 31.7453C25.3001 30.5981 28.7633 29.5646 32.263 28.7291C34.5382 28.1855 36.9171 28.0658 39.2509 27.7901C40.4401 27.6496 41.636 27.5336 42.8264 27.5082C44.2454 27.4743 45.6623 27.5432 47.0793 27.5757C48.2281 27.6043 49.3737 27.6206 50.5178 27.6933C51.3866 27.7474 52.2443 27.8837 53.1038 27.9898L54.4957 28.1743C55.2758 28.2918 56.0219 28.4052 56.7696 28.5248C57.5173 28.6443 58.1596 28.7394 58.8542 28.8698C59.393 28.9729 59.9318 29.0759 60.4614 29.2307C61.3165 29.4799 62.1601 29.7849 63.015 30.034C64.0285 30.333 65.0439 30.6018 66.0603 30.8869L66.2606 30.9454C69.383 32.1887 72.3665 33.756 75.1621 35.6216C76.1203 36.2685 76.8947 37.189 77.7534 37.9813C77.8655 38.0572 77.9829 38.125 78.1045 38.1841C77.9933 37.0794 77.854 36.1042 77.7918 35.1214C77.6674 34.169 77.6427 33.2063 77.7181 32.2487C77.8518 31.5872 78.1728 30.978 78.6429 30.4937C79.0163 30.0902 79.6424 29.9158 80.2535 29.5872L80.8667 30.5706C80.9749 36.7718 82.5126 42.5603 84.3585 48.329Z" fill="black"/>
</svg>
