<svg width="16" height="16" viewBox="0 0 16 16" fill="none" xmlns="http://www.w3.org/2000/svg">
<path d="M6.91112 0.199852C6.82223 0.199852 6.71112 0.199852 6.62223 0.244297C5.97778 0.533186 5.26667 0.710963 5.00001 1.46652C4.6889 2.33319 4.91112 3.19985 5.35556 3.97763C6.06667 5.2443 7.73334 5.28874 8.8889 4.66652C11.5111 3.26652 9.42223 -0.955703 6.91112 0.199852ZM8.44445 3.88874C7.77778 4.33319 6.8889 4.26652 6.2889 3.71096C5.84445 3.28874 5.53334 2.46652 5.77778 1.93319C6.33334 0.755408 8.57778 0.533185 9.00001 1.71096C9.33334 2.6443 9.22223 3.42207 8.44445 3.88874Z" fill="black"/>
<path d="M10.9557 9.2449C10.7779 8.13379 10.5112 6.93379 10.0223 6.46713C8.53344 5.02268 6.06678 5.17824 5.15566 7.11157C4.97789 7.51157 4.86678 8.20046 4.80011 8.97824C4.86678 9.55602 4.60011 13.6449 4.55566 14.8449V15.0894C4.57789 15.8005 5.24455 16.0894 5.82233 15.9782C7.33344 15.7116 9.06678 15.7782 10.6446 15.8005C11.4223 16.0227 11.4223 15.5116 11.4223 15.0671V14.8671C11.3557 13.956 11.0668 10.1338 10.9557 9.2449ZM10.5334 14.9116C9.46678 14.8671 5.40011 14.6449 5.46678 15.0894C5.40011 14.5782 5.53344 13.9782 5.57789 13.4671C5.64455 12.6227 5.60011 11.756 5.64455 10.9116C5.689 9.88935 5.66678 7.00046 7.04455 6.44491C8.02233 6.04491 9.35566 6.86713 9.86678 7.68935C10.3112 8.42268 10.3112 11.2449 10.4223 12.0671C10.5112 13.0005 10.5557 13.956 10.5334 14.9116Z" fill="black"/>
</svg>
