<svg width="16" height="16" viewBox="0 0 16 16" fill="none" xmlns="http://www.w3.org/2000/svg">
<path d="M15.9878 3.62705C16.0126 3.71766 16.0002 3.82336 15.963 3.91396C15.9382 3.97437 15.9134 4.03477 15.8638 4.09517C14.4498 6.22435 13.0235 8.36864 11.5971 10.4978C10.9397 11.4794 10.27 12.4609 9.6002 13.4424C9.53818 13.533 9.46376 13.6236 9.37694 13.6689C9.26531 13.7444 9.15369 13.6991 9.05446 13.5934C8.98004 13.5028 8.90562 13.4273 8.8188 13.3669C8.3971 13.0498 7.96299 12.7478 7.54128 12.4307C7.45446 12.3703 7.39244 12.3703 7.31803 12.4458C6.73508 13.0196 6.16454 13.5934 5.58159 14.1522C5.42035 14.3032 5.23431 14.424 5.04826 14.5297C4.88702 14.6354 4.73818 14.575 4.66376 14.3636C4.05601 12.7327 3.42345 11.1018 2.93973 9.39548C2.92733 9.35018 2.89012 9.28977 2.85291 9.25957C2.4312 8.94246 2.0095 8.62535 1.6002 8.29313C1.10407 7.90052 0.607949 7.4928 0.124228 7.08509C-0.0494156 6.90388 -0.0122064 6.58677 0.136631 6.48106C0.384693 6.34516 0.669964 6.25456 0.942832 6.19415C2.30717 5.90724 3.68392 5.63543 5.06066 5.36362C6.59865 5.06161 8.13663 4.7747 9.68702 4.47269C11.0762 4.21598 12.4529 3.95927 13.8421 3.70256C14.4002 3.59685 14.9459 3.49115 15.5041 3.40054C15.6157 3.38544 15.7397 3.38544 15.8514 3.41564C15.9134 3.46095 15.963 3.52135 15.9878 3.62705ZM9.31493 12.6572C11.101 10.0297 12.887 7.4022 14.6855 4.7596L14.6607 4.7143C11.6467 6.52637 8.59555 8.24783 5.6064 10.0901C5.53198 10.1354 5.53198 10.2562 5.6064 10.3166C6.8095 11.1169 7.98779 11.9022 9.19089 12.6874C9.2281 12.7176 9.27772 12.7025 9.31493 12.6572ZM1.09167 6.82838C0.992445 6.84348 0.967639 6.99448 1.05446 7.06999C1.12888 7.13039 1.19089 7.17569 1.26531 7.23609C1.84826 7.68911 2.4312 8.15723 3.00175 8.61025C3.08857 8.67065 3.15058 8.67065 3.24981 8.62535C3.53508 8.45924 4.0312 8.23273 4.32888 8.11193C6.7971 7.05489 9.25291 6.01295 11.7211 4.97101C11.8576 4.9106 12.0064 4.8502 12.1428 4.7898L12.1304 4.7596C8.45911 5.43912 4.78779 6.13375 1.09167 6.82838ZM4.49012 12.1589C4.51493 12.2344 4.61415 12.2042 4.61415 12.1287V10.83C4.61415 10.6186 4.60175 10.4072 4.61415 10.2109C4.62655 10.1052 4.68857 9.9844 4.76299 9.924C5.09787 9.66729 5.43275 9.42568 5.78004 9.21427C7.46686 8.20253 9.15369 7.22099 10.8405 6.22435C11.039 6.10355 11.2498 5.98274 11.4483 5.86194L11.4359 5.83174L3.5971 9.12367C3.48547 9.16897 3.42345 9.33508 3.47307 9.47098C3.80795 10.3619 4.15524 11.2529 4.49012 12.1589ZM5.2095 10.8753L5.15989 10.9055C5.17229 11.7361 5.18469 12.5666 5.1971 13.4273C5.1971 13.533 5.29632 13.5783 5.35834 13.5179C5.82965 13.0196 6.28857 12.5515 6.74748 12.0683C6.7971 12.0079 6.78469 11.9173 6.73508 11.872C6.21415 11.5398 5.70562 11.2075 5.2095 10.8753Z" fill="black"/>
</svg>
