<svg width="17" height="16" viewBox="0 0 17 16" fill="none" xmlns="http://www.w3.org/2000/svg">
<path d="M14.7188 10.15C13.9248 9.41707 13.1075 8.35101 11.8698 8.50648C10.9357 8.61753 10.5854 9.21718 10.4686 10.0389C10.1651 12.2377 6.98913 8.92846 6.28856 8.35101C5.98498 8.10671 4.72395 6.88518 5.40117 6.50762C5.70475 6.32994 6.1718 6.32994 6.52209 6.26331C7.1993 6.15227 8.01664 5.84133 8.20346 5.15284C8.6705 3.55375 6.89572 1.77698 5.70475 0.844183C2.34201 -1.86538 0.800757 2.7542 0.520529 3.88689C-0.180042 6.72971 1.12769 9.52812 3.20605 11.5492C5.47123 13.7257 7.85317 15.7468 11.1692 15.9911C12.9907 16.1244 16.3301 15.3026 16.3301 13.0372C16.3301 11.7935 15.6062 10.9717 14.7188 10.15ZM14.9289 13.859C13.0607 16.1244 8.90403 14.925 6.98913 13.4814C4.74731 11.8157 2.41207 9.83905 1.54803 7.19612C1.17439 6.06343 1.29116 4.53097 1.7115 3.4427C2.57554 1.22175 3.15935 1.22175 3.74315 1.06628C5.16765 0.666506 7.29271 3.59817 7.31607 4.61981C7.33942 5.64145 4.81736 5.26388 4.32696 6.2411C3.50963 7.88461 6.28856 9.50591 7.22266 10.4387C8.15675 11.3715 10.2351 12.7263 11.1926 11.105C11.4027 10.7719 11.4027 10.3055 11.4728 9.90568C11.9398 9.32823 12.3835 9.2616 12.8506 9.728C13.0841 9.92789 13.3176 10.15 13.5278 10.3721C14.5086 11.2827 16.0732 12.482 14.9289 13.859Z" fill="black"/>
</svg>
