<svg width="16" height="16" viewBox="0 0 16 16" fill="none" xmlns="http://www.w3.org/2000/svg">
<path d="M5.22656 13.0225C5.24375 12.9613 5.25639 12.899 5.26438 12.8359C5.23929 12.8949 5.22642 12.9584 5.22656 13.0225Z" fill="black"/>
<path d="M5.27187 13.3753C5.24063 13.3236 5.22046 13.266 5.21265 13.2061C5.20484 13.1462 5.20955 13.0853 5.22649 13.0273C5.22271 13.0718 5.22271 13.1165 5.22649 13.161L5.27187 13.3753Z" fill="black"/>
<path d="M6.26521 13.0547C6.26521 13.0849 6.26521 13.1127 6.24756 13.1429C6.24756 13.1127 6.24756 13.0849 6.24756 13.0547H6.26521Z" fill="black"/>
<path d="M14.2857 5.72035C14.1193 3.53945 12.8587 1.43419 10.824 0.52653C9.68187 0.0121902 8.42376 -0.063448 7.19085 0.0399242C6.10438 0.092332 5.03611 0.339119 4.03674 0.768572C3.54445 0.992147 3.10439 1.31627 2.74485 1.72009C2.38532 2.12392 2.11427 2.59851 1.94913 3.11336C1.59615 4.22524 1.6617 5.47579 1.8987 6.6028C2.16737 7.888 2.72523 9.09512 3.52997 10.1326C3.91572 10.6368 4.37711 11.0629 4.76791 11.5546C5.06038 11.9252 5.3352 12.3538 5.27217 12.8152C5.26418 12.8783 5.25154 12.9406 5.23435 13.0018V13.0169C5.23057 13.0614 5.23057 13.1061 5.23435 13.1505L5.2646 13.3649C5.32763 13.8262 5.38814 14.2826 5.45118 14.7415C5.51421 15.2003 5.56968 15.6819 6.07141 15.8508C6.50003 15.9996 7.04966 15.9492 7.50097 15.9668C8.02287 15.9845 8.54478 15.9895 9.06668 15.987C9.58858 15.9845 10.1105 15.9693 10.6324 15.9441C11.0534 15.9239 11.6409 15.9845 11.893 15.5836C12.13 15.2256 12.0342 14.6734 12.0367 14.2649C12.0367 13.7355 12.0367 13.206 12.0367 12.6765C12.0377 12.5955 12.0177 12.5156 11.9788 12.4446C12.4048 11.3453 13.1461 10.4049 13.6226 9.32829C14.1364 8.19828 14.3641 6.95919 14.2857 5.72035ZM6.2479 13.1455C6.2479 13.1152 6.2479 13.0875 6.2479 13.0573H6.27563C7.87076 13.0119 9.46756 13.0463 11.0661 13.1606C11.0661 13.3043 11.0661 13.4506 11.0661 13.5943C9.49706 13.3204 7.89445 13.2983 6.31849 13.5287L6.2479 13.1455ZM7.32952 7.81553C7.42029 7.79536 7.5514 7.75754 7.58165 7.7525L8.1086 7.65921C8.56243 7.58357 9.01626 7.5155 9.47009 7.45499C9.17005 8.9854 8.87254 10.5108 8.57251 12.0412H8.30274C7.92792 10.8344 7.63064 9.60486 7.41273 8.36013L7.33709 7.89873C7.33573 7.87186 7.33573 7.84493 7.33709 7.81805C7.28666 7.81805 7.24884 7.83066 7.24128 7.81805C7.23372 7.80545 7.22615 7.78023 7.2791 7.73989C7.3144 7.63652 7.32952 7.63904 7.32196 7.73989C7.32804 7.76462 7.33059 7.79009 7.32952 7.81553ZM11.0257 15.0869C11.0383 15.1625 11.0383 15.165 11.0257 15.0869V15.0869ZM11.0257 14.6179C11.0257 14.7289 11.0257 14.8398 11.0257 14.9507C10.8543 14.9684 10.6223 14.9507 10.5089 14.9507C10.1987 14.9659 9.88862 14.9759 9.58102 14.981C8.96331 14.981 8.34308 14.981 7.72536 14.981C7.41525 14.981 7.10765 14.9608 6.79754 14.9457L6.48742 14.923C6.48742 14.8574 6.46725 14.7919 6.45968 14.7263C6.45212 14.6608 6.44204 14.5978 6.43447 14.5322C7.93221 14.3034 9.4577 14.3273 10.9476 14.6028C10.9786 14.6053 11.0098 14.6053 11.0408 14.6028L11.0257 14.6179ZM12.7326 8.819C12.2284 9.9687 11.472 10.9646 11.0308 12.1471C10.5441 12.1093 10.0575 12.084 9.56841 12.0639C9.90458 10.3746 10.2357 8.68537 10.5618 6.99612C10.6173 6.71121 10.4282 6.31789 10.0752 6.35823L9.55329 6.42379C8.94146 6.50279 8.32879 6.59355 7.71528 6.69609C7.36764 6.72477 7.02701 6.80993 6.70677 6.94821C6.5491 7.04288 6.42571 7.18534 6.35453 7.35491C6.28335 7.52448 6.26807 7.71233 6.31093 7.89117C6.51321 9.29258 6.82512 10.676 7.2438 12.0286C6.8883 12.0286 6.53532 12.0286 6.17982 12.0487C5.96014 11.4855 5.63108 10.9714 5.21165 10.536C4.87128 10.1502 4.50318 9.7796 4.20315 9.36864C3.8891 8.93595 3.61883 8.47312 3.39634 7.98698C2.9613 7.04354 2.7261 6.02032 2.70551 4.98162C2.70551 3.9479 2.89965 2.88896 3.71402 2.17292C4.39728 1.56277 5.3478 1.31317 6.23529 1.16441C7.33988 0.946363 8.47644 0.946363 9.58102 1.16441C11.5098 1.62328 12.8839 3.30497 13.2293 5.2161C13.4232 6.43975 13.2568 7.69339 12.7503 8.82404L12.7326 8.819Z" fill="black"/>
<path d="M7.32918 7.81588C7.27876 7.81588 7.24094 7.82849 7.23338 7.81588C7.22581 7.80327 7.21825 7.77806 7.2712 7.73772C7.30649 7.63435 7.32162 7.63687 7.31406 7.73772C7.32294 7.76288 7.32803 7.78922 7.32918 7.81588Z" fill="black"/>
</svg>
