<svg width="16" height="16" viewBox="0 0 16 16" fill="none" xmlns="http://www.w3.org/2000/svg">
<path d="M15.3044 4.96869C14.4444 3.25981 12.7355 2.22647 10.9711 1.62203C7.94439 0.586472 4.22216 1.66647 1.89994 3.74425C0.679941 4.84425 -0.137837 6.45758 0.019941 8.11092C0.166608 9.66647 1.19994 11.5354 2.9555 11.7576C3.01263 12.1708 3.00061 12.5906 2.91994 12.9998C2.81772 13.4198 2.61772 13.8131 2.50883 14.2331C2.49203 14.2982 2.49018 14.3661 2.50343 14.432C2.51667 14.4978 2.54466 14.5598 2.58529 14.6132C2.62593 14.6667 2.67815 14.7103 2.73803 14.7407C2.79792 14.7711 2.86391 14.7875 2.93105 14.7887C3.59772 14.8065 4.17105 14.382 4.76439 14.122C5.42073 13.8614 6.03482 13.505 6.58661 13.0642C8.36439 13.5642 11.2044 13.0642 12.8199 12.302C13.9311 11.7909 15.2999 11.0798 15.7466 9.77981C16.2355 8.33314 15.9777 6.29981 15.3044 4.96869ZM15.0466 9.02869C14.8644 10.222 13.6999 10.7509 12.7444 11.2509C11.6333 11.8287 8.3555 12.6887 6.84439 12.2354C6.80858 12.1882 6.76302 12.1494 6.71083 12.1215C6.65863 12.0936 6.60102 12.0773 6.54194 12.0737C6.48286 12.0701 6.42371 12.0793 6.36852 12.1007C6.31333 12.1221 6.26341 12.1551 6.22216 12.1976C5.73892 12.654 5.17128 13.0118 4.55105 13.2509C4.2755 13.3754 3.93772 13.5842 3.60216 13.7309C3.68886 13.495 3.76304 13.2547 3.82439 13.0109C3.9555 12.482 3.83772 11.942 3.82439 11.4087C3.82129 11.3425 3.80341 11.2777 3.77206 11.2193C3.74071 11.1609 3.69668 11.1102 3.64319 11.071C3.58971 11.0318 3.52813 11.005 3.46297 10.9927C3.3978 10.9804 3.33071 10.9828 3.26661 10.9998C3.20976 10.9571 3.14581 10.9247 3.07772 10.9042C1.17327 10.3109 0.619941 8.06869 1.04439 6.57092C1.41105 5.26647 2.53772 4.22647 3.63327 3.51314C4.68001 2.8523 5.85351 2.41796 7.07826 2.23807C8.303 2.05819 9.55184 2.13675 10.7444 2.46869C13.6755 3.32203 15.5133 5.95758 15.0466 9.02869Z" fill="black"/>
<path d="M12.3066 5.25954C9.61329 5.24176 6.86662 5.21954 4.17773 5.03732C3.61106 4.99954 3.61551 5.87732 4.17773 5.9151C6.86662 6.09732 9.61329 6.11732 12.3066 6.13732C12.8755 6.14176 12.8733 5.26176 12.3066 5.25954Z" fill="black"/>
<path d="M12.498 7.3247C11.2247 7.09137 9.94469 7.12026 8.6558 7.10248C7.13802 7.09137 5.62469 6.94248 4.10469 6.93359C3.53802 6.93359 3.53802 7.80915 4.10469 7.82248C5.3758 7.82248 6.64469 7.89359 7.91358 7.96915C9.36691 8.05359 10.8225 7.90915 12.2647 8.17359C12.818 8.27359 13.0558 7.42693 12.498 7.3247Z" fill="black"/>
<path d="M11.5757 9C9.2313 9 6.88907 9.06889 4.54463 9.07333C3.97796 9.07333 3.97796 9.96222 4.54463 9.96222C6.88907 9.96222 9.2313 9.89333 11.5757 9.88889C12.1424 9.87111 12.1424 9 11.5757 9Z" fill="black"/>
</svg>
