<svg width="72" height="72" viewBox="0 0 72 72" fill="none" xmlns="http://www.w3.org/2000/svg">
<path d="M63.1412 2.10938C63.1412 0.944437 62.1968 0 61.0318 0H10.9682C9.80326 0 8.85883 0.944437 8.85883 2.10938V69.8906C8.85883 71.0556 9.80326 72 10.9682 72H61.0318C62.1968 72 63.1412 71.0556 63.1412 69.8906V2.10938ZM50.485 61.4531V67.7812H21.5162V61.4531C21.5162 60.2882 20.5718 59.3438 19.4068 59.3438H13.0776V12.6562H19.407C20.5719 12.6562 21.5163 11.7118 21.5163 10.5469V4.21875H50.4851V10.5469C50.4851 11.7118 51.4295 12.6562 52.5945 12.6562H58.9213V59.3438H52.5945C51.4294 59.3438 50.485 60.2882 50.485 61.4531ZM58.9212 4.21875V8.4375H54.7037V4.21875H58.9212ZM17.2976 4.21875V8.4375H13.0788V4.21875H17.2976ZM13.0788 67.7812V63.5625H17.2976V67.7812H13.0788ZM54.7037 67.7812V63.5625H58.9212V67.7812H54.7037Z" fill="black"/>
<path d="M26.3218 31.7013C26.1053 32.6152 26.0965 33.5727 26.3056 34.52C26.6795 36.2137 27.7499 37.6957 29.2425 38.5862C31.4049 39.8758 34.0283 39.7355 35.9991 38.4181C37.043 39.1158 38.2694 39.4833 39.5136 39.4832C40.6191 39.4832 41.7389 39.193 42.7562 38.586C44.2485 37.6959 45.3189 36.2141 45.693 34.521C45.9021 33.5736 45.8934 32.6158 45.677 31.7014C47.4616 30.3036 48.4182 27.9985 48.0141 25.6451C47.7283 23.9792 46.8104 22.5244 45.4303 21.5486C44.4388 20.8477 43.2939 20.4543 42.1097 20.3942C40.3789 14.1919 31.6175 14.1963 29.8891 20.3942C24.0343 20.7328 21.7644 28.1128 26.3218 31.7013ZM28.1426 26.3588C28.2379 25.8035 28.5438 25.3186 29.0039 24.9932C29.464 24.6681 30.0231 24.5414 30.5778 24.6367C30.7426 24.665 30.9236 24.7152 31.1155 24.7855C31.8161 25.0424 32.6002 24.9102 33.1776 24.4377C33.7552 23.9654 34.0401 23.2229 33.927 22.4854C33.6656 21.1845 34.6649 19.9221 35.9996 19.9332C37.3341 19.9223 38.3334 21.1849 38.0718 22.4857C37.9588 23.2233 38.2439 23.9657 38.8215 24.4382C39.3992 24.9107 40.1837 25.0428 40.8839 24.7855C41.0754 24.715 41.2561 24.6651 41.4204 24.6367C41.9757 24.5422 42.5348 24.6681 42.995 24.9932C43.4549 25.3185 43.7608 25.8035 43.8563 26.3588C44.0367 27.41 43.4043 28.4318 42.3852 28.7357C41.7403 28.9279 41.2258 29.4166 41.0003 30.0509C40.7751 30.6851 40.8659 31.3888 41.2449 31.945C41.5841 32.4427 41.7006 33.0343 41.5734 33.611C41.4474 34.1816 41.0998 34.6617 40.5948 34.963C39.6257 35.5405 38.3796 35.2581 37.7577 34.3192C36.961 33.0706 35.0371 33.0707 34.2408 34.3192C33.6188 35.258 32.3724 35.5409 31.4037 34.963C30.8987 34.6616 30.551 34.1814 30.425 33.6106C30.2978 33.0339 30.4144 32.4425 30.7533 31.9454C31.1324 31.3893 31.2234 30.6854 30.9982 30.0511C30.773 29.4168 30.2584 28.9282 29.6134 28.7357C28.5945 28.4318 27.9621 27.41 28.1426 26.3588Z" fill="black"/>
<path d="M35.9995 30.6213C37.1645 30.6213 38.1088 29.6768 38.1088 28.5119V28.4417C38.0052 25.646 33.9929 25.6481 33.8901 28.4417V28.5119C33.8901 29.6768 34.8345 30.6213 35.9995 30.6213Z" fill="black"/>
<path d="M50.2037 43.6289H21.7952C18.9994 43.7327 19.0015 47.7449 21.7952 47.8477H50.2037C52.9995 47.7439 52.9973 43.7317 50.2037 43.6289Z" fill="black"/>
<path d="M44.3981 52.0664H27.6007C24.805 52.1702 24.8071 56.1824 27.6007 56.2852H44.3981C47.1939 56.1814 47.1918 52.1692 44.3981 52.0664Z" fill="black"/>
</svg>
