<svg width="72" height="72" viewBox="0 0 72 72" fill="none" xmlns="http://www.w3.org/2000/svg">
<g clip-path="url(#clip0_233_1796)">
<path d="M52.6269 37.5107L54.3942 35.7435C54.3947 35.7429 54.3953 35.7424 54.3959 35.7418C54.3964 35.7412 54.397 35.7407 54.3975 35.7401L60.6317 29.5059C60.632 29.5055 60.6324 29.5052 60.6329 29.5049C60.6333 29.5047 60.6336 29.5042 60.6338 29.5038L66.8692 23.2685C66.8693 23.2684 66.8694 23.2682 66.8696 23.2681C66.8697 23.2679 66.8699 23.2678 66.87 23.2677L70.2949 19.8427C71.3945 18.7433 72 17.2814 72 15.7265C72 14.1716 71.3943 12.7097 70.2949 11.6104L60.3899 1.70521C59.2905 0.6058 57.8285 0.000127767 56.2736 0.000127767C54.7186 0.000127767 53.2568 0.605659 52.1574 1.70521L34.4893 19.3731L22.4969 7.38055C20.4893 5.37299 17.9733 3.94396 15.2205 3.248L2.62645 0.0643934C1.90645 -0.117716 1.14314 0.0925184 0.617906 0.618034C0.0925312 1.14327 -0.117703 1.90616 0.0644063 2.62644L3.24816 15.2205C3.94397 17.9731 5.373 20.4893 7.38056 22.4969L19.3731 34.4893L1.70494 52.1572C0.605531 53.2568 0 54.7186 0 56.2735C0 57.8285 0.605531 59.2902 1.70508 60.3896L11.6103 70.2948C12.7098 71.3945 14.1716 72 15.7267 72C17.2815 72 18.7433 71.3945 19.8428 70.2949L29.5005 60.6373C29.502 60.6359 29.5034 60.6344 29.505 60.633C29.5065 60.6316 29.5079 60.63 29.5093 60.6285L37.5107 52.6271L53.7529 68.8694C55.8367 70.9532 58.5738 71.9952 61.3111 71.9952C64.0484 71.9952 66.7855 70.9533 68.8693 68.8694C73.037 64.7018 73.037 57.9206 68.8693 53.753L52.6269 37.5107ZM7.33809 14.1867L5.02116 5.02128L14.1865 7.33836C16.2018 7.84771 18.0439 8.89396 19.5137 10.3638L21.1767 12.0268L12.0265 21.177L10.3635 19.514C8.89369 18.044 7.84758 16.202 7.33809 14.1867ZM15.0096 24.1599L24.1598 15.0097L31.5062 22.3561L22.356 31.5063L15.0096 24.1599ZM15.7267 67.7812C15.2986 67.7812 14.8963 67.6145 14.5935 67.3118L4.68816 57.4066C4.38553 57.104 4.21889 56.7015 4.21889 56.2735C4.21889 55.8454 4.38553 55.4429 4.68816 55.1402L55.1403 4.68814C55.443 4.38552 55.8456 4.21874 56.2736 4.21874C56.7017 4.21874 57.104 4.38552 57.4068 4.68814L67.312 14.5935C67.6146 14.896 67.7814 15.2984 67.7814 15.7265C67.7814 16.1546 67.6146 16.557 67.312 16.8598L65.3783 18.7935L58.9437 12.3588C58.1202 11.535 56.7845 11.535 55.9606 12.3588C55.1368 13.1825 55.1368 14.5181 55.9606 15.3419L62.3952 21.7766L59.1414 25.0304L55.8252 21.7143C55.0015 20.8904 53.6659 20.8907 52.8421 21.7143C52.0183 22.5381 52.0183 23.8736 52.8421 24.6974L56.1583 28.0135L52.9045 31.2673L46.47 24.8325C45.6462 24.0088 44.3107 24.0088 43.4869 24.8325C42.6631 25.6562 42.6631 26.9918 43.4869 27.8156L49.9215 34.2502L46.6677 37.504L43.3515 34.1879C42.5278 33.3643 41.1922 33.3643 40.3684 34.1879C39.5446 35.0115 39.5446 36.3472 40.3684 37.171L43.6845 40.487L40.4871 43.6844L34.0525 37.2499C33.2287 36.4261 31.8932 36.4261 31.0694 37.2499C30.2456 38.0735 30.2456 39.4092 31.0694 40.2329L37.504 46.6675L34.2502 49.9213L30.9341 46.6052C30.1105 45.7816 28.7748 45.7816 27.951 46.6052C27.1273 47.4289 27.1273 48.7645 27.951 49.5883L31.2671 52.9044L28.0133 56.1582L21.5789 49.7237C20.7553 48.9001 19.4196 48.9001 18.5958 49.7237C17.772 50.5474 17.772 51.883 18.5958 52.7068L25.0303 59.1412L21.7765 62.395L18.4604 59.0789C17.6368 58.2553 16.3011 58.2553 15.4773 59.0789C14.6535 59.9026 14.6535 61.2382 15.4773 62.062L18.7934 65.3781L16.8597 67.3118C16.557 67.6146 16.1546 67.7812 15.7267 67.7812ZM41.9701 48.1677C41.973 48.1649 41.9759 48.1621 41.9788 48.1591C41.9818 48.1562 41.9846 48.1534 41.9874 48.1504L48.1569 41.9809C48.1577 41.9801 48.1586 41.9794 48.1593 41.9785C48.16 41.9777 48.1608 41.977 48.1617 41.9761L49.644 40.4938L58.5824 49.4322L49.4322 58.5824L40.4938 49.644L41.9701 48.1677ZM65.8862 65.8862C63.3635 68.4088 59.2587 68.4088 56.736 65.8862L52.4153 61.5653L61.5655 52.4151L65.8863 56.7358C68.409 59.2588 68.409 63.3635 65.8862 65.8862Z" fill="black"/>
</g>
<defs>
<clipPath id="clip0_233_1796">
<rect width="72" height="72" fill="white"/>
</clipPath>
</defs>
</svg>
