<svg width="72" height="72" viewBox="0 0 72 72" fill="none" xmlns="http://www.w3.org/2000/svg">
<path d="M68.4845 8.73703H50.0001V2.10938C50.0001 0.944437 49.0556 0 47.8907 0H3.5155C2.35057 0 1.40613 0.944437 1.40613 2.10938V64.0659C1.40613 65.2309 2.35057 66.1753 3.5155 66.1753H22.0001V69.8906C22.0001 71.0556 22.9445 72 24.1095 72H68.4847C69.6496 72 70.5941 71.0556 70.5941 69.8906V10.8464C70.5939 9.68147 69.6495 8.73703 68.4845 8.73703ZM35.9677 8.73703L45.7813 5.13169V8.73703H35.9677ZM5.62488 61.9566V4.21875H36.0324L23.382 8.86641C22.5519 9.17142 22.0001 9.96202 22.0001 10.8464V61.9566H5.62488ZM66.3752 67.7812H26.2188V12.9558H66.3753V67.7812H66.3752Z" fill="black"/>
<path d="M50.516 34.0396H59.8217C60.9866 34.0396 61.9311 33.0952 61.9311 31.9303V23.4922C61.9311 22.3272 60.9866 21.3828 59.8217 21.3828H50.516C49.3511 21.3828 48.4066 22.3272 48.4066 23.4922V31.9303C48.4066 33.0952 49.3511 34.0396 50.516 34.0396ZM52.6254 25.6016H57.7123V29.8209H52.6254V25.6016Z" fill="black"/>
<path d="M32.7722 34.04H42.0779C43.2429 34.04 44.1873 33.0956 44.1873 31.9307C44.1873 30.7657 43.2429 29.8213 42.0779 29.8213H32.7722C31.6073 29.8213 30.6628 30.7657 30.6628 31.9307C30.6628 33.0956 31.6073 34.04 32.7722 34.04Z" fill="black"/>
<path d="M32.7722 25.6016H42.0779C43.2429 25.6016 44.1873 24.6571 44.1873 23.4922C44.1873 22.3272 43.2429 21.3828 42.0779 21.3828H32.7722C31.6073 21.3828 30.6628 22.3272 30.6628 23.4922C30.6628 24.6571 31.6073 25.6016 32.7722 25.6016Z" fill="black"/>
<path d="M32.7722 42.4775H59.8217C60.9867 42.4775 61.9311 41.5331 61.9311 40.3682C61.9311 39.2032 60.9867 38.2588 59.8217 38.2588H32.7722C31.6073 38.2588 30.6628 39.2032 30.6628 40.3682C30.6628 41.5331 31.6073 42.4775 32.7722 42.4775Z" fill="black"/>
<path d="M32.7722 50.916H59.8217C60.9867 50.916 61.9311 49.9716 61.9311 48.8066C61.9311 47.6417 60.9867 46.6973 59.8217 46.6973H32.7722C31.6073 46.6973 30.6628 47.6417 30.6628 48.8066C30.6628 49.9716 31.6073 50.916 32.7722 50.916Z" fill="black"/>
<path d="M32.7722 59.3535H59.8217C60.9867 59.3535 61.9311 58.4091 61.9311 57.2441C61.9311 56.0792 60.9867 55.1348 59.8217 55.1348H32.7722C31.6073 55.1348 30.6628 56.0792 30.6628 57.2441C30.6628 58.4091 31.6073 59.3535 32.7722 59.3535Z" fill="black"/>
</svg>
