<svg width="73" height="72" viewBox="0 0 73 72" fill="none" xmlns="http://www.w3.org/2000/svg">
<g clip-path="url(#clip0_227_1989)">
<path d="M45.2632 45.2966L40.6762 45.2826L41.4219 42.0689C41.6476 41.0964 41.6731 40.1081 41.4973 39.1309C40.915 35.8952 38.1628 33.4071 34.9603 33.1159C32.4169 30.3134 28.8514 28.7242 25.027 28.7242H21.1515C26.6957 28.2569 31.0654 23.5981 31.0654 17.9351C31.0654 11.9631 26.2067 7.10449 20.2347 7.10449C14.2626 7.10449 9.404 11.9631 9.404 17.9351C9.404 23.5981 13.7735 28.2569 19.3178 28.7242H15.4423C8.93515 28.7242 3.37625 33.3727 2.22481 39.7772L0.37362 50.0737C0.263089 50.6885 0.430855 51.3208 0.831636 51.8002C1.23242 52.2796 1.82501 52.5565 2.44981 52.5565H9.95525V67.8399C9.95525 69.0048 10.8997 69.9492 12.0646 69.9492L39.491 69.9591C43.27 69.9591 46.7572 67.7524 48.3751 64.3372L52.1927 56.2788C53.3261 53.8862 53.1592 51.1214 51.7463 48.8825C50.3333 46.6437 47.9094 45.3032 45.2632 45.2966ZM13.6227 17.935C13.6227 14.2892 16.5888 11.3231 20.2347 11.3231C23.8805 11.3231 26.8467 14.2892 26.8467 17.935C26.8467 21.5809 23.8805 24.5469 20.2347 24.5469C16.5888 24.5469 13.6227 21.5809 13.6227 17.935ZM6.3769 40.5236C7.16651 36.131 10.979 32.9428 15.4422 32.9428H25.0269C27.4542 32.9428 29.728 33.8786 31.4368 35.5415L28.816 40.8676C28.8114 40.877 28.8069 40.8864 28.8022 40.896C28.0445 42.4956 26.8709 43.8677 25.4075 44.864L20.2747 48.3591L4.97192 48.3376L6.3769 40.5236ZM14.1739 52.5778H18.808V65.7306H14.1739V52.5778ZM48.38 54.4728L44.5625 62.5311C43.6389 64.4808 41.6482 65.7405 39.4909 65.7405H23.0268V51.5891L27.7821 48.3511C29.8606 46.9358 31.5292 44.9876 32.608 42.7166L35.2019 37.445C36.2666 37.7894 37.1395 38.7357 37.3451 39.8777C37.4186 40.2875 37.4076 40.7037 37.3123 41.1149L35.9682 46.907C35.8231 47.5325 35.9707 48.1901 36.3694 48.6935C36.7682 49.1969 37.3743 49.4911 38.0165 49.4931L45.2514 49.515C46.4643 49.518 47.5311 50.108 48.1784 51.1338C48.8257 52.1598 48.8992 53.3766 48.38 54.4728Z" fill="black"/>
<path d="M39.4199 15.4811L38.5772 20.3944C38.2734 22.101 40.1118 23.4335 41.6379 22.618L46.0504 20.2982L50.4628 22.618C51.1738 22.9918 52.0348 22.9293 52.6842 22.4574C53.3338 21.9854 53.6592 21.1856 53.5235 20.3943L52.6809 15.481L56.2506 12.0012C56.8256 11.4408 57.0325 10.6026 56.7844 9.83882C56.5364 9.07523 55.8763 8.51863 55.0817 8.40318L50.1483 7.68627L47.9422 3.21595C47.5869 2.49595 46.8536 2.04004 46.0507 2.04004C45.2478 2.04004 44.5145 2.49595 44.1591 3.2158L41.9529 7.68627L37.0196 8.40318C36.2251 8.51863 35.5648 9.07523 35.3169 9.83882C35.0687 10.6024 35.2757 11.4407 35.8507 12.0012L39.4199 15.4811ZM43.6565 11.7021C44.3436 11.6023 44.9373 11.1708 45.2447 10.5481L46.0502 8.91604L46.8557 10.5481C47.163 11.1707 47.7569 11.6023 48.444 11.7021L50.2452 11.9638L48.9419 13.2342C48.4447 13.7188 48.218 14.417 48.3353 15.1013L48.6429 16.8951L47.0321 16.0483C46.4174 15.7251 45.6835 15.7251 45.0688 16.0483L43.4578 16.8951L43.7657 15.1013C43.8831 14.417 43.6562 13.7188 43.1589 13.2342L41.8555 11.9637L43.6565 11.7021Z" fill="black"/>
<path d="M72.2367 28.2333C71.9887 27.4697 71.3286 26.9131 70.534 26.7976L64.3543 25.8996L61.5906 20.2998C61.2352 19.5798 60.502 19.124 59.699 19.124C58.896 19.124 58.1628 19.5799 57.8075 20.2999L55.0439 25.8998L48.8641 26.7978C48.0696 26.9132 47.4094 27.4698 47.1614 28.2334C46.9132 28.997 47.1202 29.8353 47.6953 30.3957L52.167 34.7545L51.1113 40.9094C50.8077 42.616 52.646 43.9483 54.172 43.1329L59.6993 40.2271L65.2267 43.1329C66.7554 43.9487 68.5907 42.6142 68.2874 40.9094L67.2317 34.7545L71.7035 30.3957C72.2779 29.8351 72.4849 28.9969 72.2367 28.2333ZM63.4925 32.5074C62.9953 32.992 62.7684 33.6902 62.8857 34.3745L63.4063 37.4099L60.6804 35.9769C60.373 35.8154 60.0359 35.7346 59.6989 35.7346C59.3618 35.7346 59.0246 35.8154 58.7173 35.9769L55.9916 37.4099L56.5122 34.3745C56.6296 33.6902 56.4028 32.992 55.9054 32.5074L53.7002 30.3579L56.7479 29.915C57.4349 29.8152 58.0288 29.3836 58.3361 28.7611L59.6989 25.9995L61.0618 28.7611C61.3692 29.3836 61.9629 29.8152 62.65 29.915L65.6977 30.3579L63.4925 32.5074Z" fill="black"/>
</g>
<defs>
<clipPath id="clip0_227_1989">
<rect width="72" height="72" fill="white" transform="translate(0.340088)"/>
</clipPath>
</defs>
</svg>
