<svg width="72" height="72" viewBox="0 0 72 72" fill="none" xmlns="http://www.w3.org/2000/svg">
<g clip-path="url(#clip0_227_1981)">
<path d="M58.572 26.0718C58.0831 25.6714 57.4404 25.511 56.8207 25.6346C43.5948 28.2801 34.0312 39.9113 34.0312 53.4333V59.3439H10.5469C9.38177 59.3439 8.4375 60.2882 8.4375 61.4533C8.4375 62.6184 9.38177 63.5627 10.5469 63.5627H36.1406C37.3057 63.5627 38.25 62.6184 38.25 61.4533V58.9099C43.5103 57.5246 48.202 54.6917 51.9022 50.6504C52.4191 50.0857 52.5894 49.2854 52.3471 48.5586L51.7236 46.6877H53.7468C54.5015 46.6877 55.1986 46.2845 55.5749 45.6302C58.0408 41.3439 59.3438 36.4594 59.3438 31.504V27.7033C59.3438 27.0716 59.0603 26.4728 58.572 26.0718ZM55.125 31.5046C55.125 35.3201 54.2175 39.0857 52.4916 42.4689H48.7969C48.119 42.4689 47.4818 42.7947 47.0858 43.3451C46.6891 43.8949 46.5815 44.6019 46.7957 45.2452L47.9416 48.6833C45.2032 51.3909 41.9041 53.3756 38.25 54.5209V53.4333C38.25 42.8474 45.2071 33.5508 55.125 30.4197V31.5046Z" fill="black"/>
<path d="M65.6719 0H6.32812C2.83887 0 0 2.83887 0 6.32812V65.6719C0 69.1611 2.83887 72 6.32812 72H65.6719C69.1611 72 72 69.1611 72 65.6719V6.32812C72 2.83887 69.1611 0 65.6719 0ZM6.32812 4.21875H65.6719C66.8348 4.21875 67.7812 5.16522 67.7812 6.32812V16.875H4.21875V6.32812C4.21875 5.16522 5.16522 4.21875 6.32812 4.21875ZM65.6719 67.7812H6.32812C5.16522 67.7812 4.21875 66.8348 4.21875 65.6719V21.0938H67.7812V65.6719C67.7812 66.8348 66.8348 67.7812 65.6719 67.7812Z" fill="black"/>
<path d="M12.6523 10.5469C12.6523 11.712 11.7075 12.6562 10.543 12.6562C9.37787 12.6562 8.43359 11.712 8.43359 10.5469C8.43359 9.38177 9.37787 8.4375 10.543 8.4375C11.7075 8.4375 12.6523 9.38177 12.6523 10.5469Z" fill="black"/>
<path d="M21.0898 10.5469C21.0898 11.712 20.145 12.6562 18.9805 12.6562C17.8154 12.6562 16.8711 11.712 16.8711 10.5469C16.8711 9.38177 17.8154 8.4375 18.9805 8.4375C20.145 8.4375 21.0898 9.38177 21.0898 10.5469Z" fill="black"/>
<path d="M29.5273 10.5469C29.5273 11.712 28.5825 12.6562 27.418 12.6562C26.2529 12.6562 25.3086 11.712 25.3086 10.5469C25.3086 9.38177 26.2529 8.4375 27.418 8.4375C28.5825 8.4375 29.5273 9.38177 29.5273 10.5469Z" fill="black"/>
<path d="M40.3594 12.6562H61.4531C62.6182 12.6562 63.5625 11.712 63.5625 10.5469C63.5625 9.38177 62.6182 8.4375 61.4531 8.4375H40.3594C39.1943 8.4375 38.25 9.38177 38.25 10.5469C38.25 11.712 39.1943 12.6562 40.3594 12.6562Z" fill="black"/>
</g>
<defs>
<clipPath id="clip0_227_1981">
<rect width="72" height="72" fill="white"/>
</clipPath>
</defs>
</svg>
