<svg width="25" height="24" viewBox="0 0 25 24" fill="none" xmlns="http://www.w3.org/2000/svg">
<path d="M22.1964 10.8699L20.6764 9.34988C20.4164 9.08988 20.2064 8.57988 20.2064 8.21988V6.05988C20.2064 5.17988 19.4864 4.45988 18.6064 4.45988H16.4564C16.0964 4.45988 15.5864 4.24988 15.3264 3.98988L13.8064 2.46988C13.1864 1.84988 12.1664 1.84988 11.5464 2.46988L10.0064 3.98988C9.75639 4.24988 9.24639 4.45988 8.87639 4.45988H6.72639C5.84639 4.45988 5.12639 5.17988 5.12639 6.05988V8.20988C5.12639 8.56988 4.91639 9.07988 4.65639 9.33988L3.13639 10.8599C2.51639 11.4799 2.51639 12.4999 3.13639 13.1199L4.65639 14.6399C4.91639 14.8999 5.12639 15.4099 5.12639 15.7699V17.9199C5.12639 18.7999 5.84639 19.5199 6.72639 19.5199H8.87639C9.23639 19.5199 9.74639 19.7299 10.0064 19.9899L11.5264 21.5099C12.1464 22.1299 13.1664 22.1299 13.7864 21.5099L15.3064 19.9899C15.5664 19.7299 16.0764 19.5199 16.4364 19.5199H18.5864C19.4664 19.5199 20.1864 18.7999 20.1864 17.9199V15.7699C20.1864 15.4099 20.3964 14.8999 20.6564 14.6399L22.1764 13.1199C22.8264 12.5099 22.8264 11.4899 22.1964 10.8699ZM8.66639 8.99988C8.66639 8.44988 9.11639 7.99988 9.66639 7.99988C10.2164 7.99988 10.6664 8.44988 10.6664 8.99988C10.6664 9.54988 10.2264 9.99988 9.66639 9.99988C9.11639 9.99988 8.66639 9.54988 8.66639 8.99988ZM10.1964 15.5299C10.0464 15.6799 9.85639 15.7499 9.66639 15.7499C9.47639 15.7499 9.28639 15.6799 9.13639 15.5299C8.84639 15.2399 8.84639 14.7599 9.13639 14.4699L15.1364 8.46988C15.4264 8.17988 15.9064 8.17988 16.1964 8.46988C16.4864 8.75988 16.4864 9.23988 16.1964 9.52988L10.1964 15.5299ZM15.6664 15.9999C15.1064 15.9999 14.6564 15.5499 14.6564 14.9999C14.6564 14.4499 15.1064 13.9999 15.6564 13.9999C16.2064 13.9999 16.6564 14.4499 16.6564 14.9999C16.6564 15.5499 16.2164 15.9999 15.6664 15.9999Z" fill="#65E2CA"/>
</svg>
