<svg width="72" height="72" viewBox="0 0 72 72" fill="none" xmlns="http://www.w3.org/2000/svg">
<g clip-path="url(#clip0_227_1995)">
<path d="M3.84755 28.3365C4.10243 28.4403 4.37214 28.492 4.64186 28.492C4.92091 28.492 5.19997 28.4365 5.46199 28.3255L11.7714 25.663C12.8443 25.2098 13.3474 23.9727 12.8942 22.8994C12.4416 21.826 11.204 21.3234 10.1306 21.776L8.5876 22.4275C13.376 11.5269 24.2107 4.35938 36.266 4.35938C50.0495 4.35938 62.0861 13.6796 65.5369 27.0242C65.783 27.9751 66.6389 28.6062 67.5777 28.6062C67.7523 28.6062 67.9303 28.5843 68.1072 28.5387C69.235 28.247 69.9128 27.0962 69.6211 25.9684C65.6891 10.7611 51.9727 0.140625 36.266 0.140625C22.4513 0.140625 10.0444 8.40125 4.63472 20.9405L3.9228 19.253C3.46962 18.1802 2.23256 17.677 1.15919 18.1297C0.085824 18.5828 -0.416801 19.8205 0.0358363 20.8933L2.69838 27.2027C2.91591 27.718 3.32899 28.1261 3.84755 28.3365Z" fill="black"/>
<path d="M71.703 50.9586L69.0405 44.6497C68.823 44.1339 68.4093 43.7263 67.8913 43.5154C67.3727 43.305 66.7921 43.3088 66.2769 43.5264L59.9674 46.1895C58.8946 46.6421 58.3914 47.8797 58.8446 48.9531C59.2972 50.0264 60.5349 50.5291 61.6082 50.0759L63.3743 49.3304C58.7056 60.5233 47.7193 67.9204 35.4734 67.9204C21.6894 67.9204 9.65272 58.6002 6.20191 45.2556C5.91022 44.1273 4.7594 43.4506 3.63165 43.7411C2.5039 44.0328 1.82605 45.1837 2.11773 46.3114C6.04975 61.5187 19.7662 72.1392 35.4734 72.1392C49.3656 72.1392 61.8345 63.7852 67.1948 51.1267L67.816 52.5989C68.1561 53.4047 68.9378 53.8887 69.7606 53.8887C70.0336 53.8887 70.3121 53.8354 70.5797 53.7222C71.653 53.269 72.1557 52.032 71.703 50.9586Z" fill="black"/>
<path d="M31.6397 59.3581C31.8731 59.4427 32.1148 59.4828 32.3538 59.4828C32.9707 59.4828 33.5711 59.2119 33.9798 58.7176L51.6502 37.3431C52.171 36.713 52.2808 35.8396 51.9331 35.1002C51.5848 34.3614 50.8416 33.8895 50.0248 33.8895H42.3382V14.7651C42.3382 13.8752 41.7801 13.0814 40.9429 12.7798C40.1063 12.4788 39.1703 12.7353 38.6028 13.4209L20.9324 34.7953C20.4116 35.4249 20.3018 36.2988 20.6495 37.0377C20.9978 37.777 21.7415 38.2489 22.5584 38.2489H30.245V57.3734C30.2444 58.2633 30.8025 59.057 31.6397 59.3581ZM27.0386 34.0301L38.1194 20.6268V35.9989C38.1194 37.164 39.0637 38.1083 40.2288 38.1083H45.5434L34.4632 51.5116V36.1395C34.4632 34.9744 33.5183 34.0301 32.3538 34.0301H27.0386Z" fill="black"/>
</g>
<defs>
<clipPath id="clip0_227_1995">
<rect width="72" height="72" fill="white" transform="translate(0.0100098)"/>
</clipPath>
</defs>
</svg>
