<svg width="72" height="72" viewBox="0 0 72 72" fill="none" xmlns="http://www.w3.org/2000/svg">
<path d="M60.75 44.4375V16.3125C60.75 11.6601 56.9649 7.875 52.3125 7.875H8.4375C3.78506 7.875 0 11.6601 0 16.3125V44.4375C0 49.0899 3.78506 52.875 8.4375 52.875H52.3125C56.9648 52.875 60.75 49.0899 60.75 44.4375ZM8.4375 13.5H52.3125C53.3898 13.5 54.3264 14.1095 54.7986 15.0012L31.8724 29.9441C31.4257 30.2261 30.9083 30.375 30.375 30.375C29.8417 30.375 29.3242 30.2261 28.8778 29.9443L5.95139 15.0012C6.42361 14.1095 7.36017 13.5 8.4375 13.5ZM5.625 44.4375V21.5028L25.845 34.6816C27.1986 35.5441 28.765 36 30.375 36C31.9849 36 33.5513 35.5441 34.9048 34.6818L55.125 21.5027V44.4375C55.125 45.9883 53.8633 47.25 52.3125 47.25H8.4375C6.88669 47.25 5.625 45.9883 5.625 44.4375ZM66.375 19.125V55.6875C66.375 57.2383 65.1133 58.5 63.5625 58.5H11.25V64.125H63.5625C68.2149 64.125 72 60.3399 72 55.6875V19.125H66.375Z" fill="black"/>
</svg>
