<svg width="72" height="72" viewBox="0 0 72 72" fill="none" xmlns="http://www.w3.org/2000/svg">
<path d="M59.8818 57.375L63.0546 53.6885C64.2396 52.4002 63.2049 50.1455 61.4559 50.2031H50.3364C52.2173 46.719 54.8041 44.7432 54.8759 39.9679V17.5781C54.8759 15.8884 54.218 14.2997 53.0229 13.1043C51.8279 11.9085 50.2394 11.25 48.5504 11.25C47.8116 11.25 47.1026 11.3785 46.4431 11.6124V10.5469C46.4431 8.85713 45.7851 7.26834 44.5902 6.07303C43.395 4.8773 41.8067 4.21875 40.1175 4.21875C39.2953 4.21875 38.51 4.37822 37.7887 4.66495C37.5037 3.61223 36.9493 2.64656 36.1575 1.85414C34.9623 0.658547 33.3738 0 31.6846 0C28.7728 0 26.3158 1.97887 25.5829 4.66256C24.8507 4.37217 24.0632 4.21875 23.2519 4.21875C19.764 4.21875 16.9263 7.05755 16.9263 10.5469V23.3866C16.2612 23.1493 15.5455 23.0189 14.7999 23.0189C11.3019 23.0189 8.45605 25.8659 8.45605 29.3653V29.3858C8.45605 29.3858 8.37336 41.3355 8.55829 42.85C8.77738 44.893 9.6411 46.9273 11.1251 48.896C11.7948 49.7849 12.7516 50.505 13.7646 51.2675C15.9149 52.8858 18.1384 54.5593 18.1903 57.9525V69.8906C18.1903 71.0556 19.1346 72 20.2995 72H47.2859C48.4508 72 49.3951 71.0556 49.3951 69.8906V64.5469H61.4559C63.2053 64.6045 64.2393 62.3495 63.0546 61.0615L59.8818 57.375ZM16.301 47.8966C15.5323 47.3182 14.8061 46.7717 14.4939 46.3572C13.4615 44.9855 12.878 43.6514 12.7469 42.3508C12.5875 41.0603 12.6744 29.3655 12.6744 29.3655C12.6744 28.1922 13.6278 27.2378 14.7998 27.2378C15.9698 27.2378 16.9218 28.1879 16.9262 29.3573V35.0156C16.9262 35.9061 17.4582 36.6905 18.2957 36.9911C18.5919 37.1076 23.3664 39.0765 23.3664 44.7188C23.3664 45.8837 24.3107 46.8281 25.4756 46.8281C26.6406 46.8281 27.5848 45.8837 27.5848 44.7188C27.5848 41.1315 26.2412 37.974 23.6992 35.5871C22.7801 34.7241 21.8632 34.1115 21.1446 33.7029V10.5469C21.1446 9.38377 22.0899 8.4375 23.2518 8.4375C24.3837 8.41402 25.3825 9.41498 25.3589 10.5469V28.8281C25.3589 29.9931 26.3032 30.9375 27.4681 30.9375C28.6331 30.9375 29.5774 29.9931 29.5774 28.8281V10.5469V6.32812C29.5774 5.16502 30.5226 4.21875 31.6845 4.21875C32.8164 4.19527 33.8154 5.19623 33.7918 6.32812V10.5469V28.8281C33.7918 29.9931 34.7361 30.9375 35.901 30.9375C37.0659 30.9375 38.0101 29.9931 38.0101 28.8281V10.5469C38.0101 9.38377 38.9554 8.4375 40.1172 8.4375C41.2491 8.41402 42.248 9.4147 42.2243 10.5469V17.5781V28.8281C42.2243 29.9931 43.1686 30.9375 44.3336 30.9375C45.4985 30.9375 46.4428 29.9931 46.4428 28.8281V17.5781C46.4428 16.415 47.3881 15.4688 48.5501 15.4688C49.6818 15.4453 50.681 16.4462 50.6572 17.5781V39.9679C50.6938 41.5155 49.9695 43.1833 48.6499 44.9902C47.1839 47.0832 45.1759 49.9497 45.1759 53.5781C45.1759 53.5809 45.1763 53.5835 45.1763 53.5863V54.9349L22.4084 59.5375V57.9375C22.4084 57.9281 22.4084 57.9184 22.4083 57.909C22.3342 52.4371 18.7035 49.7046 16.301 47.8966ZM22.4086 67.7812V63.8416L45.1514 59.244L45.1766 67.7812H22.4086ZM55.5002 58.751L56.8576 60.3281H49.3949V54.4219H56.8576L55.5002 55.999C54.8195 56.79 54.8195 57.96 55.5002 58.751Z" fill="black"/>
</svg>
