<svg width="72" height="72" viewBox="0 0 72 72" fill="none" xmlns="http://www.w3.org/2000/svg">
<g clip-path="url(#clip0_227_1927)">
<path d="M14.7656 8.57812C11.2763 8.57812 8.4375 11.4169 8.4375 14.9062V23.3438C8.4375 24.5087 9.38194 25.4531 10.5469 25.4531C11.7118 25.4531 12.6562 24.5087 12.6562 23.3438V21.2344H16.875V23.3438C16.875 24.5087 17.8194 25.4531 18.9844 25.4531C20.1493 25.4531 21.0938 24.5087 21.0938 23.3438V14.9062C21.0938 11.4169 18.255 8.57812 14.7656 8.57812ZM12.6562 17.0156V14.9062C12.6562 13.7431 13.6025 12.7969 14.7656 12.7969C15.9287 12.7969 16.875 13.7431 16.875 14.9062V17.0156H12.6562Z" fill="black"/>
<path d="M29.5312 8.57812H27.4219C26.2569 8.57812 25.3125 9.52256 25.3125 10.6875V23.3438C25.3125 24.5087 26.2569 25.4531 27.4219 25.4531H29.5312C34.1837 25.4531 37.9688 21.6681 37.9688 17.0156C37.9688 12.3632 34.1837 8.57812 29.5312 8.57812ZM29.5312 21.2344V12.7969C31.8575 12.7969 33.75 14.6894 33.75 17.0156C33.75 19.3418 31.8575 21.2344 29.5312 21.2344Z" fill="black"/>
<path d="M69.8906 33.8906C71.0556 33.8906 72 32.9462 72 31.7812V2.25C72 1.08506 71.0556 0.140625 69.8906 0.140625H2.10938C0.944438 0.140625 0 1.08506 0 2.25V31.7812C0 32.9462 0.944438 33.8906 2.10938 33.8906H37.3933L38.476 38.1094H31.6406C30.4757 38.1094 29.5312 39.0538 29.5312 40.2188V69.75C29.5312 70.9149 30.4757 71.8594 31.6406 71.8594H69.8906C71.0556 71.8594 72 70.9149 72 69.75V40.2188C72 39.0538 71.0556 38.1094 69.8906 38.1094H61.7576L53.1315 33.8906H69.8906ZM4.21875 29.6719V4.35938H67.7812V29.6719H44.5056L39.2407 27.0969C37.6276 26.308 35.8244 27.776 36.2707 29.5161L36.3106 29.6717L4.21875 29.6719ZM67.7812 67.6406H33.75V42.3281H39.5587L42.7051 54.5889C43.0905 56.0902 44.9142 56.6772 46.1029 55.6816L49.1044 53.1671L52.3017 56.9998C53.0478 57.8943 54.3815 58.0162 55.2774 57.2645L62.5514 51.1608C63.442 50.4135 63.56 49.0864 62.8152 48.1937L59.6123 44.3541L62.0305 42.3281H67.7812V67.6406ZM55.0242 45.4402L58.2282 49.281L54.1859 52.6729L50.9896 48.8414C50.241 47.944 48.9073 47.8283 48.0153 48.5757L45.9592 50.2982L41.4931 32.8949L57.422 40.6852L55.2891 42.472C54.3977 43.219 54.279 44.5469 55.0242 45.4402Z" fill="black"/>
<path d="M23.2031 38.1094H2.10938C0.944437 38.1094 0 39.0538 0 40.2188V69.75C0 70.9149 0.944437 71.8594 2.10938 71.8594H23.2031C24.3681 71.8594 25.3125 70.9149 25.3125 69.75V40.2188C25.3125 39.0538 24.3681 38.1094 23.2031 38.1094ZM21.0938 67.6406H4.21875V42.3281H21.0938V67.6406Z" fill="black"/>
<path d="M44.2969 14.9062H61.1719C62.3368 14.9062 63.2812 13.9618 63.2812 12.7969C63.2812 11.6319 62.3368 10.6875 61.1719 10.6875H44.2969C43.1319 10.6875 42.1875 11.6319 42.1875 12.7969C42.1875 13.9618 43.1319 14.9062 44.2969 14.9062Z" fill="black"/>
<path d="M44.2969 23.3438H61.1719C62.3368 23.3438 63.2812 22.3993 63.2812 21.2344C63.2812 20.0694 62.3368 19.125 61.1719 19.125H44.2969C43.1319 19.125 42.1875 20.0694 42.1875 21.2344C42.1875 22.3993 43.1319 23.3438 44.2969 23.3438Z" fill="black"/>
</g>
<defs>
<clipPath id="clip0_227_1927">
<rect width="72" height="72" fill="white"/>
</clipPath>
</defs>
</svg>
