<svg width="72" height="72" viewBox="0 0 72 72" fill="none" xmlns="http://www.w3.org/2000/svg">
<g clip-path="url(#clip0_227_1903)">
<path d="M35.5848 32.6019L32.6018 29.6188C31.7778 28.795 30.4425 28.795 29.6187 29.6188C28.7949 30.4426 28.7949 31.7781 29.6187 32.6019L32.6018 35.585C33.4254 36.4086 34.7609 36.4089 35.5848 35.585C36.4086 34.7612 36.4086 33.4257 35.5848 32.6019Z" fill="black"/>
<path d="M35.5848 44.5348C34.7611 43.711 33.4254 43.711 32.6018 44.5348L29.6187 47.5179C28.7949 48.3417 28.7949 49.6772 29.6187 50.501C30.4423 51.3248 31.778 51.3248 32.6018 50.501L35.5848 47.5179C36.4086 46.6941 36.4086 45.3586 35.5848 44.5348Z" fill="black"/>
<path d="M30.2365 37.9785H26.0178C24.8528 37.9785 23.9084 38.8948 23.9084 40.0598C23.9084 41.2247 24.8528 42.1691 26.0178 42.1691H30.2365C31.4014 42.1691 32.3459 41.2247 32.3459 40.0598C32.3459 38.8948 31.4014 37.9785 30.2365 37.9785Z" fill="black"/>
<path d="M40.3594 23.9082C39.1944 23.9082 38.25 24.8526 38.25 26.0176V30.2363C38.25 31.4013 39.1944 32.3457 40.3594 32.3457C41.5243 32.3457 42.4688 31.4013 42.4688 30.2363V26.0176C42.4688 24.8526 41.5243 23.9082 40.3594 23.9082Z" fill="black"/>
<path d="M50.5004 29.6188C49.6767 28.795 48.3411 28.795 47.5173 29.6188L44.5342 32.6019C43.7104 33.4257 43.7104 34.7612 44.5342 35.585C45.3579 36.4087 46.6935 36.4087 47.5173 35.585L50.5004 32.6019C51.3242 31.7781 51.3242 30.4426 50.5004 29.6188Z" fill="black"/>
<path d="M71.3821 62.4327L63.9243 54.975L68.3989 50.5003C68.9158 49.9833 69.1283 49.2356 68.9603 48.5241C68.8095 47.8853 68.3709 47.3584 67.7811 47.0898V6.32812C67.7811 2.8388 64.9423 0 61.453 0H6.32812C2.8388 0 0 2.8388 0 6.32812V53.0156C0 56.505 2.8388 59.3438 6.32812 59.3438H44.2641L47.0077 67.5745C47.2389 68.2681 47.8128 68.7925 48.5242 68.9604C49.236 69.1284 49.9836 68.916 50.5004 68.399L54.9751 63.9243L62.4329 71.3821C63.2561 72.2053 64.5923 72.2057 65.4159 71.3821L71.3821 65.4158C72.2059 64.592 72.2059 63.2565 71.3821 62.4327ZM50.9062 4.21875H61.4531C62.6162 4.21875 63.5625 5.16502 63.5625 6.32812V12.6562H50.9062V4.21875ZM4.21875 6.32812C4.21875 5.16502 5.16502 4.21875 6.32812 4.21875H46.6875V12.6562H4.21875V6.32812ZM6.32812 55.125C5.16502 55.125 4.21875 54.1787 4.21875 53.0156V16.875H63.5625V45.6704L40.7267 38.0583C39.9687 37.8058 39.1331 38.0029 38.5681 38.568C38.0031 39.133 37.8059 39.9686 38.0585 40.7265L42.858 55.125H6.32812ZM63.9245 66.9074L56.4667 59.4496C56.0711 59.0541 55.5346 58.8319 54.9752 58.8319C54.4158 58.8319 53.8793 59.0541 53.4838 59.4496L49.9309 63.0025L47.7996 56.6085C47.799 56.6069 47.7984 56.6052 47.798 56.6037L43.395 43.3946L63.0028 49.9306L59.4501 53.4835C58.6263 54.3073 58.6263 55.6428 59.4501 56.4666L66.9075 63.9243L63.9245 66.9074Z" fill="black"/>
</g>
<defs>
<clipPath id="clip0_227_1903">
<rect width="72" height="72" fill="white"/>
</clipPath>
</defs>
</svg>
