<svg width="40" height="40" viewBox="0 0 40 40" fill="none" xmlns="http://www.w3.org/2000/svg">
<rect width="40" height="40" rx="20" fill="white"/>
<path d="M29.875 23.575C29.8583 20.4389 30.0056 17.2694 29.8417 14.1305C29.7945 13.1889 30.1361 11.95 29.5861 11.075C29.3528 10.7278 29.2583 10.4889 28.8889 10.2778C28.4707 10.2212 28.0497 10.1887 27.6278 10.1805C28.1028 10.2 24.7861 10.1139 23.8889 10.0722C22.7056 10.0167 21.5306 10.1278 20.3445 10.1583C18.9861 10.1944 17.6306 9.9611 16.2722 10.0222C14.6333 10.0944 13.2167 9.83333 11.5889 10.2083C9.90001 10.5972 10.2056 12.7944 10.1583 14.0528C10.0667 16.5361 10.0528 23.2194 10.0806 24.975C10.0972 26.0861 9.90278 26.9194 10.0639 27.9889C10.3556 29.9333 11.9444 30 13.6111 30C15.775 30 17.6861 29.7222 19.8444 29.8611C19.9546 29.8747 20.066 29.8487 20.1586 29.7876C20.2513 29.7265 20.3191 29.6344 20.35 29.5278C20.3921 29.4626 20.4185 29.3885 20.4271 29.3114C20.4358 29.2343 20.4265 29.1562 20.4 29.0833C20.4 26.8111 20.4917 24.7944 20.3278 22.5278C20.3278 22.3804 20.2693 22.2391 20.1651 22.1349C20.0609 22.0307 19.9196 21.9722 19.7722 21.9722C19.2167 21.9722 18.6389 21.9722 18.075 21.9722C18.075 21.5 18.075 20.9555 18.0944 20.4833C18.6196 20.4545 19.1463 20.4675 19.6695 20.5222C20.0333 20.6805 20.5556 20.4194 20.4556 19.9472C20.4649 19.8508 20.4445 19.7539 20.3972 19.6694C20.3462 19.1148 20.3518 18.5563 20.4139 18.0028C20.4472 17.1944 20.3722 16.2861 20.7306 15.5389C21.1111 14.7555 22.2222 14.6889 22.9861 14.6639C23.7387 14.6106 24.494 14.6059 25.2472 14.65C25.2472 15.0472 25.2472 15.4472 25.2667 15.8444C24.5938 15.8092 23.9191 15.8315 23.25 15.9111C22.9707 15.9396 22.7021 16.034 22.4664 16.1866C22.2308 16.3392 22.0347 16.5457 21.8945 16.7889C21.3472 17.7305 21.6667 18.9778 21.6667 20C21.6648 20.1249 21.7082 20.2463 21.7889 20.3417C21.8391 20.4542 21.93 20.5436 22.0433 20.592C22.1566 20.6404 22.284 20.6443 22.4 20.6028C22.5417 20.5611 23.7167 20.6361 24.0833 20.6389C24.3139 20.6389 24.5639 20.6555 24.8167 20.6639C24.7222 20.8722 24.2889 21.775 24.1417 21.9917C23.8806 22.0111 22.5972 22.0139 22.3139 22.1305C22.2169 22.1697 22.129 22.2283 22.0556 22.3028C21.9863 22.3506 21.9301 22.4152 21.8923 22.4904C21.8544 22.5656 21.8361 22.6492 21.8389 22.7333C21.8306 25 21.6667 26.9444 21.8667 29.4222C21.866 29.4821 21.8786 29.5414 21.9037 29.5958C21.9288 29.6502 21.9657 29.6983 22.0117 29.7366C22.0578 29.7749 22.1118 29.8025 22.1698 29.8173C22.2279 29.8321 22.2885 29.8338 22.3472 29.8222C22.4056 29.8444 23.4583 29.8222 23.925 29.8222C24.3917 29.8222 27.6445 30.1 28.5306 29.8611C29.4167 29.6222 29.7611 28.9583 29.9 28.0722C30.1361 26.5555 29.8833 25.1167 29.875 23.575ZM28.7861 25.9278C28.7861 26.4333 28.8278 26.9361 28.8361 27.4417C28.8528 28.5889 28.2806 28.7 27.3528 28.7333C26.5352 28.8111 25.712 28.8111 24.8945 28.7333C24.2361 28.6738 23.5733 28.6821 22.9167 28.7583C22.8278 26.9389 22.9 25.0667 22.9472 23.1583C23.0945 23.1583 23.2445 23.1583 23.3611 23.1583C23.7611 23.1583 24.15 23.1 24.5472 23.0972C24.6714 23.1016 24.7929 23.0605 24.889 22.9818C24.9851 22.9031 25.0493 22.792 25.0695 22.6694C25.2889 22.3917 26.0333 20.8555 26.2083 20.6083C26.5333 20.15 26.3333 19.5555 25.9306 19.4972C25.85 19.4805 24.4111 19.5417 23.8833 19.5389C23.5417 19.5389 23.1445 19.4778 22.7722 19.4722C22.6847 18.8577 22.6847 18.2339 22.7722 17.6194C22.8972 17.0305 23.3278 16.9917 23.8833 16.9861C24.5361 16.9861 25.1861 16.9667 25.8278 16.9639C25.9639 16.9676 26.096 16.9175 26.1953 16.8244C26.2947 16.7313 26.3533 16.6027 26.3583 16.4667C26.3741 16.4153 26.3825 16.362 26.3833 16.3083C26.3833 15.6055 26.35 14.9 26.3472 14.1972C26.349 14.1241 26.3354 14.0514 26.3071 13.9839C26.2789 13.9164 26.2367 13.8556 26.1833 13.8055C26.1069 13.7083 25.995 13.6453 25.8722 13.6305C24.7313 13.4588 23.5721 13.4467 22.4278 13.5944C21.3667 13.7389 20.7611 13.8444 20.0111 14.6528C19.3917 15.3111 19.3778 16.35 19.3306 17.1889C19.2587 17.9273 19.229 18.6693 19.2417 19.4111C18.6861 19.3889 18.1306 19.4111 17.5528 19.4111C17.4054 19.4111 17.2641 19.4696 17.1599 19.5738C17.0558 19.678 16.9972 19.8193 16.9972 19.9667C16.9611 20.8222 16.9778 21.6722 16.9611 22.5278C16.9611 22.9111 17.3139 23.0833 17.6639 23.0611C18.1908 23.0393 18.7184 23.0467 19.2444 23.0833C19.3528 25.0611 19.2944 26.7778 19.2833 28.7583C17.9845 28.7157 16.6844 28.7733 15.3944 28.9305C14.4778 29.0305 13.4944 28.9305 12.5722 28.9305C10.8333 28.8889 11.1556 27.0167 11.2056 25.8611C11.2944 23.7722 11.2056 17.0611 11.2417 15.0917C11.2639 13.7694 10.6694 11.1111 12.9833 10.975C13.6417 10.9417 14.2556 11.0722 14.8194 11.0444C15.6528 11 16.2972 11.1083 17.15 11.1222C19.0944 11.1528 20.9528 11.25 22.8861 11.1472C23.6806 11.1055 24.4694 11.225 25.2667 11.1472C25.5445 11.125 27.1222 11.2555 27.2722 11.2333C28.2861 11.0778 28.8417 11.8389 28.7778 12.5C28.8528 13.4639 28.7583 14.4611 28.8083 15.4333C28.9306 17.7833 28.7333 20.1972 28.7583 22.5583C28.7722 23.7639 28.7639 24.7222 28.7861 25.9278Z" fill="black"/>
</svg>
