<svg width="116" height="50" viewBox="0 0 116 50" fill="none" xmlns="http://www.w3.org/2000/svg">
<path d="M32.607 0.113298C32.8971 -0.0824337 33.3526 0.0410635 33.694 0.0131018L33.7278 0.164561C33.715 1.19215 33.7441 2.21974 33.7406 3.24733C33.4272 3.0516 33.5751 2.62402 33.5087 2.30013C33.3817 2.35489 33.4062 2.65664 33.3188 2.77548C33.2012 2.89897 33.0509 3.16228 32.8878 2.94325C32.1246 3.11451 31.3918 3.42092 30.6252 3.5817C30.4691 3.62015 30.3945 3.81938 30.2465 3.87996C29.8458 3.94288 29.4566 4.00579 29.0547 3.92191C29.0384 4.01628 29.0489 4.16074 28.958 4.21667C28.852 4.21084 28.7448 4.20735 28.6387 4.20502C28.556 4.3355 28.5001 4.48114 28.4151 4.61046C28.3288 4.53357 28.2438 4.45784 28.1576 4.38094C28.0749 4.47648 28.0003 4.579 27.9164 4.67337C27.8616 4.64192 27.8104 4.60347 27.7615 4.56036C27.6356 4.67803 27.5948 4.80969 27.3945 4.8027C27.2011 4.79571 27.0892 5.02755 26.897 5.05901C26.8084 4.98911 26.7199 4.91804 26.6325 4.84813C26.4682 4.92619 26.3925 5.09862 26.2562 5.23027C26.1094 5.23843 25.9579 5.21047 25.8111 5.20581C25.6748 5.64154 25.33 5.89553 24.9641 6.13786C24.9711 6.02136 24.9781 5.90485 24.9874 5.78834C24.7544 5.87922 24.6111 6.02718 24.3373 6.03883C24.0309 6.06796 23.9167 6.39884 23.6045 6.41632C23.5427 6.36738 23.4775 6.3301 23.4099 6.30563C23.2328 6.45942 23.0732 6.63768 22.9276 6.82176C22.832 6.99885 22.7901 7.22254 22.6678 7.38216C22.3509 7.59653 21.9373 7.7107 21.5656 7.78294C21.6157 7.87148 21.7544 7.95537 21.7462 8.05906C21.5412 8.06139 21.4177 8.02761 21.2604 8.18489C20.9714 8.46684 20.5602 8.44586 20.2712 8.70917C20.2479 8.8781 20.4949 8.84781 20.5986 8.8816C20.5019 9.37093 19.6654 9.08665 19.5069 9.48394C18.1054 9.45947 16.6409 9.48044 15.2661 9.47578L15.23 9.29287C15.922 8.54606 16.5919 7.59304 17.4681 7.0571C17.5869 6.93477 17.6894 6.8905 17.8514 6.84506C18.4025 6.32311 19.0316 5.84893 19.6339 5.38174C20.4227 4.71998 21.2709 4.2423 22.1225 3.6784C22.6305 3.40811 23.1385 3.14014 23.629 2.83723C24.1358 2.5413 24.6927 2.35256 25.2158 2.08576C25.916 1.80148 26.5871 1.46478 27.3152 1.25739C27.7929 1.05234 28.2741 1.0069 28.7518 0.810008C29.2621 0.742434 29.7689 0.507091 30.2792 0.459323C30.5448 0.276407 30.8151 0.438351 31.0726 0.24029C31.3336 0.232134 31.5386 0.274077 31.7681 0.113298C32.0466 0.112133 32.3297 0.138929 32.607 0.113298Z" fill="#40FDF8"/>
<path d="M36.9781 0.124939C36.9862 2.00769 37.0328 3.89393 37.0177 5.77435C37.0491 5.87105 36.9548 6.29631 37.1354 6.2264C37.1901 5.37707 37.0841 4.48113 37.2053 3.63412C37.2414 3.46402 37.2589 3.24965 37.3905 3.12499C37.5035 3.11217 37.5816 3.3347 37.662 3.40344C37.8169 3.32655 37.916 3.13781 38.0336 3.01314C38.114 3.09004 38.1723 3.18208 38.2422 3.26829L38.3668 3.15878C38.7513 3.40694 39.18 3.49548 39.6018 3.6551C39.7917 3.68073 39.9711 3.45354 40.168 3.44072C40.3649 3.46752 40.556 3.51878 40.7529 3.55024C41.036 3.53626 41.2993 3.30557 41.5813 3.28344C41.6966 3.34286 41.7758 3.37431 41.8923 3.29625C42.3712 3.3149 42.8558 3.34635 43.3347 3.35917C43.7984 3.17043 44.3227 3.22053 44.8108 3.09353C44.9133 3.19256 45.0007 3.30325 45.0963 3.4081C45.426 3.31606 45.6904 3.01547 45.9992 2.86518C46.1763 2.99217 46.3289 3.14596 46.5002 3.27761C46.8369 3.45004 47.2738 3.36266 47.6315 3.32189C48.8688 4.03957 50.0455 4.82716 51.1243 5.76504C51.5333 6.01669 51.7966 6.41281 52.1845 6.68893C52.4781 6.90214 52.7088 7.1701 52.9651 7.42292C53.1935 7.66526 53.444 7.87381 53.6211 8.15925C53.8739 8.45285 54.178 8.68586 54.383 9.0214C54.5543 9.18334 54.6382 9.34412 54.531 9.57364C51.5705 9.53985 48.595 9.56665 45.631 9.56315C45.052 9.28237 44.4939 8.83033 43.9137 8.54721C43.3731 8.28857 42.8419 8.01711 42.3117 7.73866C41.8632 7.6839 41.5312 7.40428 41.1036 7.28778C40.4045 7.03146 39.843 6.94059 39.1346 6.66563C38.9307 6.64 38.7513 6.65631 38.5684 6.54097C38.3004 6.50718 38.0767 6.5934 37.8449 6.40466C37.5501 6.40815 37.2554 6.41165 36.9606 6.40698C36.9396 6.19611 36.9408 5.98523 36.9431 5.77435C36.9618 3.89626 36.9152 1.99953 36.9781 0.124939Z" fill="#FFB93C"/>
<path d="M36.978 0.12495C37.472 0.0247537 37.9345 0.154077 38.4297 0.1133C38.7431 0.317187 39.0227 0.180874 39.3559 0.262428C39.582 0.424373 39.8196 0.303206 40.0526 0.420878C42.6636 0.978945 45.3141 1.94595 47.6314 3.3219C47.2737 3.36267 46.8368 3.45005 46.5001 3.27762C46.3289 3.14597 46.1762 2.99218 45.9991 2.86519C45.6904 3.01548 45.4259 3.31607 45.0962 3.40811C45.0007 3.30326 44.9133 3.19257 44.8108 3.09354C44.3226 3.22054 43.7983 3.17044 43.3346 3.35918C42.8558 3.34636 42.3711 3.31491 41.8923 3.29626C41.7758 3.37432 41.6966 3.34287 41.5812 3.28345C41.2993 3.30559 41.036 3.53627 40.7528 3.55025C40.556 3.51879 40.3649 3.46753 40.168 3.44073C39.9711 3.45355 39.7917 3.68074 39.6018 3.65511C39.18 3.49549 38.7513 3.40695 38.3668 3.15879L38.2421 3.2683C38.1722 3.18209 38.114 3.09005 38.0336 3.01315C37.9159 3.13782 37.8169 3.32656 37.6619 3.40345C37.5815 3.33471 37.5035 3.11218 37.3905 3.125C37.2588 3.24966 37.2413 3.46404 37.2052 3.63414C37.084 4.48114 37.1901 5.37708 37.1353 6.22641C36.9547 6.29632 37.0491 5.87107 37.0176 5.77436C37.0328 3.89394 36.9862 2.0077 36.978 0.12495Z" fill="#FFC842"/>
<path d="M33.5086 2.30014C33.575 2.62403 33.4271 3.05161 33.7405 3.24734C33.7265 4.2761 33.7242 5.31068 33.7428 6.33943C33.4236 6.37438 32.989 6.24623 32.714 6.43264C32.4204 6.50371 32.1595 6.34409 31.902 6.56196C31.5641 6.50604 31.4022 6.7006 31.0923 6.68895C30.7218 6.85206 30.293 6.8742 29.9121 7.00818C29.0371 7.26217 28.2192 7.628 27.371 7.95888C26.4518 8.39694 25.5058 8.8385 24.6832 9.44317C22.9787 9.53172 21.2195 9.44201 19.5068 9.48395C19.6653 9.08666 20.5018 9.37094 20.5985 8.88161C20.4948 8.84783 20.2478 8.87812 20.2711 8.70918C20.5601 8.44588 20.9713 8.46685 21.2603 8.1849C21.4175 8.02762 21.541 8.0614 21.7461 8.05907C21.7543 7.95538 21.6156 7.8715 21.5655 7.78295C21.9372 7.71072 22.3508 7.59654 22.6677 7.38217C22.79 7.22255 22.8319 6.99886 22.9275 6.82177C23.0731 6.63769 23.2327 6.45943 23.4098 6.30564C23.4774 6.33011 23.5426 6.36739 23.6044 6.41633C23.9166 6.39885 24.0308 6.06797 24.3372 6.03884C24.611 6.02719 24.7543 5.87923 24.9873 5.78835C24.978 5.90486 24.971 6.02137 24.964 6.13787C25.3298 5.89554 25.6747 5.64156 25.811 5.20582C25.9578 5.21048 26.1093 5.23844 26.2561 5.23029C26.3924 5.09863 26.4681 4.9262 26.6324 4.84814C26.7198 4.91805 26.8083 4.98912 26.8969 5.05902C27.0891 5.02756 27.2009 4.79572 27.3943 4.80271C27.5947 4.8097 27.6355 4.67804 27.7613 4.56037C27.8103 4.60348 27.8615 4.64193 27.9163 4.67338C28.0002 4.57901 28.0747 4.47649 28.1575 4.38095C28.2437 4.45785 28.3287 4.53358 28.4149 4.61047C28.5 4.48115 28.5559 4.33551 28.6386 4.20503C28.7447 4.20736 28.8518 4.21085 28.9579 4.21668C29.0487 4.16076 29.0383 4.01629 29.0546 3.92192C29.4565 4.0058 29.8456 3.94289 30.2464 3.87997C30.3944 3.81939 30.469 3.62016 30.6251 3.58172C31.3917 3.42094 32.1245 3.11452 32.8876 2.94326C33.0507 3.16229 33.201 2.89899 33.3187 2.77549C33.4061 2.65665 33.3816 2.3549 33.5086 2.30014Z" fill="#30F0F9"/>
<path d="M12.9031 6.85903C13.6511 6.83922 14.4037 6.84039 15.1528 6.84155C14.9629 7.16311 14.4258 6.98602 14.1008 7.08622C13.8829 7.52079 13.5509 7.84817 13.3225 8.27575C13.107 8.581 13.0674 8.95265 12.832 9.24975C13.107 9.28004 13.248 9.21479 13.4076 9.49441C13.0837 9.5014 12.7423 9.50839 12.4254 9.43616C12.1202 9.26256 11.9582 8.99693 11.7905 8.701C11.7543 8.33983 11.7602 7.98215 11.7963 7.62098C12.0712 7.28661 12.4278 6.84039 12.9031 6.85903Z" fill="#FAC741"/>
<path d="M15.1528 6.84156C15.9195 6.84156 16.7036 6.88466 17.4667 6.81476L17.4678 7.05709C16.5917 7.59303 15.9218 8.54605 15.2297 9.29286C15.1761 9.38374 15.1086 9.45131 15.0293 9.49441C14.4888 9.4816 13.947 9.47694 13.4076 9.49441C13.248 9.2148 13.107 9.28004 12.832 9.24975C13.0674 8.95266 13.107 8.581 13.3225 8.27575C13.5509 7.84817 13.8829 7.52079 14.1008 7.08622C14.4258 6.98603 14.9629 7.16311 15.1528 6.84156Z" fill="#FFB535"/>
<path d="M13.6031 12.2102C15.7002 12.2207 17.7973 12.2079 19.8945 12.2125C20.4455 12.2347 20.9337 12.0949 21.4836 12.2393C21.5722 12.6681 21.1795 12.8568 20.9127 13.1143C20.9523 12.8102 21.2518 12.6925 21.2844 12.4024C20.8184 12.2987 20.2533 12.3989 19.7663 12.371C19.1465 12.3652 18.5278 12.371 17.908 12.3745C17.1239 12.3686 16.3398 12.371 15.5557 12.3791C14.7006 12.3768 13.8314 12.3116 12.9821 12.4059L12.9448 12.3162C13.1545 12.1985 13.3724 12.2184 13.6031 12.2102Z" fill="#8BE8F6"/>
<path d="M5.91488 12.2009C6.82013 12.1974 7.72539 12.1834 8.62948 12.1986L8.45356 12.3721C7.79879 12.4164 7.13237 12.4106 6.47644 12.4153C6.30867 12.4164 6.10944 12.3838 5.95216 12.4502C5.72497 12.8102 5.59215 13.2541 5.34632 13.6001C5.00146 14.0056 4.6135 14.3493 4.22436 14.6906C4.11718 14.8479 4.123 15.0868 4.05776 15.2673C3.76999 14.757 3.84688 14.2514 3.87018 13.6898C4.1731 12.8545 4.99331 12.1496 5.91488 12.2009Z" fill="#F2DA4E"/>
<path d="M8.6296 12.1985L8.71698 12.202C9.88322 12.2242 11.0518 12.1997 12.218 12.209C12.4755 12.3185 12.6304 12.3372 12.9124 12.3162H12.945L12.9823 12.4059C12.7365 12.7939 12.4009 13.2646 12.253 13.7026C12.1737 13.7539 12.1097 13.825 12.0607 13.9182L11.858 13.8378C11.4887 13.9753 11.0821 14.263 10.6848 14.2164C10.4459 14.263 10.2129 14.4005 10.0149 14.538C10.0184 14.665 10.0615 14.792 10.0859 14.9166C9.76089 14.8036 9.28088 15.1765 9.30884 15.5167C9.46496 15.5644 9.64671 15.5726 9.79001 15.6518C9.82263 15.7171 9.85409 15.7835 9.88438 15.851C9.67118 15.8452 9.47195 15.7182 9.32049 15.9314C9.30301 15.9978 9.34263 16.0573 9.44049 16.1108C10.0067 16.1866 10.5927 16.1679 11.1625 16.1621L11.0215 16.3334C9.12126 16.3299 7.21987 16.3136 5.31965 16.3322C4.85711 16.1306 4.49711 15.9093 4.18604 15.5027C4.22798 15.378 4.27458 15.2545 4.32584 15.1334C4.48779 15.1462 4.68235 15.2487 4.83614 15.1928C4.93634 15.0867 4.98644 14.94 5.06683 14.8188C5.33829 14.6091 5.60742 14.4075 5.93247 14.291C6.15267 14.0662 6.34724 13.8436 6.33559 13.5092C6.34607 13.1714 6.44627 13.0444 6.70258 12.8487C6.6152 12.7718 6.52782 12.6937 6.44044 12.6168C6.44976 12.5492 6.46141 12.4817 6.47656 12.4152C7.13249 12.4106 7.79891 12.4164 8.45368 12.3721L8.6296 12.1985Z" fill="#FFBE3B"/>
<path d="M32.8272 12.2148C39.6661 12.2067 46.5144 12.2172 53.3533 12.209L53.5491 12.195C53.5619 12.5457 53.5188 12.8906 53.5083 13.2413C53.3277 13.8238 53.0912 14.3493 52.8023 14.8887C52.7673 14.7186 52.7137 14.6021 52.6415 14.5368C52.5541 14.6079 52.4667 14.6778 52.3793 14.7489C52.1941 14.7663 52.1568 14.5205 52.0356 14.4122C51.6512 14.0871 51.0174 14.0498 50.5362 14.0463C50.0026 14.0591 49.5937 13.8238 49.0857 14.0906C48.6756 14.1512 48.2468 13.9298 47.8146 14.0032C47.4919 14.0661 47.2775 13.7993 46.9525 13.8564C46.6717 13.8972 46.5412 13.8902 46.2825 13.7725C46.2196 13.818 46.1567 13.8634 46.0938 13.91C45.8305 13.8762 45.672 13.5174 45.4623 13.3613C45.4344 13.4521 45.4052 13.5442 45.375 13.6351C45.2736 13.6246 45.1711 13.6129 45.0697 13.6001C44.959 13.6689 44.888 13.7947 44.7959 13.8867C44.6887 13.8331 44.5874 13.7702 44.479 13.7189C44.4091 13.7749 44.3404 13.8331 44.2728 13.8914C44.2518 13.7993 44.2309 13.7073 44.2087 13.6153C44.013 13.6374 43.8942 13.7679 43.7217 13.8366C43.5586 13.8052 43.4526 13.7096 43.2708 13.7423C42.9178 13.8308 42.6743 14.0265 42.2829 13.9566C41.7493 14.1838 41.2529 14.0149 40.7065 14.1186C40.3617 14.1861 40.0576 14.0487 39.7174 14.0626C39.5916 14.1221 39.4762 14.1978 39.3492 14.256C39.2362 14.2025 39.1325 14.1279 39.0172 14.0801C38.7609 14.2176 38.4614 14.2887 38.1877 14.383C37.7041 14.3609 37.2579 14.5438 36.7837 14.4483C36.6183 14.4529 36.4564 14.5357 36.2933 14.5671C36.1628 14.5322 36.0393 14.4564 35.9181 14.3982C35.9134 14.4774 35.9111 14.5578 35.9111 14.6382C35.8412 14.5799 35.7398 14.4658 35.6455 14.4716C35.3227 14.5566 35.0047 14.7465 34.6622 14.8025C34.5165 14.7582 34.3849 14.6498 34.2334 14.6335C34.1053 14.6545 34.0412 14.8258 33.948 14.9096C33.8629 14.8968 33.7849 14.8444 33.7021 14.8176C33.419 15.0867 33.32 14.9574 33.0206 14.8188C32.5918 15.0052 32.1619 14.9854 31.7798 15.2731C31.5095 15.2265 31.3324 15.3885 31.0784 15.4467C30.7184 15.7368 30.4714 16.0491 30.0054 16.1854C29.9774 16.2541 29.9541 16.3264 29.9366 16.3998C29.7898 16.4837 29.6058 16.5279 29.4788 16.6386C29.3087 16.8495 29.17 17.1093 28.9883 17.3132C28.8391 17.4786 28.6329 17.5777 28.4652 17.7245C28.3323 17.9074 28.238 18.067 28.0294 18.1765C27.9409 18.4678 27.6461 18.5831 27.469 18.8243C27.229 19.1132 27.0042 19.4651 26.6849 19.6666C26.3424 19.9101 25.9929 20.1443 25.6504 20.3878C25.3451 20.6464 25.3626 21.215 25.0259 21.4212C25.0259 20.9494 25.041 20.4763 25.048 20.0045L25.2333 19.8647C25.4674 19.6678 25.6981 19.542 25.9742 19.4126C26.3075 19.1831 26.5731 18.8348 26.8003 18.5027C27.2022 17.827 27.7114 17.2456 28.182 16.6165C28.6457 16.1481 29.0535 15.6343 29.5207 15.1695C29.8772 14.8328 30.0846 14.3481 30.3631 13.9391C30.2209 13.9356 29.9716 13.8646 29.883 14.0125C29.8015 14.1162 29.7269 14.2467 29.6314 14.3364C29.5731 14.2782 29.5149 14.2188 29.4578 14.1582C29.5312 14.0813 29.5988 13.9997 29.6617 13.9147C29.6174 13.8156 29.579 13.7143 29.5347 13.6153C29.643 13.4347 29.883 13.3822 29.692 13.1574C30.3071 12.8533 30.8932 12.5597 31.5701 12.4222C32 12.2859 32.3658 12.2125 32.8272 12.2148Z" fill="#FFA93C"/>
<path d="M5.95251 12.4502C6.10979 12.3838 6.30902 12.4164 6.47679 12.4153C6.46164 12.4817 6.44999 12.5492 6.44067 12.6168C6.52805 12.6937 6.61543 12.7718 6.70281 12.8487C6.44649 13.0444 6.3463 13.1714 6.33581 13.5093C6.34746 13.8436 6.1529 14.0662 5.9327 14.291C5.60765 14.4075 5.33851 14.6091 5.06705 14.8188C4.98666 14.94 4.93657 15.0868 4.83637 15.1928C4.68258 15.2487 4.48801 15.1462 4.32607 15.1334C4.27481 15.2545 4.2282 15.378 4.18626 15.5027C4.14082 15.4258 4.09772 15.3477 4.05811 15.2674C4.12335 15.0868 4.11752 14.8479 4.22471 14.6906C4.61384 14.3493 5.00181 14.0056 5.34667 13.6001C5.5925 13.2541 5.72532 12.8102 5.95251 12.4502Z" fill="#FFCD49"/>
<path d="M12.9824 12.4059C13.8317 12.3116 14.7009 12.3768 15.556 12.3791C15.5922 12.4805 15.6318 12.5795 15.6749 12.6786C15.7914 12.724 15.9091 12.7694 16.0256 12.8172C15.9091 12.9034 15.7914 13.0013 15.6586 13.0595C15.478 13.0759 15.2811 12.9955 15.2391 13.2401C15.1832 13.4743 15.3487 13.543 15.4617 13.7143C15.3685 13.7749 15.2694 13.8285 15.1657 13.8774C15.1366 13.9986 15.1122 14.1209 15.0923 14.2444C15.0422 14.1978 14.9933 14.15 14.9421 14.1034C14.6834 14.1489 14.7277 14.3737 14.709 14.573C14.3479 14.8083 14.0321 15.0588 13.8411 15.4572C13.7618 15.7229 14.0717 15.9676 14.2046 16.1738C13.4601 16.2099 12.7168 16.1889 11.9723 16.2017C11.737 16.2145 11.5366 16.1365 11.3257 16.0456C11.5575 15.5085 11.7346 14.9516 11.9886 14.4238C12.0853 14.1803 12.1983 13.959 12.2531 13.7027C12.401 13.2646 12.7366 12.7939 12.9824 12.4059Z" fill="#33F0F8"/>
<path d="M15.5559 12.3791C16.34 12.371 17.1241 12.3687 17.9082 12.3745C17.7614 12.6809 17.7567 12.8755 17.4211 13.0397C17.3338 13.5221 16.9924 13.7493 16.6872 14.0906C16.6837 14.185 16.679 14.2794 16.6755 14.3737C16.566 14.4961 16.3435 14.5928 16.3097 14.7582C16.2468 15.0273 16.1093 15.2452 15.973 15.4806C15.945 15.7066 16.1 15.9676 16.164 16.1831C15.5104 16.1947 14.858 16.2122 14.2044 16.1738C14.0716 15.9676 13.7617 15.7229 13.8409 15.4573C14.032 15.0588 14.3477 14.8083 14.7089 14.573C14.7275 14.3737 14.6832 14.1489 14.9419 14.1034C14.9931 14.15 15.0421 14.1978 15.0922 14.2444C15.112 14.1209 15.1365 13.9986 15.1656 13.8774C15.2693 13.8285 15.3683 13.7749 15.4615 13.7143C15.3485 13.543 15.1831 13.4743 15.239 13.2401C15.2809 12.9955 15.4778 13.0759 15.6584 13.0595C15.7912 13.0013 15.9089 12.9034 16.0254 12.8172C15.9089 12.7694 15.7912 12.724 15.6747 12.6786C15.6316 12.5795 15.592 12.4805 15.5559 12.3791Z" fill="#2EE1F3"/>
<path d="M17.9082 12.3745C18.5281 12.371 19.1467 12.3651 19.7665 12.371C19.8038 12.5038 19.8376 12.6378 19.8691 12.7729C19.6826 13.0351 19.6069 13.1353 19.2772 13.0269C19.1793 13.3403 18.8578 13.444 18.7552 13.7702C18.6795 13.7691 18.6026 13.7644 18.5257 13.7562C18.5013 13.8797 18.4768 14.0032 18.4523 14.1267C18.3009 14.1524 18.1448 14.1617 17.9933 14.1908C17.977 14.2456 17.9607 14.3003 17.9432 14.3551C17.8733 14.3842 17.8022 14.411 17.7288 14.4343C17.7649 14.5194 17.8057 14.6021 17.8453 14.686C17.7102 14.9306 17.4842 15.0833 17.3618 15.3372C17.4574 15.5807 17.5226 15.7543 17.5168 16.02C17.9292 16.0619 18.3428 16.0398 18.7564 16.1004C17.9001 16.1633 17.0193 16.239 16.1641 16.1831C16.1001 15.9675 15.9451 15.7066 15.9731 15.4805C16.1094 15.2452 16.2469 15.0273 16.3098 14.7582C16.3436 14.5928 16.5661 14.4961 16.6756 14.3737C16.6791 14.2794 16.6838 14.185 16.6873 14.0906C16.9925 13.7493 17.3339 13.5221 17.4212 13.0397C17.7568 12.8754 17.7614 12.6809 17.9082 12.3745Z" fill="#2DCAF0"/>
<path d="M19.7665 12.371C20.2535 12.3989 20.8186 12.2987 21.2846 12.4024C21.252 12.6925 20.9526 12.8102 20.9129 13.1143C20.7557 13.338 20.5203 13.4859 20.384 13.7201C19.8749 14.4809 19.2329 15.2708 18.8659 16.112L18.7564 16.1003C18.3428 16.0398 17.9292 16.0619 17.5168 16.02C17.5226 15.7543 17.4574 15.5807 17.3618 15.3372C17.4841 15.0832 17.7102 14.9306 17.8453 14.686C17.8057 14.6021 17.7649 14.5194 17.7288 14.4343C17.8022 14.411 17.8733 14.3842 17.9432 14.3551C17.9607 14.3003 17.977 14.2456 17.9933 14.1908C18.1447 14.1617 18.3009 14.1524 18.4523 14.1267C18.4768 14.0032 18.5013 13.8797 18.5257 13.7562C18.6026 13.7644 18.6795 13.769 18.7552 13.7702C18.8578 13.444 19.1793 13.3403 19.2772 13.0269C19.6069 13.1353 19.6826 13.0351 19.869 12.7729C19.8376 12.6378 19.8038 12.5038 19.7665 12.371Z" fill="#2BB7ED"/>
<path d="M29.6919 13.1574C29.8829 13.3823 29.6429 13.4347 29.5346 13.6153C29.5788 13.7143 29.6173 13.8157 29.6616 13.9147C29.5986 13.9998 29.5311 14.0813 29.4577 14.1582C29.2619 14.2689 29.0732 14.3889 28.8868 14.5136C28.5513 14.6592 28.2448 14.8526 27.8965 14.9703C28.1039 14.6033 28.3823 14.291 28.613 13.9415L28.4068 13.9264C28.8518 13.6782 29.2142 13.2914 29.6919 13.1574Z" fill="#EBD153"/>
<path d="M45.4623 13.3613C45.672 13.5174 45.8305 13.8763 46.0938 13.91C46.1567 13.8634 46.2196 13.818 46.2825 13.7726C46.5412 13.8902 46.6717 13.8972 46.9525 13.8565C47.2775 13.7994 47.4919 14.0662 47.8146 14.0033C48.2468 13.9299 48.6756 14.1512 49.0857 14.0906C49.5937 13.8238 50.0026 14.0592 50.5362 14.0464C51.0174 14.0499 51.6512 14.0871 52.0356 14.4122C52.1568 14.5205 52.1941 14.7664 52.3793 14.7489C52.4667 14.6778 52.5541 14.6079 52.6415 14.5369C52.7137 14.6021 52.7673 14.7186 52.8023 14.8887C52.5716 15.2499 52.3549 15.6122 52.0578 15.9244C51.692 16.5478 51.1362 16.8029 50.591 17.2258C50.1028 17.4763 49.5238 17.7839 49.0006 17.94C48.8888 17.9447 48.7816 17.9843 48.6791 18.0612C48.4216 18.0728 48.2119 18.0332 47.9859 18.1882C47.6795 18.1812 47.3323 18.1404 47.0352 18.2208C46.8429 18.3315 46.667 18.2802 46.4585 18.2849C42.3038 18.2884 38.1469 18.2837 33.9922 18.286C33.6217 18.2907 33.2454 18.2721 32.8761 18.307C32.2493 18.5528 31.711 18.9781 31.3732 19.5653C31.3277 19.2507 31.4827 18.9804 31.2578 18.7626C31.0772 18.5703 30.9398 18.2791 30.6275 18.3653C30.278 18.5342 29.9774 18.8161 29.6594 19.0387C29.3588 19.253 29.2201 19.5979 28.9125 19.8065C28.5071 20.0907 28.3836 20.6546 28.0294 21.0158C27.8628 21.1975 27.5587 21.264 27.4282 21.4725C27.2512 21.7568 27.1813 22.1203 26.9005 22.3323C26.6989 22.4628 26.4741 22.4861 26.3086 22.6749C26.0756 22.909 25.8706 23.0628 25.5315 23.0756C25.3067 23.777 25.1307 24.4201 25.3218 25.1611C25.408 25.4966 25.2857 25.5514 25.027 25.7273C25.0212 24.292 25.0457 22.8566 25.0259 21.4212C25.3626 21.215 25.3451 20.6465 25.6504 20.3878C25.9929 20.1443 26.3424 19.9101 26.6849 19.6666C27.0042 19.4651 27.229 19.1132 27.469 18.8243C27.6461 18.5831 27.9409 18.4678 28.0294 18.1765C28.238 18.067 28.3323 17.9074 28.4652 17.7245C28.6329 17.5777 28.8391 17.4786 28.9883 17.3132C29.17 17.1093 29.3087 16.8495 29.4788 16.6386C29.6058 16.528 29.7898 16.4837 29.9366 16.3998C29.9541 16.3264 29.9774 16.2542 30.0054 16.1854C30.4714 16.0491 30.7184 15.7369 31.0784 15.4468C31.3324 15.3885 31.5095 15.2266 31.7798 15.2732C32.1619 14.9854 32.5918 15.0052 33.0206 14.8188C33.32 14.9574 33.419 15.0868 33.7021 14.8176C33.7849 14.8444 33.8629 14.8969 33.948 14.9097C34.0412 14.8258 34.1053 14.6545 34.2334 14.6336C34.3849 14.6499 34.5165 14.7582 34.6622 14.8025C35.0047 14.7466 35.3227 14.5567 35.6455 14.4716C35.7398 14.4658 35.8412 14.58 35.9111 14.6382C35.9111 14.5578 35.9134 14.4774 35.9181 14.3982C36.0393 14.4565 36.1628 14.5322 36.2933 14.5671C36.4564 14.5357 36.6183 14.453 36.7837 14.4483C37.2579 14.5438 37.7041 14.3609 38.1877 14.3831C38.4614 14.2887 38.7609 14.2176 39.0172 14.0801C39.1325 14.1279 39.2362 14.2025 39.3492 14.2561C39.4762 14.1978 39.5916 14.1221 39.7174 14.0627C40.0576 14.0487 40.3617 14.1862 40.7065 14.1186C41.2529 14.0149 41.7493 14.1838 42.2829 13.9566C42.6743 14.0266 42.9178 13.8308 43.2708 13.7423C43.4526 13.7097 43.5586 13.8052 43.7217 13.8366C43.8942 13.7679 44.013 13.6374 44.2087 13.6153C44.2309 13.7073 44.2518 13.7994 44.2728 13.8914C44.3404 13.8332 44.4091 13.7749 44.479 13.719C44.5874 13.7702 44.6887 13.8332 44.7959 13.8867C44.888 13.7947 44.959 13.6689 45.0697 13.6001C45.1711 13.613 45.2736 13.6246 45.375 13.6351C45.4052 13.5442 45.4344 13.4522 45.4623 13.3613Z" fill="#FF983C"/>
<path d="M12.253 13.7026C12.1982 13.959 12.0852 14.1803 11.9885 14.4238C11.7345 14.9516 11.5574 15.5085 11.3256 16.0456C11.3372 16.1388 11.3512 16.2332 11.3675 16.3264C11.251 16.3369 11.1357 16.3392 11.0215 16.3334L11.1625 16.1621C11.4491 15.4036 11.7403 14.6638 12.0607 13.9182C12.1097 13.825 12.1737 13.7539 12.253 13.7026Z" fill="#99CBA5"/>
<path d="M11.858 13.8378L12.0607 13.9182C11.7403 14.6638 11.449 15.4037 11.1624 16.1621C10.5927 16.1679 10.0067 16.1866 9.44044 16.1108C9.34257 16.0573 9.30296 15.9978 9.32044 15.9314C9.4719 15.7182 9.67112 15.8452 9.88433 15.851C9.85404 15.7835 9.82258 15.7171 9.78996 15.6518C9.64666 15.5726 9.4649 15.5644 9.30879 15.5167C9.28082 15.1765 9.76083 14.8036 10.0859 14.9167C10.0614 14.792 10.0183 14.665 10.0148 14.538C10.2129 14.4005 10.4459 14.263 10.6847 14.2164C11.082 14.263 11.4886 13.9753 11.858 13.8378Z" fill="#FFB032"/>
<path d="M28.4068 13.9263L28.613 13.9415C28.3823 14.291 28.1039 14.6032 27.8965 14.9702C27.4491 15.4642 27.0984 16.0176 26.7186 16.5629C26.5042 16.8623 26.4273 17.2002 26.2677 17.5252C26.1139 17.8246 25.8716 18.0542 25.6852 18.3245C25.5524 18.533 25.4708 18.7497 25.2867 18.9233C25.2879 18.5959 25.2448 18.392 25.5011 18.145C25.5337 17.8433 25.6467 17.5742 25.7062 17.2794C25.9974 16.8099 26.3073 16.3788 26.5217 15.8627C27.0611 15.1543 27.6716 14.4366 28.4068 13.9263Z" fill="#DBE77D"/>
<path d="M30.3627 13.9392C30.0843 14.3481 29.8769 14.8328 29.5204 15.1695C29.0532 15.6343 28.6454 16.1481 28.1817 16.6165C27.711 17.2456 27.2019 17.827 26.8 18.5027C26.5728 18.8348 26.3071 19.1831 25.9739 19.4127C25.6978 19.542 25.4671 19.6678 25.2329 19.8647C25.2166 19.4511 25.5836 19.2088 25.8225 18.9245C26.1335 18.6402 26.151 18.2185 26.4668 17.9388C26.744 17.6581 27.026 17.4018 27.2089 17.0429C27.3941 16.6934 27.7134 16.465 27.9266 16.1307C28.1701 15.7567 28.5091 15.4771 28.7806 15.1275C28.9355 14.9539 28.8726 14.7314 28.8866 14.5135C29.073 14.3889 29.2618 14.2689 29.4575 14.1582C29.5146 14.2188 29.5728 14.2782 29.6311 14.3365C29.7266 14.2467 29.8012 14.1163 29.8827 14.0126C29.9713 13.8646 30.2206 13.9357 30.3627 13.9392Z" fill="#FFBF58"/>
<path d="M28.8868 14.5135C28.8728 14.7314 28.9357 14.9539 28.7807 15.1275C28.5093 15.4771 28.1702 15.7567 27.9267 16.1307C27.7135 16.465 27.3943 16.6934 27.2091 17.0429C27.0261 17.4018 26.7442 17.6581 26.4669 17.9388C26.1512 18.2185 26.1337 18.6402 25.8226 18.9245C25.5838 19.2088 25.2168 19.4511 25.2331 19.8647L25.0479 20.0045C25.0199 19.5898 25.0537 19.274 25.2867 18.9233C25.4708 18.7497 25.5523 18.533 25.6852 18.3245C25.8716 18.0542 26.1139 17.8247 26.2677 17.5252C26.4273 17.2002 26.5042 16.8623 26.7186 16.5629C27.0984 16.0177 27.4491 15.4642 27.8964 14.9703C28.2448 14.8526 28.5512 14.6592 28.8868 14.5135Z" fill="#F9DC73"/>
<path d="M11.3257 16.0456C11.5366 16.1365 11.737 16.2145 11.9723 16.2017C12.7168 16.1889 13.4601 16.2099 14.2046 16.1738C14.8582 16.2122 15.5106 16.1947 16.1642 16.1831C17.0194 16.239 17.9002 16.1633 18.7565 16.1004L18.866 16.112C18.7728 16.2972 18.5491 16.232 18.3813 16.2448C17.9526 16.2087 17.5227 16.3765 17.0998 16.4184C15.3918 16.4149 13.6803 16.4161 11.9711 16.4161C11.7649 16.4103 11.5785 16.3159 11.3676 16.3264C11.3513 16.2332 11.3373 16.1388 11.3257 16.0456Z" fill="#77E9FA"/>
<path d="M58.5844 17.0709C58.8896 17.319 58.9118 17.9085 59.0551 18.2569C59.1157 18.3886 59.139 18.533 59.1262 18.6926C58.843 18.8336 58.631 19.027 58.299 19.013C58.2232 19.4185 58.0764 19.6818 57.6523 19.7808C57.7327 19.5478 57.8201 19.3276 57.9261 19.1051C58.0846 18.7987 57.9914 18.406 57.9471 18.0798C58.0834 17.8317 58.1976 17.566 58.3188 17.3109C58.3782 17.178 58.4667 17.0988 58.5844 17.0709Z" fill="#F5C655"/>
<path d="M57.947 18.0798C57.9913 18.406 58.0845 18.7987 57.9261 19.1051C57.82 19.3276 57.7327 19.5478 57.6523 19.7808C57.2643 19.8286 57.0348 20.0686 56.7039 20.2329C56.4231 20.1781 56.1412 20.1594 55.8662 20.0709C56.2285 19.7645 56.5221 19.401 56.9299 19.1458C57.3528 18.8522 57.5334 18.3792 57.947 18.0798Z" fill="#EADB74"/>
<path d="M30.6273 18.3652C30.9396 18.279 31.0771 18.5703 31.2576 18.7625C31.4825 18.9804 31.3275 19.2507 31.373 19.5653C31.3054 19.7167 31.2192 19.86 31.1435 20.008C31.1178 20.2725 31.2227 20.4577 31.0141 20.6756C31.0351 21.2231 31.0211 21.7719 31.027 22.3195C31.0176 22.4698 31.0398 22.6562 30.971 22.7937C30.7369 22.8671 30.5143 22.775 30.3034 22.9474C29.3679 23.1991 28.4475 23.6943 27.6704 24.2721C27.0681 24.7463 26.4867 25.1541 26.0603 25.8089C25.8284 26.0582 25.5861 26.2597 25.4241 26.5685C25.2575 26.6384 25.1038 26.6605 24.9604 26.6361C25.063 26.3308 25.0338 26.0407 25.0269 25.7273C25.2855 25.5514 25.4078 25.4966 25.3216 25.1611C25.1305 24.4201 25.3065 23.777 25.5313 23.0756C25.8704 23.0628 26.0754 22.909 26.3084 22.6748C26.4739 22.4861 26.6987 22.4628 26.9003 22.3323C27.1811 22.1203 27.251 21.7567 27.4281 21.4725C27.5586 21.2639 27.8626 21.1975 28.0292 21.0158C28.3834 20.6546 28.5069 20.0907 28.9124 19.8064C29.2199 19.5979 29.3586 19.253 29.6592 19.0386C29.9772 18.8161 30.2778 18.5342 30.6273 18.3652Z" fill="#FF863C"/>
<path d="M59.1262 18.6926C59.273 19.2053 59.4024 19.7458 59.4932 20.2725C59.6226 20.4822 59.5783 20.6965 59.5806 20.9307C59.322 20.8503 59.294 20.6511 59.1484 20.4589C58.8688 20.262 58.6591 20.1851 58.3305 20.3261C57.9996 20.467 57.6489 20.3249 57.4089 20.5742C57.1538 20.7746 56.7728 21.0484 56.4396 20.8969C56.2078 20.8037 56.0761 20.9086 55.8722 20.9971C55.652 20.9808 55.4365 20.968 55.2151 20.9657C55.0404 20.9202 54.8947 20.7268 54.7607 20.615C55.1254 20.4297 55.4784 20.2026 55.8664 20.0709C56.1413 20.1594 56.4233 20.1781 56.7041 20.2328C57.035 20.0686 57.2645 19.8286 57.6524 19.7808C58.0765 19.6818 58.2233 19.4185 58.2991 19.013C58.6311 19.027 58.8431 18.8336 59.1262 18.6926Z" fill="#FDAE52"/>
<path d="M10.3717 18.9862C10.2505 19.4662 10.1212 19.9265 10.1247 20.4263C10.0163 20.8445 10.0198 21.2476 10.0163 21.6752L9.91846 21.6822C9.95224 20.827 9.98254 19.987 10.1957 19.1528L10.1631 18.9723L10.1888 18.9734C10.2493 18.9734 10.3099 18.9781 10.3717 18.9862Z" fill="#99B192"/>
<path d="M0.891276 18.9839C2.53868 18.9781 4.18492 18.9781 5.83233 18.9734L5.66107 19.1657C5.0296 19.2099 4.14531 19.1225 3.62919 19.5711C3.37404 19.7878 3.08393 19.9544 2.8183 20.1595C2.84276 20.5276 2.63422 20.7921 2.78102 21.1439C2.82179 21.3443 3.06296 21.455 3.24704 21.476C3.85637 21.5401 4.47736 21.5168 5.09018 21.5307L5.11115 21.6939C3.70492 21.702 2.29751 21.681 0.891276 21.6915C0.453211 21.5657 0.131653 21.1206 0 20.7024C0.0267966 20.3901 -0.0279628 20.0558 0.0279605 19.7505C0.223692 19.4231 0.523115 19.1062 0.891276 18.9839Z" fill="#FDBA3D"/>
<path d="M5.83213 18.9734C7.27449 18.9921 8.71917 18.9769 10.1627 18.9723L10.1953 19.1528C9.83414 19.1668 9.50676 19.1144 9.16772 19.2717C8.77626 19.436 8.34518 19.5175 7.97702 19.7214C7.77547 20.0185 7.75915 20.2725 7.86285 20.608C7.5576 20.6162 7.19759 21.0519 7.33041 21.3502C7.47022 21.3758 7.61003 21.4003 7.751 21.4259L7.73236 21.4783C6.85273 21.5074 5.96961 21.5179 5.08998 21.5307C4.47716 21.5168 3.85618 21.5401 3.24685 21.476C3.06277 21.455 2.8216 21.3443 2.78082 21.1439C2.63402 20.7921 2.84257 20.5276 2.8181 20.1595C3.08374 19.9544 3.37384 19.7878 3.62899 19.5711C4.14511 19.1226 5.0294 19.2099 5.66087 19.1657L5.83213 18.9734Z" fill="#FFA33A"/>
<path d="M10.3715 18.9862C11.6763 18.9827 12.9835 18.9676 14.2873 18.9781L14.3234 19.126C13.6663 19.1412 13.0103 19.1388 12.3544 19.182C12.4138 19.2565 12.4721 19.3334 12.528 19.4103C12.4814 19.6014 12.3987 19.7843 12.3579 19.9765C12.4092 20.0499 12.4558 20.1268 12.4989 20.2049C12.316 20.4798 12.309 20.7769 12.0317 20.982C12.0678 21.1032 12.1191 21.2197 12.1528 21.342C12.0608 21.3909 11.9629 21.4294 11.8581 21.4562C12.4791 21.4736 13.0931 21.5505 13.7152 21.5214C14.8034 21.5692 15.8974 21.5447 16.9855 21.5657C15.6667 21.6333 14.3397 21.5482 13.0208 21.6414C12.0107 21.6694 11.0251 21.6764 10.0161 21.6752C10.0196 21.2476 10.0161 20.8445 10.1245 20.4262C10.121 19.9264 10.2503 19.4662 10.3715 18.9862Z" fill="#33D3F2"/>
<path d="M14.2873 18.9781C15.3952 18.9932 16.5079 18.9944 17.6159 18.9699C17.6403 19.1668 17.6694 19.4511 17.5203 19.6072C17.5005 19.7773 17.4865 19.9148 17.4003 20.0686C17.3887 20.269 17.4213 20.3692 17.2757 20.5334C17.2733 20.6651 17.2733 20.7956 17.2768 20.9272C17.0613 21.1556 17.1941 21.3804 17.1475 21.6705C14.7929 21.6915 12.3742 21.6787 10.0161 21.6752C11.0251 21.6764 12.0107 21.6694 13.0208 21.6414C14.3397 21.5482 15.6667 21.6333 16.9855 21.5657C15.8974 21.5447 14.8034 21.5692 13.7152 21.5214C13.6768 21.2954 13.5614 21.1031 13.6907 20.8864C13.8562 20.5148 14.123 20.2573 14.4131 19.9847C14.5086 19.7377 14.751 19.4383 14.7556 19.1819C14.6135 19.1517 14.4702 19.133 14.3234 19.126L14.2873 18.9781Z" fill="#289BE9"/>
<path d="M10.1957 19.1528C9.98245 19.987 9.95216 20.827 9.91837 21.6822C8.31874 21.6973 6.71094 21.6752 5.1113 21.6938L5.09033 21.5307C5.96996 21.5179 6.85308 21.5074 7.73271 21.4783L7.75135 21.4259C7.61038 21.4002 7.47057 21.3758 7.33076 21.3502C7.19794 21.0519 7.55795 20.6162 7.86319 20.608C7.7595 20.2725 7.77582 20.0185 7.97737 19.7214C8.34553 19.5175 8.77661 19.4359 9.16807 19.2717C9.5071 19.1144 9.83449 19.1668 10.1957 19.1528Z" fill="#FF9238"/>
<path d="M12.3542 19.182C13.0102 19.1389 13.6661 19.1412 14.3232 19.126C14.47 19.133 14.6133 19.1517 14.7554 19.182C14.7508 19.4383 14.5084 19.7377 14.4129 19.9847C14.1228 20.2573 13.856 20.5148 13.6906 20.8865C13.5612 21.1032 13.6766 21.2954 13.715 21.5214C13.0929 21.5505 12.4789 21.4736 11.8579 21.4562C11.9628 21.4294 12.0606 21.3909 12.1527 21.342C12.1189 21.2197 12.0676 21.1032 12.0315 20.982C12.3088 20.7769 12.3158 20.4798 12.4987 20.2049C12.4556 20.1268 12.409 20.0499 12.3577 19.9765C12.3985 19.7843 12.4812 19.6014 12.5278 19.4103C12.4719 19.3334 12.4136 19.2565 12.3542 19.182Z" fill="#2DBBEC"/>
<path d="M59.1481 20.4589C59.2937 20.6511 59.3217 20.8503 59.5804 20.9307C59.7959 21.1987 59.5617 21.462 59.8075 21.7218C59.7493 22.3906 59.8541 23.0465 59.8297 23.7164C59.8169 24.7615 59.86 25.8182 59.818 26.8598C59.719 26.9378 59.6153 27.0135 59.5093 27.0846C59.5291 26.8504 59.5186 26.6174 59.5512 26.3856C59.6549 25.8182 59.2017 25.3557 59.218 24.7568C59.2169 24.5634 59.105 24.6065 58.9629 24.5809C58.9466 24.4399 58.985 24.3467 58.8673 24.2395C58.6425 24.0217 58.7275 23.7327 58.6297 23.4345C58.3407 23.2038 58.1753 23.078 58.046 22.7168C57.8502 22.6795 57.6475 22.6713 57.4518 22.6271C57.3131 22.5059 57.2642 22.3405 57.0603 22.337C56.8261 22.316 56.6362 22.2577 56.4242 22.1622C55.7729 22.0865 54.8944 21.8022 54.5356 21.215C54.376 21.1731 54.2059 21.1661 54.0439 21.1416C54.101 21.0379 54.1628 20.9366 54.2292 20.8364C54.4098 20.7548 54.5974 20.7373 54.7605 20.615C54.8944 20.7268 55.0401 20.9202 55.2148 20.9657C55.4362 20.968 55.6517 20.9808 55.8719 20.9971C56.0758 20.9086 56.2075 20.8037 56.4393 20.8969C56.7725 21.0484 57.1535 20.7746 57.4087 20.5742C57.6487 20.3249 57.9994 20.467 58.3302 20.3261C58.6588 20.1851 58.8685 20.262 59.1481 20.4589Z" fill="#FF933F"/>
<path d="M54.2294 20.8364C54.163 20.9366 54.1012 21.0379 54.0441 21.1416C54.2061 21.1661 54.3762 21.1731 54.5358 21.215C54.8946 21.8022 55.7731 22.0865 56.4244 22.1622C56.6364 22.2577 56.8263 22.316 57.0605 22.337C57.2644 22.3405 57.3133 22.5059 57.452 22.6271C57.6477 22.6713 57.8504 22.6795 58.0461 22.7168C58.1755 23.078 58.3409 23.2038 58.6298 23.4345C58.7277 23.7327 58.6427 24.0217 58.8675 24.2395C58.9852 24.3467 58.9467 24.4399 58.963 24.5809C59.1052 24.6065 59.217 24.5634 59.2182 24.7568C59.2019 25.3557 59.6551 25.8182 59.5514 26.3856C59.5188 26.6174 59.5293 26.8504 59.5095 27.0846C59.6155 27.0136 59.7192 26.9378 59.8182 26.8598C59.7867 27.0998 59.7833 27.3363 59.8077 27.5774C59.5852 27.8011 59.711 28.2147 59.6889 28.5072C59.4349 28.7425 59.711 28.9755 59.4768 29.2202C59.45 29.4439 59.5316 29.6186 59.358 29.8016C59.3405 30.0218 59.3976 30.1965 59.2497 30.3876C59.238 30.5612 59.2333 30.7045 59.1227 30.849C59.125 31.2194 59.019 31.5457 58.892 31.8812C58.885 32.0909 58.8058 32.3368 58.6799 32.5034C58.5192 32.0746 58.4423 31.6307 58.4586 31.1728C58.4877 30.4994 58.2162 29.8924 58.3048 29.2109C58.1731 29.219 58.0357 29.247 57.904 29.2353C57.7083 29.0408 57.6978 28.7437 57.5487 28.541C57.2586 28.414 57.0244 28.3021 56.8345 28.0342C56.8951 27.9701 56.9533 27.9048 57.0116 27.8384C56.5921 27.6322 56.196 27.2163 55.9595 26.8178C55.9886 26.7596 56.0282 26.706 56.0783 26.6582C55.9642 26.6011 55.8488 26.551 55.7393 26.4834C55.7719 26.1432 55.6251 26.0652 55.3735 25.8799C55.1964 26.099 55.0869 25.824 54.869 25.8194C54.7839 25.8881 54.6989 25.9568 54.6138 26.0244C54.5335 25.9603 54.4519 25.8963 54.3715 25.8322C54.1012 25.8578 54.0791 26.0232 53.9917 26.2376L53.8263 26.1596C53.8426 24.9572 53.8333 23.7549 53.8321 22.5525C53.6107 22.2531 53.7738 21.9909 53.7039 21.6519C53.5525 21.5133 53.5793 21.1789 53.6597 21.0111C53.8624 20.9762 54.0336 20.8725 54.2294 20.8364Z" fill="#FF7C3D"/>
<path d="M63.4985 21.3059C64.3316 21.307 65.1634 21.3059 65.9964 21.307C65.9871 24.9374 65.9929 28.5701 65.9929 32.2016L65.9091 32.2482C65.1483 32.2622 64.3537 32.247 63.5871 32.2552L63.5044 32.2016C63.4997 28.5701 63.5125 24.9374 63.4985 21.3059Z" fill="#FFB535"/>
<path d="M87.9779 21.3105C88.8098 21.2989 89.6428 21.3129 90.4747 21.3036C90.4735 21.963 90.4583 22.6236 90.4816 23.2818C89.7698 23.3564 88.7795 23.2795 88.0268 23.3203L87.9756 23.2399C87.9884 22.5968 87.9837 21.9537 87.9779 21.3105Z" fill="#FFB535"/>
<path d="M103.244 21.3117C104.072 21.3001 104.903 21.3094 105.731 21.3059C105.84 21.4876 105.779 21.6508 105.789 21.8523C105.794 25.2695 105.783 28.6878 105.794 32.1049C105.723 32.2319 105.634 32.282 105.529 32.2564C104.866 32.2517 104.204 32.2494 103.541 32.2575C103.44 32.2727 103.341 32.2482 103.241 32.1865C103.254 28.5619 103.248 24.9362 103.244 21.3117Z" fill="#FFB535"/>
<path d="M33.7438 23.9984C37.9311 24.0368 42.1521 23.9984 46.3428 24.0158C46.6364 24.1417 46.5223 24.4516 46.4116 24.6718C46.4092 24.5052 46.3883 24.3397 46.3498 24.1743C45.7964 24.0799 45.1731 24.1288 44.6139 24.1859L44.6127 24.2838C44.9273 24.3467 45.2943 24.3304 45.5774 24.476C45.6718 24.9257 45.6415 25.3044 46.0749 25.5863C45.9048 25.7261 46.0073 25.8788 45.9176 26.0594C45.7417 26.2796 45.6566 26.5429 45.4912 26.7689C45.356 26.8842 45.1906 26.9704 45.0811 27.1044C45.0869 26.9413 45.1661 26.7409 45.1125 26.5836C44.9867 26.3984 44.784 26.2586 44.5813 26.1677C44.3715 26.1677 44.1677 26.2889 43.9894 26.1794C43.8333 26.0803 43.7343 26.1607 43.5793 26.2131C43.4174 26.1328 43.2659 26.0046 43.0946 25.9475C43.0061 26.0139 42.9175 26.0792 42.8278 26.1432C42.5191 26.0978 42.2441 25.9976 41.9272 26.0675C41.4845 26.1537 41.0336 26.1561 40.5886 26.0896C40.2752 26.0128 40.0794 26.3075 39.7765 26.2108C39.4689 26.1537 39.4258 26.1129 39.1742 26.3215C38.8316 26.1234 38.5509 26.2819 38.1839 26.2889C37.8448 26.283 37.5745 26.4613 37.2518 26.5102C36.9419 26.5009 36.7287 26.4077 36.4502 26.5906C36.2988 26.5254 36.1916 26.431 36.0157 26.438C35.792 26.4054 35.7116 26.5906 35.5065 26.6349C35.3201 26.6314 35.1384 26.5825 34.9531 26.5778C34.8576 26.6605 34.7807 26.7549 34.6945 26.8469C34.5314 26.7852 34.3776 26.7036 34.211 26.6465C34.0642 26.6186 33.95 26.826 33.8009 26.8225C33.5154 26.8481 33.3011 26.6547 33.0156 26.6885C32.9131 26.699 32.8082 26.6163 32.7244 26.5673C32.5904 26.6267 32.4879 26.7479 32.3585 26.8166C32.1721 26.8411 31.9473 26.7607 31.7562 26.8108C31.6339 26.8877 31.5465 27.0135 31.4218 27.0893C31.1818 27.1802 30.908 27.193 30.6599 27.2594C30.5888 27.3782 30.5317 27.5052 30.4641 27.6264C30.3907 27.5681 30.3173 27.5099 30.2439 27.4516C30.1845 27.4854 30.1274 27.5204 30.0715 27.5588C30.1146 27.6369 30.1624 27.7114 30.2171 27.7837C30.1752 27.9782 29.9364 27.9957 29.814 28.1565C29.6602 28.365 29.5752 28.5922 29.3585 28.7518C29.0672 28.972 28.8959 29.2936 28.6093 29.5196C28.1014 29.9553 27.668 30.56 27.0913 30.9037C26.9748 30.9713 26.9608 31.0179 26.9223 31.1379C26.8373 31.1309 26.7534 31.1251 26.6683 31.1204C26.3806 31.3662 26.1953 31.6901 25.8691 31.8987C25.5918 32.0758 25.4578 32.367 25.2015 32.5628C25.1887 32.2505 25.1619 31.9092 25.2271 31.6016C25.2971 31.3697 25.466 31.1693 25.5685 30.948C26.1965 30.6684 26.7837 30.4319 27.1542 29.8144C27.6155 29.0874 28.3309 28.6283 28.7037 27.8594C28.9006 27.5134 29.249 27.2058 29.4004 26.8458C29.4249 26.4042 29.5589 26.0116 29.6556 25.5863C30.1694 25.2391 30.7263 24.9106 31.3135 24.6974C31.6968 24.5273 32.1919 24.4434 32.5799 24.2407C32.7884 24.236 32.8898 24.2605 33.0471 24.102C33.3081 24.1125 33.5283 24.1906 33.7438 23.9984Z" fill="#FF6743"/>
<path d="M44.614 24.1859C45.1732 24.1288 45.7965 24.0799 46.3499 24.1743C46.3884 24.3397 46.4093 24.5052 46.4117 24.6718C46.2637 25.0061 46.3313 25.2823 46.075 25.5863C45.6416 25.3044 45.6718 24.9257 45.5775 24.476C45.2944 24.3304 44.9274 24.3467 44.6128 24.2838L44.614 24.1859Z" fill="#FF8236"/>
<path d="M68.3008 24.3351C69.1256 24.3327 69.9528 24.3234 70.7777 24.3409C70.9152 24.4562 70.8313 24.7195 70.8465 24.8815C70.85 25.6597 70.8418 26.4368 70.8453 27.2151C70.7171 27.6369 70.7544 28.1798 70.8465 28.6062C70.8802 29.0676 70.7696 29.7957 71.1482 30.1336C71.6538 30.7313 72.6756 30.5833 73.144 30.0124C73.4469 29.7212 73.4993 29.3262 73.6484 28.9674C73.7055 27.4295 73.6683 25.8869 73.6729 24.349C74.5211 24.3164 75.3774 24.3316 76.2267 24.3409C76.2221 26.9541 76.2163 29.5685 76.2291 32.1818L76.059 32.2599C75.3564 32.247 74.6539 32.2529 73.9514 32.2564C73.8465 32.2762 73.7475 32.2342 73.6554 32.1305C73.6787 31.8183 73.6764 31.5014 73.6706 31.188C73.4888 31.216 73.4073 31.4198 73.2605 31.5305C72.2073 32.5395 70.4107 32.7049 69.2445 31.8055C68.5536 31.1938 68.2915 30.2 68.3054 29.3087C68.2985 27.6508 68.3078 25.993 68.3008 24.3351Z" fill="#FFB535"/>
<path d="M77.8045 24.3304C78.6678 24.3455 79.5789 24.3094 80.4329 24.349C80.9548 25.0982 81.4908 25.8601 81.9883 26.6267L82.1187 26.5568C82.6186 25.8077 83.1347 25.0679 83.6578 24.3351C84.5374 24.3316 85.4171 24.3281 86.2967 24.3362C85.4928 25.492 84.4069 26.9099 83.5576 28.0773C83.5087 28.2147 83.5809 28.3371 83.6764 28.4349C84.5363 29.5977 85.3868 30.7674 86.2454 31.9336C86.3258 32.0175 86.3782 32.1119 86.405 32.2156L86.3095 32.2587C85.4893 32.2494 84.6679 32.2505 83.8477 32.2575C83.3001 31.5876 82.8341 30.842 82.3203 30.1441C82.1991 30.0241 82.1677 29.7561 81.9533 29.8307C81.4721 30.5565 80.9525 31.2579 80.4643 31.9791C80.356 32.141 80.236 32.2948 80.017 32.2587C79.2771 32.2505 78.5303 32.2447 77.7905 32.2645L77.688 32.2156L77.7486 32.0466C78.6259 30.8769 79.5428 29.607 80.4177 28.4314C80.5424 28.3161 80.6275 28.1635 80.4818 28.0248C79.6616 26.925 78.8286 25.7751 78.0084 24.6694C77.9233 24.5576 77.8278 24.476 77.8045 24.3304Z" fill="#FFB535"/>
<path d="M87.9766 24.3374C88.8096 24.3246 89.6426 24.3374 90.4745 24.3304C90.464 26.9564 90.4756 29.5848 90.4675 32.2109L90.3813 32.2598C89.6822 32.2482 88.9785 32.2505 88.2795 32.2575C88.1746 32.2727 88.0733 32.2505 87.9766 32.1899C87.9859 29.572 87.9847 26.9541 87.9766 24.3374Z" fill="#FFB535"/>
<path d="M3.11095 24.5762C4.48224 24.5483 5.85818 24.5681 7.23063 24.5553C7.02791 24.9456 6.48033 24.638 6.14362 24.8768C5.8943 25.0574 5.64264 25.2182 5.6042 25.5467C5.52031 25.5397 5.43643 25.5339 5.35254 25.5281C5.15681 25.7005 5.02749 25.9464 4.82826 26.113C4.74088 26.1141 4.6535 26.1176 4.56612 26.1234C4.40534 26.4893 4.05 26.4392 3.97776 26.8586C3.9964 27.0974 4.00689 27.2769 3.88689 27.4947C3.82281 27.8885 3.97077 28.2683 4.30864 28.4955C4.05582 28.5095 3.80417 28.5305 3.55368 28.5689C3.2729 28.4827 2.98745 28.5177 2.74978 28.3534C2.18123 28.1157 1.90627 27.6404 1.66044 27.1044C1.63015 26.7071 1.60685 26.3157 1.64646 25.9172C1.90278 25.2496 2.40376 24.7277 3.11095 24.5762Z" fill="#2DD8FB"/>
<path d="M7.23042 24.5553C7.75237 24.5716 8.27199 24.5669 8.79394 24.5553C9.00598 24.9223 9.45453 24.6636 9.7656 24.8722C9.9357 24.963 9.89259 25.1972 9.75046 25.2916C9.41725 25.2217 9.00714 25.2566 8.7986 25.5572C8.49801 25.9883 7.87004 26.1246 7.58343 26.5569C7.46576 26.6361 7.33877 26.7013 7.21527 26.7712C7.10575 26.8493 7.1675 27.0357 7.14071 27.1569C7.01371 27.1976 6.91934 27.2536 6.85876 27.3258C6.92284 27.447 7.00323 27.5588 7.06731 27.68C6.95546 27.7907 6.81565 27.8897 6.72944 28.019C6.78536 28.0971 6.88439 28.153 7.02653 28.1891C7.01022 28.3045 6.98808 28.4186 6.96245 28.5316C6.08049 28.5468 5.18922 28.5584 4.30843 28.4955C3.97056 28.2683 3.82259 27.8885 3.88667 27.4947C4.00667 27.2769 3.99619 27.0974 3.97755 26.8586C4.04978 26.4392 4.40512 26.4893 4.5659 26.1234C4.65328 26.1176 4.74066 26.1141 4.82804 26.113C5.02727 25.9464 5.15659 25.7005 5.35232 25.5281C5.43621 25.5339 5.5201 25.5397 5.60398 25.5467C5.64243 25.2182 5.89408 25.0574 6.14341 24.8768C6.48011 24.638 7.02769 24.9456 7.23042 24.5553Z" fill="#28C4FC"/>
<path d="M8.79399 24.5553C10.3925 24.5809 11.9944 24.5541 13.5929 24.5623L13.6174 24.7393C13.29 24.7533 12.9568 24.7498 12.6306 24.7848C12.6073 24.8966 12.5898 25.0085 12.5676 25.1203C12.4803 25.3044 12.2193 25.3196 12.1168 25.4862C11.9839 25.7145 11.7218 25.7798 11.5051 25.9277C11.1801 26.1479 10.8445 26.3367 10.5649 26.6174C10.3587 26.7013 10.1396 26.8073 9.91362 26.8225C9.85304 27.0194 9.80527 27.1697 9.66779 27.3293C9.71207 27.3852 9.75517 27.4411 9.79828 27.4971C9.79246 27.7336 9.62469 27.8396 9.55012 28.0481C9.82624 28.5002 10.1967 28.2287 10.6057 28.5072C9.39517 28.5817 8.17534 28.5328 6.96251 28.5316C6.98814 28.4186 7.01027 28.3045 7.02658 28.1891C6.88445 28.153 6.78542 28.0971 6.72949 28.019C6.81571 27.8897 6.95551 27.7907 7.06736 27.68C7.00328 27.5588 6.92289 27.447 6.85881 27.3258C6.9194 27.2536 7.01377 27.1976 7.14076 27.1569C7.16756 27.0357 7.10581 26.8493 7.21533 26.7712C7.33882 26.7013 7.46582 26.6361 7.58349 26.5569C7.87009 26.1246 8.49806 25.9883 8.79865 25.5572C9.0072 25.2566 9.4173 25.2217 9.75051 25.2916C9.89265 25.1972 9.93576 24.963 9.76566 24.8722C9.45459 24.6636 9.00604 24.9223 8.79399 24.5553Z" fill="#28B0FB"/>
<path d="M13.5926 24.5622C14.7111 24.5692 15.8377 24.5739 16.955 24.5599C16.9212 25.0387 16.9445 25.5246 16.9492 26.0046C16.6428 25.8846 16.1861 26.0442 16.1989 26.4182C16.0777 26.6116 15.9333 26.7875 15.8261 26.9949C15.7201 27.1534 15.7958 27.4062 15.7236 27.5774C15.642 27.6974 15.557 27.8139 15.4742 27.9328C15.5616 28.1099 15.769 28.2264 15.917 28.3522C15.4556 28.3895 14.9942 28.3941 14.5317 28.4035C14.3989 28.3965 14.2742 28.4396 14.1577 28.5328C13.9037 28.5538 13.6509 28.5514 13.3969 28.534C13.193 28.2811 12.7258 28.1833 12.8272 27.8C13.0031 27.5635 13.122 27.3456 13.2245 27.0695C13.3002 27.0543 13.3759 27.0345 13.4505 27.01C13.5216 26.6116 13.588 26.5766 13.8874 26.3355C13.8921 26.2493 13.9037 26.1642 13.9247 26.0827C14.0424 25.9801 14.202 25.9265 14.3103 25.8158C14.3383 25.6889 14.3697 25.5607 14.3907 25.4325C14.6843 25.2659 15.2226 25.2636 15.1026 24.7906C14.6121 24.737 14.1111 24.7533 13.6171 24.7393L13.5926 24.5622Z" fill="#268BF4"/>
<path d="M12.6307 24.7848C12.957 24.7498 13.2902 24.7533 13.6175 24.7393C14.1115 24.7533 14.6125 24.737 15.103 24.7906C15.223 25.2636 14.6847 25.266 14.3912 25.4326C14.3702 25.5607 14.3387 25.6889 14.3108 25.8159C14.2024 25.9266 14.0428 25.9801 13.9251 26.0827C13.9042 26.1642 13.8925 26.2493 13.8878 26.3355C13.5884 26.5767 13.522 26.6116 13.4509 27.0101C13.3764 27.0345 13.3006 27.0543 13.2249 27.0695C13.1224 27.3456 13.0036 27.5635 12.8276 27.8C12.7263 28.1833 13.1935 28.2812 13.3973 28.534C12.4723 28.5491 11.5286 28.5852 10.6058 28.5072C10.1969 28.2287 9.82641 28.5002 9.55029 28.0481C9.62486 27.8396 9.79263 27.7336 9.79845 27.4971C9.75534 27.4411 9.71224 27.3852 9.66796 27.3293C9.80544 27.1697 9.85321 27.0194 9.91379 26.8225C10.1398 26.8073 10.3588 26.7013 10.5651 26.6174C10.8447 26.3367 11.1802 26.1479 11.5053 25.9277C11.722 25.7798 11.9841 25.7145 12.1169 25.4862C12.2195 25.3196 12.4804 25.3044 12.5678 25.1203C12.59 25.0085 12.6074 24.8966 12.6307 24.7848Z" fill="#279EFA"/>
<path d="M29.6554 25.5863C29.5587 26.0116 29.4247 26.4042 29.4003 26.8458C29.2488 27.2058 28.9005 27.5134 28.7036 27.8594C28.3307 28.6283 27.6154 29.0874 27.154 29.8144C26.7835 30.4319 26.1963 30.6684 25.5684 30.948C25.5858 30.6963 25.6406 30.4831 25.7396 30.2513C25.8713 30.0334 25.9971 29.8109 26.1404 29.6C26.3093 29.3553 26.5726 29.1747 26.7672 28.9511C26.935 28.7204 27.0259 28.4687 27.2496 28.2788C27.6503 27.9491 27.7925 27.4772 28.128 27.0555C28.3074 26.791 28.5614 26.6163 28.5987 26.297C28.7315 26.1724 28.8608 26.05 29.0181 25.9545C29.2476 25.8193 29.37 25.6038 29.6554 25.5863Z" fill="#FC7F54"/>
<path d="M54.3713 25.8322C54.4517 25.8963 54.5333 25.9603 54.6137 26.0244C54.6987 25.9568 54.7838 25.8881 54.8688 25.8194C55.0867 25.824 55.1962 26.099 55.3733 25.88C55.625 26.0652 55.7717 26.1433 55.7391 26.4835C55.8486 26.551 55.964 26.6011 56.0782 26.6582C56.0281 26.706 55.9885 26.7596 55.9593 26.8178C56.1958 27.2163 56.592 27.6322 57.0114 27.8384C56.9531 27.9048 56.8949 27.9701 56.8343 28.0342C57.0242 28.3021 57.2584 28.414 57.5485 28.541C57.6976 28.7437 57.7081 29.0408 57.9038 29.2353C58.0355 29.247 58.173 29.219 58.3046 29.2109C58.2161 29.8924 58.4875 30.4994 58.4584 31.1729C58.4421 31.6307 58.519 32.0746 58.6798 32.5034C58.6087 33.143 58.2289 33.7628 58.0413 34.3826C57.757 34.9384 57.6044 35.5174 57.2642 35.9974C57.016 35.5279 57.6091 35.2646 57.4926 34.8044C57.4308 34.5387 57.3947 34.2673 57.3353 34.0028C57.2654 33.9644 56.9357 33.9818 56.9764 33.8816C57.1139 33.8607 57.2514 33.8397 57.3889 33.8199C57.3411 33.7045 57.291 33.5764 57.2071 33.4809C56.9566 33.4273 56.7201 33.3539 56.5372 33.1628C56.2972 32.8005 55.985 32.5197 55.724 32.1678C55.6716 32.2109 55.6168 32.2517 55.5609 32.2902C55.491 32.2004 55.4257 32.1072 55.3547 32.0187C55.3255 32.1072 55.2929 32.1958 55.2591 32.2832C55.1438 32.3181 55.0284 32.3554 54.9131 32.395C54.8747 32.4614 54.835 32.529 54.7954 32.5954C54.6778 32.6583 54.5508 32.6455 54.4657 32.7678C54.3725 32.9368 54.39 33.1651 54.3329 33.3515C54.1581 33.5205 53.9461 33.5403 53.7142 33.5356C53.7655 33.6277 53.8203 33.7185 53.8715 33.8094L53.6863 33.8933C53.4742 33.7115 53.3717 33.6521 53.0933 33.715C53.0933 33.2455 53.4661 32.9717 53.4206 32.5092C53.7049 32.2552 53.6746 31.9197 53.8319 31.5643C53.8377 31.3395 53.8098 31.174 53.9589 30.9829C54.1476 30.7313 53.8447 30.4062 53.7643 30.1604C53.7247 29.7037 53.5139 29.3122 53.5372 28.845C53.4672 29.0012 53.3787 29.0862 53.254 29.1981C53.1923 28.8416 53.4801 28.7355 53.3764 28.3639C53.6315 28.0784 53.3694 27.8536 53.6094 27.5891C53.6257 27.4213 53.6106 27.2489 53.5977 27.0811C53.8226 26.9006 53.6968 26.5266 53.7154 26.2656L53.8261 26.1596L53.9915 26.2376C54.0789 26.0233 54.101 25.8578 54.3713 25.8322Z" fill="#FF6541"/>
<path fill-rule="evenodd" clip-rule="evenodd" d="M112.752 24.1114C112.202 23.9844 111.551 23.9902 111.002 24.1137C109.978 24.2069 109.027 24.7219 108.383 25.5234C107.523 26.5802 107.408 28.1344 107.679 29.4218C107.931 30.5705 108.749 31.534 109.831 31.9872C109.986 32.0543 110.149 32.1017 110.313 32.1491C110.425 32.1815 110.537 32.214 110.647 32.2529C110.716 32.2617 110.783 32.2685 110.85 32.2753C111.057 32.2963 111.255 32.3163 111.461 32.3904C111.699 32.3865 111.936 32.3865 112.173 32.3866C112.367 32.3866 112.561 32.3866 112.755 32.3845C112.92 32.2979 113.091 32.2844 113.262 32.2709C113.402 32.2599 113.543 32.2489 113.68 32.1981C114.294 32.0618 115.099 31.8288 115.614 31.4839C115.613 31.2429 115.613 31.0019 115.614 30.761C115.615 30.3998 115.615 30.0387 115.61 29.6781C115.54 29.7124 115.471 29.747 115.402 29.7816C114.883 30.0411 114.369 30.2982 113.796 30.4319C113.663 30.499 113.525 30.5135 113.388 30.5279C113.251 30.5423 113.115 30.5566 112.986 30.6229C112.74 30.6591 112.483 30.6543 112.228 30.6496C112.088 30.647 111.949 30.6445 111.813 30.6486C111.702 30.5885 111.586 30.5628 111.471 30.5371C111.341 30.508 111.211 30.479 111.089 30.4004C110.493 30.1126 110.171 29.4241 110.118 28.7938C111.141 28.781 112.165 28.7826 113.189 28.7842C113.937 28.7854 114.684 28.7866 115.43 28.7821C115.499 28.7764 115.573 28.7815 115.647 28.7865C115.769 28.7949 115.893 28.8034 116 28.7635C115.989 28.5734 115.99 28.3755 115.991 28.1752C115.993 27.73 115.995 27.2734 115.868 26.8668C115.534 25.4116 114.243 24.2593 112.752 24.1114ZM113.335 26.671C113.109 26.0559 112.45 25.7064 111.819 25.7588C111.009 25.7646 110.203 26.311 110.201 27.1837C110.608 27.1868 111.015 27.1853 111.422 27.1837C112.07 27.1813 112.718 27.1789 113.365 27.1953C113.501 27.1114 113.388 26.7934 113.335 26.671Z" fill="#FFB535"/>
<path d="M16.9492 26.0046C17.1927 26.2295 16.9131 26.7398 17.1205 26.9833C17.2696 27.1277 17.0471 27.433 17.2125 27.5646C17.364 27.6776 17.223 27.8885 17.2836 28.0574C17.4304 28.2194 17.4723 28.4454 17.2521 28.5677C16.2723 28.534 15.1096 28.5957 14.1577 28.5328C14.2742 28.4396 14.3989 28.3965 14.5317 28.4035C14.9942 28.3942 15.4556 28.3895 15.917 28.3522C15.769 28.2264 15.5616 28.1099 15.4742 27.9328C15.557 27.8139 15.642 27.6974 15.7236 27.5774C15.7958 27.4062 15.7201 27.1534 15.8261 26.9949C15.9333 26.7875 16.0777 26.6116 16.1989 26.4182C16.1861 26.0442 16.6428 25.8846 16.9492 26.0046Z" fill="#227BEA"/>
<path d="M43.0947 25.9475C43.266 26.0046 43.4174 26.1328 43.5794 26.2131C43.7343 26.1607 43.8334 26.0803 43.9895 26.1794C44.1677 26.2889 44.3716 26.1677 44.5813 26.1677C44.7841 26.2586 44.9868 26.3984 45.1126 26.5836C45.1662 26.7409 45.087 26.9413 45.0811 27.1044C45.1907 26.9704 45.3561 26.8842 45.4913 26.7689C45.3503 26.9961 45.2011 27.2209 45.0578 27.447C44.5918 27.8978 44.1561 28.3907 43.6656 28.8136C43.2951 28.9079 43.0062 29.1981 42.6566 29.3565C42.0939 29.6606 41.4904 29.7864 40.8718 29.9169C41.0698 29.628 41.3413 29.6967 41.6419 29.6012C42.0706 29.2738 42.4586 28.8485 42.906 28.5538C42.8978 28.3883 42.8559 28.2229 42.7964 28.0691C42.6823 27.9316 42.4679 28.0015 42.3071 27.9747C42.1452 27.8454 42.1149 27.6672 41.8714 27.7359C41.5067 27.8442 41.2178 27.2163 40.8252 27.3934C40.4616 27.4994 40.1948 27.5891 39.8127 27.4924C39.3432 27.7196 38.9517 27.7906 38.4333 27.8303C37.9929 27.9013 37.5758 27.7324 37.14 27.807C36.8173 27.8431 36.5086 27.9596 36.1858 27.9922C35.7175 27.9806 35.2678 28.0668 34.8041 27.9607C34.5303 27.8769 34.3683 28.1809 34.1551 27.9852C33.8685 28.0435 33.6378 28.1215 33.3361 28.0738C33.2382 28.1588 33.1578 28.2672 33.067 28.3604C32.8875 28.2881 32.7815 28.1367 32.58 28.2345C32.199 28.4536 31.811 28.5747 31.5034 28.894C30.9966 28.9615 30.5143 29.3192 30.1613 29.6711C29.9784 29.8493 29.6708 29.8971 29.5834 30.1383C29.4832 30.3503 29.2385 30.3934 29.1057 30.5961C28.825 30.9876 28.3974 31.2043 28.1259 31.6016C27.8195 32.0583 27.301 32.1934 27.0855 32.7235C26.9981 32.7305 26.9107 32.7387 26.8245 32.7468C26.6544 33.0591 26.376 33.1861 26.3201 33.5274C26.2373 33.5915 26.0404 33.5065 25.9624 33.6276C25.8412 33.7663 25.7492 33.8012 25.5697 33.828C25.4451 34.1939 25.4696 34.3966 25.0769 34.5807C25.0723 34.0261 25.0664 33.4715 25.0758 32.9169C25.0688 32.7923 25.1107 32.6734 25.2016 32.5628C25.4579 32.367 25.5919 32.0758 25.8692 31.8987C26.1954 31.6901 26.3806 31.3662 26.6684 31.1204C26.7535 31.1251 26.8373 31.1309 26.9224 31.1379C26.9608 31.0179 26.9748 30.9713 27.0913 30.9037C27.668 30.56 28.1014 29.9553 28.6094 29.5196C28.896 29.2936 29.0673 28.972 29.3586 28.7518C29.5753 28.5922 29.6603 28.365 29.8141 28.1565C29.9364 27.9957 30.1753 27.9782 30.2172 27.7837C30.1624 27.7114 30.1147 27.6369 30.0716 27.5588C30.1275 27.5204 30.1846 27.4854 30.244 27.4516C30.3174 27.5099 30.3908 27.5681 30.4642 27.6264C30.5318 27.5052 30.5889 27.3782 30.6599 27.2594C30.9081 27.193 31.1819 27.1802 31.4219 27.0893C31.5465 27.0135 31.6339 26.8877 31.7563 26.8108C31.9473 26.7607 32.1722 26.8411 32.3586 26.8166C32.4879 26.7479 32.5904 26.6267 32.7244 26.5673C32.8083 26.6163 32.9132 26.699 33.0157 26.6885C33.3011 26.6547 33.5155 26.8481 33.801 26.8225C33.9501 26.826 34.0643 26.6186 34.2111 26.6466C34.3777 26.7036 34.5315 26.7852 34.6946 26.8469C34.7808 26.7549 34.8577 26.6605 34.9532 26.5778C35.1385 26.5825 35.3202 26.6314 35.5066 26.6349C35.7117 26.5906 35.7921 26.4054 36.0157 26.438C36.1917 26.431 36.2989 26.5254 36.4503 26.5906C36.7288 26.4077 36.942 26.5009 37.2519 26.5102C37.5746 26.4613 37.8449 26.283 38.1839 26.2889C38.5509 26.2819 38.8317 26.1234 39.1743 26.3215C39.4259 26.1129 39.469 26.1537 39.7766 26.2108C40.0795 26.3075 40.2752 26.0128 40.5886 26.0896C41.0337 26.1561 41.4846 26.1537 41.9273 26.0675C42.2442 25.9976 42.5192 26.0978 42.8279 26.1432C42.9176 26.0792 43.0062 26.0139 43.0947 25.9475Z" fill="#FF5A44"/>
<path fill-rule="evenodd" clip-rule="evenodd" d="M94.274 21.3063C93.8069 21.3054 93.3396 21.3045 92.8723 21.3117C92.8781 24.9362 92.8827 28.5631 92.8711 32.1876C92.9713 32.2494 93.0715 32.2727 93.1717 32.2575C93.8719 32.2505 94.5768 32.2482 95.2758 32.2599C95.4535 32.1563 95.4333 31.897 95.4146 31.6561C95.3983 31.4469 95.3831 31.2516 95.4995 31.1845C96.3919 32.4428 98.2642 32.7399 99.5632 31.9628C100.235 31.5072 100.76 30.842 101.023 30.0695C101.353 29.2473 101.32 28.4197 101.286 27.5528C101.285 27.5157 101.283 27.4784 101.282 27.4411C101.151 26.2469 100.58 25.1157 99.5516 24.4492C98.319 23.7152 96.6098 23.9506 95.6486 25.0306C95.5845 25.118 95.5053 25.1844 95.4144 25.231C95.4191 24.5064 95.4186 23.7813 95.4181 23.0563C95.4178 22.6937 95.4175 22.3312 95.4179 21.9688C95.4174 21.9182 95.4186 21.8683 95.4198 21.8188C95.4239 21.6441 95.4279 21.4755 95.3562 21.3047C94.9956 21.3078 94.6349 21.307 94.274 21.3063ZM98.6324 27.3829C98.5788 26.9157 98.3411 26.4462 97.9601 26.1584C97.2622 25.6854 96.1333 25.8485 95.7372 26.6407C95.3915 27.2172 95.4056 27.7876 95.4211 28.4116C95.4237 28.5153 95.4263 28.6204 95.4273 28.7274C95.4319 29.2039 95.6475 29.6769 95.9248 30.0567C96.2218 30.3748 96.7123 30.546 97.1399 30.5146C97.7667 30.5041 98.2922 30.1103 98.503 29.5208C98.5676 29.4116 98.5872 29.2974 98.6069 29.1829C98.6263 29.0702 98.6457 28.9572 98.7081 28.8485C98.6996 28.6947 98.7066 28.5291 98.7137 28.3607C98.7281 28.0215 98.7429 27.671 98.6324 27.3829Z" fill="#FFB535"/>
<path d="M28.5991 26.297C28.5619 26.6163 28.3079 26.791 28.1284 27.0555C27.7929 27.4772 27.6508 27.9491 27.25 28.2788C27.0263 28.4687 26.9354 28.7204 26.7676 28.9511C26.5731 29.1747 26.3098 29.3553 26.1408 29.6C25.9975 29.8109 25.8717 30.0334 25.7401 30.2513L25.6597 29.9635C25.9206 29.3553 26.269 28.7973 26.6593 28.2625C27.0834 27.8105 27.3886 27.1592 27.9141 26.826C28.1622 26.6547 28.3102 26.4194 28.5991 26.297Z" fill="#E6B36A"/>
<path d="M41.8716 27.7359C42.1151 27.6672 42.1454 27.8454 42.3073 27.9747C42.4681 28.0015 42.6825 27.9316 42.7967 28.0691C42.8561 28.2229 42.898 28.3883 42.9062 28.5538C42.4588 28.8485 42.0708 29.2738 41.6421 29.6012C41.3415 29.6967 41.07 29.628 40.872 29.9169C40.5492 30.0567 40.1648 30.0334 39.8176 30.0754C37.5364 30.0824 35.2459 30.0614 32.9658 30.087C32.2924 30.3177 31.7705 30.6428 31.3254 31.2043C31.3837 30.9969 31.4722 30.7977 31.5281 30.5903C31.5176 30.3259 31.5165 30.0602 31.492 29.7957C31.2252 29.7305 31.3988 30.1989 31.1972 30.2513C31.1005 30.1639 30.9957 29.9495 30.8652 29.9321C30.7825 30.073 30.8128 30.2047 30.631 30.2699C30.1603 30.4459 30.073 30.969 29.5941 31.1041C29.3588 31.2404 29.1898 31.4699 28.9405 31.5981C28.3556 31.9581 28.0189 32.494 27.6811 33.0708C27.6345 33.1698 27.6298 33.2851 27.5949 33.3888C27.3316 33.524 27.2209 33.6708 27.0648 33.9119C26.9471 33.955 26.8294 33.9981 26.7106 34.0401C26.5906 34.1706 26.5078 34.336 26.389 34.4688C26.3051 34.4816 26.2201 34.4956 26.1362 34.5108C25.944 34.745 25.7121 34.9314 25.5117 35.1527C25.3393 35.6001 25.2449 36.0545 25.2507 36.5368C25.2671 36.6825 25.2088 36.8095 25.076 36.9178C25.0643 36.1384 25.0643 35.3601 25.0771 34.5807C25.4698 34.3966 25.4453 34.1939 25.57 33.828C25.7494 33.8013 25.8414 33.7663 25.9626 33.6277C26.0407 33.5065 26.2376 33.5915 26.3203 33.5275C26.3762 33.1861 26.6546 33.0591 26.8247 32.7469C26.911 32.7387 26.9983 32.7306 27.0857 32.7236C27.3013 32.1935 27.8197 32.0583 28.1261 31.6016C28.3976 31.2043 28.8252 30.9876 29.1059 30.5961C29.2388 30.3934 29.4834 30.3503 29.5836 30.1383C29.671 29.8971 29.9786 29.8493 30.1615 29.6711C30.5145 29.3192 30.9969 28.9616 31.5037 28.894C31.8112 28.5748 32.1992 28.4536 32.5802 28.2346C32.7817 28.1367 32.8878 28.2881 33.0672 28.3604C33.1581 28.2672 33.2384 28.1588 33.3363 28.0738C33.6381 28.1215 33.8687 28.0435 34.1554 27.9852C34.3686 28.181 34.5305 27.8769 34.8043 27.9608C35.268 28.0668 35.7177 27.9806 36.1861 27.9922C36.5088 27.9596 36.8175 27.8431 37.1403 27.807C37.576 27.7324 37.9931 27.9013 38.4335 27.8303C38.9519 27.7907 39.3434 27.7196 39.8129 27.4924C40.1951 27.5891 40.4619 27.4994 40.8254 27.3934C41.218 27.2163 41.5069 27.8443 41.8716 27.7359Z" fill="#FF4D48"/>
<path d="M3.55322 28.5689C3.80371 28.5305 4.05537 28.5095 4.30819 28.4955C5.18898 28.5584 6.08025 28.5468 6.96221 28.5316C8.17505 28.5328 9.39487 28.5817 10.6054 28.5072C11.5281 28.5852 12.4718 28.5491 13.3969 28.534C13.6509 28.5514 13.9037 28.5538 14.1577 28.5328C14.2194 28.5573 14.2637 28.6062 14.2905 28.6773C14.0983 28.7448 13.9258 28.7856 13.7196 28.7716C10.6543 28.7646 7.57853 28.7716 4.51324 28.7658C4.18119 28.6621 3.84798 28.7542 3.55322 28.5689Z" fill="#6EC9FD"/>
<path d="M43.6657 28.8136C43.4129 29.1759 42.9178 29.3844 42.5368 29.5837C41.6642 30.0427 40.7426 30.1103 39.8187 30.2874C37.6808 30.2874 35.5406 30.2874 33.4096 30.2862C32.3995 30.2105 31.3929 31.0109 31.2438 32.0187C31.2263 32.2831 31.2554 32.5383 31.1739 32.7958C31.0667 33.2292 31.1983 33.6556 31.0492 34.0715C30.9304 34.6331 30.8488 35.1632 30.5587 35.6688C30.1218 36.5986 29.4915 37.4642 28.6667 38.0863C27.893 38.8856 26.8014 39.3901 25.7493 39.7081C25.4918 39.7198 25.1528 39.9516 24.9536 39.7489C24.8394 39.5776 24.865 39.4064 24.8615 39.2118C24.8732 37.0844 24.8487 34.9267 24.8755 32.8028C25.0002 32.4637 24.9629 32.1305 24.9955 31.7798C25.1971 31.1728 25.4068 30.5518 25.6596 29.9635L25.74 30.2513C25.641 30.4831 25.5862 30.6963 25.5687 30.948C25.4662 31.1693 25.2973 31.3697 25.2274 31.6016C25.1621 31.9092 25.1889 32.2505 25.2017 32.5628C25.1109 32.6734 25.0689 32.7923 25.0759 32.9169C25.0666 33.4715 25.0724 34.0261 25.0771 34.5807C25.0643 35.3601 25.0643 36.1384 25.0759 36.9178C25.0584 37.7636 25.0736 38.6106 25.0654 39.4565L25.1015 39.5939L25.246 39.6312C26.3482 39.3679 27.3804 38.9893 28.2682 38.2658C28.4709 38.0759 28.655 37.8731 28.8822 37.7112C29.2329 37.4828 29.4181 37.096 29.7234 36.8048C30.2616 36.0102 30.7265 35.1667 30.8581 34.202C30.963 33.7977 30.8814 33.3865 30.9444 32.9833C31.0667 32.6315 30.9991 32.2878 31.0411 31.9266C31.1249 31.682 31.2263 31.4431 31.3253 31.2043C31.7704 30.6427 32.2923 30.3177 32.9658 30.087C35.2458 30.0614 37.5363 30.0823 39.8175 30.0753C40.1647 30.0334 40.5492 30.0567 40.8719 29.9169C41.4906 29.7864 42.0941 29.6606 42.6568 29.3565C43.0063 29.198 43.2952 28.9079 43.6657 28.8136Z" fill="#FDA08E"/>
<path d="M53.537 28.845C53.5137 29.3122 53.7246 29.7037 53.7642 30.1604C53.8446 30.4062 54.1475 30.7313 53.9587 30.9829C53.8096 31.174 53.8376 31.3394 53.8318 31.5643C53.6745 31.9196 53.7048 32.2552 53.4205 32.5092C53.4659 32.9717 53.0931 33.2455 53.0931 33.715C52.9929 34.0389 52.7844 34.2416 52.5607 34.4805C52.4255 34.6296 52.4069 34.8766 52.1797 34.8801C52.2333 34.5073 52.5362 34.329 52.3253 33.9422C52.316 33.5065 52.3824 33.0766 52.4966 32.6571C53.0395 32.028 53.0197 31.2544 53.0861 30.4738C53.1024 30.3352 53.0919 30.2047 53.0523 30.0823C52.9999 29.875 52.9964 29.7748 53.1176 29.593C53.1688 29.4497 53.1409 29.318 53.2539 29.198C53.3785 29.0862 53.4671 29.0012 53.537 28.845Z" fill="#FF6F56"/>
<path d="M31.4919 29.7957C31.5164 30.0602 31.5176 30.3258 31.5281 30.5903C31.4721 30.7977 31.3836 30.9969 31.3253 31.2043C31.2263 31.4431 31.1249 31.682 31.0411 31.9267C30.9991 32.2878 31.0667 32.6315 30.9444 32.9834C30.8814 33.3865 30.963 33.7977 30.8581 34.202C30.7265 35.1667 30.2616 36.0102 29.7234 36.8048C29.4181 37.0961 29.2329 37.4829 28.8822 37.7112C28.655 37.8732 28.4709 38.0759 28.2682 38.2658C27.3804 38.9893 26.3482 39.3679 25.246 39.6312L25.1015 39.594L25.0654 39.4565C25.0736 38.6106 25.0584 37.7636 25.0759 36.9178C25.2087 36.8094 25.267 36.6825 25.2507 36.5368C25.2448 36.0545 25.3392 35.6001 25.5116 35.1527C25.712 34.9314 25.9439 34.745 26.1361 34.5108C26.22 34.4956 26.3051 34.4816 26.3889 34.4688C26.5078 34.336 26.5905 34.1706 26.7105 34.0401C26.8293 33.9981 26.947 33.955 27.0647 33.9119C27.2208 33.6708 27.3315 33.524 27.5948 33.3888C27.6297 33.2851 27.6344 33.1698 27.681 33.0707C28.0189 32.494 28.3556 31.9581 28.9404 31.5981C29.1898 31.4699 29.3587 31.2404 29.594 31.1041C30.0729 30.969 30.1603 30.4458 30.631 30.2699C30.8127 30.2047 30.7824 30.073 30.8651 29.9321C30.9956 29.9495 31.1005 30.1639 31.1972 30.2513C31.3987 30.1989 31.2251 29.7305 31.4919 29.7957Z" fill="#FF4149"/>
<path d="M52.9126 30.0602L53.014 30.0672L53.0524 30.0823C53.0921 30.2047 53.1025 30.3352 53.0862 30.4738C53.0198 31.2544 53.0396 32.028 52.4967 32.6571C52.3825 33.0766 52.3161 33.5065 52.3254 33.9422C52.1798 34.5667 51.68 34.8801 51.419 35.437C51.2547 35.8191 50.9029 35.9927 50.6804 36.3294C50.5266 36.5729 50.3087 36.7302 50.078 36.8945C49.8706 37.0366 49.7739 37.286 49.5945 37.4549C49.4337 37.5667 49.2532 37.6565 49.0935 37.7706C48.9619 37.9151 48.8582 38.0782 48.7137 38.211C48.5355 38.2658 48.3293 38.1854 48.1452 38.2308C47.7992 38.4242 47.5219 38.7073 47.1572 38.8728C46.8566 38.9963 46.669 39.2281 46.4372 39.4413C46.1914 39.6091 45.9246 39.7699 45.709 39.9761C45.3991 40.279 45.017 40.434 44.6779 40.7019C44.6139 40.7485 44.5521 40.7963 44.4927 40.8476C43.6573 41.0981 42.9129 41.6468 42.0903 41.9509C41.9796 41.98 41.862 41.9812 41.7373 41.9532C42.0029 41.7493 42.2989 41.6841 42.596 41.5466C43.6434 41.027 44.6465 40.5668 45.5914 39.8619C45.9572 39.5543 46.3766 39.3411 46.704 38.9893C47.4939 38.4184 48.1324 37.6355 48.8559 36.9807L48.984 36.9318C49.4 37.0413 49.5421 36.7232 49.7425 36.4355C49.8613 36.2059 50.1514 36.1547 50.3425 35.9892C50.565 35.7551 50.4998 35.3228 50.727 35.0956C50.861 35.0805 51.0241 35.1038 51.1464 35.0444C51.4109 34.7997 51.4167 34.4199 51.4994 34.0925C51.5355 33.7523 51.8746 33.5438 52.0167 33.2327C52.1903 32.8517 52.2194 32.4113 52.1996 31.9977C52.4851 31.3639 52.6319 30.6917 52.9126 30.0602Z" fill="#EEA580"/>
<path d="M6.02467 31.1286C7.50198 31.1309 8.98045 31.1274 10.4578 31.1286C10.7828 31.1321 11.0752 31.0878 11.391 31.1798C11.8989 31.2055 12.4174 31.1938 12.9265 31.181C12.3242 31.4012 11.6496 31.174 11.0193 31.3546C10.53 31.3569 10.0442 31.3278 9.55599 31.3756C8.89889 31.3569 8.23014 31.3173 7.57654 31.3884C6.95789 31.3558 6.31244 31.3185 5.69729 31.386L5.4165 31.3208C5.58311 31.1926 5.82428 31.1728 6.02467 31.1286Z" fill="#FDA77B"/>
<path d="M12.9264 31.181C13.0359 31.1356 13.1442 31.1169 13.2514 31.1239C14.8464 31.1309 16.4414 31.1228 18.0363 31.1251C18.2262 31.1286 18.3428 31.3103 18.4255 31.4606C18.6969 32.007 18.9731 32.5488 19.2434 33.0952C19.5975 33.8292 20.0997 34.4758 20.5692 35.1632C20.7463 35.4358 21.1284 35.6024 21.0317 35.9753L20.9152 36.0172C18.3381 36.0289 15.7447 36.0114 13.1664 36.0172C12.2716 35.8634 11.336 36.0219 10.4331 35.896C11.1123 35.8378 11.7881 35.9158 12.4603 35.825C13.4122 35.9438 14.4141 35.804 15.3777 35.8063C15.8542 35.9077 16.375 35.8599 16.8654 35.8716C17.4119 35.8599 17.9711 35.9077 18.5129 35.8366C19.1956 35.9287 19.9063 35.8518 20.596 35.8844C20.7509 35.9019 20.836 35.8494 20.8488 35.7283C19.9843 34.7205 19.2678 33.5927 18.6666 32.409C18.507 32.0502 18.3975 31.6634 18.147 31.3581C17.1905 31.3068 16.2177 31.3465 15.2588 31.3511C14.5609 31.3325 13.8631 31.3406 13.1652 31.3546C12.4976 31.3383 11.8335 31.3371 11.1659 31.3534L11.0191 31.3546C11.6494 31.174 12.324 31.4012 12.9264 31.181Z" fill="#F58990"/>
<path d="M5.41663 31.3208L5.69741 31.3861C5.52498 31.5317 5.33624 31.6715 5.18361 31.8381C5.10439 32.0164 5.09041 32.2226 5.03448 32.409C4.8306 32.8657 4.47758 33.1372 4.08029 33.4156C3.73077 33.7045 3.83563 34.0785 3.75291 34.4712C3.67718 34.3919 3.63524 34.3057 3.62592 34.2125C3.61077 33.8176 3.62475 33.4214 3.63174 33.0276C3.79369 32.7841 3.78087 32.5069 3.97078 32.2692C4.19331 32.0105 4.44496 31.7309 4.75254 31.5783C4.99604 31.4758 5.12536 31.2742 5.41663 31.3208Z" fill="#F2A542"/>
<path d="M5.69743 31.3861C6.31258 31.3185 6.95803 31.3558 7.57668 31.3884C7.05706 31.5585 6.67842 31.8812 6.39064 32.3414C6.19608 32.6758 5.95374 32.9927 5.68811 33.2746C5.30713 33.4843 5.08227 33.821 4.77819 34.117C4.63955 34.2358 4.68731 34.3686 4.6745 34.5282C4.67333 34.7333 4.51838 34.9174 4.44498 35.1108C4.60226 35.2716 4.77003 35.3799 4.82712 35.6153C4.4543 35.6176 4.24925 35.19 3.97662 34.971C3.80419 34.8463 3.88924 34.6366 3.75293 34.4712C3.83565 34.0785 3.73079 33.7045 4.08031 33.4156C4.4776 33.1371 4.83062 32.8657 5.0345 32.409C5.09043 32.2226 5.10441 32.0164 5.18363 31.8381C5.33626 31.6715 5.525 31.5317 5.69743 31.3861Z" fill="#FF8E40"/>
<path d="M7.57653 31.3884C8.23013 31.3173 8.89888 31.3569 9.55598 31.3756C9.35209 31.5946 9.08412 31.6272 8.83713 31.7659C8.43402 32.0315 8.13576 32.4742 7.83168 32.8459C7.83401 32.9437 7.83051 33.0416 7.82119 33.1383C7.69187 33.2618 7.53225 33.3527 7.4006 33.475C7.22584 33.6626 7.1571 33.8781 6.89147 33.9527C6.72952 34.1414 6.55942 34.3546 6.43476 34.5667C6.48253 34.6471 6.53263 34.7275 6.58622 34.8055C6.5769 34.9453 6.54661 35.084 6.52447 35.2215C6.72137 35.4451 6.96021 35.4265 7.21536 35.5255C7.29225 35.6444 7.34002 35.7749 7.42856 35.8879C6.71088 35.9007 5.9897 35.8751 5.27319 35.9007C5.11008 35.811 4.9493 35.7667 4.82697 35.6152C4.76988 35.3799 4.60211 35.2715 4.44482 35.1108C4.51822 34.9174 4.67318 34.7333 4.67434 34.5282C4.68716 34.3686 4.63939 34.2358 4.77803 34.117C5.08212 33.821 5.30697 33.4843 5.68795 33.2746C5.95359 32.9927 6.19592 32.6758 6.39049 32.3414C6.67826 31.8812 7.05691 31.5585 7.57653 31.3884Z" fill="#FF813D"/>
<path d="M9.55579 31.3756C10.044 31.3278 10.5298 31.3569 11.0191 31.3546L11.1659 31.3534C10.9504 31.6633 10.4284 31.8789 10.5414 32.3064C10.4506 32.2575 10.3655 32.1981 10.2735 32.148C10.1605 32.4754 9.89016 32.6979 9.72589 33.0032C9.44744 33.242 9.1317 33.3981 8.89519 33.6905C8.67383 33.9655 8.44315 34.2544 8.29052 34.5737C8.4781 34.8777 8.44431 34.9791 8.40703 35.3158C8.58645 35.4428 8.76005 35.4451 8.79267 35.6933C9.09675 35.7434 9.4521 35.6292 9.67695 35.8774C8.92782 35.8995 8.17868 35.882 7.42837 35.8879C7.33983 35.7748 7.29206 35.6444 7.21517 35.5255C6.96002 35.4265 6.72118 35.4451 6.52428 35.2214C6.54642 35.084 6.57671 34.9453 6.58603 34.8055C6.53244 34.7275 6.48234 34.6471 6.43457 34.5667C6.55923 34.3546 6.72933 34.1414 6.89128 33.9527C7.15691 33.8781 7.22565 33.6626 7.40041 33.475C7.53206 33.3527 7.69168 33.2618 7.821 33.1383C7.83032 33.0416 7.83382 32.9437 7.83149 32.8459C8.13557 32.4742 8.43383 32.0315 8.83694 31.7659C9.08393 31.6272 9.3519 31.5946 9.55579 31.3756Z" fill="#FF7540"/>
<path d="M11.1659 31.3534C11.8335 31.3371 12.4976 31.3383 13.1652 31.3546C13.0487 31.6051 12.9217 31.8183 12.9648 32.1049C12.896 32.3612 12.6514 32.529 12.4894 32.7236C12.5256 32.8156 12.5803 32.8971 12.6176 32.988C12.3217 33.1465 12.0619 33.2676 11.957 33.6137C11.8976 33.849 11.7228 34.0424 11.7007 34.2778C11.8475 34.5131 11.7484 34.7298 11.8684 34.9617C11.9547 35.1888 11.9011 35.4312 12.0199 35.656C12.1597 35.7248 12.3123 35.7749 12.4603 35.825C11.7881 35.9158 11.1123 35.8378 10.4331 35.896C10.1814 35.8902 9.92978 35.8844 9.67696 35.8774C9.4521 35.6292 9.09676 35.7434 8.79267 35.6933C8.76005 35.4452 8.58645 35.4428 8.40703 35.3158C8.44432 34.9791 8.4781 34.8778 8.29053 34.5737C8.44315 34.2545 8.67383 33.9655 8.8952 33.6906C9.13171 33.3981 9.44744 33.242 9.72589 33.0032C9.89017 32.6979 10.1605 32.4754 10.2735 32.148C10.3655 32.1981 10.4506 32.2575 10.5414 32.3065C10.4284 31.8789 10.9504 31.6633 11.1659 31.3534Z" fill="#FF6543"/>
<path d="M13.1652 31.3546C13.863 31.3406 14.5609 31.3325 15.2588 31.3511C14.9687 31.9162 14.5295 32.402 14.2615 32.9729C14.2499 33.2222 14.2231 33.2711 14.039 33.4366C14.0262 33.5624 14.032 33.6871 14.0343 33.8129C14.0133 34.0459 13.7535 34.23 13.7267 34.4677C14.1904 34.4875 13.8514 34.8696 14.1683 35.1411C14.1042 35.2203 14.0401 35.2995 13.9749 35.3787C14.004 35.4859 14.0506 35.578 14.1159 35.6537C14.5434 35.6945 14.9582 35.6688 15.3776 35.8063C14.4141 35.804 13.4122 35.9438 12.4603 35.825C12.3123 35.7749 12.1597 35.7248 12.0199 35.656C11.9011 35.4312 11.9547 35.1888 11.8685 34.9617C11.7484 34.7298 11.8475 34.5131 11.7007 34.2778C11.7228 34.0424 11.8976 33.849 11.957 33.6137C12.0619 33.2676 12.3217 33.1465 12.6176 32.988C12.5803 32.8971 12.5256 32.8156 12.4894 32.7236C12.6514 32.529 12.896 32.3612 12.9648 32.1049C12.9217 31.8183 13.0487 31.6051 13.1652 31.3546Z" fill="#F95347"/>
<path d="M15.2591 31.3511C16.218 31.3465 17.1908 31.3068 18.1473 31.3581C18.3978 31.6633 18.5073 32.0502 18.6669 32.409C18.3629 32.5406 18.2429 32.4812 17.9516 32.3822C17.8164 32.5849 17.7687 32.8051 17.7291 33.0416C17.6836 33.3271 17.4238 33.5636 17.3854 33.8513C17.3772 33.99 17.3026 34.0867 17.2444 34.2067C17.4122 34.4106 17.4355 34.6191 17.4879 34.8696C17.6312 34.9663 17.8176 34.9978 17.9772 35.0642C17.9178 35.1667 17.8537 35.2669 17.7955 35.3694C17.9679 35.6549 18.2231 35.7213 18.5132 35.8366C17.9714 35.9077 17.4122 35.8599 16.8657 35.8716C16.3753 35.8599 15.8545 35.9077 15.378 35.8063C14.9585 35.6689 14.5438 35.6945 14.1162 35.6537C14.0509 35.578 14.0043 35.4859 13.9752 35.3787C14.0405 35.2995 14.1045 35.2203 14.1686 35.1411C13.8517 34.8696 14.1907 34.4875 13.7271 34.4677C13.7538 34.23 14.0137 34.0459 14.0346 33.8129C14.0323 33.6871 14.0265 33.5624 14.0393 33.4366C14.2234 33.2711 14.2502 33.2222 14.2618 32.9729C14.5298 32.402 14.969 31.9162 15.2591 31.3511Z" fill="#ED3A4D"/>
<path d="M52.2 31.9977C52.2198 32.4113 52.1906 32.8517 52.0171 33.2327C51.8749 33.5438 51.5359 33.7523 51.4998 34.0925C51.417 34.4199 51.4112 34.7997 51.1467 35.0444C51.0244 35.1038 50.8613 35.0805 50.7273 35.0956C50.5001 35.3228 50.5654 35.7551 50.3428 35.9892C50.1518 36.1547 49.8617 36.2059 49.7428 36.4355C49.5424 36.7232 49.4003 37.0413 48.9844 36.9318C49.1813 36.5648 49.4178 36.2351 49.7172 35.945C49.9957 35.6921 50.0656 35.3193 50.3638 35.0793C50.9149 34.6494 50.9044 33.9317 51.4811 33.5228C51.5487 32.9787 51.9343 32.4766 52.2 31.9977Z" fill="#D7C3A3"/>
<path d="M55.3548 32.0187C55.4259 32.1072 55.4911 32.2004 55.561 32.2901C55.617 32.2517 55.6717 32.2109 55.7241 32.1678C55.9851 32.5197 56.2974 32.8004 56.5374 33.1628C56.7203 33.3538 56.9568 33.4272 57.2073 33.4808C57.2912 33.5764 57.3413 33.7045 57.389 33.8199C57.2516 33.8397 57.1141 33.8606 56.9766 33.8816C56.9358 33.9818 57.2655 33.9643 57.3354 34.0028C57.3949 34.2673 57.431 34.5387 57.4927 34.8044C57.6092 35.2646 57.0162 35.5279 57.2644 35.9974C57.2329 36.2397 56.9917 36.4541 56.8927 36.6789C56.5688 37.3873 56.1156 38.0001 55.7276 38.6712C55.5587 38.9112 55.4189 39.2316 55.1614 39.3831C55.0333 39.0743 55.37 38.853 55.4876 38.5838C55.483 38.373 55.4667 38.2355 55.6076 38.0596C55.5575 37.9454 55.4573 37.8522 55.3886 37.7473C55.3467 37.618 55.3665 37.4735 55.3257 37.343C55.2441 37.1799 55.0496 37.0832 54.9226 36.9504C54.9226 36.8374 54.9401 36.7267 54.9401 36.6137C54.7513 36.5578 54.5882 36.5252 54.4344 36.3865C54.4834 36.3154 54.5334 36.2444 54.5812 36.1733C54.4099 36.2281 54.2352 36.2525 54.0569 36.2654C53.9661 36.1954 53.9777 36.0568 53.9567 35.9543C53.8717 35.9484 53.7855 35.9496 53.6993 35.9554C53.6002 36.0393 53.5187 36.1372 53.4255 36.2257C53.0946 36.2292 52.7765 36.249 52.4526 36.3213C52.4631 36.0918 52.4573 35.8751 52.5878 35.6747C52.7357 35.6094 52.935 35.656 53.0934 35.6572C53.0736 35.4719 52.9513 35.3694 52.8476 35.2273C52.9466 35.1096 53.14 34.9919 53.154 34.8312C53.2076 34.463 53.394 34.1251 53.6864 33.8933L53.8717 33.8094C53.8204 33.7185 53.7657 33.6276 53.7144 33.5356C53.9463 33.5403 54.1583 33.5204 54.3331 33.3515C54.3901 33.1651 54.3727 32.9367 54.4659 32.7678C54.5509 32.6455 54.6779 32.6583 54.7956 32.5954C54.8352 32.529 54.8748 32.4614 54.9133 32.395C55.0286 32.3554 55.1439 32.3181 55.2593 32.2831C55.2931 32.1958 55.3257 32.1072 55.3548 32.0187Z" fill="#FF5343"/>
<path d="M17.9513 32.3822C18.2426 32.4812 18.3626 32.5406 18.6667 32.409C19.2679 33.5927 19.9844 34.7205 20.8489 35.7283C20.836 35.8494 20.751 35.9019 20.596 35.8844C19.9063 35.8518 19.1956 35.9287 18.5129 35.8366C18.2228 35.7213 17.9676 35.6549 17.7952 35.3694C17.8535 35.2669 17.9176 35.1667 17.977 35.0642C17.8174 34.9978 17.6309 34.9663 17.4876 34.8696C17.4352 34.6191 17.4119 34.4106 17.2441 34.2067C17.3024 34.0867 17.377 33.99 17.3851 33.8514C17.4236 33.5636 17.6834 33.3271 17.7288 33.0416C17.7684 32.8051 17.8162 32.5849 17.9513 32.3822Z" fill="#E12850"/>
<path d="M53.6865 33.8933C53.3941 34.1251 53.2077 34.463 53.1541 34.8312C53.1401 34.9919 52.9467 35.1096 52.8477 35.2273C52.9514 35.3694 53.0737 35.472 53.0935 35.6572C52.9351 35.656 52.7358 35.6094 52.5879 35.6747C52.4574 35.8751 52.4632 36.0918 52.4527 36.3213C52.4469 36.3772 52.4387 36.4343 52.4294 36.4902C52.2453 36.5904 52.0461 36.6662 51.848 36.7384C51.7653 36.7186 51.6814 36.7034 51.5976 36.6929C51.4275 36.806 51.2946 37.0786 51.0756 37.0413C50.7494 37.0017 50.6166 37.4805 50.3148 37.5947C49.97 37.7275 49.8884 38.0875 49.5878 38.2541C48.9249 38.5606 48.4495 39.0639 47.7237 39.2864C47.2612 39.4087 46.8522 39.6289 46.3652 39.6674C46.3862 39.5916 46.4107 39.5171 46.4375 39.4413C46.6693 39.2281 46.8569 38.9963 47.1575 38.8728C47.5221 38.7074 47.7994 38.4242 48.1455 38.2308C48.3295 38.1854 48.5358 38.2658 48.714 38.211C48.8585 38.0782 48.9622 37.9151 49.0938 37.7706C49.2534 37.6565 49.434 37.5667 49.5948 37.4549C49.7742 37.286 49.8709 37.0366 50.0783 36.8945C50.309 36.7302 50.5269 36.5729 50.6806 36.3294C50.9032 35.9927 51.255 35.8191 51.4193 35.437C51.6803 34.8801 52.1801 34.5667 52.3257 33.9422C52.5366 34.329 52.2337 34.5073 52.1801 34.8801C52.4073 34.8766 52.4259 34.6296 52.5611 34.4805C52.7848 34.2416 52.9933 34.0389 53.0935 33.715C53.372 33.6521 53.4745 33.7115 53.6865 33.8933Z" fill="#FE595C"/>
<path d="M5.27295 35.9007C5.98947 35.8751 6.71064 35.9007 7.42832 35.8879C8.17863 35.882 8.92777 35.8995 9.67691 35.8774C9.92973 35.8844 10.1814 35.8902 10.433 35.896C11.336 36.0218 12.2715 35.8634 13.1663 36.0172C10.7895 36.065 8.40815 36.016 6.03024 36.0347C5.77043 36.0184 5.48033 36.0894 5.27295 35.9007Z" fill="#FEB599"/>
<path d="M53.6992 35.9554C53.7854 35.9496 53.8716 35.9484 53.9567 35.9543C53.9776 36.0568 53.966 36.1954 54.0568 36.2653C54.2351 36.2525 54.4099 36.2281 54.5811 36.1733C54.5334 36.2444 54.4833 36.3154 54.4343 36.3865C54.5881 36.5252 54.7512 36.5578 54.94 36.6137C54.94 36.7267 54.9225 36.8374 54.9225 36.9504C55.0495 37.0832 55.2441 37.1799 55.3256 37.343C55.3664 37.4735 55.3466 37.618 55.3885 37.7473C55.4573 37.8522 55.5575 37.9454 55.6076 38.0595C55.4666 38.2355 55.4829 38.373 55.4876 38.5838C55.3699 38.853 55.0332 39.0743 55.1613 39.3831L55.1602 39.4856C54.9446 39.7244 54.7734 39.9819 54.5846 40.2417C54.404 40.533 54.1058 40.6973 53.9636 41.0188C53.5465 41.4557 53.1073 41.8751 52.6891 42.3144C52.5283 41.8414 52.872 41.7412 53.0665 41.3893C53.1143 41.1784 53.1691 40.9804 53.2425 40.7777C53.2296 40.6239 53.1318 40.4503 53.0561 40.3151C52.9477 40.3338 52.8463 40.4701 52.7473 40.3827C52.6471 40.3058 52.5516 40.3116 52.4327 40.3046C52.4048 40.1881 52.3768 40.0716 52.35 39.9539C52.0122 39.5625 51.6044 39.2899 51.0778 39.2805C50.9135 39.3971 50.7667 39.5928 50.5745 39.6522C50.55 39.5543 50.5255 39.4553 50.5034 39.3574C50.3251 39.552 50.2855 39.7349 49.9698 39.6615C49.9383 39.4087 50.155 39.4903 50.2937 39.3493C49.9908 39.3248 49.7111 39.3598 49.4292 39.2223C49.7554 38.9823 49.9395 38.6654 50.3799 38.6572C50.6514 38.3194 50.783 37.9582 51.2211 37.7893C51.4727 37.7065 51.5054 37.4945 51.6452 37.2999C51.757 37.1065 51.9015 36.9772 51.8479 36.7384C52.0459 36.6661 52.2452 36.5904 52.4292 36.4902C52.4386 36.4343 52.4467 36.3772 52.4526 36.3213C52.7764 36.249 53.0945 36.2292 53.4254 36.2257C53.5186 36.1372 53.6001 36.0393 53.6992 35.9554Z" fill="#FF4046"/>
<path d="M51.5976 36.6929C51.6814 36.7034 51.7653 36.7186 51.8481 36.7384C51.9016 36.9772 51.7572 37.1065 51.6453 37.2999C51.5055 37.4945 51.4729 37.7065 51.2212 37.7893C50.7832 37.9582 50.6515 38.3194 50.3801 38.6572C49.9397 38.6654 49.7556 38.9823 49.4294 39.2223C49.3513 39.199 49.2733 39.1792 49.194 39.164C49.0449 39.3143 49.0065 39.5019 48.7758 39.5415C48.4111 39.6277 48.1781 39.8841 47.7866 39.8666C47.4301 39.8631 47.1959 40.1439 46.8464 40.1182C46.7299 40.1089 46.6658 40.1823 46.5633 40.2289C46.4375 40.1951 46.3186 40.1392 46.1951 40.0996C45.6557 40.1089 45.2118 40.7625 44.6782 40.7019C45.0173 40.434 45.3994 40.279 45.7093 39.9761C45.9248 39.7699 46.1917 39.6091 46.4375 39.4413C46.4107 39.5171 46.3862 39.5916 46.3652 39.6673C46.8522 39.6289 47.2612 39.4087 47.7237 39.2864C48.4495 39.0638 48.9249 38.5605 49.5878 38.2541C49.8884 38.0875 49.97 37.7275 50.3148 37.5947C50.6166 37.4805 50.7494 37.0017 51.0756 37.0413C51.2946 37.0786 51.4275 36.8059 51.5976 36.6929Z" fill="#FE4355"/>
<path d="M14.4899 38.9066C16.2527 38.9043 18.0422 38.9031 19.8038 38.9101C19.9704 39.0312 19.9564 39.0883 19.9646 39.2759C19.6255 39.2864 19.29 39.2981 18.951 39.2736C18.8158 39.3691 18.6644 39.4006 18.4978 39.368C17.2686 39.3621 15.9859 39.3738 14.7625 39.3621C14.6728 39.3039 14.5703 39.2713 14.4526 39.2631C14.4631 39.1443 14.4759 39.0254 14.4899 38.9066Z" fill="#FB3755"/>
<path d="M49.1937 39.1641C49.2729 39.1792 49.351 39.199 49.4291 39.2223C49.711 39.3598 49.9906 39.3248 50.2935 39.3493C50.1549 39.4903 49.9382 39.4087 49.9697 39.6615C50.2854 39.7349 50.325 39.552 50.5032 39.3575C50.5254 39.4553 50.5499 39.5544 50.5743 39.6522C50.7666 39.5928 50.9134 39.3971 51.0776 39.2806C51.6042 39.2899 52.012 39.5625 52.3499 39.954C52.3767 40.0716 52.4046 40.1882 52.4326 40.3047C52.5514 40.3117 52.647 40.3058 52.7472 40.3827C52.8462 40.4701 52.9476 40.3338 53.0559 40.3151C53.1316 40.4503 53.2295 40.6239 53.2423 40.7777C53.1689 40.9804 53.1142 41.1785 53.0664 41.3893C52.8718 41.7412 52.5281 41.8414 52.6889 42.3144C52.0307 42.9063 51.4831 43.6123 50.7712 44.1074C50.332 44.4139 49.9522 44.7843 49.5153 45.0943L49.259 44.9999C49.5491 44.7552 49.8217 44.5106 50.0931 44.2461C50.4124 44.034 50.65 43.7952 50.7514 43.4142C50.4438 43.0985 50.4345 42.9633 50.3937 42.5299C50.2574 42.5439 50.1188 42.5742 49.9825 42.5754C49.8963 42.5183 49.8089 42.4612 49.7215 42.4064C49.4174 42.4216 49.1564 42.495 48.85 42.4111C48.7184 42.0628 48.4259 41.9765 48.0869 41.9264C47.9051 41.9847 47.7455 42.0709 47.5486 42.0686C47.3436 42.0569 47.3075 42.2212 47.1688 42.34C46.9463 42.1385 46.7645 42.1408 46.4826 42.1956C46.4943 42.2934 46.5082 42.3913 46.5234 42.4892C46.3614 42.4111 46.2298 42.2923 46.0795 42.1979C45.9956 42.2002 45.9117 42.2026 45.8278 42.2049C45.8197 42.1513 45.8104 42.0977 45.8022 42.0429C45.6892 42.015 45.5762 41.987 45.4632 41.9591C45.4305 41.8752 45.3991 41.7901 45.3676 41.7051C45.1067 41.8134 44.8701 41.9789 44.6127 42.0942C44.6348 41.9544 44.6651 41.8169 44.6896 41.6783C44.375 41.6189 44.0989 41.7016 43.7901 41.7517C43.782 41.3707 44.3482 41.1924 44.4927 40.8476C44.5521 40.7963 44.6138 40.7485 44.6779 40.7019C45.2115 40.7625 45.6554 40.1089 46.1948 40.0996C46.3183 40.1392 46.4372 40.1951 46.563 40.2289C46.6655 40.1823 46.7296 40.1089 46.8461 40.1183C47.1956 40.1439 47.4298 39.8631 47.7863 39.8666C48.1778 39.8841 48.4108 39.6278 48.7755 39.5415C49.0061 39.5019 49.0446 39.3144 49.1937 39.1641Z" fill="#FE304A"/>
<path d="M44.4928 40.8475C44.3484 41.1924 43.7821 41.3707 43.7903 41.7516C44.099 41.7015 44.3752 41.6188 44.6897 41.6782C44.6653 41.8169 44.635 41.9544 44.6128 42.0942C44.8703 41.9788 45.1068 41.8134 45.3678 41.705C45.3992 41.7901 45.4307 41.8751 45.4633 41.959C45.5763 41.987 45.6893 42.0149 45.8024 42.0429C45.8105 42.0977 45.8198 42.1512 45.828 42.2048C45.9119 42.2025 45.9958 42.2002 46.0796 42.1979C46.2299 42.2922 46.3616 42.4111 46.5235 42.4891C46.5084 42.3913 46.4944 42.2934 46.4828 42.1955C46.7647 42.1408 46.9465 42.1384 47.169 42.34C47.3076 42.2211 47.3437 42.0569 47.5488 42.0685C47.7457 42.0709 47.9053 41.9846 48.0871 41.9264C48.4261 41.9765 48.7185 42.0627 48.8502 42.4111C49.1566 42.4949 49.4176 42.4215 49.7217 42.4064C49.809 42.4612 49.8964 42.5182 49.9826 42.5753C50.1189 42.5742 50.2576 42.5439 50.3939 42.5299C50.4347 42.9633 50.444 43.0984 50.7516 43.4142C50.6502 43.7952 50.4125 44.034 50.0933 44.246C49.8218 44.5105 49.5492 44.7552 49.2591 44.9998L49.5154 45.0942C49.23 45.2562 48.9609 45.4297 48.722 45.6546C48.277 45.855 47.9158 46.187 47.4742 46.4014C47.028 46.716 46.4967 46.8721 46.047 47.1727C45.814 47.1774 45.6451 47.302 45.447 47.4057C44.5686 47.7273 43.7146 48.1467 42.8279 48.3774C42.6648 48.5766 42.4132 48.3774 42.2827 48.5848L42.1755 48.5906C42.0089 48.5778 41.847 48.5533 41.6885 48.5183C41.7549 48.3844 41.9169 48.3576 42.0462 48.3133C42.7091 48.1444 43.3592 47.9183 44 47.6807C44.339 47.4675 44.628 47.3067 45.0206 47.2041C45.2909 47.0049 45.5379 46.9036 45.8443 46.7777C45.7895 46.6006 45.7115 46.4364 45.6427 46.2651C45.7418 46.2663 45.842 46.2686 45.941 46.2733C46.0167 46.1672 46.0633 46.0379 46.1472 45.9389C46.2066 45.9226 46.2661 45.9063 46.3266 45.89C46.287 45.6441 46.2672 45.4542 46.3173 45.2061C46.0319 45.2678 45.9492 45.234 45.6987 45.1047C45.6416 45.1513 45.5857 45.1979 45.5286 45.2445C45.2268 44.909 45.0567 45.3529 44.7375 45.1338C44.4905 44.9894 44.2062 45.1338 43.9348 44.9987C43.7192 45.1024 43.5817 45.1501 43.3382 45.1117C42.9864 45.0488 42.7149 45.2037 42.3782 45.2666C42.2489 45.2736 42.1394 45.135 42.0334 45.0697C41.9005 45.2072 41.9856 45.3424 41.967 45.5136C41.8015 45.4647 41.8202 45.3284 41.7537 45.1921C41.5743 45.2899 41.3984 45.4426 41.2015 45.4973C41.0174 45.4927 40.8392 45.4228 40.6551 45.4099C40.5898 45.4519 40.5258 45.495 40.4617 45.5393C40.3673 45.5521 40.245 45.3995 40.1669 45.4962C39.8104 45.8888 39.3024 45.9773 38.7945 45.9377C38.5114 45.8888 38.29 45.7699 38.1816 45.4927C38.0255 45.3668 37.9393 45.5101 37.7832 45.5567C37.6702 45.6138 37.5199 45.5661 37.3941 45.573C37.0364 46.074 37.2612 46.5307 37.1051 47.1016C36.9176 47.8577 37.1704 48.7013 36.963 49.4516C36.9141 48.7595 36.9397 48.0523 36.9478 47.3579C36.7708 47.1657 36.8791 47.0107 36.8628 46.7847C36.85 45.6954 36.8896 44.5944 36.8453 43.5062C36.9327 43.4223 36.9805 43.3 36.9851 43.1392C37.2368 43.1276 37.4873 43.1008 37.7378 43.1101C37.9556 42.94 38.1817 43.0064 38.4356 43.0018C38.5521 42.8258 38.7199 42.8969 38.897 42.8829C39.0019 42.6907 39.3059 42.7885 39.4842 42.7734C39.6473 42.5707 39.7743 42.7105 39.9374 42.5812C40.0854 42.439 40.2438 42.6301 40.386 42.4402C40.6399 42.4204 40.732 42.2713 40.9976 42.2922C41.0722 42.206 41.1899 42.1629 41.3518 42.1652C41.4636 42.0347 41.6151 42.0988 41.7374 41.9532C41.8621 41.9812 41.9798 41.98 42.0905 41.9509C42.913 41.6468 43.6575 41.098 44.4928 40.8475Z" fill="#FA244C"/>
<path d="M13.1327 42.0755C14.4947 42.072 15.8555 42.0697 17.2163 42.0732C17.3992 42.0942 17.5483 42.0254 17.6753 42.1769C21.3697 42.1606 25.0642 42.1699 28.7609 42.1641C28.8856 42.2037 29.0056 42.2526 29.1233 42.312C27.1403 42.3283 25.1411 42.3144 23.157 42.3214C22.9507 42.3202 22.7515 42.3085 22.55 42.361C22.2307 42.2852 21.8859 42.3365 21.5585 42.3214C20.2594 42.3085 18.9581 42.3551 17.6602 42.3284C17.0287 42.2398 16.3716 42.2852 15.7355 42.2981C14.8687 42.2748 14.003 42.2829 13.1374 42.2864C12.683 42.2748 12.2694 42.4985 11.9688 42.8247C11.5972 43.3827 11.8442 43.9105 11.8069 44.5117C11.4702 44.1587 11.5494 43.7416 11.5692 43.2919C11.5995 42.8689 11.9513 42.5276 12.3137 42.3447C12.5816 42.213 12.8286 42.0499 13.1327 42.0755Z" fill="#FEA28A"/>
<path d="M13.1375 42.2864C14.0032 42.2829 14.8688 42.2748 15.7356 42.2981C15.4094 42.615 14.7628 42.4158 14.3993 42.6884C14.1336 42.9727 14.0078 43.3303 14.0032 43.716C14.009 44.0806 13.6909 44.2892 13.734 44.6515C14.2397 44.7028 14.8304 44.8205 15.2766 45.0651C14.3655 45.1374 13.4463 45.0977 12.534 45.1106L12.4117 45.1071C12.1938 44.9335 11.9876 44.7226 11.807 44.5117C11.8443 43.9105 11.5973 43.3828 11.9689 42.8247C12.2695 42.4985 12.6831 42.2748 13.1375 42.2864Z" fill="#FE6E3D"/>
<path d="M15.7356 42.2981C16.3717 42.2853 17.0288 42.2398 17.6603 42.3284C17.7768 42.4927 17.8968 42.6534 18.0238 42.8107C18.0389 43.1637 18.1496 43.4935 18.1997 43.8383C18.1251 43.9572 17.9935 44.062 17.9527 44.1948C18.11 44.422 18.2568 44.782 18.5352 44.8776C18.8731 44.9929 19.2949 44.8321 19.5861 45.0686C18.7053 45.1595 17.8595 45.0861 16.9822 45.0989C16.4078 45.0931 15.8486 45.1327 15.2765 45.0651C14.8303 44.8205 14.2396 44.7028 13.734 44.6515C13.6909 44.2892 14.009 44.0806 14.0031 43.716C14.0078 43.3303 14.1336 42.9727 14.3993 42.6884C14.7628 42.4158 15.4094 42.615 15.7356 42.2981Z" fill="#FF5644"/>
<path d="M17.6602 42.3284C18.958 42.3552 20.2594 42.3086 21.5585 42.3214C21.3301 42.58 20.8536 42.4495 20.5344 42.4926C20.5472 42.58 20.56 42.6674 20.5717 42.7548C20.5076 42.7676 20.4435 42.7804 20.3794 42.7909C20.2419 42.975 20.3526 42.9994 20.44 43.1625C20.3538 43.2255 20.2664 43.2884 20.1802 43.3525C20.3049 43.5715 20.4994 43.7334 20.6497 43.942C20.6975 44.0899 20.5204 44.2647 20.5355 44.4232C20.5845 44.563 20.6555 44.6876 20.722 44.8111C20.292 44.6795 19.9786 44.4092 19.6373 44.1296C19.1212 43.6647 18.5864 43.2161 18.0237 42.8107C17.8967 42.6534 17.7767 42.4926 17.6602 42.3284Z" fill="#EC3753"/>
<path d="M21.5583 42.3214C21.8857 42.3365 22.2306 42.2853 22.5498 42.361C23.3513 42.53 24.2065 42.3913 25.0232 42.5055C24.817 42.6907 24.5362 42.6197 24.33 42.8282C24.0749 43.0659 23.7428 43.1498 23.476 43.3676C23.4131 43.5715 23.5203 43.8418 23.4282 44.0422C23.3234 44.2927 23.2372 44.5455 23.1882 44.8147C23.2803 44.9743 23.4038 45.1176 23.5016 45.2737C23.4783 45.4135 23.4399 45.5486 23.4096 45.6861C23.511 45.671 23.6112 45.6547 23.7114 45.6383C23.6601 45.7316 23.6077 45.8236 23.5599 45.918C23.6368 45.9564 23.7137 45.9949 23.7894 46.0356C23.9234 46.2687 23.9968 46.4807 24.2543 46.6089C24.4756 46.779 24.8951 46.8757 25.0209 47.1261C24.9021 47.1564 24.7786 47.1739 24.6539 47.1786C24.0667 46.8722 23.5401 46.617 22.9284 46.2989C22.3808 45.9331 21.7156 45.657 21.2228 45.2084C20.314 45.198 19.4041 45.2049 18.4953 45.2003C18.2856 45.1782 18.0794 45.304 17.9186 45.1234C16.1244 45.1106 14.3267 45.1432 12.5337 45.1106C13.4459 45.0978 14.3652 45.1374 15.2763 45.0651C15.8483 45.1327 16.4075 45.0931 16.9819 45.0989C17.8592 45.0861 18.7051 45.1595 19.5858 45.0686C20.0099 45.1129 20.4096 45.1502 20.8313 45.0593C20.8033 44.9719 20.7661 44.8892 20.7218 44.8112C20.6554 44.6877 20.5843 44.563 20.5354 44.4232C20.5202 44.2647 20.6973 44.09 20.6496 43.942C20.4993 43.7335 20.3047 43.5715 20.18 43.3525C20.2662 43.2884 20.3536 43.2255 20.4398 43.1626C20.3525 42.9995 20.2418 42.975 20.3793 42.7909C20.4433 42.7804 20.5074 42.7676 20.5715 42.7548C20.5598 42.6674 20.547 42.58 20.5342 42.4927C20.8534 42.4496 21.33 42.58 21.5583 42.3214Z" fill="#E22354"/>
<path d="M22.5498 42.361C22.7514 42.3086 22.9506 42.3202 23.1568 42.3214C25.1409 42.3144 27.1402 42.3284 29.1231 42.3121C29.2245 42.4111 29.3433 42.4426 29.482 42.4088C29.6998 42.6651 29.9142 42.3796 30.1111 42.6546C30.2474 42.6534 30.3837 42.6441 30.5189 42.6255C30.7076 42.9156 31.0105 42.6138 31.176 42.8899C31.43 42.8923 31.6828 42.7933 31.8738 43.0018C32.0801 42.9925 32.2863 43.0158 32.4913 43.0041C32.8245 43.194 33.3115 43.0997 33.6902 43.1358C33.7298 43.3804 33.724 43.6251 33.7228 43.8721C33.717 45.7537 33.738 47.6854 33.717 49.56C33.6704 49.4132 33.6413 49.264 33.6273 49.1126C33.6016 47.1937 33.6494 45.262 33.6005 43.3443C33.4211 43.3303 33.2486 43.3432 33.068 43.349C33.2148 43.3723 33.3593 43.4037 33.4991 43.4573C33.5632 44.1214 33.5364 44.8146 33.5119 45.4811C33.3616 45.4519 33.4409 45.1012 33.2987 45.0267C33.2253 44.9812 33.1449 44.9486 33.0587 44.9265C32.7663 45.2201 32.5624 45.5813 32.2478 45.8585C32.0917 45.9879 32.0661 46.1358 32.0125 46.3199C31.7538 46.518 31.4835 46.4958 31.416 46.8722C31.6094 46.8092 31.7981 46.7347 31.9915 46.6694C31.9426 46.7929 31.8995 46.9444 31.8051 47.0399C31.628 47.1355 31.4101 47.1727 31.2505 47.2927C31.1585 47.5525 31.2016 47.725 30.8905 47.8054C30.8637 47.711 30.8358 47.6166 30.809 47.5211C30.7216 47.5595 30.6913 47.7786 30.6424 47.866C30.4886 47.9568 30.294 47.9929 30.1181 48.0023C29.8839 47.9265 29.7313 47.7751 29.4645 47.838C29.2653 48.0861 29.0054 48.1794 28.7584 48.3541C29.2781 48.544 29.8117 48.6815 30.3534 48.7899C30.3383 48.9134 29.9993 48.918 29.9014 48.9471C29.7814 48.939 29.6637 48.9378 29.546 48.946C29.4703 48.7013 29.2221 48.8947 29.0486 48.7922C28.9658 48.713 28.8586 48.6803 28.7258 48.6943C28.5441 48.4846 28.3775 48.7106 28.1969 48.4776C28.0582 48.5009 27.9452 48.459 27.859 48.353C27.4792 48.4112 27.2625 48.1362 26.8897 48.085C26.751 47.9289 26.6089 48.0862 26.4516 47.8951C26.186 47.9242 26.0532 47.7075 25.8132 47.6551C25.5638 47.5514 25.3588 47.5048 25.1409 47.3254C24.9475 47.3195 24.8205 47.2613 24.6539 47.1786C24.7786 47.1739 24.9021 47.1564 25.0209 47.1261C24.8951 46.8756 24.4757 46.7789 24.2543 46.6088C23.9968 46.4807 23.9234 46.2686 23.7894 46.0356C23.7137 45.9949 23.6368 45.9564 23.5599 45.918C23.6077 45.8236 23.6601 45.7315 23.7114 45.6383C23.6112 45.6547 23.511 45.671 23.4096 45.6861C23.4399 45.5486 23.4784 45.4135 23.5017 45.2737C23.4038 45.1176 23.2803 44.9743 23.1883 44.8146C23.2372 44.5455 23.3234 44.2927 23.4283 44.0422C23.5203 43.8418 23.4131 43.5715 23.476 43.3676C23.7428 43.1498 24.0749 43.0659 24.33 42.8282C24.5362 42.6196 24.817 42.6907 25.0232 42.5055C24.2065 42.3913 23.3514 42.5299 22.5498 42.361Z" fill="#D20D53"/>
<path d="M18.0237 42.8107C18.5864 43.2162 19.1212 43.6647 19.6373 44.1296C19.9787 44.4092 20.2921 44.6795 20.722 44.8111C20.7663 44.8892 20.8036 44.9719 20.8315 45.0593C20.4098 45.1502 20.0101 45.1129 19.5861 45.0686C19.2948 44.8321 18.873 44.9929 18.5352 44.8776C18.2567 44.782 18.1099 44.422 17.9526 44.1948C17.9934 44.062 18.1251 43.9572 18.1996 43.8383C18.1495 43.4935 18.0389 43.1637 18.0237 42.8107Z" fill="#FF4448"/>
<path d="M33.0684 43.349C33.249 43.3432 33.4214 43.3303 33.6008 43.3443C33.6497 45.262 33.602 47.1937 33.6276 49.1126C33.6416 49.264 33.6707 49.4132 33.7173 49.56C33.4645 49.4528 33.2583 49.6345 33.0847 49.3957C32.7573 49.4446 32.4474 49.4027 32.1072 49.4038C31.9359 49.1557 31.4035 49.4376 31.2171 49.1766C31.0109 49.186 30.8023 49.1464 30.5973 49.1743C30.5472 48.9553 30.2804 49.0881 30.1184 49.0753C30.052 49.0124 29.9786 48.9693 29.9017 48.9471C29.9996 48.918 30.3386 48.9133 30.3538 48.7898C29.812 48.6815 29.2784 48.544 28.7588 48.3541C29.0058 48.1793 29.2656 48.0861 29.4648 47.838C29.7316 47.7751 29.8842 47.9265 30.1184 48.0023C30.2944 47.9929 30.4889 47.9568 30.6427 47.8659C30.6916 47.7786 30.7219 47.5595 30.8093 47.5211C30.8361 47.6166 30.8641 47.711 30.8909 47.8054C31.2019 47.725 31.1588 47.5525 31.2509 47.2927C31.4105 47.1727 31.6284 47.1354 31.8054 47.0399C31.8998 46.9444 31.9429 46.7929 31.9919 46.6694C31.7985 46.7347 31.6097 46.8092 31.4163 46.8721C31.4839 46.4958 31.7542 46.518 32.0128 46.3199C32.0664 46.1358 32.092 45.9879 32.2482 45.8585C32.5627 45.5812 32.7666 45.2201 33.0591 44.9265C33.1453 44.9486 33.2257 44.9812 33.2991 45.0267C33.4412 45.1012 33.362 45.4519 33.5123 45.4811C33.5367 44.8146 33.5635 44.1214 33.4995 43.4573C33.3596 43.4037 33.2152 43.3723 33.0684 43.349Z" fill="#D2044B"/>
<path d="M43.9347 44.9987C44.2061 45.1339 44.4904 44.9894 44.7374 45.1339C45.0566 45.3529 45.2267 44.909 45.5285 45.2446C45.5856 45.198 45.6415 45.1513 45.6986 45.1047C45.9491 45.2341 46.0318 45.2679 46.3172 45.2061C46.2671 45.4543 46.2869 45.6442 46.3265 45.89C46.266 45.9063 46.2065 45.9226 46.1471 45.9389C46.0632 46.038 46.0166 46.1673 45.9409 46.2733C45.8419 46.2686 45.7417 46.2663 45.6426 46.2651C45.7114 46.4364 45.7894 46.6007 45.8442 46.7778C45.5378 46.9036 45.2908 47.005 45.0205 47.2042C44.6279 47.3067 44.3389 47.4675 43.9999 47.6807C43.3591 47.9184 42.709 48.1444 42.0461 48.3133C41.9168 48.3576 41.7548 48.3844 41.6884 48.5184C41.8469 48.5533 42.0088 48.5778 42.1754 48.5906C41.9121 48.5883 41.8702 48.7817 41.5533 48.7071C41.4787 48.9133 41.241 48.791 41.0651 48.8271C40.9416 49.0124 40.7808 48.9203 40.6002 48.9483C40.4756 49.186 40.2146 48.9262 40.0678 49.1778C39.815 49.179 39.5866 49.1254 39.3676 49.2827C39.1206 49.285 38.8794 49.3188 38.6324 49.2873C38.1862 49.5576 37.4697 49.3188 36.9629 49.4516C37.1703 48.7013 36.9175 47.8578 37.105 47.1017C37.2611 46.5308 37.0363 46.0741 37.394 45.5731C37.5198 45.5661 37.6701 45.6139 37.7831 45.5568C37.9392 45.5102 38.0254 45.3669 38.1816 45.4927C38.2899 45.77 38.5113 45.8888 38.7944 45.9378C39.3023 45.9774 39.8103 45.8888 40.1668 45.4962C40.2449 45.3995 40.3672 45.5521 40.4616 45.5393C40.5257 45.495 40.5897 45.4519 40.655 45.41C40.8391 45.4228 41.0173 45.4927 41.2014 45.4974C41.3983 45.4426 41.5742 45.29 41.7536 45.1921C41.8201 45.3284 41.8014 45.4648 41.9669 45.5137C41.9855 45.3424 41.9005 45.2073 42.0333 45.0698C42.1393 45.135 42.2488 45.2737 42.3781 45.2667C42.7148 45.2038 42.9863 45.0488 43.3381 45.1117C43.5816 45.1502 43.7191 45.1024 43.9347 44.9987Z" fill="#F3174B"/>
</svg>
