<svg width="20" height="16" viewBox="0 0 20 16" fill="none" xmlns="http://www.w3.org/2000/svg">
<path d="M19.9845 2.4806C20.0155 2.57362 20 2.68215 19.9535 2.77517C19.9225 2.83719 19.8915 2.8992 19.8295 2.96122C18.062 5.14726 16.2791 7.34881 14.4961 9.53486C13.6744 10.5426 12.8372 11.5504 12 12.5581C11.9225 12.6511 11.8295 12.7442 11.7209 12.7907C11.5814 12.8682 11.4419 12.8217 11.3178 12.7132C11.2248 12.6201 11.1318 12.5426 11.0233 12.4806C10.4961 12.155 9.95349 11.8449 9.42636 11.5194C9.31783 11.4573 9.24031 11.4573 9.14729 11.5349C8.41861 12.124 7.70543 12.7132 6.97675 13.2868C6.7752 13.4418 6.54264 13.5659 6.31008 13.6744C6.10853 13.7829 5.92248 13.7209 5.82946 13.5039C5.06977 11.8294 4.27907 10.155 3.67442 8.40308C3.65892 8.35656 3.61241 8.29455 3.56589 8.26354C3.03876 7.93796 2.51163 7.61238 2 7.27129C1.37985 6.86819 0.759692 6.44959 0.155041 6.03098C-0.0620137 5.84494 -0.0155021 5.51936 0.170544 5.41083C0.480622 5.27129 0.837211 5.17827 1.1783 5.11625C2.88372 4.82168 4.60465 4.54261 6.32558 4.26354C8.24806 3.95346 10.1705 3.65889 12.1085 3.34881C13.845 3.08525 15.5659 2.82168 17.3023 2.55812C18 2.44959 18.6822 2.34106 19.3798 2.24804C19.5194 2.23253 19.6744 2.23253 19.814 2.26354C19.8915 2.31005 19.9535 2.37207 19.9845 2.4806ZM11.6434 11.7519C13.876 9.05424 16.1085 6.35656 18.3566 3.64339L18.3256 3.59688C14.5581 5.45734 10.7442 7.22478 7.00775 9.11625C6.91473 9.16277 6.91473 9.2868 7.00775 9.34881C8.51163 10.1705 9.9845 10.9767 11.4884 11.7829C11.5349 11.8139 11.5969 11.7984 11.6434 11.7519ZM1.36434 5.76742C1.24031 5.78292 1.2093 5.93796 1.31783 6.01548C1.41085 6.0775 1.48837 6.12401 1.5814 6.18602C2.31008 6.65114 3.03876 7.13176 3.75194 7.59688C3.86047 7.65889 3.93799 7.65889 4.06202 7.61238C4.41861 7.44184 5.03876 7.20928 5.41085 7.08525C8.49613 5.99998 11.5659 4.93021 14.6512 3.86044C14.8217 3.79843 15.0078 3.73641 15.1783 3.67439L15.1628 3.64339C10.5736 4.34106 5.9845 5.05424 1.36434 5.76742ZM5.61241 11.2403C5.64341 11.3178 5.76744 11.2868 5.76744 11.2093V9.87594C5.76744 9.65889 5.75194 9.44184 5.76744 9.24029C5.78295 9.13176 5.86047 9.00773 5.95349 8.94571C6.3721 8.68215 6.7907 8.43408 7.22481 8.21703C9.33333 7.17827 11.4419 6.17052 13.5504 5.14726C13.7985 5.02323 14.062 4.8992 14.3101 4.77517L14.2946 4.74416L4.49613 8.12401C4.35659 8.17052 4.27907 8.34106 4.34109 8.4806C4.75969 9.39532 5.1938 10.3101 5.61241 11.2403ZM6.51163 9.92246L6.44961 9.95346C6.46512 10.8062 6.48062 11.6589 6.49613 12.5426C6.49613 12.6511 6.62016 12.6977 6.69768 12.6356C7.28682 12.124 7.86047 11.6434 8.43411 11.1473C8.49613 11.0852 8.48062 10.9922 8.41861 10.9457C7.76744 10.6046 7.13178 10.2635 6.51163 9.92246Z" fill="#65E2CA"/>
</svg>
