<svg width="72" height="72" viewBox="0 0 72 72" fill="none" xmlns="http://www.w3.org/2000/svg">
<g clip-path="url(#clip0_227_1939)">
<path d="M69.8615 0.140625C66.754 0.140625 4.5423 0.140625 2.13849 0.140625C0.958008 0.140625 0 1.09863 0 2.27911V69.8022C0 70.9827 0.958008 71.9412 2.13849 71.9412H69.8615C71.042 71.9412 72 70.9827 72 69.8022C72 66.2679 72 5.70135 72 2.27911C72 1.09863 71.042 0.140625 69.8615 0.140625ZM67.723 67.6637H4.27698V4.4176H25.4822L28.3096 12.5689C28.6089 13.4286 29.4186 14.0059 30.33 14.0059H67.723V67.6637ZM67.723 9.72894H31.8527L30.0092 4.4176H67.723V9.72894Z" fill="black"/>
<path d="M9.75641 11.0592C10.9369 11.0592 11.8949 10.1028 11.8949 8.92072C11.8949 7.74023 10.9369 6.78223 9.75641 6.78223C8.57593 6.78223 7.61792 7.74023 7.61792 8.92072C7.61792 10.1028 8.57593 11.0592 9.75641 11.0592Z" fill="black"/>
<path d="M15.8016 11.0592H21.9319C23.1141 11.0592 24.071 10.1028 24.071 8.92072C24.071 7.74023 23.1141 6.78223 21.9319 6.78223H15.8016C14.6211 6.78223 13.6631 7.74023 13.6631 8.92072C13.6631 10.1028 14.6211 11.0592 15.8016 11.0592Z" fill="black"/>
<path d="M26.8038 26.3961C26.8038 31.4657 30.9286 35.5922 35.9999 35.5922C41.0712 35.5922 45.196 31.4657 45.196 26.3961C45.196 25.214 44.238 24.2576 43.0576 24.2576H35.9999C34.8195 24.2576 33.8614 25.214 33.8614 26.3961C33.8614 27.5766 34.8195 28.5346 35.9999 28.5346H40.4296C39.6326 30.1787 37.9462 31.3147 35.9999 31.3147C33.288 31.3147 31.0814 29.1075 31.0814 26.3961C31.0814 23.683 33.288 21.477 35.9999 21.477C36.9865 21.477 37.9363 21.7665 38.7487 22.3158C39.727 22.9772 41.0569 22.719 41.7183 21.7412C42.3786 20.7618 42.1221 19.433 41.1426 18.771C35.1144 14.6979 26.8038 18.9886 26.8038 26.3961Z" fill="black"/>
<path d="M6.41602 41.0306V62.7973C6.41602 63.9778 7.37402 64.9358 8.5545 64.9358H63.2318C64.4123 64.9358 65.3703 63.9778 65.3703 62.7973V41.0306C65.3703 39.8496 64.4123 38.8916 63.2318 38.8916H8.5545C7.37402 38.8916 6.41602 39.8496 6.41602 41.0306ZM10.693 43.1691H61.0933V60.6588H10.693V43.1691Z" fill="black"/>
<path d="M46.5331 46.2033C44.6127 48.122 44.198 50.984 45.2856 53.312L42.7835 55.8141C41.948 56.6496 41.948 58.0042 42.7835 58.8381C43.619 59.6736 44.9703 59.6752 45.8075 58.8381L48.3113 56.336C50.647 57.4285 53.5089 57.0006 55.4189 55.0885C57.8694 52.6391 57.8694 48.6527 55.4189 46.2033C52.9689 43.7539 48.9825 43.7539 46.5331 46.2033ZM52.3943 52.0645C51.6121 52.8472 50.3399 52.8472 49.5571 52.0645C48.7793 51.2861 48.7683 50.0161 49.5571 49.2272C50.3388 48.4461 51.6132 48.4461 52.3943 49.2272C53.1727 50.0056 53.1837 51.2756 52.3943 52.0645Z" fill="black"/>
<path d="M37.4611 49.7754H16.1724C14.9919 49.7754 14.0333 50.7334 14.0333 51.9139C14.0333 53.096 14.9919 54.0524 16.1724 54.0524H37.4611C38.6416 54.0524 39.6002 53.096 39.6002 51.9139C39.6002 50.7334 38.6416 49.7754 37.4611 49.7754Z" fill="black"/>
</g>
<defs>
<clipPath id="clip0_227_1939">
<rect width="72" height="72" fill="white"/>
</clipPath>
</defs>
</svg>
