<svg width="72" height="72" viewBox="0 0 72 72" fill="none" xmlns="http://www.w3.org/2000/svg">
<g clip-path="url(#clip0_227_1923)">
<path d="M46.5771 0C32.6206 0 21.2673 11.3549 21.2673 25.3114C21.2673 30.1113 22.6098 34.6025 24.9406 38.4302L1.95337 61.4179C-0.462524 63.83 -0.464721 67.7653 1.95337 70.1834C4.3753 72.6053 8.29632 72.6059 10.7188 70.1834L33.7681 47.1324C37.5265 49.3489 41.9062 50.6206 46.5771 50.6206C60.533 50.6206 71.8868 39.2657 71.8868 25.3114C71.8868 11.3549 60.533 0 46.5771 0ZM7.60198 67.0665C6.90106 67.7702 5.76727 67.7658 5.06854 67.0665C4.37091 66.3689 4.37091 65.2318 5.06854 64.5331L27.5817 42.0199C28.3716 42.917 29.2253 43.7574 30.1327 44.5358L7.60198 67.0665ZM46.5771 46.2145C35.0519 46.2145 25.6734 36.8382 25.6734 25.3114C25.6734 13.7845 35.0502 4.40606 46.5771 4.40606C58.1039 4.40606 67.4802 13.7845 67.4802 25.3114C67.4802 36.8366 58.1039 46.2145 46.5771 46.2145Z" fill="black"/>
<path d="M58.3313 23.1085H46.577C45.3592 23.1085 44.3737 24.0939 44.3737 25.3118C44.3737 26.5274 45.3592 27.5145 46.577 27.5145H55.8725C54.8755 31.7228 51.0858 34.8627 46.577 34.8627C41.3102 34.8627 37.0244 30.5786 37.0244 25.3118C37.0244 20.0433 41.3102 15.7586 46.577 15.7586C48.4908 15.7586 50.3371 16.3228 51.9158 17.389C52.9233 18.0707 54.2938 17.8048 54.9755 16.7974C55.6556 15.7883 55.3908 14.4194 54.3817 13.7377C52.0729 12.1776 49.3736 11.3525 46.577 11.3525C38.8806 11.3525 32.6178 17.6136 32.6178 25.3118C32.6178 33.0313 38.9031 39.2693 46.577 39.2693C54.2735 39.2693 60.5346 33.0077 60.5346 25.3118C60.5346 24.0939 59.5491 23.1085 58.3313 23.1085Z" fill="black"/>
</g>
<defs>
<clipPath id="clip0_227_1923">
<rect width="72" height="72" fill="white"/>
</clipPath>
</defs>
</svg>
