<svg width="40" height="40" viewBox="0 0 40 40" fill="none" xmlns="http://www.w3.org/2000/svg">
<rect width="40" height="40" rx="20" fill="white"/>
<path d="M29.7386 14.3839C29.6249 14.3635 29.6715 14.3722 29.6804 14.3722C29.7939 15.2083 30.0095 16.0239 29.9978 16.8338C29.96 19.5662 29.9571 22.3074 29.7094 25.0225C29.5784 26.4411 29.156 27.9792 27.7781 28.7832C26.9449 29.2696 25.9282 29.6134 24.9728 29.6805C22.2869 29.8611 19.5894 29.928 16.8977 29.9164C15.4645 29.9106 13.9293 29.7678 12.8282 28.7658C12.0038 28.0171 11.2493 27.0179 10.8677 25.9838C9.84227 23.1901 9.92384 20.2362 10.1248 17.3203C10.2268 15.8317 10.4657 14.3198 10.9259 12.907C11.1619 12.1816 11.9513 11.5786 12.6039 11.063C13.6846 10.2095 15.0188 10.1803 16.3413 10.1599C18.8437 10.1221 21.3489 9.92397 23.8425 10.0318C25.7885 10.1162 27.6266 10.7688 28.8122 12.502C29.1793 13.041 29.3978 13.6818 29.7356 14.3839H29.7386ZM11.8669 25.0195C11.9746 25.2992 12.0882 25.5847 12.196 25.8731C12.933 27.8568 14.4974 28.5356 16.4666 28.5647C17.2007 28.5764 17.9348 28.5939 18.666 28.5706C20.9935 28.4948 23.3269 28.4511 25.6515 28.2996C27.0876 28.2065 28.2558 26.4324 28.3694 25.1944C28.4539 24.2738 28.5209 23.3445 28.5121 22.4211C28.4859 19.7847 28.4772 17.1455 28.3228 14.515C28.2879 13.9003 27.8131 13.1954 27.3382 12.7467C26.3012 11.765 24.9407 11.4329 23.5395 11.3805C22.0975 11.3252 20.6556 11.3456 19.2136 11.331C17.425 11.3135 15.5898 11.13 13.941 11.9602C13.201 12.3331 12.365 12.9827 12.0941 13.7022C11.6513 14.882 11.4882 16.2191 11.4765 17.4921C11.4532 19.8954 11.6222 22.3016 11.7125 24.7078C11.7183 24.8273 11.7532 24.9467 11.7824 25.1011C11.8523 25.0369 11.8872 25.0049 11.8698 25.0195H11.8669Z" fill="black"/>
<path d="M25.1062 20.0115C25.1062 23.0179 23.2157 24.8298 20.923 25.0832C16.4456 25.5755 15.1114 22.7499 15.0532 20.4048C14.9658 16.6499 17.0719 14.969 20.387 14.9515C22.8835 14.937 25.1004 17.081 25.1033 20.0115H25.1062ZM16.5796 21.2904C16.7515 23.28 19.347 24.4045 21.6571 23.6062C23.4312 22.9917 24.2322 20.7223 23.3992 18.3453C22.8748 16.845 20.2239 15.8721 18.4178 16.6178C16.7544 17.3053 16.0757 19.6095 16.4282 21.235C16.4748 21.2525 16.5243 21.27 16.5796 21.2904Z" fill="black"/>
<path d="M26.2951 15.06C26.0038 15.2697 25.6454 15.7154 25.2114 15.8057C24.5122 15.9514 23.8772 15.3076 24.0433 14.5851C24.1278 14.2268 24.6812 13.8044 25.0803 13.7287C25.7474 13.6005 26.1435 14.0724 26.2921 15.06H26.2951Z" fill="black"/>
</svg>
