<svg width="72" height="72" viewBox="0 0 72 72" fill="none" xmlns="http://www.w3.org/2000/svg">
<g clip-path="url(#clip0_216_4172)">
<path d="M53.0168 5.26257C52.6213 4.86377 52.0819 4.63965 51.5199 4.63965C50.958 4.63965 50.4191 4.86432 50.023 5.26312L43.7916 11.5429C43.379 11.9582 42.8314 12.1873 42.2502 12.1873C41.8074 12.1873 31.216 12.1873 29.3599 12.1873C28.7782 12.1873 28.2311 11.9582 27.8147 11.5396L21.6925 5.40045C21.297 5.0033 20.7592 4.78027 20.1989 4.78027C20.1984 4.78027 20.1973 4.78027 20.1967 4.78027C19.6353 4.78082 19.0976 5.00549 18.702 5.40375L0.47185 23.7685C-0.346083 24.5925 -0.344435 25.9224 0.475695 26.7447L5.7041 31.983C6.69452 32.9811 7.23999 34.3088 7.23999 35.7222C7.23999 37.5509 7.75305 39.2999 8.70667 40.8067C6.63135 43.3303 6.76538 47.0887 9.11096 49.4513C10.2464 50.5955 11.7334 51.2569 13.3281 51.3349C13.4011 52.8774 14.0208 54.3979 15.1875 55.5729C16.323 56.7171 17.81 57.3785 19.4052 57.4565C19.4777 58.999 20.0979 60.5195 21.2641 61.6945C23.1004 63.5446 25.7355 64.011 27.9608 63.2117C28.2673 64.0972 28.7705 64.9278 29.4714 65.6336C31.9757 68.1572 36.0368 68.1578 38.5417 65.6336L39.4322 64.7372C39.9886 64.1763 40.4199 63.5364 40.7275 62.8536C43.2186 65.0547 47.0584 65.0058 49.4858 62.5602C50.6525 61.3852 51.2722 59.8647 51.3447 58.3222C52.9393 58.2448 54.4269 57.5829 55.5623 56.4386C56.7291 55.2636 57.3487 53.7431 57.4218 52.2006C59.0159 52.1232 60.5034 51.4613 61.6389 50.3176C63.9713 47.9682 64.118 44.2377 62.0789 41.7142C63.5648 39.6207 64.3695 37.1219 64.3695 34.4978C64.3695 33.8831 64.6162 33.2822 65.0463 32.8487L71.247 26.5997C72.0633 25.7774 72.0633 24.4502 71.247 23.6279L53.0168 5.26257ZM12.1053 43.3297L15.1436 40.2689C15.9967 39.4092 17.3721 39.4087 18.2258 40.2689C19.0882 41.1374 19.0882 42.5502 18.2258 43.4182L15.1875 46.4795C14.3339 47.3392 12.9589 47.3392 12.1053 46.4795C11.2434 45.611 11.2434 44.1982 12.1053 43.3297ZM18.1818 49.4513L24.2584 43.3297C25.112 42.47 26.4875 42.4695 27.3412 43.3297C28.203 44.1982 28.203 45.611 27.3412 46.4795C25.1752 48.6614 25.0598 48.7773 21.2641 52.6011C20.4104 53.4602 19.0355 53.4608 18.1818 52.6005C17.32 51.7326 17.32 50.3198 18.1818 49.4513ZM24.2584 58.7221C23.3965 57.8542 23.3965 56.4414 24.2584 55.5729L27.2967 52.5121C28.1503 51.6524 29.5258 51.6524 30.3794 52.5121C31.1754 53.3141 31.2347 54.5792 30.5602 55.4526C30.3745 55.624 30.6508 55.3482 27.3412 58.7221C26.4875 59.5824 25.1126 59.5829 24.2584 58.7221ZM36.4384 61.7648L35.548 62.6613C34.6943 63.5215 33.3194 63.5215 32.4657 62.6613C31.6802 61.8703 31.6126 60.6283 32.2586 59.757C33.4166 58.5865 33.36 58.6557 33.5616 58.4348C34.423 57.7575 35.6529 57.8246 36.4384 58.6156C37.3003 59.484 37.2997 60.8969 36.4384 61.7648ZM58.6451 47.3452C57.7915 48.2049 56.416 48.2049 55.5623 47.3452L51.6342 43.3879C50.8135 42.5612 49.4775 42.5563 48.6508 43.377C47.8241 44.1976 47.8192 45.533 48.6398 46.3598L52.5686 50.317C53.4304 51.1855 53.4304 52.5983 52.5686 53.4663C51.7149 54.3265 50.3394 54.3265 49.4858 53.4663L45.5576 49.509C44.7364 48.6823 43.401 48.6773 42.5743 49.498C41.7476 50.3187 41.7426 51.6546 42.5633 52.4813L46.4915 56.4386C47.3539 57.3071 47.3539 58.7199 46.4915 59.5879C45.6384 60.4481 44.2629 60.4481 43.4087 59.5879C39.2734 55.4559 39.4717 55.5465 39.0553 55.2949C37.9809 54.3699 36.6499 53.8338 35.2316 53.7613C35.1552 52.2248 34.5356 50.7109 33.3738 49.5397C32.7778 48.9399 32.0845 48.473 31.3303 48.1533C32.7607 45.6907 32.4295 42.4673 30.3349 40.3579C28.1882 38.1952 24.9769 37.9332 22.5824 39.3356C22.2721 38.5946 21.8189 37.8997 21.2201 37.2971C18.7152 34.7736 14.6547 34.7736 12.1492 37.2971L11.8131 37.636C11.5812 37.034 11.4587 36.3874 11.4587 35.7222C11.4587 33.1877 10.4782 30.8047 8.69403 29.0068L4.94494 25.2506L20.2022 9.88014L24.8242 14.5147C25.8569 15.5551 27.1813 16.1951 28.6123 16.361L19.186 27.672C18.4406 28.5674 18.5614 29.8973 19.4563 30.6427C21.62 32.4461 24.3567 33.2992 27.1621 33.0443C29.9669 32.7894 32.5053 31.4573 34.3109 29.2903C35.0662 28.3839 36.3368 28.1109 37.4019 28.625C39.5756 29.6753 41.9645 30.0588 44.3145 29.7588L58.6451 44.1954C59.507 45.0639 59.507 46.4768 58.6451 47.3452ZM62.0525 29.8764C60.8259 31.1118 60.1508 32.7532 60.1508 34.4978C60.1508 35.97 59.769 37.3817 59.056 38.621L48.7964 28.2861C50.8937 27.1194 52.6136 25.3654 53.7545 23.1912C54.2956 22.1596 53.8979 20.8846 52.8663 20.3435C51.8347 19.8019 50.5597 20.1996 50.0186 21.2312C48.8738 23.4131 46.9089 24.8694 44.7078 25.4088C44.6111 25.4236 44.515 25.4445 44.4211 25.4731C42.7297 25.823 40.9164 25.6379 39.2372 24.8265C36.4252 23.4681 33.0672 24.1931 31.0677 26.5926C29.9856 27.8906 28.4629 28.6899 26.7803 28.8431C25.8239 28.9299 24.8813 28.8019 24.0068 28.4773L33.772 16.7576C34.5372 16.5241 35.3304 16.3879 36.1302 16.3879H42.2502C43.9641 16.3879 45.5746 15.7342 46.7859 14.5147L51.5205 9.74336L66.7783 25.1138L62.0525 29.8764Z" fill="white"/>
</g>
<defs>
<clipPath id="clip0_216_4172">
<rect width="72" height="72" fill="white"/>
</clipPath>
</defs>
</svg>
