<svg width="40" height="40" viewBox="0 0 40 40" fill="none" xmlns="http://www.w3.org/2000/svg">
<rect width="40" height="40" rx="20" fill="white"/>
<path d="M13.4483 15.3358C14.8276 15.1906 15.5898 14.029 15.3721 12.686C15.1906 11.706 14.392 10.98 13.412 10.8711C13.3031 10.8348 13.1942 10.8348 13.0853 10.8711H12.9764C12.4319 10.9074 11.9238 11.1252 11.5245 11.4882C11.0889 11.9238 10.8711 12.5408 10.9437 13.1942C10.98 14.4283 11.9964 15.372 13.2305 15.3358H13.4483ZM12.3956 12.7949C12.4319 12.5771 12.6134 12.4319 12.7949 12.3593C13.4483 11.9964 13.8838 12.6497 13.9564 13.049C14.1016 13.6298 13.5572 13.9201 13.0853 13.8838C12.5045 13.8838 12.2868 13.3031 12.3956 12.7949ZM15.4083 23.0309C15.4809 20.8167 15.4083 18.6388 15.4083 16.4247C15.4083 16.0254 15.0817 15.6987 14.6824 15.6987C13.7387 15.6987 12.7223 15.6261 11.8149 15.735C11.3067 15.6624 10.98 16.1343 10.98 16.824C11.0163 17.5862 10.9074 18.9292 10.9074 19.6189C10.8711 20.9982 10.9437 22.3412 10.9437 23.7205C10.9437 24.9546 10.9074 25.8621 10.9074 27.0962C10.9074 29.0563 11.9238 28.9837 11.9964 29.02C12.7586 29.1652 13.5572 29.1652 14.3194 29.0926C15.118 29.0563 15.3358 28.3666 15.4083 27.7132C15.5535 26.0436 15.3358 24.7005 15.4083 23.0309ZM13.6298 27.6406C13.3031 27.6406 12.6134 27.7495 12.2505 27.6406C12.1416 27.3503 12.3593 25.6806 12.3593 25.4628C12.3593 24.0472 12.3956 23.0309 12.3593 21.6152C12.323 20.3085 12.323 19.0018 12.323 17.6588V17.1143C12.8312 17.078 13.3757 17.078 13.8838 17.1143C13.8838 19.4737 13.8475 21.833 13.8838 24.1924C13.8838 25.3176 13.9564 26.0799 13.9201 27.2051C13.9564 27.8584 14.1742 27.6406 13.6298 27.6406ZM29.2377 22.2686C29.2377 20.3448 29.3103 18.3848 28.0399 16.8603C27.2777 15.9528 24.9183 15.4083 23.7931 15.4446C22.3049 15.4809 18.8929 15.2995 17.6588 15.5172C17.3684 15.5898 17.1506 15.8802 17.1506 16.2069C17.2232 19.6552 17.1506 22.7405 17.1143 26.225C17.1143 26.9147 16.9691 28.2214 17.5136 28.8022C18.2759 29.5644 19.6915 28.9837 20.6352 29.1289C21.0708 29.2014 21.4701 28.9474 21.5426 28.5118V28.4755C21.6152 28.3666 21.6878 28.2214 21.6878 28.0762C21.8693 25.3539 21.6878 22.9946 21.6515 20.2359C22.2686 20.1996 22.922 20.1633 23.539 20.1633C25.1361 20.1996 24.6279 21.7241 24.6642 22.7042C24.7731 24.5916 24.7368 26.1524 24.7368 28.0399C24.7368 28.2577 24.8094 28.4392 24.9909 28.5844L25.0272 28.6207C25.4628 28.9837 26.0436 29.0926 26.588 28.9837C27.2414 28.9111 27.8947 28.9111 28.5844 28.9474C29.02 28.9111 29.274 28.6207 29.274 28.0762C29.2377 27.2414 29.3829 26.2613 29.3466 25.4628C29.2377 24.265 29.274 23.4301 29.2377 22.2686ZM27.7495 27.5681C27.5318 27.5318 26.2613 27.5681 26.1887 27.5681C26.225 25.1724 26.4428 22.922 25.8621 20.5989C25.2813 18.2759 22.7042 18.7477 20.9256 18.8203C20.6352 18.8203 20.4174 18.9655 20.3085 19.2196C20.2359 19.3285 20.1996 19.4374 20.1996 19.5826C20.1996 22.4138 20.4537 24.8457 20.2722 27.6769C19.5463 27.6769 18.6388 27.6407 18.6025 27.3866C18.4936 26.1887 18.6025 25.3539 18.6025 24.1561C18.6025 21.7604 18.6388 19.3285 18.6025 16.9328C21.2523 17.1869 23.7568 16.2795 26.225 17.3684C28.294 18.2759 27.7858 22.3049 27.7858 24.0835C27.7858 24.9546 27.8584 25.4628 27.8584 26.3339C27.8584 26.7695 27.7858 27.1688 27.7495 27.5681Z" fill="black"/>
</svg>
