<svg width="25" height="25" viewBox="0 0 25 25" fill="none" xmlns="http://www.w3.org/2000/svg">
<g clip-path="url(#clip0_95_256)">
<g clip-path="url(#clip1_95_256)">
<mask id="mask0_95_256" style="mask-type:luminance" maskUnits="userSpaceOnUse" x="0" y="0" width="25" height="25">
<path d="M24.8867 0.450195H0.886719V24.4502H24.8867V0.450195Z" fill="white"/>
</mask>
<g mask="url(#mask0_95_256)">
<mask id="mask1_95_256" style="mask-type:luminance" maskUnits="userSpaceOnUse" x="0" y="0" width="25" height="25">
<path d="M24.8867 0.450195H0.886719V24.4502H24.8867V0.450195Z" fill="white"/>
</mask>
<g mask="url(#mask1_95_256)">
<path d="M12.8868 22.8502C18.6306 22.8502 23.2868 18.194 23.2868 12.4503C23.2868 6.70653 18.6306 2.05029 12.8868 2.05029C7.14306 2.05029 2.48682 6.70653 2.48682 12.4503C2.48682 18.194 7.14306 22.8502 12.8868 22.8502Z" fill="#65E2CA"/>
<path d="M8.20156 1.205C4.94275 2.0714 -2.23964 8.41619 2.40796 17.5742C4.44556 22.4282 7.91995 25.2978 13.676 24.2262C20.2484 23.015 25.8824 17.8906 24.7084 11.0338C23.8916 6.1798 18.962 0.450195 13.6004 0.450195L8.20156 1.205ZM13.61 20.481C3.80716 23.2114 -0.446051 5.6302 11.1027 4.5874C11.2308 4.577 11.3568 4.5518 11.4788 4.51259C11.7828 4.52579 12.0856 4.46459 12.3612 4.3358C13.6852 3.73019 16.2296 5.081 17.3284 5.7238C19.1934 6.98498 20.4935 8.92354 20.9524 11.1278C22.2484 15.991 17.9572 19.2698 13.61 20.481Z" fill="white"/>
<path d="M14.0978 8.13664C13.159 9.71104 12.605 11.5931 11.7222 13.2422C11.1703 12.5677 10.686 11.8407 10.2763 11.0714C9.14025 8.95665 5.90064 10.829 7.02744 12.9347C8.15424 15.0402 7.63785 14.6306 10.1074 16.997C10.2627 17.3066 10.5009 17.567 10.7954 17.7491C11.0911 17.9315 11.4312 18.029 11.7786 18.0311C13.403 18.0311 14.2666 16.2983 14.9146 15.0498C15.7786 13.3914 16.3234 11.6022 17.309 9.99985C18.605 7.95985 15.3562 6.09625 14.0978 8.13664Z" fill="white"/>
</g>
</g>
</g>
</g>
<defs>
<clipPath id="clip0_95_256">
<rect width="24" height="24" fill="white" transform="translate(0.886719 0.450195)"/>
</clipPath>
<clipPath id="clip1_95_256">
<rect width="24" height="24" fill="white" transform="translate(0.886719 0.450195)"/>
</clipPath>
</defs>
</svg>
