<svg width="20" height="20" viewBox="0 0 20 20" fill="none" xmlns="http://www.w3.org/2000/svg">
<g clip-path="url(#clip0_2_1125)">
<g clip-path="url(#clip1_2_1125)">
<path d="M10 18.6666C14.7865 18.6666 18.6667 14.7864 18.6667 9.99998C18.6667 5.21351 14.7865 1.33331 10 1.33331C5.21354 1.33331 1.33334 5.21351 1.33334 9.99998C1.33334 14.7864 5.21354 18.6666 10 18.6666Z" fill="#65E2CA"/>
<path d="M6.0957 0.629C3.38003 1.351 -2.6053 6.63833 1.2677 14.27C2.9657 18.315 5.86103 20.7063 10.6577 19.8133C16.1347 18.804 20.8297 14.5337 19.8514 8.81967C19.1707 4.77467 15.0627 0 10.5947 0L6.0957 0.629ZM10.6027 16.6923C2.4337 18.9677 -1.11064 4.31667 8.51336 3.44767C8.62003 3.439 8.72503 3.418 8.8267 3.38533C9.08003 3.39633 9.33237 3.34533 9.56203 3.238C10.6654 2.73333 12.7857 3.859 13.7014 4.39467C15.2556 5.44565 16.339 7.06112 16.7214 8.898C17.8014 12.9507 14.2254 15.6837 10.6027 16.693V16.6923Z" fill="black"/>
<path d="M11.0093 6.40533C10.227 7.71733 9.76533 9.28567 9.02966 10.66C8.56971 10.0979 8.16611 9.49202 7.82467 8.851C6.878 7.08867 4.17833 8.649 5.11733 10.4037C6.05633 12.1583 5.626 11.817 7.684 13.789C7.81334 14.047 8.01184 14.264 8.25733 14.4157C8.50369 14.5677 8.78716 14.649 9.07666 14.6507C10.4303 14.6507 11.15 13.2067 11.69 12.1663C12.41 10.7843 12.864 9.29333 13.6853 7.958C14.7653 6.258 12.058 4.705 11.0093 6.40533Z" fill="black"/>
</g>
</g>
<defs>
<clipPath id="clip0_2_1125">
<rect width="20" height="20" fill="white"/>
</clipPath>
<clipPath id="clip1_2_1125">
<rect width="20" height="20" fill="white"/>
</clipPath>
</defs>
</svg>
