<svg width="116" height="32" viewBox="0 0 116 32" fill="none" xmlns="http://www.w3.org/2000/svg">
<path fill-rule="evenodd" clip-rule="evenodd" d="M17.8409 0.741214C16.0767 -0.250002 13.9233 -0.250001 12.1591 0.741215L2.95904 5.91007C1.13132 6.93694 0 8.8702 0 10.9666V21.0334C0 23.1298 1.13132 25.0631 2.95904 26.0899L12.1591 31.2588C13.9233 32.25 16.0767 32.25 17.8409 31.2588L27.041 26.0899C28.8687 25.0631 30 23.1298 30 21.0334V10.9666C30 8.8702 28.8687 6.93694 27.041 5.91007L17.8409 0.741214ZM16.8523 3.83165C15.9275 3.29891 14.7794 3.2929 13.8489 3.81593L4.93155 8.828L5.80176 10.2941L4.93155 8.828C4.08218 9.3054 3.55897 10.1874 3.55897 11.1419V14.077C3.55897 15.0588 4.11217 15.9615 4.99979 16.4281L14.4738 21.4086C15.3633 21.8763 16.474 21.5536 16.9546 20.688C17.4351 19.8224 17.1036 18.7415 16.214 18.2739L7.22031 13.5458V11.6561L15.3325 7.09657L23.7362 11.9381C24.6063 12.4393 25.7291 12.1593 26.2442 11.3127C26.7592 10.466 26.4715 9.37338 25.6015 8.87215L16.8523 3.83165ZM16.387 11.2051C15.5095 10.7164 14.391 11.0126 13.8889 11.8666C13.3868 12.7205 13.6911 13.8089 14.5687 14.2975L22.7813 18.8703V20.3161L14.6691 24.8756L6.26533 20.0341C5.39531 19.5329 4.27248 19.8129 3.75741 20.6595C3.24234 21.5061 3.53008 22.5988 4.4001 23.1L13.1493 28.1405C14.074 28.6733 15.2221 28.6793 16.1527 28.1562L25.07 23.1442C25.9194 22.6668 26.4426 21.7847 26.4426 20.8302V18.3537C26.4426 17.3953 25.9152 16.5103 25.0603 16.0343L16.387 11.2051Z" fill="#212529"/>
<path d="M44.12 10.5338C45.736 10.5338 47.032 10.9418 48.008 11.7578C48.984 12.5738 49.592 13.6618 49.832 15.0218H46.664C46.536 14.3818 46.248 13.8698 45.8 13.4858C45.352 13.1018 44.768 12.9098 44.048 12.9098C43.472 12.9098 43.024 13.0458 42.704 13.3178C42.384 13.5898 42.224 13.9578 42.224 14.4218C42.224 14.7898 42.352 15.0858 42.608 15.3098C42.864 15.5338 43.184 15.7098 43.568 15.8378C43.952 15.9658 44.504 16.1178 45.224 16.2938C46.232 16.5178 47.048 16.7578 47.672 17.0138C48.312 17.2538 48.856 17.6458 49.304 18.1898C49.768 18.7178 50 19.4378 50 20.3498C50 21.4858 49.552 22.4058 48.656 23.1098C47.776 23.8138 46.584 24.1658 45.08 24.1658C43.352 24.1658 41.968 23.7818 40.928 23.0138C39.888 22.2298 39.256 21.1178 39.032 19.6778H42.272C42.352 20.3338 42.64 20.8538 43.136 21.2378C43.632 21.6058 44.28 21.7898 45.08 21.7898C45.656 21.7898 46.096 21.6538 46.4 21.3818C46.704 21.0938 46.856 20.7258 46.856 20.2778C46.856 19.8938 46.72 19.5818 46.448 19.3418C46.192 19.1018 45.864 18.9178 45.464 18.7898C45.08 18.6618 44.528 18.5098 43.808 18.3338C42.816 18.1098 42.008 17.8858 41.384 17.6618C40.776 17.4218 40.248 17.0458 39.8 16.5338C39.368 16.0218 39.152 15.3178 39.152 14.4218C39.152 13.2698 39.592 12.3338 40.472 11.6138C41.352 10.8938 42.568 10.5338 44.12 10.5338ZM59.1444 21.0938V23.9978H57.3684C55.8804 23.9978 54.7364 23.6378 53.9364 22.9178C53.1524 22.1978 52.7604 20.9978 52.7604 19.3178V13.5578H50.9124V10.7018H52.7604V7.4138H56.1444V10.7018H59.1204V13.5578H56.1444V19.3658C56.1444 20.0058 56.2724 20.4538 56.5284 20.7098C56.7844 20.9658 57.2164 21.0938 57.8244 21.0938H59.1444ZM66.3074 10.5338C67.4274 10.5338 68.3874 10.7978 69.1874 11.3258C69.9874 11.8538 70.5554 12.5658 70.8914 13.4618V10.7018H74.2514V23.9978H70.8914V21.2138C70.5554 22.1098 69.9874 22.8298 69.1874 23.3738C68.3874 23.9018 67.4274 24.1658 66.3074 24.1658C65.1874 24.1658 64.1794 23.8938 63.2834 23.3498C62.3874 22.8058 61.6834 22.0218 61.1714 20.9978C60.6754 19.9578 60.4274 18.7418 60.4274 17.3498C60.4274 15.9578 60.6754 14.7498 61.1714 13.7258C61.6834 12.6858 62.3874 11.8938 63.2834 11.3498C64.1794 10.8058 65.1874 10.5338 66.3074 10.5338ZM67.3634 13.4858C66.3074 13.4858 65.4594 13.8298 64.8194 14.5178C64.1794 15.2058 63.8594 16.1498 63.8594 17.3498C63.8594 18.5498 64.1794 19.4938 64.8194 20.1818C65.4594 20.8538 66.3074 21.1898 67.3634 21.1898C68.3874 21.1898 69.2274 20.8458 69.8834 20.1578C70.5554 19.4538 70.8914 18.5178 70.8914 17.3498C70.8914 16.1658 70.5554 15.2298 69.8834 14.5418C69.2274 13.8378 68.3874 13.4858 67.3634 13.4858ZM82.8142 10.5338C84.5262 10.5338 85.9502 10.9978 87.0862 11.9258C88.2382 12.8538 88.9582 14.1178 89.2462 15.7178H85.6702C85.5262 15.0138 85.1982 14.4618 84.6862 14.0618C84.1742 13.6458 83.5262 13.4378 82.7422 13.4378C81.8462 13.4378 81.0942 13.7738 80.4862 14.4458C79.8942 15.1018 79.5982 16.0698 79.5982 17.3498C79.5982 18.6298 79.8942 19.6058 80.4862 20.2778C81.0942 20.9338 81.8462 21.2618 82.7422 21.2618C83.5262 21.2618 84.1742 21.0618 84.6862 20.6618C85.1982 20.2458 85.5262 19.6858 85.6702 18.9818H89.2462C88.9582 20.5818 88.2382 21.8458 87.0862 22.7738C85.9502 23.7018 84.5262 24.1658 82.8142 24.1658C81.5182 24.1658 80.3662 23.8938 79.3582 23.3498C78.3502 22.7898 77.5662 21.9978 77.0062 20.9738C76.4462 19.9498 76.1662 18.7418 76.1662 17.3498C76.1662 15.9578 76.4462 14.7498 77.0062 13.7258C77.5662 12.6858 78.3502 11.8938 79.3582 11.3498C80.3662 10.8058 81.5182 10.5338 82.8142 10.5338ZM98.9467 23.9978L94.5547 18.1898V23.9978H91.1707V6.2378H94.5547V16.2218L98.9227 10.7018H102.931L97.3387 17.3258L103.075 23.9978H98.9467ZM108.822 10.5338C110.438 10.5338 111.734 10.9418 112.71 11.7578C113.686 12.5738 114.294 13.6618 114.534 15.0218H111.366C111.238 14.3818 110.95 13.8698 110.502 13.4858C110.054 13.1018 109.47 12.9098 108.75 12.9098C108.174 12.9098 107.726 13.0458 107.406 13.3178C107.086 13.5898 106.926 13.9578 106.926 14.4218C106.926 14.7898 107.054 15.0858 107.31 15.3098C107.566 15.5338 107.886 15.7098 108.27 15.8378C108.654 15.9658 109.206 16.1178 109.926 16.2938C110.934 16.5178 111.75 16.7578 112.374 17.0138C113.014 17.2538 113.558 17.6458 114.006 18.1898C114.47 18.7178 114.702 19.4378 114.702 20.3498C114.702 21.4858 114.254 22.4058 113.358 23.1098C112.478 23.8138 111.286 24.1658 109.782 24.1658C108.054 24.1658 106.67 23.7818 105.63 23.0138C104.59 22.2298 103.958 21.1178 103.734 19.6778H106.974C107.054 20.3338 107.342 20.8538 107.838 21.2378C108.334 21.6058 108.982 21.7898 109.782 21.7898C110.358 21.7898 110.798 21.6538 111.102 21.3818C111.406 21.0938 111.558 20.7258 111.558 20.2778C111.558 19.8938 111.422 19.5818 111.15 19.3418C110.894 19.1018 110.566 18.9178 110.166 18.7898C109.782 18.6618 109.23 18.5098 108.51 18.3338C107.518 18.1098 106.71 17.8858 106.086 17.6618C105.478 17.4218 104.95 17.0458 104.502 16.5338C104.07 16.0218 103.854 15.3178 103.854 14.4218C103.854 13.2698 104.294 12.3338 105.174 11.6138C106.054 10.8938 107.27 10.5338 108.822 10.5338Z" fill="#212529"/>
</svg>
