<svg width="116" height="32" viewBox="0 0 116 32" fill="none" xmlns="http://www.w3.org/2000/svg">
<path fill-rule="evenodd" clip-rule="evenodd" d="M17.8409 0.743411C16.0767 -0.247804 13.9233 -0.247803 12.1591 0.743412L2.95904 5.91227C1.13132 6.93914 0 8.87239 0 10.9688V21.0356C0 23.132 1.13132 25.0653 2.95904 26.0921L12.1591 31.261C13.9233 32.2522 16.0767 32.2522 17.8409 31.261L27.041 26.0921C28.8687 25.0653 30 23.132 30 21.0356V10.9688C30 8.8724 28.8687 6.93914 27.041 5.91227L17.8409 0.743411ZM16.8523 3.83384C15.9275 3.3011 14.7794 3.29509 13.8489 3.81812L4.93155 8.8302L5.80176 10.2963L4.93155 8.8302C4.08218 9.3076 3.55897 10.1896 3.55897 11.1441V14.0792C3.55897 15.061 4.11217 15.9636 4.99979 16.4303L14.4738 21.4108C15.3633 21.8785 16.474 21.5558 16.9546 20.6902C17.4351 19.8246 17.1036 18.7437 16.214 18.2761L7.22031 13.548V11.6583L15.3325 7.09877L23.7362 11.9403C24.6063 12.4415 25.7291 12.1615 26.2442 11.3149C26.7592 10.4682 26.4715 9.37558 25.6015 8.87435L16.8523 3.83384ZM16.387 11.2073C15.5095 10.7186 14.391 11.0148 13.8889 11.8688C13.3868 12.7227 13.6911 13.8111 14.5687 14.2997L22.7813 18.8725V20.3183L14.6691 24.8778L6.26533 20.0363C5.39531 19.5351 4.27248 19.8151 3.75741 20.6617C3.24234 21.5083 3.53008 22.601 4.4001 23.1022L13.1493 28.1427C14.074 28.6755 15.2221 28.6815 16.1527 28.1584L25.07 23.1464C25.9194 22.669 26.4426 21.7869 26.4426 20.8324V18.3559C26.4426 17.3975 25.9152 16.5125 25.0603 16.0365L16.387 11.2073Z" fill="white"/>
<path d="M44.12 10.536C45.736 10.536 47.032 10.944 48.008 11.76C48.984 12.576 49.592 13.664 49.832 15.024H46.664C46.536 14.384 46.248 13.872 45.8 13.488C45.352 13.104 44.768 12.912 44.048 12.912C43.472 12.912 43.024 13.048 42.704 13.32C42.384 13.592 42.224 13.96 42.224 14.424C42.224 14.792 42.352 15.088 42.608 15.312C42.864 15.536 43.184 15.712 43.568 15.84C43.952 15.968 44.504 16.12 45.224 16.296C46.232 16.52 47.048 16.76 47.672 17.016C48.312 17.256 48.856 17.648 49.304 18.192C49.768 18.72 50 19.44 50 20.352C50 21.488 49.552 22.408 48.656 23.112C47.776 23.816 46.584 24.168 45.08 24.168C43.352 24.168 41.968 23.784 40.928 23.016C39.888 22.232 39.256 21.12 39.032 19.68H42.272C42.352 20.336 42.64 20.856 43.136 21.24C43.632 21.608 44.28 21.792 45.08 21.792C45.656 21.792 46.096 21.656 46.4 21.384C46.704 21.096 46.856 20.728 46.856 20.28C46.856 19.896 46.72 19.584 46.448 19.344C46.192 19.104 45.864 18.92 45.464 18.792C45.08 18.664 44.528 18.512 43.808 18.336C42.816 18.112 42.008 17.888 41.384 17.664C40.776 17.424 40.248 17.048 39.8 16.536C39.368 16.024 39.152 15.32 39.152 14.424C39.152 13.272 39.592 12.336 40.472 11.616C41.352 10.896 42.568 10.536 44.12 10.536ZM59.1444 21.096V24H57.3684C55.8804 24 54.7364 23.64 53.9364 22.92C53.1524 22.2 52.7604 21 52.7604 19.32V13.56H50.9124V10.704H52.7604V7.416H56.1444V10.704H59.1204V13.56H56.1444V19.368C56.1444 20.008 56.2724 20.456 56.5284 20.712C56.7844 20.968 57.2164 21.096 57.8244 21.096H59.1444ZM66.3074 10.536C67.4274 10.536 68.3874 10.8 69.1874 11.328C69.9874 11.856 70.5554 12.568 70.8914 13.464V10.704H74.2514V24H70.8914V21.216C70.5554 22.112 69.9874 22.832 69.1874 23.376C68.3874 23.904 67.4274 24.168 66.3074 24.168C65.1874 24.168 64.1794 23.896 63.2834 23.352C62.3874 22.808 61.6834 22.024 61.1714 21C60.6754 19.96 60.4274 18.744 60.4274 17.352C60.4274 15.96 60.6754 14.752 61.1714 13.728C61.6834 12.688 62.3874 11.896 63.2834 11.352C64.1794 10.808 65.1874 10.536 66.3074 10.536ZM67.3634 13.488C66.3074 13.488 65.4594 13.832 64.8194 14.52C64.1794 15.208 63.8594 16.152 63.8594 17.352C63.8594 18.552 64.1794 19.496 64.8194 20.184C65.4594 20.856 66.3074 21.192 67.3634 21.192C68.3874 21.192 69.2274 20.848 69.8834 20.16C70.5554 19.456 70.8914 18.52 70.8914 17.352C70.8914 16.168 70.5554 15.232 69.8834 14.544C69.2274 13.84 68.3874 13.488 67.3634 13.488ZM82.8142 10.536C84.5262 10.536 85.9502 11 87.0862 11.928C88.2382 12.856 88.9582 14.12 89.2462 15.72H85.6702C85.5262 15.016 85.1982 14.464 84.6862 14.064C84.1742 13.648 83.5262 13.44 82.7422 13.44C81.8462 13.44 81.0942 13.776 80.4862 14.448C79.8942 15.104 79.5982 16.072 79.5982 17.352C79.5982 18.632 79.8942 19.608 80.4862 20.28C81.0942 20.936 81.8462 21.264 82.7422 21.264C83.5262 21.264 84.1742 21.064 84.6862 20.664C85.1982 20.248 85.5262 19.688 85.6702 18.984H89.2462C88.9582 20.584 88.2382 21.848 87.0862 22.776C85.9502 23.704 84.5262 24.168 82.8142 24.168C81.5182 24.168 80.3662 23.896 79.3582 23.352C78.3502 22.792 77.5662 22 77.0062 20.976C76.4462 19.952 76.1662 18.744 76.1662 17.352C76.1662 15.96 76.4462 14.752 77.0062 13.728C77.5662 12.688 78.3502 11.896 79.3582 11.352C80.3662 10.808 81.5182 10.536 82.8142 10.536ZM98.9467 24L94.5547 18.192V24H91.1707V6.24H94.5547V16.224L98.9227 10.704H102.931L97.3387 17.328L103.075 24H98.9467ZM108.822 10.536C110.438 10.536 111.734 10.944 112.71 11.76C113.686 12.576 114.294 13.664 114.534 15.024H111.366C111.238 14.384 110.95 13.872 110.502 13.488C110.054 13.104 109.47 12.912 108.75 12.912C108.174 12.912 107.726 13.048 107.406 13.32C107.086 13.592 106.926 13.96 106.926 14.424C106.926 14.792 107.054 15.088 107.31 15.312C107.566 15.536 107.886 15.712 108.27 15.84C108.654 15.968 109.206 16.12 109.926 16.296C110.934 16.52 111.75 16.76 112.374 17.016C113.014 17.256 113.558 17.648 114.006 18.192C114.47 18.72 114.702 19.44 114.702 20.352C114.702 21.488 114.254 22.408 113.358 23.112C112.478 23.816 111.286 24.168 109.782 24.168C108.054 24.168 106.67 23.784 105.63 23.016C104.59 22.232 103.958 21.12 103.734 19.68H106.974C107.054 20.336 107.342 20.856 107.838 21.24C108.334 21.608 108.982 21.792 109.782 21.792C110.358 21.792 110.798 21.656 111.102 21.384C111.406 21.096 111.558 20.728 111.558 20.28C111.558 19.896 111.422 19.584 111.15 19.344C110.894 19.104 110.566 18.92 110.166 18.792C109.782 18.664 109.23 18.512 108.51 18.336C107.518 18.112 106.71 17.888 106.086 17.664C105.478 17.424 104.95 17.048 104.502 16.536C104.07 16.024 103.854 15.32 103.854 14.424C103.854 13.272 104.294 12.336 105.174 11.616C106.054 10.896 107.27 10.536 108.822 10.536Z" fill="white"/>
</svg>
