<svg width="72" height="72" viewBox="0 0 72 72" fill="none" xmlns="http://www.w3.org/2000/svg">
<g clip-path="url(#clip0_216_5039)">
<path d="M48.7055 4.2334C45.7528 4.2334 43.2643 6.25839 42.5552 8.99242L18.715 16.9391H6.35286C2.8499 16.9393 0 19.7892 0 23.2921V35.9979C0 39.5008 2.8499 42.3507 6.35286 42.3507H6.43639L8.60862 62.6623C8.90717 65.4424 12.3238 68.5892 16.3644 67.5729C19.7041 66.7387 21.7648 63.3847 21.0278 60.0417L20.5666 55.0497C20.6109 55.0525 20.655 55.0564 20.6998 55.0564H23.2938C26.7967 55.0564 29.6466 52.2065 29.6466 48.7036V45.9946L42.555 50.2974C43.264 53.0316 45.7525 55.0564 48.7054 55.0564C52.2083 55.0564 55.0582 52.2065 55.0582 48.7036V10.5864C55.0584 7.0833 52.2085 4.2334 48.7055 4.2334ZM15.3347 63.465C14.2523 63.7371 13.1373 63.1165 12.8016 62.0407L10.6959 42.3509H15.1408C16.9413 61.8482 16.8201 60.6622 16.8779 60.8945C17.161 62.0286 16.4702 63.1813 15.3347 63.465ZM16.9411 38.1155C15.063 38.1155 7.70272 38.1155 6.35286 38.1155C5.18526 38.1155 4.2352 37.1656 4.2352 35.9979V23.2921C4.2352 22.1245 5.18511 21.1745 6.35286 21.1745H16.9411V38.1155ZM25.4116 48.7037C25.4116 49.8713 24.4617 50.8214 23.2939 50.8214H20.7C20.5211 50.8214 20.3483 50.846 20.1825 50.8878L19.4156 42.5844L25.4116 44.583V48.7037ZM42.3527 45.7656L21.1764 38.7069V20.5831L42.3527 13.5243V45.7656ZM50.8232 48.7037C50.8232 49.8713 49.8733 50.8214 48.7055 50.8214C47.5379 50.8214 46.5878 49.8715 46.5878 48.7037V10.5864C46.5878 9.4188 47.5378 8.46873 48.7055 8.46873C49.8731 8.46873 50.8232 9.41865 50.8232 10.5864V48.7037Z" fill="black"/>
<path d="M69.8818 25.4082H61.4112C60.2418 25.4082 59.2936 26.3563 59.2936 27.5259C59.2936 28.6953 60.2417 29.6435 61.4112 29.6435H69.8818C71.0512 29.6435 71.9994 28.6954 71.9994 27.5259C71.9994 26.3563 71.0514 25.4082 69.8818 25.4082Z" fill="black"/>
<path d="M71.776 13.8761C71.253 12.83 69.9808 12.406 68.9348 12.9292L60.4643 17.1644C59.4182 17.6875 58.9942 18.9594 59.5173 20.0055C60.0407 21.0522 61.3129 21.4755 62.3585 20.9525L70.829 16.7173C71.8751 16.1942 72.299 14.9222 71.776 13.8761Z" fill="black"/>
<path d="M70.8287 38.3401L62.3582 34.1049C61.3122 33.5818 60.0402 34.0058 59.517 35.0519C58.994 36.098 59.418 37.3698 60.464 37.8931L68.9345 42.1283C69.9808 42.6516 71.2527 42.2272 71.7757 41.1813C72.2987 40.1352 71.8749 38.8633 70.8287 38.3401Z" fill="black"/>
</g>
<defs>
<clipPath id="clip0_216_5039">
<rect width="72" height="72" fill="white"/>
</clipPath>
</defs>
</svg>
