<svg width="96" height="57" viewBox="0 0 96 57" fill="none" xmlns="http://www.w3.org/2000/svg">
<path d="M95.9192 2.04188C96.0681 2.48839 95.9937 3.00932 95.7704 3.45583C95.6216 3.75351 95.4728 4.05119 95.1752 4.34886C86.6926 14.8419 78.1356 25.4094 69.5785 35.9025C65.6349 40.7397 61.6168 45.5769 57.5987 50.4142C57.2267 50.8607 56.7802 51.3072 56.2594 51.5305C55.5897 51.9025 54.92 51.6793 54.3247 51.1584C53.8783 50.7118 53.4318 50.3398 52.911 50.0421C50.3811 48.4793 47.7768 46.9909 45.2469 45.4281C44.726 45.1304 44.354 45.1304 43.9075 45.5025C40.4103 48.3304 36.9875 51.1584 33.4903 53.9119C32.523 54.656 31.4068 55.2514 30.2907 55.7723C29.3234 56.2933 28.4305 55.9956 27.984 54.9537C24.338 46.9165 20.5432 38.8792 17.6412 30.4699C17.5668 30.2466 17.3436 29.949 17.1203 29.8001C14.5905 28.2373 12.0606 26.6745 9.60506 25.0373C6.62871 23.1024 3.65236 21.0931 0.750417 19.0838C-0.291306 18.1908 -0.0680793 16.628 0.824826 16.107C2.313 15.4373 4.0244 14.9908 5.6614 14.6931C13.8464 13.2791 22.1057 11.9396 30.3651 10.6C39.5918 9.11167 48.8185 7.69771 58.1196 6.20933C66.4534 4.94421 74.7127 3.67909 83.0465 2.41397C86.3949 1.89304 89.6689 1.3721 93.0173 0.925591C93.687 0.851172 94.4311 0.851172 95.1008 1.00001C95.4728 1.22327 95.7704 1.52094 95.9192 2.04188ZM55.8873 46.5444C66.6022 33.5955 77.3171 20.6466 88.1063 7.62329L87.9575 7.40004C69.8762 16.3303 51.5716 24.8141 33.6391 33.8932C33.1926 34.1164 33.1926 34.7118 33.6391 35.0095C40.8568 38.9537 47.9256 42.8234 55.1432 46.6932C55.3665 46.8421 55.6641 46.7676 55.8873 46.5444ZM6.5543 17.8187C5.95903 17.8931 5.81021 18.6373 6.33108 19.0094C6.77753 19.3071 7.14957 19.5303 7.59602 19.828C11.0932 22.0606 14.5905 24.3675 18.0133 26.6001C18.5341 26.8978 18.9062 26.8978 19.5014 26.6745C21.2128 25.8559 24.1892 24.7396 25.975 24.1443C40.7823 18.935 55.5153 13.8001 70.3226 8.66516C71.1411 8.36748 72.034 8.06981 72.8525 7.77213L72.7781 7.62329C50.7531 10.9721 28.7281 14.3954 6.5543 17.8187ZM26.9423 44.0886C27.0911 44.4607 27.6864 44.3118 27.6864 43.9397V37.5397C27.6864 36.4978 27.612 35.456 27.6864 34.4885C27.7608 33.9676 28.1329 33.3722 28.5793 33.0746C30.5883 31.8094 32.5974 30.6187 34.6808 29.5769C44.8004 24.5908 54.92 19.7536 65.0396 14.8419C66.2301 14.2466 67.4951 13.6512 68.6856 13.0559L68.6112 12.907L21.5849 29.1304C20.9152 29.3536 20.5432 30.1722 20.8408 30.842C22.8498 35.2327 24.9333 39.6234 26.9423 44.0886ZM31.258 37.763L30.9604 37.9118C31.0348 42.0048 31.1092 46.0979 31.1836 50.3398C31.1836 50.8607 31.7789 51.0839 32.1509 50.7863C34.9785 48.3304 37.7316 46.0235 40.4847 43.642C40.7823 43.3444 40.7079 42.8979 40.4103 42.6746C37.2851 41.0374 34.2344 39.4002 31.258 37.763Z" fill="#65E2CA"/>
</svg>
