<svg width="72" height="72" viewBox="0 0 72 72" fill="none" xmlns="http://www.w3.org/2000/svg">
<g clip-path="url(#clip0_227_1972)">
<g clip-path="url(#clip1_227_1972)">
<path d="M66.0052 11.0205H6.6615C3.17224 11.0205 0.333374 13.8594 0.333374 17.3486V55.3174C0.333374 58.8066 3.17224 61.6455 6.6615 61.6455H66.0052C69.4945 61.6455 72.3334 58.8066 72.3334 55.3174V17.3486C72.3334 13.8594 69.4945 11.0205 66.0052 11.0205ZM68.1146 55.3174C68.1146 56.4803 67.1682 57.4268 66.0052 57.4268H6.6615C5.4986 57.4268 4.55212 56.4803 4.55212 55.3174V17.3486C4.55212 16.1857 5.4986 15.2393 6.6615 15.2393H66.0052C67.1682 15.2393 68.1146 16.1857 68.1146 17.3486V55.3174Z" fill="black"/>
<path d="M26.5742 35.759C27.7465 34.4027 28.4584 32.6372 28.4584 30.708C28.4584 26.4431 24.9889 22.9736 20.724 22.9736C16.4591 22.9736 12.9896 26.4431 12.9896 30.708C12.9896 32.6372 13.7015 34.4027 14.8738 35.759C11.2351 37.8101 8.77087 41.7103 8.77087 46.1768V47.583C8.77087 48.7481 9.71515 49.6924 10.8802 49.6924H30.5677C31.7328 49.6924 32.6771 48.7481 32.6771 47.583V46.1768C32.6771 41.7103 30.2129 37.8101 26.5742 35.759ZM17.2084 30.708C17.2084 28.7695 18.7855 27.1924 20.724 27.1924C22.6625 27.1924 24.2396 28.7695 24.2396 30.708C24.2396 32.6465 22.6625 34.2236 20.724 34.2236C18.7855 34.2236 17.2084 32.6465 17.2084 30.708ZM13.0215 45.4736C13.3774 41.5372 16.6959 38.4424 20.724 38.4424C24.7521 38.4424 28.0706 41.5372 28.4265 45.4736H13.0215Z" fill="black"/>
<path d="M61.7865 42.6611H39.2865C38.1214 42.6611 37.1771 43.6054 37.1771 44.7705C37.1771 45.9356 38.1214 46.8799 39.2865 46.8799H61.7865C62.9516 46.8799 63.8959 45.9356 63.8959 44.7705C63.8959 43.6054 62.9516 42.6611 61.7865 42.6611Z" fill="black"/>
<path d="M61.7865 34.2236H39.2865C38.1214 34.2236 37.1771 35.1679 37.1771 36.333C37.1771 37.4981 38.1214 38.4424 39.2865 38.4424H61.7865C62.9516 38.4424 63.8959 37.4981 63.8959 36.333C63.8959 35.1679 62.9516 34.2236 61.7865 34.2236Z" fill="black"/>
<path d="M39.2865 30.0049H47.724C48.8891 30.0049 49.8334 29.0606 49.8334 27.8955C49.8334 26.7304 48.8891 25.7861 47.724 25.7861H39.2865C38.1214 25.7861 37.1771 26.7304 37.1771 27.8955C37.1771 29.0606 38.1214 30.0049 39.2865 30.0049Z" fill="black"/>
</g>
</g>
<defs>
<clipPath id="clip0_227_1972">
<rect width="72" height="72" fill="white"/>
</clipPath>
<clipPath id="clip1_227_1972">
<rect width="72" height="72" fill="white" transform="translate(0.333374 0.333008)"/>
</clipPath>
</defs>
</svg>
