<svg width="73" height="72" viewBox="0 0 73 72" fill="none" xmlns="http://www.w3.org/2000/svg">
<g clip-path="url(#clip0_227_2000)">
<path d="M36.3368 12.8018C23.5456 12.8018 13.1392 23.2082 13.1392 35.9994C13.1392 48.7906 23.5456 59.1971 36.3368 59.1971C49.1281 59.1971 59.5345 48.7906 59.5345 35.9994C59.5345 23.2082 49.1282 12.8018 36.3368 12.8018ZM36.3368 54.9794C25.8713 54.9794 17.3569 46.465 17.3569 35.9994C17.3569 25.5339 25.8713 17.0195 36.3368 17.0195C46.8024 17.0195 55.3168 25.5339 55.3168 35.9994C55.3168 46.465 46.8025 54.9794 36.3368 54.9794Z" fill="white"/>
<path d="M45.3901 28.1821L34.228 39.3442L27.2836 32.3999C26.4601 31.5763 25.1248 31.5763 24.3012 32.3999C23.4776 33.2235 23.4776 34.5587 24.3012 35.3823L32.7367 43.8178C33.1485 44.2296 33.6882 44.4356 34.2278 44.4356C34.7674 44.4356 35.3073 44.2297 35.719 43.8178L48.3722 31.1645C49.1958 30.3409 49.1958 29.0057 48.3722 28.1821C47.5489 27.3586 46.2136 27.3586 45.3901 28.1821Z" fill="white"/>
<path d="M69.3202 21.2136C69.3131 21.2092 61.9546 16.8045 61.9546 16.8045L60.3027 9.96355C59.5698 6.92802 56.7787 4.89914 53.6647 5.14068L45.2792 5.78965C45.2792 5.78965 40.4489 1.52662 40.4393 1.51861C38.0622 -0.506202 34.6114 -0.506202 32.2342 1.51861C32.2248 1.52662 27.3944 5.78965 27.3944 5.78965L19.0089 5.14068C15.9199 4.90083 13.1501 6.89428 12.3895 9.88791L10.09 17.215C10.09 17.215 3.36872 21.2081 3.35986 21.2136C0.699438 22.8487 -0.366953 26.1305 0.824424 29.0171L3.69363 35.9701L0.824424 42.923C-0.366953 45.8096 0.699438 49.0914 3.36 50.7265C3.36816 50.7316 10.7124 55.1077 10.7124 55.1077L12.3711 61.9766C13.0645 64.8487 15.6005 66.8191 18.5088 66.8188C18.9536 66.8188 18.454 66.8357 27.3073 66.1572C27.3073 66.1572 32.2265 70.4739 32.2344 70.4806C33.4229 71.493 34.8799 71.9992 36.337 71.9992C37.7939 71.9992 39.251 71.493 40.4396 70.4806C40.4475 70.4738 45.3667 66.1572 45.3667 66.1572L53.6648 66.7994C56.7778 67.04 59.5701 65.0121 60.3029 61.9766L61.9547 55.1355C70.9592 49.7455 69.0499 50.8933 69.3203 50.7264C71.9806 49.0913 73.047 45.8095 71.8556 42.9228L68.9864 35.9698L71.8556 29.0169C73.0468 26.1305 71.9806 22.8488 69.3202 21.2136ZM64.7554 36.7746L67.9567 44.532C68.3526 45.4912 68.0007 46.5813 67.1202 47.1281L59.0293 51.9713C58.5436 52.2619 58.1953 52.7356 58.0624 53.2857L56.2028 60.9869C55.9586 61.9986 55.0295 62.6745 53.9902 62.5945L44.8061 61.8836C44.2405 61.8399 43.6794 62.0263 43.2524 62.4011L37.6945 67.2784C36.9057 67.9423 35.768 67.9423 34.9792 67.2781L29.4216 62.4011C28.9944 62.0263 28.4332 61.8395 27.8679 61.8836L18.6838 62.5945C17.6453 62.6746 16.7154 61.9986 16.4712 60.9868L14.6043 53.2552C14.4711 52.7037 14.1212 52.229 13.6338 51.9386L5.5583 47.1268C4.67904 46.5796 4.32784 45.4905 4.72346 44.5319L7.92475 36.7745C8.13746 36.2592 8.13746 35.6808 7.92475 35.1655L4.72304 27.4081C4.3277 26.4501 4.67847 25.3615 5.55675 24.814L12.9378 20.4291C13.3844 20.1638 13.7173 19.7431 13.8728 19.2475C16.5929 10.5748 16.4394 11.0839 16.4709 10.9533C16.7151 9.94162 17.6425 9.2648 18.6836 9.34579L27.9584 10.0636C28.5275 10.1075 29.0891 9.9194 29.5166 9.54219L34.9811 4.71932C35.7689 4.0577 36.9043 4.0577 37.6922 4.71904L43.157 9.54219C43.5845 9.91968 44.1474 10.1075 44.7152 10.0636L53.99 9.34579C55.0274 9.26565 55.9584 9.94147 56.2026 10.9535L58.0623 18.6545C58.1951 19.2047 58.5435 19.6783 59.0291 19.9691L67.12 24.8122C68.0006 25.3589 68.3526 26.4489 67.9566 27.4081L64.7553 35.1655C64.5427 35.6809 64.5427 36.2593 64.7554 36.7746Z" fill="white"/>
</g>
<defs>
<clipPath id="clip0_227_2000">
<rect width="72" height="72" fill="white" transform="translate(0.339966)"/>
</clipPath>
</defs>
</svg>
