<svg width="88" height="17" viewBox="0 0 88 17" fill="none" xmlns="http://www.w3.org/2000/svg">
<path d="M79.5383 1.60997C79.7091 1.19932 80.2909 1.19932 80.4617 1.60996L81.9987 5.30556C82.0707 5.47868 82.2336 5.59696 82.4204 5.61194L86.4102 5.9318C86.8535 5.96734 87.0332 6.52059 86.6955 6.80993L83.6557 9.41378C83.5133 9.53576 83.4512 9.72715 83.4947 9.90952L84.4234 13.8028C84.5265 14.2354 84.0559 14.5773 83.6764 14.3455L80.2606 12.2592C80.1006 12.1615 79.8994 12.1615 79.7394 12.2592L76.3236 14.3455C75.9441 14.5773 75.4735 14.2354 75.5766 13.8028L76.5053 9.90952C76.5488 9.72715 76.4867 9.53576 76.3443 9.41378L73.3045 6.80993C72.9668 6.52059 73.1465 5.96734 73.5898 5.9318L77.5796 5.61194C77.7664 5.59696 77.9293 5.47868 78.0013 5.30556L79.5383 1.60997Z" fill="#FD7E14"/>
<path d="M61.5383 1.60997C61.7091 1.19932 62.2909 1.19932 62.4617 1.60996L63.9987 5.30556C64.0707 5.47868 64.2336 5.59696 64.4204 5.61194L68.4102 5.9318C68.8535 5.96734 69.0332 6.52059 68.6955 6.80993L65.6557 9.41378C65.5133 9.53576 65.4512 9.72715 65.4947 9.90952L66.4234 13.8028C66.5265 14.2354 66.0559 14.5773 65.6764 14.3455L62.2606 12.2592C62.1006 12.1615 61.8994 12.1615 61.7394 12.2592L58.3236 14.3455C57.9441 14.5773 57.4735 14.2354 57.5766 13.8028L58.5053 9.90952C58.5488 9.72715 58.4867 9.53576 58.3443 9.41378L55.3045 6.80993C54.9668 6.52059 55.1465 5.96734 55.5898 5.9318L59.5796 5.61194C59.7664 5.59696 59.9293 5.47868 60.0013 5.30556L61.5383 1.60997Z" fill="#FD7E14"/>
<path d="M43.5383 1.60997C43.7091 1.19932 44.2909 1.19932 44.4617 1.60996L45.9987 5.30556C46.0707 5.47868 46.2336 5.59696 46.4204 5.61194L50.4102 5.9318C50.8535 5.96734 51.0332 6.52059 50.6955 6.80993L47.6557 9.41378C47.5133 9.53576 47.4512 9.72715 47.4947 9.90952L48.4234 13.8028C48.5265 14.2354 48.0559 14.5773 47.6764 14.3455L44.2606 12.2592C44.1006 12.1615 43.8994 12.1615 43.7394 12.2592L40.3236 14.3455C39.9441 14.5773 39.4735 14.2354 39.5766 13.8028L40.5053 9.90952C40.5488 9.72715 40.4867 9.53576 40.3443 9.41378L37.3045 6.80993C36.9668 6.52059 37.1465 5.96734 37.5898 5.9318L41.5796 5.61194C41.7664 5.59696 41.9293 5.47868 42.0013 5.30556L43.5383 1.60997Z" fill="#FD7E14"/>
<path d="M25.5383 1.60997C25.7091 1.19932 26.2909 1.19932 26.4617 1.60996L27.9987 5.30556C28.0707 5.47868 28.2336 5.59696 28.4204 5.61194L32.4102 5.9318C32.8535 5.96734 33.0332 6.52059 32.6955 6.80993L29.6557 9.41378C29.5133 9.53576 29.4512 9.72715 29.4947 9.90952L30.4234 13.8028C30.5265 14.2354 30.0559 14.5773 29.6764 14.3455L26.2606 12.2592C26.1006 12.1615 25.8994 12.1615 25.7394 12.2592L22.3236 14.3455C21.9441 14.5773 21.4735 14.2354 21.5766 13.8028L22.5053 9.90952C22.5488 9.72715 22.4867 9.53576 22.3443 9.41378L19.3045 6.80993C18.9668 6.52059 19.1465 5.96734 19.5898 5.9318L23.5796 5.61194C23.7664 5.59696 23.9293 5.47868 24.0013 5.30556L25.5383 1.60997Z" fill="#FD7E14"/>
<path d="M7.53834 1.60997C7.70914 1.19932 8.29086 1.19932 8.46166 1.60996L9.99874 5.30556C10.0707 5.47868 10.2336 5.59696 10.4204 5.61194L14.4102 5.9318C14.8535 5.96734 15.0332 6.52059 14.6955 6.80993L11.6557 9.41378C11.5133 9.53576 11.4512 9.72715 11.4947 9.90952L12.4234 13.8028C12.5265 14.2354 12.0559 14.5773 11.6764 14.3455L8.26063 12.2592C8.10062 12.1615 7.89938 12.1615 7.73937 12.2592L4.32363 14.3455C3.94408 14.5773 3.47345 14.2354 3.57665 13.8028L4.50534 9.90952C4.54884 9.72715 4.48665 9.53576 4.34426 9.41378L1.30453 6.80993C0.966758 6.52059 1.14652 5.96734 1.58985 5.9318L5.57955 5.61194C5.76645 5.59696 5.92925 5.47868 6.00126 5.30556L7.53834 1.60997Z" fill="#FD7E14"/>
</svg>
