<svg width="72" height="72" viewBox="0 0 72 72" fill="none" xmlns="http://www.w3.org/2000/svg">
<g clip-path="url(#clip0_227_1935)">
<path d="M65.6719 0H6.32812C2.8388 0 0 2.8388 0 6.32812V48.5156C0 52.005 2.8388 54.8438 6.32812 54.8438H26.8594V59.3438H23.3438C22.4359 59.3438 21.6297 59.9247 21.3427 60.7861L18.5302 69.2236C18.0748 70.5894 19.0914 72 20.5312 72H65.6719C69.1612 72 72 69.1612 72 65.6719V6.32812C72 2.8388 69.1612 0 65.6719 0ZM6.32812 50.625C5.16502 50.625 4.21875 49.6787 4.21875 48.5156V46.4062H39.6562V50.625H6.32812ZM39.6562 54.8438V59.3438H31.0781V54.8438H39.6562ZM23.4579 67.7812L24.8642 63.5625H39.6562V65.6719C39.6562 66.4113 39.7849 67.121 40.0191 67.7812H23.4579ZM67.7812 65.6719C67.7812 66.835 66.835 67.7812 65.6719 67.7812H45.9844C44.8213 67.7812 43.875 66.835 43.875 65.6719V29.9829L52.1419 38.25H50.2031C49.0382 38.25 48.0938 39.1944 48.0938 40.3594C48.0938 41.5243 49.0382 42.4688 50.2031 42.4688H57.2344C58.3993 42.4688 59.3438 41.5243 59.3438 40.3594V33.3281C59.3438 32.1632 58.3993 31.2188 57.2344 31.2188C56.0694 31.2188 55.125 32.1632 55.125 33.3281V35.2669L46.8581 27H65.6719C66.835 27 67.7812 27.9463 67.7812 29.1094V65.6719ZM67.7812 23.1441C67.121 22.9099 66.4114 22.7812 65.6719 22.7812H45.9844C42.495 22.7812 39.6562 25.62 39.6562 29.1094V42.1875H4.21875V7.20169L12.4857 15.4688H10.5469C9.38194 15.4688 8.4375 16.4132 8.4375 17.5781C8.4375 18.7431 9.38194 19.6875 10.5469 19.6875H17.5781C18.7431 19.6875 19.6875 18.7431 19.6875 17.5781V10.5469C19.6875 9.38194 18.7431 8.4375 17.5781 8.4375C16.4132 8.4375 15.4688 9.38194 15.4688 10.5469V12.4857L7.20183 4.21875H65.6719C66.835 4.21875 67.7812 5.16502 67.7812 6.32812V23.1441Z" fill="black"/>
</g>
<defs>
<clipPath id="clip0_227_1935">
<rect width="72" height="72" fill="white"/>
</clipPath>
</defs>
</svg>
