<svg width="64" height="64" viewBox="0 0 64 64" fill="none" xmlns="http://www.w3.org/2000/svg">
<g clip-path="url(#clip0_216_4980)">
<path d="M56.0098 0H8.00977C3.59149 0 0.00976562 3.58172 0.00976562 8V56C0.00976562 60.4183 3.59149 64 8.00977 64H56.0098C60.428 64 64.0098 60.4183 64.0098 56V8C64.0098 3.58172 60.428 0 56.0098 0Z" fill="black"/>
<g clip-path="url(#clip1_216_4980)">
<path d="M21.5625 19.8125C20.0117 19.8125 18.75 21.0742 18.75 22.625V26.375C18.75 26.8927 19.1697 27.3125 19.6875 27.3125C20.2053 27.3125 20.625 26.8927 20.625 26.375V25.4375H22.5V26.375C22.5 26.8927 22.9198 27.3125 23.4375 27.3125C23.9552 27.3125 24.375 26.8927 24.375 26.375V22.625C24.375 21.0742 23.1133 19.8125 21.5625 19.8125ZM20.625 23.5625V22.625C20.625 22.1081 21.0456 21.6875 21.5625 21.6875C22.0794 21.6875 22.5 22.1081 22.5 22.625V23.5625H20.625Z" fill="white"/>
<path d="M28.125 19.8125H27.1875C26.6697 19.8125 26.25 20.2322 26.25 20.75V26.375C26.25 26.8927 26.6697 27.3125 27.1875 27.3125H28.125C30.1927 27.3125 31.875 25.6302 31.875 23.5625C31.875 21.4948 30.1927 19.8125 28.125 19.8125ZM28.125 25.4375V21.6875C29.1589 21.6875 30 22.5286 30 23.5625C30 24.5964 29.1589 25.4375 28.125 25.4375Z" fill="white"/>
<path d="M46.0625 31.0625C46.5802 31.0625 47 30.6427 47 30.125V17C47 16.4822 46.5802 16.0625 46.0625 16.0625H15.9375C15.4197 16.0625 15 16.4822 15 17V30.125C15 30.6427 15.4197 31.0625 15.9375 31.0625H31.6192L32.1004 32.9375H29.0625C28.5448 32.9375 28.125 33.3573 28.125 33.875V47C28.125 47.5177 28.5448 47.9375 29.0625 47.9375H46.0625C46.5802 47.9375 47 47.5177 47 47V33.875C47 33.3573 46.5802 32.9375 46.0625 32.9375H42.4478L38.614 31.0625H46.0625ZM16.875 29.1875V17.9375H45.125V29.1875H34.7803L32.4403 28.0431C31.7234 27.6924 30.9219 28.3449 31.1203 29.1182L31.1381 29.1874H16.875V29.1875ZM45.125 46.0625H30V34.8125H32.5816L33.9801 40.2617C34.1513 40.929 34.9619 41.1899 35.4902 40.7474L36.8242 39.6298L38.2452 41.3333C38.5768 41.7308 39.1696 41.785 39.5678 41.4509L42.8006 38.7381C43.1964 38.406 43.2489 37.8162 42.9179 37.4194L41.4944 35.7129L42.5691 34.8125H45.125V46.0625ZM39.4552 36.1956L40.8792 37.9027L39.0826 39.4102L37.6621 37.7073C37.3293 37.3084 36.7366 37.257 36.3401 37.5892L35.4263 38.3547L33.4414 30.6199L40.5209 34.0823L39.5729 34.8764C39.1768 35.2084 39.124 35.7986 39.4552 36.1956Z" fill="white"/>
<path d="M25.3125 32.9375H15.9375C15.4197 32.9375 15 33.3572 15 33.875V47C15 47.5177 15.4197 47.9375 15.9375 47.9375H25.3125C25.8302 47.9375 26.25 47.5177 26.25 47V33.875C26.25 33.3572 25.8302 32.9375 25.3125 32.9375ZM24.375 46.0625H16.875V34.8125H24.375V46.0625Z" fill="white"/>
<path d="M34.6875 22.625H42.1875C42.7052 22.625 43.125 22.2053 43.125 21.6875C43.125 21.1697 42.7052 20.75 42.1875 20.75H34.6875C34.1697 20.75 33.75 21.1697 33.75 21.6875C33.75 22.2053 34.1697 22.625 34.6875 22.625Z" fill="white"/>
<path d="M34.6875 26.375H42.1875C42.7052 26.375 43.125 25.9553 43.125 25.4375C43.125 24.9197 42.7052 24.5 42.1875 24.5H34.6875C34.1697 24.5 33.75 24.9197 33.75 25.4375C33.75 25.9553 34.1697 26.375 34.6875 26.375Z" fill="white"/>
</g>
</g>
<defs>
<clipPath id="clip0_216_4980">
<rect width="64" height="64" fill="white" transform="translate(0.00976562)"/>
</clipPath>
<clipPath id="clip1_216_4980">
<rect width="32" height="32" fill="white" transform="translate(15 16)"/>
</clipPath>
</defs>
</svg>
