<svg width="64" height="64" viewBox="0 0 64 64" fill="none" xmlns="http://www.w3.org/2000/svg">
<g clip-path="url(#clip0_216_4965)">
<path d="M56.0098 0H8.00977C3.59149 0 0.00976562 3.58172 0.00976562 8V56C0.00976562 60.4183 3.59149 64 8.00977 64H56.0098C60.428 64 64.0098 60.4183 64.0098 56V8C64.0098 3.58172 60.428 0 56.0098 0Z" fill="black"/>
<g clip-path="url(#clip1_216_4965)">
<path d="M29.9731 42.8438H26.2917C25.7739 42.8438 25.354 43.2637 25.354 43.7817C25.354 44.2996 25.7739 44.7195 26.2917 44.7195H29.9731C30.491 44.7195 30.9109 44.2996 30.9109 43.7817C30.9109 43.2637 30.491 42.8438 29.9731 42.8438Z" fill="white"/>
<path d="M40.2261 24.6614H38.1196V19.9404C38.1194 17.9514 36.5012 16.333 34.512 16.333H21.7534C19.7644 16.333 18.146 17.9514 18.146 19.9404V44.7256C18.146 46.7146 19.7644 48.333 21.7534 48.333H34.512C36.5012 48.333 38.1194 46.7146 38.1194 44.7256V36.7141H40.2261C42.5847 36.7141 44.5037 34.7952 44.5037 32.4363V28.9392C44.5039 26.5806 42.5847 24.6614 40.2261 24.6614ZM30.9231 18.2087V19.1362H25.3423V18.2087H30.9231ZM36.2437 44.7256C36.2437 45.6804 35.4668 46.4573 34.512 46.4573H21.7534C20.7986 46.4573 20.0217 45.6804 20.0217 44.7256V19.9404C20.0217 18.9856 20.7986 18.2087 21.7534 18.2087H23.4666V19.2126C23.4666 20.2048 24.2737 21.012 25.2659 21.012H30.9998C31.9917 21.012 32.7988 20.2048 32.7988 19.2126V18.2087H34.512C35.4668 18.2087 36.2437 18.9856 36.2437 19.9404V24.6614H31.4727C29.1138 24.6614 27.1948 26.5803 27.1948 28.9392V37.2456C27.1948 37.676 27.4321 38.0667 27.814 38.2651C27.9814 38.3523 28.1633 38.3953 28.3445 38.3953C28.5459 38.3953 28.7463 38.342 28.925 38.2371L31.9417 36.7141H36.2437V44.7256ZM42.6282 32.4363C42.6282 33.761 41.5505 34.8384 40.2261 34.8384H31.7639C31.5579 34.8384 31.3589 34.8928 31.1826 34.9961L29.0706 36.0625V28.9392C29.0706 27.6147 30.1482 26.5371 31.4727 26.5371H40.2261C41.5505 26.5371 42.6282 27.6147 42.6282 28.9392V32.4363Z" fill="white"/>
<path d="M39.9524 28.0137H31.7458C31.228 28.0137 30.8081 28.4336 30.8081 28.9514C30.8081 29.4695 31.228 29.8894 31.7458 29.8894H39.9524C40.4702 29.8894 40.8901 29.4695 40.8901 28.9514C40.8901 28.4336 40.4702 28.0137 39.9524 28.0137Z" fill="white"/>
<path d="M39.9526 31.2158H35.8494C35.3313 31.2158 34.9116 31.6357 34.9116 32.1536C34.9116 32.6716 35.3313 33.0916 35.8494 33.0916H39.9526C40.4705 33.0916 40.8904 32.6716 40.8904 32.1536C40.8904 31.6357 40.4705 31.2158 39.9526 31.2158Z" fill="white"/>
</g>
</g>
<defs>
<clipPath id="clip0_216_4965">
<rect width="64" height="64" fill="white" transform="translate(0.00976562)"/>
</clipPath>
<clipPath id="clip1_216_4965">
<rect width="32" height="32" fill="white" transform="translate(15.3335 16.333)"/>
</clipPath>
</defs>
</svg>
