<svg width="65" height="64" viewBox="0 0 65 64" fill="none" xmlns="http://www.w3.org/2000/svg">
<g clip-path="url(#clip0_216_4985)">
<path d="M56.6699 0H8.66992C4.25164 0 0.669922 3.58172 0.669922 8V56C0.669922 60.4183 4.25164 64 8.66992 64H56.6699C61.0882 64 64.6699 60.4183 64.6699 56V8C64.6699 3.58172 61.0882 0 56.6699 0Z" fill="black"/>
<g clip-path="url(#clip1_216_4985)">
<path d="M37.0344 16.333C30.8315 16.333 25.7856 21.3796 25.7856 27.5825C25.7856 29.7158 26.3823 31.7119 27.4182 33.4131L17.2017 43.6299C16.1279 44.7019 16.127 46.4509 17.2017 47.5256C18.2781 48.602 20.0207 48.6023 21.0974 47.5256L31.3415 37.2807C33.012 38.2659 34.9585 38.831 37.0344 38.831C43.237 38.831 48.2832 33.7844 48.2832 27.5825C48.2832 21.3796 43.237 16.333 37.0344 16.333ZM19.7122 46.1404C19.4006 46.4531 18.8967 46.4512 18.5862 46.1404C18.2761 45.8303 18.2761 45.3249 18.5862 45.0144L28.592 35.0085C28.9431 35.4072 29.3225 35.7807 29.7258 36.1267L19.7122 46.1404ZM37.0344 36.8728C31.9121 36.8728 27.7439 32.7056 27.7439 27.5825C27.7439 22.4595 31.9114 18.2913 37.0344 18.2913C42.1575 18.2913 46.3247 22.4595 46.3247 27.5825C46.3247 32.7048 42.1575 36.8728 37.0344 36.8728Z" fill="white"/>
<path d="M42.2583 26.6038H37.0342C36.4929 26.6038 36.0549 27.0417 36.0549 27.583C36.0549 28.1233 36.4929 28.562 37.0342 28.562H41.1655C40.7224 30.4324 39.0381 31.8279 37.0342 31.8279C34.6934 31.8279 32.7886 29.9238 32.7886 27.583C32.7886 25.2415 34.6934 23.3372 37.0342 23.3372C37.8848 23.3372 38.7053 23.5879 39.407 24.0618C39.8547 24.3647 40.4639 24.2466 40.7668 23.7988C41.0691 23.3503 40.9514 22.7419 40.5029 22.439C39.4768 21.7456 38.2771 21.3789 37.0342 21.3789C33.6135 21.3789 30.8301 24.1616 30.8301 27.583C30.8301 31.0139 33.6235 33.7864 37.0342 33.7864C40.4548 33.7864 43.2375 31.0034 43.2375 27.583C43.2375 27.0417 42.7996 26.6038 42.2583 26.6038Z" fill="white"/>
</g>
</g>
<defs>
<clipPath id="clip0_216_4985">
<rect width="64" height="64" fill="white" transform="translate(0.669922)"/>
</clipPath>
<clipPath id="clip1_216_4985">
<rect width="32" height="32" fill="white" transform="translate(16.3335 16.333)"/>
</clipPath>
</defs>
</svg>
