<svg width="65" height="64" viewBox="0 0 65 64" fill="none" xmlns="http://www.w3.org/2000/svg">
<g clip-path="url(#clip0_216_4955)">
<path d="M56.6699 0H8.66992C4.25164 0 0.669922 3.58172 0.669922 8V56C0.669922 60.4183 4.25164 64 8.66992 64H56.6699C61.0882 64 64.6699 60.4183 64.6699 56V8C64.6699 3.58172 61.0882 0 56.6699 0Z" fill="black"/>
<g clip-path="url(#clip1_216_4955)">
<path d="M37.6474 17.8809C36.3351 17.8809 35.2291 18.7809 34.9139 19.996L24.3183 23.5278H18.824C17.2671 23.5279 16.0005 24.7945 16.0005 26.3514V31.9984C16.0005 33.5553 17.2671 34.8219 18.824 34.8219H18.8611L19.8265 43.8492C19.9592 45.0849 21.4777 46.4834 23.2735 46.0317C24.7578 45.661 25.6737 44.1703 25.3462 42.6846L25.1412 40.4659C25.1609 40.4671 25.1805 40.4689 25.2004 40.4689H26.3533C27.9102 40.4689 29.1768 39.2023 29.1768 37.6454V36.4414L34.9138 38.3538C35.229 39.5689 36.335 40.4689 37.6473 40.4689C39.2042 40.4689 40.4708 39.2023 40.4708 37.6454V20.7044C40.4709 19.1475 39.2043 17.8809 37.6474 17.8809ZM22.8159 44.206C22.3349 44.3269 21.8393 44.0511 21.6901 43.573L20.7542 34.822H22.7297C23.53 43.4874 23.4761 42.9603 23.5018 43.0636C23.6276 43.5676 23.3206 44.0799 22.8159 44.206ZM23.5298 32.9396C22.6952 32.9396 19.4239 32.9396 18.824 32.9396C18.305 32.9396 17.8828 32.5174 17.8828 31.9984V26.3514C17.8828 25.8325 18.305 25.4102 18.824 25.4102H23.5298V32.9396ZM27.2945 37.6454C27.2945 38.1644 26.8723 38.5866 26.3533 38.5866H25.2005C25.121 38.5866 25.0442 38.5976 24.9705 38.6161L24.6297 34.9258L27.2945 35.814V37.6454ZM34.8239 36.3396L25.4122 33.2024V25.1474L34.8239 22.0102V36.3396ZM38.5886 37.6454C38.5886 38.1644 38.1664 38.5866 37.6474 38.5866C37.1285 38.5866 36.7062 38.1644 36.7062 37.6454V20.7044C36.7062 20.1855 37.1284 19.7632 37.6474 19.7632C38.1663 19.7632 38.5886 20.1854 38.5886 20.7044V37.6454Z" fill="white"/>
<path d="M47.0594 27.2939H43.2947C42.775 27.2939 42.3535 27.7153 42.3535 28.2351C42.3535 28.7549 42.7749 29.1763 43.2947 29.1763H47.0594C47.5791 29.1763 48.0006 28.7549 48.0006 28.2351C48.0006 27.7153 47.5792 27.2939 47.0594 27.2939Z" fill="white"/>
<path d="M47.9009 22.166C47.6685 21.701 47.1031 21.5126 46.6382 21.7451L42.8735 23.6274C42.4086 23.8599 42.2201 24.4252 42.4526 24.8902C42.6852 25.3553 43.2507 25.5435 43.7154 25.311L47.4801 23.4287C47.945 23.1962 48.1334 22.6309 47.9009 22.166Z" fill="white"/>
<path d="M47.48 33.0395L43.7153 31.1572C43.2505 30.9247 42.6851 31.1131 42.4526 31.5781C42.2201 32.043 42.4086 32.6083 42.8735 32.8408L46.6381 34.7231C47.1031 34.9557 47.6684 34.7671 47.9009 34.3023C48.1333 33.8373 47.9449 33.272 47.48 33.0395Z" fill="white"/>
</g>
</g>
<defs>
<clipPath id="clip0_216_4955">
<rect width="64" height="64" fill="white" transform="translate(0.669922)"/>
</clipPath>
<clipPath id="clip1_216_4955">
<rect width="32" height="32" fill="white" transform="translate(16.0005 16)"/>
</clipPath>
</defs>
</svg>
