<svg width="65" height="64" viewBox="0 0 65 64" fill="none" xmlns="http://www.w3.org/2000/svg">
<g clip-path="url(#clip0_216_4990)">
<path d="M56.3298 0H8.32983C3.91156 0 0.329834 3.58172 0.329834 8V56C0.329834 60.4183 3.91156 64 8.32983 64H56.3298C60.7481 64 64.3298 60.4183 64.3298 56V8C64.3298 3.58172 60.7481 0 56.3298 0Z" fill="black"/>
<g clip-path="url(#clip1_216_4990)">
<path d="M46.3828 16.3955C45.0017 16.3955 17.3521 16.3955 16.2837 16.3955C15.759 16.3955 15.3333 16.8213 15.3333 17.3459V47.3562C15.3333 47.8809 15.759 48.3069 16.2837 48.3069H46.3828C46.9075 48.3069 47.3333 47.8809 47.3333 47.3562C47.3333 45.7854 47.3333 18.8669 47.3333 17.3459C47.3333 16.8213 46.9075 16.3955 46.3828 16.3955ZM45.4324 46.4058H17.2341V18.2964H26.6587L27.9153 21.9192C28.0483 22.3013 28.4082 22.5579 28.8132 22.5579H45.4324V46.4058ZM45.4324 20.657H29.49L28.6707 18.2964H45.4324V20.657Z" fill="white"/>
<path d="M19.6694 21.2485C20.1941 21.2485 20.6199 20.8235 20.6199 20.2981C20.6199 19.7734 20.1941 19.3477 19.6694 19.3477C19.1448 19.3477 18.719 19.7734 18.719 20.2981C18.719 20.8235 19.1448 21.2485 19.6694 21.2485Z" fill="white"/>
<path d="M22.3562 21.2485H25.0808C25.6062 21.2485 26.0315 20.8235 26.0315 20.2981C26.0315 19.7734 25.6062 19.3477 25.0808 19.3477H22.3562C21.8315 19.3477 21.4058 19.7734 21.4058 20.2981C21.4058 20.8235 21.8315 21.2485 22.3562 21.2485Z" fill="white"/>
<path d="M27.2461 28.0649C27.2461 30.3181 29.0793 32.1521 31.3333 32.1521C33.5872 32.1521 35.4204 30.3181 35.4204 28.0649C35.4204 27.5395 34.9946 27.1145 34.47 27.1145H31.3333C30.8086 27.1145 30.3828 27.5395 30.3828 28.0649C30.3828 28.5896 30.8086 29.0154 31.3333 29.0154H33.302C32.9478 29.7461 32.1982 30.251 31.3333 30.251C30.1279 30.251 29.1472 29.27 29.1472 28.0649C29.1472 26.8591 30.1279 25.8787 31.3333 25.8787C31.7717 25.8787 32.1938 26.0073 32.5549 26.2515C32.9897 26.5454 33.5808 26.4307 33.8748 25.9961C34.1682 25.5608 34.0542 24.9702 33.6189 24.676C30.9397 22.8657 27.2461 24.7727 27.2461 28.0649Z" fill="white"/>
<path d="M18.1848 34.5698V44.2439C18.1848 44.7686 18.6106 45.1943 19.1353 45.1943H43.4363C43.9609 45.1943 44.3867 44.7686 44.3867 44.2439V34.5698C44.3867 34.0449 43.9609 33.6191 43.4363 33.6191H19.1353C18.6106 33.6191 18.1848 34.0449 18.1848 34.5698ZM20.0857 35.5203H42.4858V43.2935H20.0857V35.5203Z" fill="white"/>
<path d="M36.0148 36.8682C35.1613 37.721 34.977 38.993 35.4604 40.0276L34.3483 41.1397C33.977 41.511 33.977 42.1131 34.3483 42.4837C34.7197 42.855 35.3203 42.8558 35.6923 42.4837L36.8051 41.3716C37.8432 41.8572 39.1152 41.6671 39.964 40.8172C41.0532 39.7286 41.0532 37.9568 39.964 36.8682C38.8752 35.7796 37.1035 35.7796 36.0148 36.8682ZM38.6198 39.4732C38.2722 39.8211 37.7067 39.8211 37.3588 39.4732C37.0131 39.1273 37.0082 38.5628 37.3588 38.2122C37.7062 37.8651 38.2726 37.8651 38.6198 38.2122C38.9658 38.5582 38.9706 39.1226 38.6198 39.4732Z" fill="white"/>
<path d="M31.9827 38.4561H22.521C21.9963 38.4561 21.5703 38.8818 21.5703 39.4065C21.5703 39.9319 21.9963 40.3569 22.521 40.3569H31.9827C32.5073 40.3569 32.9333 39.9319 32.9333 39.4065C32.9333 38.8818 32.5073 38.4561 31.9827 38.4561Z" fill="white"/>
</g>
</g>
<defs>
<clipPath id="clip0_216_4990">
<rect width="64" height="64" fill="white" transform="translate(0.329834)"/>
</clipPath>
<clipPath id="clip1_216_4990">
<rect width="32" height="32" fill="white" transform="translate(15.3333 16.333)"/>
</clipPath>
</defs>
</svg>
