<svg width="64" height="64" viewBox="0 0 64 64" fill="none" xmlns="http://www.w3.org/2000/svg">
<g clip-path="url(#clip0_216_3109)">
<path d="M56.0098 0H8.00977C3.59149 0 0.00976562 3.58172 0.00976562 8V56C0.00976562 60.4183 3.59149 64 8.00977 64H56.0098C60.428 64 64.0098 60.4183 64.0098 56V8C64.0098 3.58172 60.428 0 56.0098 0Z" fill="black"/>
<g clip-path="url(#clip1_216_3109)">
<path d="M19.7139 21.9534C19.7139 21.2637 20.2729 20.7046 20.9626 20.7046C21.6523 20.7046 22.2114 21.2637 22.2114 21.9534C22.2114 22.6433 21.6523 23.2024 20.9626 23.2024C20.2729 23.2024 19.7139 22.6433 19.7139 21.9534ZM25.3337 23.2024C26.0234 23.2024 26.5825 22.6433 26.5825 21.9534C26.5825 21.2637 26.0234 20.7046 25.3337 20.7046C24.644 20.7046 24.0847 21.2637 24.0847 21.9534C24.0847 22.6433 24.644 23.2024 25.3337 23.2024ZM47.3428 42.3945L42.0359 47.7134L33.4089 39.3232C32.9263 38.8406 32.5579 38.2424 32.3435 37.5942L32.324 37.5354L30.989 31.5728L36.9358 32.925L36.9929 32.9441C37.6379 33.1577 38.2329 33.5239 38.7144 34.0037L47.3428 42.3945ZM43.7878 42.4214L36.9546 35.7761C36.907 35.7283 36.8567 35.6833 36.8042 35.6411L35.0391 37.405C35.0803 37.4563 35.124 37.5059 35.1704 37.5525L42.0095 44.2036L43.7878 42.4214ZM34.5671 43.9333L37.1353 46.4312H19.0894C17.0234 46.4312 15.3428 44.7505 15.3428 42.6846V20.7046C15.3428 18.6387 17.0234 16.958 19.0894 16.958H43.5671C45.6331 16.958 47.3137 18.6387 47.3137 20.7046V38.8821L44.8159 36.4531V26.949H17.8406V42.6846C17.8406 43.3733 18.4006 43.9333 19.0894 43.9333H34.5671ZM17.8406 20.7046V24.4512H44.8159V20.7046C44.8159 20.0159 44.2556 19.4558 43.5671 19.4558H19.0894C18.4006 19.4558 17.8406 20.0161 17.8406 20.7046Z" fill="white"/>
</g>
</g>
<defs>
<clipPath id="clip0_216_3109">
<rect width="64" height="64" fill="white" transform="translate(0.00976562)"/>
</clipPath>
<clipPath id="clip1_216_3109">
<rect width="32" height="32" fill="white" transform="translate(15.3428 16.333)"/>
</clipPath>
</defs>
</svg>
