<svg width="65" height="64" viewBox="0 0 65 64" fill="none" xmlns="http://www.w3.org/2000/svg">
<g clip-path="url(#clip0_216_5005)">
<path d="M56.3298 0H8.32983C3.91156 0 0.329834 3.58172 0.329834 8V56C0.329834 60.4183 3.91156 64 8.32983 64H56.3298C60.7481 64 64.3298 60.4183 64.3298 56V8C64.3298 3.58172 60.7481 0 56.3298 0Z" fill="black"/>
<g clip-path="url(#clip1_216_5005)">
<path d="M46.4376 19.8831H38.2223V16.9375C38.2223 16.4197 37.8026 16 37.2848 16H17.5625C17.0448 16 16.625 16.4197 16.625 16.9375V44.4737C16.625 44.9915 17.0448 45.4112 17.5625 45.4112H25.7779V47.0625C25.7779 47.5802 26.1976 48 26.7154 48H46.4377C46.9554 48 47.3752 47.5802 47.3752 47.0625V20.8206C47.3751 20.3029 46.9554 19.8831 46.4376 19.8831ZM31.9857 19.8831L36.3473 18.2808V19.8831H31.9857ZM18.5 43.5362V17.875H32.0144L26.3921 19.9406C26.0231 20.0762 25.7779 20.4276 25.7779 20.8206V43.5362H18.5ZM45.5001 46.125H27.6529V21.7581H45.5002V46.125H45.5001Z" fill="white"/>
<path d="M38.4517 31.1292H42.5875C43.1053 31.1292 43.525 30.7094 43.525 30.1917V26.4414C43.525 25.9237 43.1053 25.5039 42.5875 25.5039H38.4517C37.9339 25.5039 37.5142 25.9237 37.5142 26.4414V30.1917C37.5142 30.7094 37.9339 31.1292 38.4517 31.1292ZM39.3892 27.3789H41.65V29.2542H39.3892V27.3789Z" fill="white"/>
<path d="M30.5654 31.1289H34.7013C35.2191 31.1289 35.6388 30.7092 35.6388 30.1914C35.6388 29.6737 35.2191 29.2539 34.7013 29.2539H30.5654C30.0477 29.2539 29.6279 29.6737 29.6279 30.1914C29.6279 30.7092 30.0477 31.1289 30.5654 31.1289Z" fill="white"/>
<path d="M30.5654 27.3789H34.7013C35.2191 27.3789 35.6388 26.9592 35.6388 26.4414C35.6388 25.9237 35.2191 25.5039 34.7013 25.5039H30.5654C30.0477 25.5039 29.6279 25.9237 29.6279 26.4414C29.6279 26.9592 30.0477 27.3789 30.5654 27.3789Z" fill="white"/>
<path d="M30.5654 34.8789H42.5874C43.1052 34.8789 43.5249 34.4592 43.5249 33.9414C43.5249 33.4237 43.1052 33.0039 42.5874 33.0039H30.5654C30.0477 33.0039 29.6279 33.4237 29.6279 33.9414C29.6279 34.4592 30.0477 34.8789 30.5654 34.8789Z" fill="white"/>
<path d="M30.5654 38.6289H42.5874C43.1052 38.6289 43.5249 38.2092 43.5249 37.6914C43.5249 37.1737 43.1052 36.7539 42.5874 36.7539H30.5654C30.0477 36.7539 29.6279 37.1737 29.6279 37.6914C29.6279 38.2092 30.0477 38.6289 30.5654 38.6289Z" fill="white"/>
<path d="M30.5654 42.3799H42.5874C43.1052 42.3799 43.5249 41.9601 43.5249 41.4424C43.5249 40.9246 43.1052 40.5049 42.5874 40.5049H30.5654C30.0477 40.5049 29.6279 40.9246 29.6279 41.4424C29.6279 41.9601 30.0477 42.3799 30.5654 42.3799Z" fill="white"/>
</g>
</g>
<defs>
<clipPath id="clip0_216_5005">
<rect width="64" height="64" fill="white" transform="translate(0.329834)"/>
</clipPath>
<clipPath id="clip1_216_5005">
<rect width="32" height="32" fill="white" transform="translate(16 16)"/>
</clipPath>
</defs>
</svg>
