<svg width="65" height="64" viewBox="0 0 65 64" fill="none" xmlns="http://www.w3.org/2000/svg">
<g clip-path="url(#clip0_216_5015)">
<path d="M56.6699 0H8.66992C4.25164 0 0.669922 3.58172 0.669922 8V56C0.669922 60.4183 4.25164 64 8.66992 64H56.6699C61.0882 64 64.6699 60.4183 64.6699 56V8C64.6699 3.58172 61.0882 0 56.6699 0Z" fill="black"/>
<g clip-path="url(#clip1_216_5015)">
<path d="M45.521 21.083H19.146C17.5952 21.083 16.3335 22.3447 16.3335 23.8955V40.7705C16.3335 42.3213 17.5952 43.583 19.146 43.583H45.521C47.0718 43.583 48.3335 42.3213 48.3335 40.7705V23.8955C48.3335 22.3447 47.0718 21.083 45.521 21.083ZM46.4585 40.7705C46.4585 41.2874 46.0378 41.708 45.521 41.708H19.146C18.6292 41.708 18.2085 41.2874 18.2085 40.7705V23.8955C18.2085 23.3787 18.6292 22.958 19.146 22.958H45.521C46.0378 22.958 46.4585 23.3787 46.4585 23.8955V40.7705Z" fill="white"/>
<path d="M27.9961 32.0779C28.5171 31.4751 28.8335 30.6904 28.8335 29.833C28.8335 27.9375 27.2915 26.3955 25.396 26.3955C23.5005 26.3955 21.9585 27.9375 21.9585 29.833C21.9585 30.6904 22.2749 31.4751 22.7959 32.0779C21.1787 32.9895 20.0835 34.7229 20.0835 36.708V37.333C20.0835 37.8508 20.5032 38.2705 21.021 38.2705H29.771C30.2888 38.2705 30.7085 37.8508 30.7085 37.333V36.708C30.7085 34.7229 29.6133 32.9895 27.9961 32.0779ZM23.8335 29.833C23.8335 28.9714 24.5344 28.2705 25.396 28.2705C26.2576 28.2705 26.9585 28.9714 26.9585 29.833C26.9585 30.6946 26.2576 31.3955 25.396 31.3955C24.5344 31.3955 23.8335 30.6946 23.8335 29.833ZM21.9727 36.3955C22.1309 34.646 23.6057 33.2705 25.396 33.2705C27.1863 33.2705 28.6611 34.646 28.8193 36.3955H21.9727Z" fill="white"/>
<path d="M43.646 35.1455H33.646C33.1282 35.1455 32.7085 35.5652 32.7085 36.083C32.7085 36.6008 33.1282 37.0205 33.646 37.0205H43.646C44.1638 37.0205 44.5835 36.6008 44.5835 36.083C44.5835 35.5652 44.1638 35.1455 43.646 35.1455Z" fill="white"/>
<path d="M43.646 31.3955H33.646C33.1282 31.3955 32.7085 31.8152 32.7085 32.333C32.7085 32.8508 33.1282 33.2705 33.646 33.2705H43.646C44.1638 33.2705 44.5835 32.8508 44.5835 32.333C44.5835 31.8152 44.1638 31.3955 43.646 31.3955Z" fill="white"/>
<path d="M33.646 29.5205H37.396C37.9138 29.5205 38.3335 29.1008 38.3335 28.583C38.3335 28.0652 37.9138 27.6455 37.396 27.6455H33.646C33.1282 27.6455 32.7085 28.0652 32.7085 28.583C32.7085 29.1008 33.1282 29.5205 33.646 29.5205Z" fill="white"/>
</g>
</g>
<defs>
<clipPath id="clip0_216_5015">
<rect width="64" height="64" fill="white" transform="translate(0.669922)"/>
</clipPath>
<clipPath id="clip1_216_5015">
<rect width="32" height="32" fill="white" transform="translate(16.3335 16.333)"/>
</clipPath>
</defs>
</svg>
