<svg width="72" height="72" viewBox="0 0 72 72" fill="none" xmlns="http://www.w3.org/2000/svg">
<g clip-path="url(#clip0_227_1897)">
<path d="M32.9397 59.6494H24.6566C23.4915 59.6494 22.5466 60.5942 22.5466 61.7599C22.5466 62.925 23.4915 63.8698 24.6566 63.8698H32.9397C34.1048 63.8698 35.0496 62.925 35.0496 61.7599C35.0496 60.5942 34.1048 59.6494 32.9397 59.6494Z" fill="black"/>
<path d="M56.0083 18.7388H51.2688V8.1167C51.2682 3.64142 47.6274 0 43.1516 0H14.4448C9.96954 0 6.32812 3.64142 6.32812 8.1167V63.8833C6.32812 68.3586 9.96954 72 14.4448 72H43.1516C47.6274 72 51.2682 68.3586 51.2682 63.8833V45.8575H56.0083C61.3152 45.8575 65.6329 41.5399 65.6329 36.2324V28.364C65.6334 23.057 61.3152 18.7388 56.0083 18.7388ZM35.0766 4.2204V6.30725H22.5198V4.2204H35.0766ZM47.0479 63.8833C47.0479 66.0317 45.2999 67.7796 43.1516 67.7796H14.4448C12.2964 67.7796 10.5485 66.0317 10.5485 63.8833V8.1167C10.5485 5.96832 12.2964 4.2204 14.4448 4.2204H18.2994V6.47919C18.2994 8.71161 20.1154 10.5276 22.3478 10.5276H35.2491C37.481 10.5276 39.297 8.71161 39.297 6.47919V4.2204H43.1516C45.2999 4.2204 47.0479 5.96832 47.0479 8.1167V18.7388H36.3131C31.0056 18.7388 26.688 23.0565 26.688 28.364V47.0533C26.688 48.0218 27.2219 48.9007 28.0811 49.3473C28.4579 49.5434 28.8671 49.6401 29.2747 49.6401C29.7279 49.6401 30.1789 49.5203 30.581 49.2841L37.3683 45.8575H47.0479V63.8833ZM61.413 36.2324C61.413 39.213 58.9883 41.6371 56.0083 41.6371H36.9684C36.5048 41.6371 36.0571 41.7596 35.6605 41.9919L30.9084 44.3914V28.364C30.9084 25.3839 33.3331 22.9592 36.3131 22.9592H56.0083C58.9883 22.9592 61.413 25.3839 61.413 28.364V36.2324Z" fill="black"/>
<path d="M55.393 26.2803H36.9283C35.7632 26.2803 34.8184 27.2251 34.8184 28.3902C34.8184 29.5558 35.7632 30.5007 36.9283 30.5007H55.393C56.5581 30.5007 57.5029 29.5558 57.5029 28.3902C57.5029 27.2251 56.5581 26.2803 55.393 26.2803Z" fill="black"/>
<path d="M55.3931 33.4854H46.1607C44.9951 33.4854 44.0508 34.4302 44.0508 35.5953C44.0508 36.7609 44.9951 37.7057 46.1607 37.7057H55.3931C56.5582 37.7057 57.503 36.7609 57.503 35.5953C57.503 34.4302 56.5582 33.4854 55.3931 33.4854Z" fill="black"/>
</g>
<defs>
<clipPath id="clip0_227_1897">
<rect width="72" height="72" fill="white"/>
</clipPath>
</defs>
</svg>
