<svg width="40" height="40" viewBox="0 0 40 40" fill="none" xmlns="http://www.w3.org/2000/svg">
<rect width="40" height="40" rx="20" fill="white"/>
<path d="M19.9981 29.8562C14.5639 29.8562 10.1438 25.4361 10.1438 19.9981C10.1438 14.5639 14.5639 10.14 19.9981 10.14C25.4324 10.14 29.8562 14.5639 29.8562 19.9981C29.86 25.4361 25.4361 29.8562 19.9981 29.8562ZM19.9981 11.0861C15.0861 11.0861 11.0899 15.0861 11.0899 19.9981C11.0899 24.9139 15.0861 28.9101 20.0019 28.9101C24.9177 28.9101 28.9139 24.9139 28.9139 19.9981C28.9139 15.0861 24.9139 11.0861 19.9981 11.0861ZM23.8127 24.895C23.5326 24.895 23.3472 24.8004 23.1693 24.6944L23.1656 24.6906C21.1675 23.4872 18.7228 23.1996 15.6954 23.8202C15.6689 23.8278 15.6424 23.8354 15.6121 23.8429C15.4532 23.8846 15.2867 23.93 15.1391 23.93C14.5374 23.93 14.0681 23.4607 14.0681 22.859C14.0681 22.2914 14.4011 21.8789 14.9574 21.7616C18.6168 20.9517 21.7502 21.3037 24.2668 22.8098L24.2781 22.8174C24.5809 23.0104 24.8647 23.2715 24.8647 23.8392C24.8609 24.4333 24.3992 24.895 23.8127 24.895ZM23.6462 23.8808C23.7635 23.9489 23.7748 23.9489 23.8089 23.9489C23.8202 23.9489 23.9111 23.9451 23.9111 23.8392C23.9111 23.7181 23.9111 23.7105 23.7673 23.6159C21.4664 22.2422 18.5676 21.9281 15.1504 22.685C15.0255 22.7114 15.0066 22.7493 15.0066 22.859C15.0066 22.8704 15.0104 22.9801 15.1277 22.9839C15.1731 22.9801 15.2867 22.9461 15.3586 22.9271C15.3964 22.9158 15.4305 22.9082 15.4645 22.8969L15.4872 22.8931C16.9934 22.5828 18.4011 22.4882 19.6689 22.6055C21.1372 22.7493 22.4768 23.1769 23.6462 23.8808ZM24.8269 22.4125C24.5355 22.4125 24.3236 22.299 24.1873 22.2233L24.1419 22.2006L24.123 22.1892C22.9839 21.5156 21.5837 21.0501 20.0776 20.8496C18.4995 20.6376 16.9025 20.7323 15.4607 21.1258C15.4191 21.1372 15.3813 21.1485 15.3472 21.1599C15.2223 21.1977 15.0823 21.2394 14.8855 21.2394C14.2195 21.2394 13.6783 20.6982 13.6783 20.0322C13.6783 19.4115 14.0189 18.9612 14.6093 18.7947C15.5932 18.5184 16.7398 18.2611 18.439 18.2611C20.9782 18.2611 23.4418 18.8969 25.3794 20.0511C25.8146 20.3084 26.0378 20.6982 26.0378 21.2015V21.2053C26.0303 21.8827 25.5005 22.4125 24.8269 22.4125ZM24.596 21.368L24.6414 21.3907C24.7436 21.4475 24.7815 21.4664 24.8306 21.4664C24.9782 21.4664 25.088 21.3529 25.0918 21.1977C25.0918 21.0236 25.0501 20.9517 24.895 20.8609C23.1012 19.7938 20.8079 19.2034 18.439 19.2034C16.9442 19.2034 15.93 19.404 14.8666 19.6991C14.685 19.7521 14.6244 19.8316 14.6244 20.0284C14.6244 20.1722 14.7417 20.2895 14.8855 20.2895C14.9385 20.2895 14.9688 20.2819 15.0672 20.2517C15.1088 20.2403 15.158 20.2252 15.211 20.21C18.3027 19.3737 21.9849 19.8278 24.596 21.368ZM26 19.5289C25.701 19.5289 25.5005 19.4494 25.2734 19.3169L25.2658 19.3131C24.0473 18.5866 22.2876 18.0795 20.3046 17.8865C18.4049 17.701 16.4711 17.8297 15.0028 18.2384C14.9801 18.246 14.9612 18.2498 14.9385 18.2573C14.7985 18.299 14.6055 18.3557 14.386 18.3557C13.6254 18.3557 13.0312 17.754 13.0312 16.9896C13.0312 16.2025 13.5497 15.771 14.0303 15.631C15.3775 15.2375 16.9177 15.0369 18.6093 15.0369C21.6594 15.0369 24.5809 15.7181 26.6206 16.9101C27.105 17.1902 27.3434 17.6026 27.3434 18.1741C27.351 18.9234 26.7455 19.5289 26 19.5289ZM25.754 18.5033C25.8789 18.5752 25.9205 18.5866 26.0038 18.5866C26.2043 18.5866 26.4087 18.4352 26.4087 18.1779C26.4087 17.9205 26.3292 17.8297 26.1589 17.7313C24.2554 16.6225 21.508 15.9868 18.6206 15.9868C17.0199 15.9868 15.5667 16.1722 14.3065 16.543C14.1589 16.5847 13.9886 16.6982 13.9886 16.9934C13.9886 17.2356 14.1589 17.4134 14.3973 17.4134C14.4806 17.4134 14.5828 17.3832 14.6812 17.3529C14.7077 17.3453 14.7341 17.3377 14.7569 17.3302C16.3311 16.8912 18.3898 16.7512 20.403 16.948C22.5184 17.1561 24.4182 17.7048 25.754 18.5033Z" fill="black"/>
</svg>
