<svg width="73" height="72" viewBox="0 0 73 72" fill="none" xmlns="http://www.w3.org/2000/svg">
<g clip-path="url(#clip0_227_2010)">
<path d="M22.9717 49.3637C22.1482 48.5402 20.8131 48.5402 19.9896 49.3637L9.2591 60.0942C8.4356 60.9177 8.4356 62.2528 9.2591 63.0763C10.0826 63.8998 11.4177 63.8998 12.2412 63.0763L22.9717 52.3458C23.7952 51.5223 23.7952 50.1872 22.9717 49.3637Z" fill="black"/>
<path d="M64.2486 67.8989L59.8572 62.7352L63.0707 59.5216L68.2345 63.9131C68.7655 64.3646 69.4854 64.5245 70.1577 64.3404C70.8299 64.1562 71.3678 63.6518 71.5946 62.9927C72.3969 60.6607 72.5411 58.1556 72.0118 55.7479C71.4663 53.267 70.2252 51.0027 68.4224 49.1999C66.6196 47.3971 64.3551 46.1558 61.8742 45.6103C59.9082 45.1781 57.877 45.1952 55.9287 45.6525L45.7791 35.5029L59.3263 21.9556L63.6705 21.0867C64.2343 20.9741 64.7275 20.6361 65.036 20.1511L71.9944 9.21653C72.5251 8.38277 72.4053 7.29222 71.7065 6.59332L65.7421 0.629269C65.0432 -0.0696371 63.9527 -0.189309 63.1188 0.34141L52.1843 7.29982C51.6992 7.60835 51.3613 8.10152 51.2487 8.66528L50.3798 13.0095L36.8325 26.5567L26.6844 16.4087C27.7514 11.9129 26.4486 7.22641 23.1356 3.91343C19.5023 0.279816 14.2171 -0.935746 9.34286 0.741066C8.68375 0.967894 8.17918 1.50578 7.99511 2.17797C7.81103 2.8503 7.97092 3.57016 8.42247 4.10116L12.8139 9.26491L9.60048 12.4785L4.43673 8.08703C3.90573 7.63549 3.18587 7.4756 2.51354 7.65968C1.84136 7.84389 1.30347 8.34832 1.07664 9.00743C-0.600175 13.8816 0.615387 19.1667 4.249 22.8003C7.56198 26.1133 12.2483 27.4161 16.7442 26.3492L26.8923 36.4972L24.6035 38.786L21.1243 35.3068C20.3008 34.4833 18.9657 34.4833 18.1422 35.3068C17.3187 36.1303 17.3187 37.4654 18.1422 38.2889L18.6392 38.7859L3.43534 53.9896C-0.67555 58.1005 -0.67555 64.7893 3.43534 68.9003C7.54623 73.0112 14.2351 73.0112 18.3461 68.9003L33.5498 53.6966L34.0467 54.1936C34.8702 55.0171 36.2053 55.0171 37.0288 54.1936C37.8523 53.3701 37.8523 52.035 37.0288 51.2115L33.5496 47.7323L35.8384 45.4435L45.9865 55.5916C44.9196 60.0873 46.2223 64.7738 49.5353 68.0868C53.1688 71.7203 58.4539 72.9358 63.3279 71.2592C63.9872 71.0325 64.4916 70.4946 64.676 69.8223C64.8602 69.1498 64.7002 68.4299 64.2486 67.8989ZM18.8469 22.4875C18.2769 21.9175 17.432 21.7225 16.67 21.9844C13.3322 23.1325 9.71551 22.3024 7.23109 19.818C5.56806 18.1549 4.64612 15.9847 4.56273 13.7303L8.35004 16.9512C9.18704 17.6629 10.4303 17.6127 11.2071 16.8359L17.1714 10.8715C17.9484 10.0946 17.9985 8.85147 17.2868 8.01447L14.066 4.2273C16.3204 4.31069 18.4905 5.23235 20.1535 6.89552C22.638 9.37994 23.4681 12.9967 22.32 16.3344C22.0579 17.0965 22.2531 17.9413 22.823 18.5113L33.8504 29.5387L29.8742 33.5148L18.8469 22.4875ZM15.3639 65.9181C12.8973 68.3846 8.884 68.3846 6.41743 65.9181C3.95087 63.4515 3.95087 59.4382 6.41743 56.9717L21.6211 41.768L30.5675 50.7144L15.3639 65.9181ZM27.5854 41.768L53.8134 15.54C54.1077 15.2457 54.3084 14.8706 54.39 14.4626L55.2076 10.3747L63.9558 4.80752L67.528 8.37967L61.9608 17.128L57.873 17.9456C57.4647 18.0273 57.0898 18.2278 56.7955 18.5221L30.5675 44.7501L27.5854 41.768ZM52.5175 65.1046C50.0331 62.6201 49.203 59.0034 50.3511 55.6657C50.6132 54.9036 50.418 54.0588 49.8481 53.4888L38.8207 42.4614L42.7968 38.4852L53.8242 49.5126C54.3942 50.0826 55.2391 50.2776 56.0014 50.0156C59.3388 48.8674 62.9556 49.6977 65.4401 52.1821C67.1032 53.8451 68.025 56.0153 68.1082 58.2696L64.3209 55.0489C63.4839 54.3372 62.2406 54.3874 61.4638 55.1642L55.4995 61.1285C54.7225 61.9055 54.6725 63.1486 55.3842 63.9856L58.6051 67.7728C56.3507 67.6894 54.1804 66.7676 52.5175 65.1046Z" fill="black"/>
</g>
<defs>
<clipPath id="clip0_227_2010">
<rect width="72" height="72" fill="white" transform="translate(0.330078)"/>
</clipPath>
</defs>
</svg>
