<svg width="40" height="40" viewBox="0 0 40 40" fill="none" xmlns="http://www.w3.org/2000/svg">
<rect width="40" height="40" rx="20" fill="white"/>
<path d="M22.3472 29.8222C22.4055 29.8444 23.4583 29.8222 23.925 29.8222C24.3917 29.8222 27.6444 30.1 28.5305 29.8611C29.4167 29.6222 29.7611 28.9583 29.9 28.0722C30.1361 26.55 29.8833 25.1111 29.875 23.5694C29.8583 20.4333 30.0055 17.2639 29.8417 14.125C29.7944 13.1833 30.1361 11.9444 29.5861 11.0694C29.3528 10.7278 29.2583 10.4889 28.8889 10.2778C28.4707 10.2212 28.0497 10.1887 27.6278 10.1805C28.1028 10.2 24.7861 10.1139 23.8889 10.0722C22.7055 10.0167 21.5305 10.1278 20.3444 10.1583C18.9861 10.1944 17.6305 9.9611 16.2722 10.0222C14.6333 10.0944 13.2167 9.83333 11.5889 10.2083C9.89999 10.5972 10.2055 12.7944 10.1583 14.0528C10.0667 16.5361 10.0528 23.2194 10.0805 24.975C10.0972 26.0861 9.90277 26.9194 10.0639 27.9889C10.3555 29.9333 11.9444 30 13.6111 30C15.775 30 17.6861 29.7222 19.8444 29.8611C20.1697 29.867 20.4949 29.8456 20.8167 29.7972C21.0331 29.811 21.2502 29.811 21.4667 29.7972M19.3555 28.8583C18.0345 28.7667 16.7084 28.7769 15.3889 28.8889C14.4722 28.9889 13.4889 28.8889 12.5667 28.8889C10.8333 28.8889 11.1555 27.0167 11.2055 25.8611C11.2944 23.7722 11.2055 17.0611 11.2417 15.0917C11.2639 13.7694 10.6694 11.1111 12.9833 10.975C13.6417 10.9417 14.2555 11.0722 14.8194 11.0444C15.6528 11 16.2972 11.1083 17.15 11.1222C19.0944 11.1528 20.9528 11.25 22.8861 11.1472C23.6805 11.1055 24.4694 11.225 25.2667 11.1472C25.5444 11.125 27.1222 11.2555 27.2722 11.2333C28.2861 11.0778 28.8417 11.8389 28.7778 12.5C28.8528 13.4639 28.7583 14.4611 28.8083 15.4333C28.9305 17.7833 28.7333 20.1972 28.7583 22.5583C28.7583 23.7778 28.7583 24.7222 28.7861 25.9417C28.7861 26.4472 28.8278 26.95 28.8361 27.4555C28.8528 28.6028 28.2805 28.7139 27.3528 28.7472C26.5352 28.825 25.712 28.825 24.8944 28.7472C24.2833 28.6528 23.6194 28.8611 22.9805 28.9028L19.3555 28.8583Z" fill="black"/>
<path d="M22.5333 18.6111C22.5333 19.8722 22.5694 21.1333 22.5333 22.3917C22.5667 25.6639 18.4528 27.6694 15.9 25.6194C13.1222 23.7722 13.9083 19.1417 17.1111 18.2528C17.5722 18.1667 18.6167 17.7389 18.7361 18.4333C18.5528 19.1194 19.1667 20.5389 18.3333 20.8055C17.972 20.8157 17.6279 20.9623 17.3702 21.2159C17.1126 21.4694 16.9604 21.8111 16.9444 22.1722C16.8389 24.0944 19.8833 24.1167 19.8028 22.1722C20.0639 20.8194 19.2055 13.6833 20.2611 13.6222C20.9305 13.8055 22.3778 13.1861 22.5583 14.0583C22.5754 14.6847 22.8331 15.2804 23.278 15.7217C23.7229 16.163 24.3207 16.4159 24.9472 16.4278C25.8028 16.6583 25.1972 18.0722 25.3694 18.7555C25.0167 19.7861 23.2528 18.8583 22.5333 18.6111ZM24.5972 18.4722C24.5472 18.0278 24.6972 17.525 24.5305 17.175C23.8339 17.0744 23.1895 16.7483 22.6958 16.2467C22.2022 15.745 21.8865 15.0953 21.7972 14.3972H20.5305C20.0028 17.0778 22.3417 25.3694 17.625 24.2944C15.5861 23.6305 15.7778 20.5139 17.8778 20.1111C18.1167 19.8333 17.9194 19.2194 17.9639 18.8305C12.3389 19.6861 15.525 28.1222 20.3167 25.0528C22.8889 23.3861 21.15 19.8805 21.9833 17.5917C22.8472 17.6778 23.6111 18.4611 24.5972 18.4611V18.4722Z" fill="black"/>
</svg>
