<svg width="131" height="32" viewBox="0 0 131 32" fill="none" xmlns="http://www.w3.org/2000/svg">
<path d="M34.2593 11.3401H47.446V13.7949H42.2538V27.6334H39.4079V13.7949H34.2375L34.2593 11.3401ZM46.8811 15.837H49.3143V18.1181H49.3577C49.4446 17.7922 49.5967 17.4881 49.8139 17.1839C50.0312 16.8798 50.2919 16.5974 50.6177 16.3584C50.9219 16.0977 51.2695 15.9022 51.6605 15.7501C52.0298 15.5981 52.4209 15.5112 52.8119 15.5112C53.116 15.5112 53.3333 15.5329 53.4419 15.5329C53.5505 15.5546 53.6809 15.5763 53.7895 15.5763V18.0746C53.6157 18.0312 53.4202 18.0095 53.2247 17.9877C53.0291 17.966 52.8553 17.9443 52.6598 17.9443C52.2253 17.9443 51.8126 18.0312 51.4215 18.205C51.0305 18.3788 50.7046 18.6395 50.4005 18.9653C50.1181 19.3129 49.8791 19.7257 49.7053 20.2254C49.5315 20.725 49.4446 21.3116 49.4446 21.9633V27.5682H46.8377L46.8811 15.837ZM65.7379 27.6334H63.1744V25.9823H63.131C62.8051 26.5906 62.3272 27.0468 61.6972 27.4161C61.0672 27.7854 60.4154 27.9592 59.7637 27.9592C58.2213 27.9592 57.0916 27.5899 56.3964 26.8078C55.7012 26.0475 55.3536 24.8744 55.3536 23.3319V15.837H57.9606V23.0713C57.9606 24.114 58.1561 24.8526 58.5688 25.2654C58.9599 25.6999 59.5247 25.9171 60.2416 25.9171C60.7847 25.9171 61.2409 25.8302 61.6103 25.6565C61.9796 25.4827 62.2837 25.2654 62.501 24.983C62.7399 24.7006 62.892 24.353 63.0006 23.9619C63.1092 23.5709 63.1527 23.1364 63.1527 22.6802V15.837H65.7596V27.6334H65.7379ZM70.1697 23.8533C70.2566 24.6137 70.539 25.1351 71.0386 25.4609C71.5383 25.7651 72.1466 25.9171 72.8418 25.9171C73.0807 25.9171 73.3631 25.8954 73.6673 25.852C73.9714 25.8085 74.2756 25.7433 74.5363 25.6347C74.8187 25.5261 75.0359 25.374 75.2097 25.1568C75.3835 24.9395 75.4704 24.6789 75.4487 24.353C75.427 24.0271 75.3183 23.7447 75.0794 23.5275C74.8404 23.3102 74.558 23.1581 74.2104 23.0061C73.8628 22.8757 73.45 22.7671 72.9938 22.6802C72.5376 22.5933 72.0814 22.4847 71.6035 22.3761C71.1255 22.2674 70.6476 22.1371 70.1914 21.985C69.7352 21.833 69.3441 21.6374 68.9748 21.355C68.6272 21.0943 68.3231 20.7685 68.1276 20.3557C67.9103 19.9429 67.8017 19.465 67.8017 18.8567C67.8017 18.205 67.9538 17.6836 68.2796 17.2491C68.5838 16.8146 68.9965 16.467 69.4745 16.2063C69.9524 15.9457 70.4955 15.7501 71.0821 15.6415C71.6686 15.5329 72.2335 15.4894 72.7549 15.4894C73.3631 15.4894 73.9497 15.5546 74.4928 15.685C75.0359 15.8153 75.5573 16.0108 75.9918 16.315C76.448 16.5974 76.8173 16.9884 77.0997 17.4446C77.4039 17.9008 77.5777 18.4657 77.6646 19.1174H74.949C74.8187 18.4874 74.5363 18.0746 74.1018 17.8574C73.6456 17.6402 73.1459 17.5315 72.5593 17.5315C72.3855 17.5315 72.1466 17.5533 71.9076 17.575C71.6469 17.6184 71.4297 17.6619 71.1907 17.7488C70.9735 17.8357 70.7779 17.966 70.6259 18.1181C70.4738 18.2702 70.3869 18.4874 70.3869 18.7481C70.3869 19.074 70.4955 19.3129 70.7128 19.5084C70.93 19.704 71.2124 19.856 71.5817 20.0081C71.9293 20.1385 72.3421 20.2471 72.7983 20.334C73.2545 20.4209 73.7325 20.5295 74.2104 20.6381C74.6883 20.7467 75.1445 20.8771 75.6008 21.0292C76.057 21.1812 76.4697 21.3767 76.8173 21.6592C77.1649 21.9199 77.4691 22.2457 77.6863 22.6368C77.9035 23.0278 78.0122 23.5275 78.0122 24.0923C78.0122 24.7875 77.8601 25.374 77.5342 25.8737C77.2084 26.3516 76.7956 26.7644 76.2959 27.0685C75.7963 27.3727 75.2097 27.5899 74.6014 27.742C73.9714 27.8723 73.3631 27.9592 72.7549 27.9592C72.0162 27.9592 71.3211 27.8723 70.691 27.6985C70.061 27.5247 69.4962 27.2641 69.04 26.9382C68.5838 26.5906 68.2145 26.1778 67.9538 25.6565C67.6931 25.1568 67.541 24.5485 67.5193 23.8316H70.1479V23.8533H70.1697ZM78.7508 15.837H80.7277V12.2742H83.3346V15.8153H85.6809V17.7488H83.3346V24.0488C83.3346 24.3313 83.3564 24.5485 83.3781 24.7657C83.3998 24.9613 83.465 25.1351 83.5302 25.2654C83.6171 25.3958 83.7474 25.5044 83.8995 25.5696C84.0733 25.6347 84.2905 25.6782 84.5946 25.6782C84.7684 25.6782 84.964 25.6782 85.1378 25.6565C85.3116 25.6347 85.5071 25.613 85.6809 25.5696V27.5899C85.3984 27.6334 85.116 27.6551 84.8336 27.6768C84.5512 27.7203 84.2905 27.7203 83.9864 27.7203C83.2912 27.7203 82.7481 27.6551 82.3353 27.5247C81.9226 27.3944 81.5967 27.1989 81.3577 26.9599C81.1187 26.6992 80.9667 26.3951 80.8798 26.0258C80.7929 25.6564 80.7494 25.2002 80.7277 24.7223V17.7705H78.7508V15.7936V15.837ZM87.5057 15.837H89.9606V17.4446H90.004C90.3733 16.7495 90.873 16.2715 91.5247 15.9674C92.1765 15.6632 92.8716 15.5112 93.6537 15.5112C94.5879 15.5112 95.3917 15.6632 96.0868 16.0108C96.782 16.3367 97.3469 16.7712 97.8031 17.3577C98.2593 17.9226 98.6069 18.596 98.8241 19.3564C99.0414 20.1167 99.1717 20.9423 99.1717 21.7895C99.1717 22.5933 99.0631 23.3537 98.8676 24.0923C98.6503 24.8309 98.3462 25.5044 97.9334 26.0692C97.5206 26.634 96.9993 27.0903 96.3475 27.4378C95.6958 27.7854 94.9572 27.9592 94.0882 27.9592C93.7189 27.9592 93.3278 27.9158 92.9585 27.8506C92.5892 27.7854 92.2199 27.6768 91.8723 27.5247C91.5247 27.3727 91.1989 27.1772 90.9164 26.9382C90.6123 26.6992 90.3733 26.4168 90.1778 26.1127H90.1344V32H87.5274V15.837H87.5057ZM96.6082 21.7461C96.6082 21.2247 96.5431 20.7033 96.391 20.2036C96.2606 19.704 96.0434 19.2695 95.761 18.8784C95.4786 18.4874 95.131 18.1833 94.7399 17.9443C94.3272 17.7053 93.8492 17.5967 93.3278 17.5967C92.2416 17.5967 91.4161 17.966 90.8513 18.7264C90.3082 19.4867 90.0257 20.5078 90.0257 21.7678C90.0257 22.3761 90.0909 22.9192 90.243 23.4188C90.3951 23.9185 90.5906 24.353 90.8947 24.7223C91.1771 25.0916 91.5247 25.374 91.9375 25.5913C92.3503 25.8085 92.8065 25.9171 93.3496 25.9171C93.9579 25.9171 94.4358 25.7868 94.8486 25.5478C95.2613 25.3089 95.5872 24.983 95.8696 24.6137C96.1303 24.2226 96.3258 23.7882 96.4344 23.2885C96.5431 22.7671 96.6082 22.2674 96.6082 21.7461ZM101.192 11.3401H103.799V13.7949H101.192V11.3401ZM101.192 15.837H103.799V27.6334H101.192V15.837ZM106.124 11.3401H108.73V27.6334H106.124V11.3401ZM116.682 27.9592C115.747 27.9592 114.9 27.8072 114.162 27.4813C113.423 27.1554 112.815 26.7427 112.293 26.1996C111.794 25.6565 111.403 24.983 111.142 24.2226C110.881 23.4623 110.729 22.615 110.729 21.7243C110.729 20.8336 110.859 20.0081 111.142 19.2478C111.403 18.4874 111.794 17.8357 112.293 17.2708C112.793 16.7277 113.423 16.2932 114.162 15.9891C114.9 15.685 115.747 15.5112 116.682 15.5112C117.616 15.5112 118.463 15.6632 119.202 15.9891C119.94 16.2932 120.548 16.7277 121.07 17.2708C121.57 17.8139 121.961 18.4874 122.221 19.2478C122.482 20.0081 122.634 20.8336 122.634 21.7243C122.634 22.6368 122.504 23.4623 122.221 24.2226C121.939 24.983 121.57 25.6347 121.07 26.1996C120.57 26.7427 119.94 27.1772 119.202 27.4813C118.463 27.7854 117.637 27.9592 116.682 27.9592ZM116.682 25.8954C117.246 25.8954 117.768 25.7651 118.181 25.5261C118.615 25.2871 118.941 24.9613 119.223 24.5702C119.506 24.1792 119.701 23.723 119.832 23.245C119.962 22.7454 120.027 22.2457 120.027 21.7243C120.027 21.2247 119.962 20.725 119.832 20.2254C119.701 19.7257 119.506 19.2912 119.223 18.9002C118.941 18.5091 118.593 18.205 118.181 17.966C117.746 17.7271 117.246 17.5967 116.682 17.5967C116.117 17.5967 115.595 17.7271 115.183 17.966C114.748 18.205 114.422 18.5309 114.14 18.9002C113.857 19.2912 113.662 19.7257 113.532 20.2254C113.401 20.725 113.336 21.2247 113.336 21.7243C113.336 22.2457 113.401 22.7454 113.532 23.245C113.662 23.7447 113.857 24.1792 114.14 24.5702C114.422 24.9613 114.77 25.2871 115.183 25.5261C115.617 25.7868 116.117 25.8954 116.682 25.8954ZM123.416 15.837H125.393V12.2742H128V15.8153H130.346V17.7488H128V24.0488C128 24.3313 128.022 24.5485 128.043 24.7657C128.065 24.9613 128.13 25.1351 128.195 25.2654C128.282 25.3958 128.413 25.5044 128.565 25.5696C128.739 25.6347 128.956 25.6782 129.26 25.6782C129.434 25.6782 129.629 25.6782 129.803 25.6565C129.977 25.6347 130.172 25.613 130.346 25.5696V27.5899C130.064 27.6334 129.781 27.6551 129.499 27.6768C129.217 27.7203 128.956 27.7203 128.652 27.7203C127.957 27.7203 127.413 27.6551 127.001 27.5247C126.588 27.3944 126.262 27.1989 126.023 26.9599C125.784 26.6992 125.632 26.3951 125.545 26.0258C125.458 25.6564 125.415 25.2002 125.393 24.7223V17.7705H123.416V15.7936V15.837Z" fill="black"/>
<path d="M31.2179 11.3401H19.2912L15.6198 0L11.9267 11.3401L0 11.3184L9.64562 18.3354L5.95248 29.6755L15.5981 22.6585L25.2437 29.6755L21.5723 18.3354L31.2179 11.3401Z" fill="#00B67A"/>
<path d="M22.3978 20.8988L21.5722 18.3353L15.6198 22.6585L22.3978 20.8988Z" fill="#005128"/>
</svg>
