<svg width="40" height="40" viewBox="0 0 40 40" fill="none" xmlns="http://www.w3.org/2000/svg">
<rect width="40" height="40" rx="20" fill="black"/>
<path d="M23.9528 19.3333C22.1 18.1306 19.8944 16.9778 17.9361 15.9139C17.7972 15.8389 17.7833 15.8278 17.6583 15.8611C17.3972 15.8778 17.2722 16.0556 17.2722 16.3944V23.4778C17.2722 23.9167 17.5639 24.0861 17.8889 23.9861C17.9833 23.9861 18.025 23.9611 18.1306 23.8861C19.0583 23.2389 20.0417 22.7444 20.9972 22.1444C21.8833 21.5889 22.6056 20.7333 23.5778 20.3333C23.6148 20.318 23.6494 20.2974 23.6806 20.2722C24.0306 20.1639 24.3556 19.5972 23.9528 19.3333ZM20.8333 20.9833C20 21.5389 19.225 21.9972 18.3917 22.5194V17.2583C19.7806 17.9583 21.4472 18.9639 22.8056 19.5944C22.1305 20 21.4917 20.5306 20.8333 20.9833Z" fill="white"/>
<path d="M29.7389 16.1778C29.4278 14.5889 28.5306 13.7444 27.0139 13.5861C26.9478 13.5392 26.8726 13.5068 26.7931 13.491C26.7137 13.4752 26.6318 13.4764 26.5528 13.4944L26.4667 13.5111C26.4667 13.5111 22.9306 13.4556 21.8417 13.4306C19.6917 13.3833 17.5778 13.4306 15.4306 13.4139C13.9944 13.4139 12.6528 13.0389 11.4083 13.9472C10.5278 14.5861 10.1972 15.7639 10.0861 16.7972C9.94167 18.1528 10.025 19.5194 10 20.8778C10 22.4139 10 24.0472 10.9139 25.3472C11.7056 26.4583 13.1361 26.5667 14.3667 26.5361C16.4611 26.4889 23.7583 26.6556 24.4194 26.5917C25.5028 26.4889 26.3361 26.7861 27.4111 26.6111C29.1306 26.3333 29.5833 24.9444 29.7389 23.3667C29.9667 21.0389 30.1889 18.4972 29.7389 16.1778ZM28.6278 23.3667C28.5306 24.2 28.4556 25.1472 27.5167 25.4667C26.8472 25.6917 26.2083 25.4889 25.5139 25.4667C24.7306 25.4444 20.9583 25.4472 20.7917 25.4667C19.2677 25.6 17.7351 25.6 16.2111 25.4667C14.0583 25.325 12.7694 26.0222 11.7056 24.5278C10.8333 23.3333 11.1111 21.3889 11.1306 20C11.1306 19.025 11.0917 18.0556 11.1667 17.0861C11.2528 15.975 11.6139 14.8417 12.7889 14.5111C13.5139 14.3083 14.4556 14.5111 15.1806 14.5111C16.0444 14.5333 16.6361 14.5417 17.5 14.5111C19.1222 14.4361 20.7056 14.5111 22.3361 14.5556C23.1694 14.575 23.9833 14.5972 24.8083 14.6028C25.4139 14.6028 26.575 14.7083 26.675 14.6722C28.8972 14.7611 28.7528 16.9889 28.7944 18.7194C28.8477 20.2705 28.792 21.8234 28.6278 23.3667Z" fill="white"/>
</svg>
